<?xml version="1.0" encoding="utf-8"?>
<!-- Generator: Adobe Illustrator 19.1.0, SVG Export Plug-In . SVG Version: 6.00 Build 0)  -->
<svg version="1.1" id="Ebene_1" xmlns="http://www.w3.org/2000/svg" xmlns:xlink="http://www.w3.org/1999/xlink" x="0px" y="0px"
	 viewBox="0 0 342.3 214" style="enable-background:new 0 0 342.3 214;" xml:space="preserve">
<style type="text/css">
	.st0{opacity:0.96;fill:url(#SVGID_1_);}
	.st1{fill:#D7ECF5;}
	.st2{clip-path:url(#SVGID_3_);}
	.st3{opacity:0.4;fill:url(#SVGID_6_);}
	.st4{clip-path:url(#SVGID_8_);}
	.st5{clip-path:url(#SVGID_10_);}
	.st6{fill:#F7EDE1;}
	.st7{fill:#006BB6;}
	.st8{fill:none;stroke:#006BB6;stroke-width:3;stroke-miterlimit:10;}
	.st9{opacity:0.9;fill:#FFFFFF;}
	.st10{fill:none;stroke:#989898;stroke-width:0.7068;stroke-miterlimit:10;stroke-dasharray:3.0116,3.0116;}
	.st11{fill:#074487;}
	.st12{fill:#CBCBCB;}
	.st13{fill:#0B24FA;}
	.st14{fill:#2CFFFD;}
	.st15{fill:#33ABE0;}
	.st16{clip-path:url(#SVGID_12_);}
	.st17{clip-path:url(#SVGID_14_);}
	.st18{clip-path:url(#SVGID_16_);}
	.st19{clip-path:url(#SVGID_18_);}
	.st20{clip-path:url(#SVGID_22_);}
	.st21{clip-path:url(#SVGID_26_);}
	.st22{clip-path:url(#SVGID_30_);}
	.st23{clip-path:url(#SVGID_34_);}
	.st24{fill:#FFFFFF;}
	.st25{fill:#0000FF;}
	.st26{fill:none;}
	.st27{fill:#333333;}
	.st28{fill:#4D4D4D;}
	.st29{clip-path:url(#SVGID_38_);}
	.st30{fill:#E6E6E6;}
	.st31{clip-path:url(#SVGID_42_);}
	.st32{clip-path:url(#SVGID_46_);}
	.st33{fill:#B3B3B3;}
	.st34{fill:#006BB5;}
	.st35{fill:#B0B0B0;}
	.st36{fill:#666666;}
	.st37{fill:#BF5E00;}
	.st38{fill:#21B573;}
	.st39{fill:#D6DEDE;}
	.st40{fill:#2E73BA;}
	.st41{fill:#52B594;}
	.st42{clip-path:url(#SVGID_50_);}
	.st43{fill:#00CCAB;}
	.st44{fill:#CCF5ED;}
	.st45{fill:#7894F2;}
	.st46{fill:#009CCC;}
	.st47{fill:#008C8C;}
	.st48{fill:#1CB85C;}
	.st49{fill:#FF9600;}
	.st50{fill:#F7C70A;}
	.st51{fill:#FF6E24;}
	.st52{fill:#66A6D4;}
	.st53{fill:#999999;}
	.st54{fill:#303030;}
	.st55{fill:#F5F5F5;}
	.st56{fill:#BFBFBF;}
	.st57{clip-path:url(#SVGID_54_);}
	.st58{fill:#2E3091;}
	.st59{fill:#BDBDBD;}
	.st60{clip-path:url(#SVGID_58_);}
	.st61{fill:none;stroke:#9E9E9E;stroke-miterlimit:10;}
	.st62{fill:#2E3192;}
	.st63{fill:#D3D3D3;}
	.st64{fill:none;stroke:#B3B3B3;stroke-miterlimit:10;}
	.st65{fill:#DC052B;}
	.st66{clip-path:url(#SVGID_62_);fill:#FFFFFF;}
	.st67{clip-path:url(#SVGID_64_);fill:#FFFFFF;}
	.st68{clip-path:url(#SVGID_66_);fill:#FFFFFF;}
	.st69{clip-path:url(#SVGID_68_);fill:#FFFFFF;}
	.st70{clip-path:url(#SVGID_70_);fill:#FFFFFF;}
	.st71{clip-path:url(#SVGID_72_);fill:#040603;}
	.st72{fill:#040603;}
	.st73{clip-path:url(#SVGID_74_);fill:#040603;}
	.st74{clip-path:url(#SVGID_76_);fill:#040603;}
	.st75{clip-path:url(#SVGID_78_);fill:#040603;}
	.st76{fill:#00428A;}
	.st77{clip-path:url(#SVGID_80_);fill:#113578;}
	.st78{fill:#113578;}
	.st79{clip-path:url(#SVGID_82_);fill:#113578;}
	.st80{clip-path:url(#SVGID_84_);fill:#113578;}
	.st81{clip-path:url(#SVGID_86_);fill:#113578;}
	.st82{clip-path:url(#SVGID_86_);fill:#FFFFFF;}
	.st83{clip-path:url(#SVGID_88_);fill:#FFFFFF;}
	.st84{clip-path:url(#SVGID_90_);}
	.st85{clip-path:url(#SVGID_92_);fill:#00428A;}
	.st86{clip-path:url(#SVGID_92_);fill:#29ABE3;}
	.st87{clip-path:url(#SVGID_94_);}
	.st88{clip-path:url(#SVGID_98_);fill:#00428A;}
	.st89{clip-path:url(#SVGID_98_);fill:#29ABE3;}
	.st90{clip-path:url(#SVGID_100_);}
	.st91{opacity:0.5;clip-path:url(#SVGID_104_);}
	.st92{clip-path:url(#SVGID_108_);fill:#DB0030;}
	.st93{clip-path:url(#SVGID_110_);fill:#DB0030;}
	.st94{clip-path:url(#SVGID_112_);}
	.st95{clip-path:url(#SVGID_116_);fill:#00428A;}
	.st96{clip-path:url(#SVGID_116_);fill:#29ABE3;}
	.st97{opacity:0.5;clip-path:url(#SVGID_116_);}
	.st98{clip-path:url(#SVGID_118_);fill:#DB0030;}
	.st99{clip-path:url(#SVGID_120_);}
	.st100{clip-path:url(#SVGID_124_);fill:#00428A;}
	.st101{clip-path:url(#SVGID_124_);fill:#29ABE3;}
	.st102{opacity:0.5;clip-path:url(#SVGID_124_);}
	.st103{clip-path:url(#SVGID_126_);fill:#DB0030;}
	.st104{clip-path:url(#SVGID_128_);}
	.st105{clip-path:url(#SVGID_130_);}
	.st106{clip-path:url(#SVGID_134_);fill:#004289;}
	.st107{clip-path:url(#SVGID_134_);fill:#29AAE2;}
	.st108{opacity:0.5;clip-path:url(#SVGID_134_);}
	.st109{clip-path:url(#SVGID_136_);fill:#DA0030;}
	.st110{clip-path:url(#SVGID_138_);}
	.st111{clip-path:url(#SVGID_142_);}
	.st112{clip-path:url(#SVGID_146_);fill:#004289;}
	.st113{clip-path:url(#SVGID_146_);fill:#29AAE2;}
	.st114{opacity:0.5;clip-path:url(#SVGID_146_);}
	.st115{clip-path:url(#SVGID_148_);fill:#DA0030;}
	.st116{clip-path:url(#SVGID_146_);}
	.st117{clip-path:url(#SVGID_150_);}
	.st118{clip-path:url(#SVGID_152_);fill:#DA0030;}
	.st119{clip-path:url(#SVGID_154_);fill:#29ABE3;}
	.st120{clip-path:url(#SVGID_154_);fill:#00428A;}
	.st121{fill:#5A5A5A;}
	.st122{fill:#0069B8;}
	.st123{fill:none;stroke:#989898;stroke-miterlimit:10;}
	.st124{clip-path:url(#SVGID_156_);}
	.st125{clip-path:url(#SVGID_160_);}
	.st126{clip-path:url(#SVGID_162_);}
	.st127{clip-path:url(#SVGID_164_);}
	.st128{fill:none;stroke:#CBCBCB;stroke-width:2;stroke-miterlimit:10;}
	.st129{fill:#989898;}
	.st130{clip-path:url(#SVGID_168_);}
	.st131{fill:none;stroke:#B2B2B2;stroke-miterlimit:10;}
	.st132{fill:#D6DCDC;}
	.st133{fill-rule:evenodd;clip-rule:evenodd;fill:#0069B8;}
	.st134{fill-rule:evenodd;clip-rule:evenodd;fill:#FFFFFF;}
	.st135{fill-rule:evenodd;clip-rule:evenodd;fill:none;stroke:#B2B2B2;stroke-miterlimit:10;}
	.st136{fill:#D4DCDC;}
	.st137{opacity:0.5;}
	.st138{clip-path:url(#SVGID_170_);}
	.st139{fill:none;stroke:#4D4D4D;stroke-width:2;stroke-miterlimit:10;}
	.st140{fill-rule:evenodd;clip-rule:evenodd;fill:none;stroke:#4D4D4D;stroke-width:2;stroke-miterlimit:10;}
	.st141{fill:none;stroke:#333333;stroke-width:2;stroke-miterlimit:10;}
	.st142{fill:none;stroke:#A1A1A1;stroke-width:3;stroke-miterlimit:10;}
	.st143{clip-path:url(#SVGID_172_);}
	.st144{clip-path:url(#SVGID_174_);}
	.st145{fill:url(#SVGID_175_);}
	.st146{fill:url(#SVGID_176_);}
	.st147{fill:#F4F4F4;}
	.st148{fill:#DFDFDF;}
	.st149{clip-path:url(#SVGID_178_);}
	.st150{clip-path:url(#SVGID_180_);}
	.st151{opacity:0.38;fill:#FFFFFF;}
	.st152{fill:none;stroke:#FFFFFF;stroke-miterlimit:10;stroke-dasharray:4,4;}
	.st153{fill:#004288;}
	.st154{fill:#FAFAFA;}
	.st155{fill:#7AE2DF;}
	.st156{fill:#29A9E1;}
	.st157{fill:none;stroke:#004288;stroke-width:2;stroke-miterlimit:10;}
	.st158{fill:none;stroke:#004288;stroke-width:3;stroke-miterlimit:10;}
	.st159{clip-path:url(#SVGID_182_);}
	.st160{clip-path:url(#SVGID_184_);}
	.st161{opacity:4.000000e-02;}
	.st162{fill:url(#SVGID_185_);}
	.st163{fill:url(#SVGID_186_);}
	.st164{fill:none;stroke:#D6DCDC;stroke-width:2;stroke-miterlimit:10;}
	.st165{fill:#AEAEAE;}
	.st166{fill:none;stroke:#0069B8;stroke-width:2;stroke-miterlimit:10;}
	.st167{fill:#FF5039;}
	.st168{fill:#00CCAA;}
	.st169{fill:url(#SVGID_187_);}
	.st170{fill:url(#SVGID_188_);}
	.st171{fill:none;stroke:#0069B8;stroke-miterlimit:10;}
	.st172{fill:#207DC1;}
	.st173{fill:#98E2FF;}
	.st174{opacity:0.4;fill:#CBCBCB;}
	.st175{fill:#FFE774;}
	.st176{fill:#FCD0F1;}
	.st177{fill:none;stroke:#ABA792;stroke-miterlimit:10;}
	.st178{fill:#ABA792;}
	.st179{fill:none;stroke:#FFE774;stroke-miterlimit:10;}
	.st180{fill:none;stroke:#98E2FF;stroke-miterlimit:10;}
	.st181{fill:none;stroke:#FCD0F1;stroke-miterlimit:10;}
	.st182{fill:#7993F2;}
	.st183{fill:#009BCC;}
	.st184{fill:#10B571;}
	.st185{opacity:0.6;fill:url(#SVGID_189_);}
	.st186{fill:none;stroke:#4D4D4D;stroke-miterlimit:10;stroke-dasharray:3,3;}
	.st187{fill:none;stroke:#FFFFFF;stroke-miterlimit:10;}
	.st188{opacity:0.2;fill:none;stroke:#0069B8;stroke-width:2;stroke-miterlimit:10;}
	.st189{fill-rule:evenodd;clip-rule:evenodd;fill:#D6DCDC;}
	.st190{fill:none;stroke:#207DC1;stroke-width:2;stroke-miterlimit:10;}
	.st191{fill:#E5E5E5;}
	.st192{fill:#EAEAE8;}
	.st193{fill:#FF6166;}
	.st194{fill:#FFC43E;}
	.st195{fill:#4FAA5D;}
	.st196{fill:none;stroke:#0069B8;stroke-width:3;stroke-miterlimit:10;}
	.st197{fill:none;stroke:#48C89F;stroke-width:2;stroke-miterlimit:10;}
	.st198{opacity:0.69;}
	.st199{fill:#F9F9F9;}
	.st200{fill:none;stroke:#E5E5E5;stroke-miterlimit:10;stroke-dasharray:1;}
	.st201{fill:none;stroke:#ABA792;stroke-miterlimit:10;stroke-dasharray:1;}
	.st202{opacity:0.79;}
	.st203{fill:url(#SVGID_190_);}
	.st204{fill:#F5655A;}
	.st205{opacity:0.79;fill:none;stroke:url(#SVGID_191_);stroke-miterlimit:10;stroke-dasharray:1;}
	.st206{fill:none;stroke:#F5655A;stroke-width:2;stroke-miterlimit:10;}
	.st207{fill:none;stroke:#ABA792;stroke-width:2;stroke-miterlimit:10;}
	.st208{fill:#71D2C1;}
	.st209{fill:none;stroke:#D4CEB6;stroke-miterlimit:10;}
	.st210{fill:url(#SVGID_192_);}
	.st211{opacity:0.5;fill:none;stroke:#D4CEB6;stroke-miterlimit:10;}
	.st212{fill:#71D2C1;stroke:#FFFFFF;stroke-miterlimit:10;}
	.st213{fill:#2C74BB;}
	.st214{fill:#7590F5;}
	.st215{fill:#1297CC;}
	.st216{fill:#1A8789;}
	.st217{fill:#30C7A4;}
	.st218{fill:#38B350;}
	.st219{fill:#FC9300;}
	.st220{fill:#F3C400;}
	.st221{fill:#FA6F00;}
	.st222{clip-path:url(#SVGID_194_);}
	.st223{clip-path:url(#SVGID_196_);}
	.st224{clip-path:url(#SVGID_200_);}
	.st225{clip-path:url(#SVGID_204_);}
	.st226{fill:url(#SVGID_207_);}
	.st227{clip-path:url(#SVGID_215_);}
	.st228{fill:#7B8E6A;}
	.st229{fill:url(#SVGID_218_);}
	.st230{clip-path:url(#SVGID_222_);}
	.st231{fill:#3333FF;}
	.st232{clip-path:url(#SVGID_224_);}
	.st233{fill:#B2B2B2;}
	.st234{clip-path:url(#SVGID_228_);}
	.st235{clip-path:url(#SVGID_230_);}
	.st236{fill:#005AA9;}
	.st237{clip-path:url(#SVGID_246_);}
	.st238{clip-path:url(#SVGID_248_);}
	.st239{clip-path:url(#SVGID_252_);}
	.st240{clip-path:url(#SVGID_254_);}
	.st241{clip-path:url(#SVGID_258_);}
	.st242{clip-path:url(#SVGID_262_);}
	.st243{fill:url(#SVGID_265_);}
	.st244{clip-path:url(#SVGID_273_);}
	.st245{fill:url(#SVGID_276_);}
	.st246{clip-path:url(#SVGID_280_);}
	.st247{clip-path:url(#SVGID_282_);}
	.st248{clip-path:url(#SVGID_286_);}
	.st249{clip-path:url(#SVGID_288_);}
	.st250{clip-path:url(#SVGID_304_);}
	.st251{clip-path:url(#SVGID_306_);}
	.st252{clip-path:url(#SVGID_310_);}
	.st253{clip-path:url(#SVGID_312_);}
	.st254{clip-path:url(#SVGID_316_);}
	.st255{clip-path:url(#SVGID_320_);}
	.st256{fill:url(#SVGID_323_);}
	.st257{clip-path:url(#SVGID_331_);}
	.st258{fill:url(#SVGID_334_);}
	.st259{clip-path:url(#SVGID_338_);}
	.st260{clip-path:url(#SVGID_340_);}
	.st261{clip-path:url(#SVGID_344_);}
	.st262{clip-path:url(#SVGID_346_);}
	.st263{clip-path:url(#SVGID_362_);}
	.st264{clip-path:url(#SVGID_364_);}
	.st265{clip-path:url(#SVGID_368_);}
	.st266{opacity:0.4;fill:url(#SVGID_371_);}
	.st267{clip-path:url(#SVGID_373_);}
	.st268{clip-path:url(#SVGID_375_);}
	.st269{fill:url(#SVGID_376_);}
	.st270{fill:url(#SVGID_377_);}
	.st271{fill:#AFAFAF;}
	.st272{fill:url(#SVGID_378_);}
	.st273{fill:url(#SVGID_379_);}
	.st274{fill:url(#SVGID_380_);}
	.st275{fill:url(#SVGID_381_);}
	.st276{fill:#EF7357;}
	.st277{fill:none;stroke:#EF7357;stroke-width:3;stroke-linecap:round;stroke-linejoin:round;stroke-miterlimit:10;}
	.st278{fill:none;stroke:#EF7357;stroke-width:3;stroke-miterlimit:10;}
	.st279{fill:none;stroke:#EF7357;stroke-width:2;stroke-miterlimit:10;}
	.st280{fill:none;stroke:#EF7357;stroke-width:7;stroke-linejoin:round;stroke-miterlimit:10;}
	.st281{fill:#D9ECF4;}
	.st282{fill:none;stroke:#FFFFFF;stroke-width:2;stroke-miterlimit:10;}
	.st283{fill-rule:evenodd;clip-rule:evenodd;fill:#EF7357;}
	.st284{fill:url(#SVGID_382_);}
	.st285{fill:url(#SVGID_383_);}
	.st286{fill:url(#SVGID_384_);}
	.st287{fill:url(#SVGID_385_);}
	.st288{opacity:0.6;fill:url(#SVGID_386_);}
	.st289{fill:none;stroke:#48C89F;stroke-width:3;stroke-linecap:round;stroke-miterlimit:10;}
	.st290{fill:url(#SVGID_387_);}
	.st291{fill:url(#SVGID_388_);}
	.st292{fill:url(#SVGID_389_);}
	.st293{fill:url(#SVGID_390_);}
	.st294{opacity:0.6;fill:url(#SVGID_391_);}
	.st295{fill:url(#SVGID_392_);}
	.st296{fill:url(#SVGID_393_);}
	.st297{fill:url(#SVGID_394_);}
	.st298{fill:url(#SVGID_395_);}
	.st299{opacity:0.6;fill:url(#SVGID_396_);}
	.st300{fill:#262D71;}
	.st301{fill:#D80033;}
	.st302{clip-path:url(#SVGID_402_);fill:#FFD938;}
	.st303{clip-path:url(#SVGID_402_);fill:#4F2600;}
	.st304{fill:#4F2600;}
	.st305{clip-path:url(#SVGID_404_);fill:#4F2600;}
	.st306{fill:#00ABDE;}
	.st307{fill:#87CCEB;}
	.st308{fill:#00ADDE;}
	.st309{fill:#00A8D9;}
	.st310{fill:#00A1D9;}
	.st311{fill:#40B5E0;}
	.st312{fill:#D4EBF7;}
	.st313{fill:#0DB0DE;}
	.st314{fill:#36383B;}
	.st315{fill:none;stroke:#36383B;stroke-width:0.124;}
	.st316{fill:none;stroke:#EF7357;stroke-width:2;stroke-linecap:round;stroke-miterlimit:10;}
	.st317{opacity:0.96;fill:url(#SVGID_405_);}
	.st318{clip-path:url(#SVGID_407_);}
	.st319{clip-path:url(#SVGID_409_);}
	.st320{clip-path:url(#SVGID_411_);fill:#FFD938;}
	.st321{clip-path:url(#SVGID_411_);fill:#4F2600;}
	.st322{clip-path:url(#SVGID_413_);fill:#4F2600;}
	.st323{clip-path:url(#SVGID_415_);}
	.st324{fill:none;stroke:#333333;stroke-miterlimit:10;}
	.st325{fill:#1E1E1E;}
	.st326{fill:none;stroke:#004288;stroke-miterlimit:10;}
	.st327{fill:none;stroke:#004288;stroke-miterlimit:10;stroke-dasharray:1.9976,1.9976;}
	.st328{fill:none;stroke:#004288;stroke-miterlimit:10;stroke-dasharray:2.0029,2.0029;}
	.st329{fill:#D5E4EF;stroke:#004286;stroke-width:2;stroke-miterlimit:10;}
	.st330{clip-path:url(#SVGID_417_);fill:#FFD938;}
	.st331{clip-path:url(#SVGID_417_);fill:#4F2600;}
	.st332{clip-path:url(#SVGID_419_);fill:#4F2600;}
	.st333{opacity:0.96;fill:url(#SVGID_420_);}
	.st334{clip-path:url(#SVGID_422_);fill:#FFD938;}
	.st335{clip-path:url(#SVGID_422_);fill:#4F2600;}
	.st336{clip-path:url(#SVGID_424_);fill:#4F2600;}
</style>
<g>
	<g>
		<path class="st123" d="M150.6,75.3H50.7c-7.1,0-12.8,5.7-12.8,12.8c0,7.1,5.7,12.8,12.8,12.8h99.9c7.1,0,12.8-5.7,12.8-12.8
			C163.3,81.1,157.6,75.3,150.6,75.3z"/>
		<g>
			<g>
				<path class="st7" d="M64,88.3c0,1.5-0.4,2.7-1.2,3.6c-0.8,0.9-1.9,1.3-3.2,1.3c-1.4,0-2.5-0.4-3.3-1.3c-0.8-0.9-1.2-2.1-1.2-3.6
					c0-1.6,0.4-2.8,1.1-3.6c0.8-0.9,1.9-1.3,3.3-1.3c1.4,0,2.5,0.4,3.2,1.3C63.6,85.6,64,86.8,64,88.3z M56.5,88.3
					c0,1.3,0.3,2.2,0.8,2.9c0.5,0.7,1.3,1,2.3,1c1,0,1.8-0.3,2.3-1c0.5-0.7,0.8-1.6,0.8-2.9c0-1.3-0.3-2.2-0.8-2.9
					c-0.5-0.6-1.3-1-2.3-1c-1,0-1.8,0.3-2.4,1C56.8,86.1,56.5,87.1,56.5,88.3z"/>
				<path class="st7" d="M69.3,85.8c0.3,0,0.6,0,0.8,0.1L70,87c-0.3-0.1-0.5-0.1-0.8-0.1c-0.4,0-0.7,0.1-1.1,0.3
					c-0.3,0.2-0.6,0.5-0.8,0.9c-0.2,0.4-0.3,0.8-0.3,1.2v3.8H66v-7.2h1l0.1,1.3h0.1c0.3-0.5,0.6-0.8,1-1.1
					C68.5,85.9,68.9,85.8,69.3,85.8z"/>
				<path class="st7" d="M73.9,92.3c0.2,0,0.3,0,0.5,0c0.2,0,0.4-0.1,0.5-0.1V93c-0.1,0-0.3,0.1-0.5,0.1c-0.2,0-0.5,0.1-0.7,0.1
					c-1.4,0-2.1-0.7-2.1-2.2v-4.2h-1v-0.6l1-0.5l0.5-1.5h0.7v1.6h2.1v0.9h-2.1V91c0,0.4,0.1,0.7,0.3,1
					C73.3,92.2,73.5,92.3,73.9,92.3z"/>
				<path class="st7" d="M79.3,93.2c-1.1,0-1.9-0.3-2.5-1c-0.6-0.6-0.9-1.5-0.9-2.7c0-1.1,0.3-2.1,0.9-2.7c0.6-0.7,1.3-1,2.3-1
					c0.9,0,1.6,0.3,2.2,0.9C81.8,87.3,82,88,82,89v0.7h-4.9c0,0.8,0.2,1.4,0.6,1.9c0.4,0.4,0.9,0.6,1.7,0.6c0.4,0,0.7,0,1.1-0.1
					c0.3-0.1,0.7-0.2,1.2-0.4v1c-0.4,0.2-0.8,0.3-1.1,0.4C80.2,93.2,79.8,93.2,79.3,93.2z M79.1,86.8c-0.6,0-1,0.2-1.3,0.5
					c-0.3,0.4-0.5,0.9-0.6,1.5h3.6c0-0.7-0.2-1.2-0.5-1.5C80,86.9,79.6,86.8,79.1,86.8z"/>
				<path class="st7" d="M90.3,93.2c-1.1,0-1.9-0.3-2.5-1c-0.6-0.6-0.9-1.5-0.9-2.7c0-1.1,0.3-2.1,0.9-2.7c0.6-0.7,1.3-1,2.3-1
					c0.9,0,1.6,0.3,2.2,0.9C92.7,87.3,93,88,93,89v0.7h-4.9c0,0.8,0.2,1.4,0.6,1.9c0.4,0.4,0.9,0.6,1.7,0.6c0.4,0,0.7,0,1.1-0.1
					c0.3-0.1,0.7-0.2,1.2-0.4v1c-0.4,0.2-0.8,0.3-1.1,0.4C91.2,93.2,90.8,93.2,90.3,93.2z M90,86.8c-0.6,0-1,0.2-1.3,0.5
					c-0.3,0.4-0.5,0.9-0.6,1.5h3.6c0-0.7-0.2-1.2-0.5-1.5C91,86.9,90.6,86.8,90,86.8z"/>
				<path class="st7" d="M98.2,85.8c0.3,0,0.6,0,0.8,0.1L98.9,87c-0.3-0.1-0.5-0.1-0.8-0.1c-0.4,0-0.7,0.1-1.1,0.3
					c-0.3,0.2-0.6,0.5-0.8,0.9c-0.2,0.4-0.3,0.8-0.3,1.2v3.8h-1.2v-7.2h1l0.1,1.3H96c0.3-0.5,0.6-0.8,1-1.1
					C97.3,85.9,97.7,85.8,98.2,85.8z"/>
				<path class="st7" d="M101.5,89.4l0.4-0.5l0.5-0.5l2.3-2.4h1.4l-2.9,3.1l3.1,4.1h-1.4l-2.5-3.3l-0.8,0.7v2.6h-1.2V83h1.2v5.3
					V89.4L101.5,89.4z"/>
				<path class="st7" d="M108.6,85.9v4.6c0,0.6,0.1,1,0.4,1.3c0.3,0.3,0.7,0.4,1.2,0.4c0.7,0,1.3-0.2,1.6-0.6c0.3-0.4,0.5-1.1,0.5-2
					v-3.7h1.2v7.2h-1l-0.2-0.9h-0.1c-0.2,0.3-0.5,0.6-0.9,0.8c-0.4,0.2-0.8,0.3-1.4,0.3c-0.9,0-1.5-0.2-1.9-0.6
					c-0.4-0.4-0.7-1.1-0.7-2v-4.7H108.6z"/>
				<path class="st7" d="M120.6,93.1v-4.6c0-0.6-0.1-1-0.4-1.3c-0.3-0.3-0.7-0.4-1.2-0.4c-0.7,0-1.3,0.2-1.6,0.6
					c-0.3,0.4-0.5,1.1-0.5,2v3.7h-1.2v-7.2h0.9l0.2,1h0.1c0.2-0.4,0.5-0.6,0.9-0.8c0.4-0.2,0.8-0.3,1.3-0.3c0.9,0,1.5,0.2,2,0.6
					c0.4,0.4,0.6,1.1,0.6,2v4.7H120.6z"/>
				<path class="st7" d="M126.5,93.2c-0.9,0-1.7-0.3-2.2-1c-0.5-0.6-0.8-1.6-0.8-2.7c0-1.2,0.3-2.1,0.8-2.7c0.5-0.7,1.2-1,2.2-1
					c1,0,1.7,0.4,2.2,1.1h0.1c0-0.1,0-0.3-0.1-0.5c0-0.3,0-0.4,0-0.5V83h1.2v10.1H129l-0.2-1h-0.1C128.2,92.9,127.5,93.2,126.5,93.2
					z M126.7,92.3c0.7,0,1.2-0.2,1.6-0.6c0.3-0.4,0.5-1,0.5-1.9v-0.2c0-1-0.2-1.7-0.5-2.1c-0.3-0.4-0.9-0.6-1.6-0.6
					c-0.6,0-1.1,0.2-1.4,0.7c-0.3,0.5-0.5,1.2-0.5,2.1c0,0.9,0.2,1.6,0.5,2C125.6,92,126.1,92.3,126.7,92.3z"/>
				<path class="st7" d="M135.2,93.2c-1.1,0-1.9-0.3-2.5-1c-0.6-0.6-0.9-1.5-0.9-2.7c0-1.1,0.3-2.1,0.9-2.7c0.6-0.7,1.3-1,2.3-1
					c0.9,0,1.6,0.3,2.2,0.9c0.5,0.6,0.8,1.4,0.8,2.4v0.7H133c0,0.8,0.2,1.4,0.6,1.9c0.4,0.4,0.9,0.6,1.7,0.6c0.4,0,0.7,0,1.1-0.1
					c0.3-0.1,0.7-0.2,1.2-0.4v1c-0.4,0.2-0.8,0.3-1.1,0.4C136.1,93.2,135.7,93.2,135.2,93.2z M134.9,86.8c-0.6,0-1,0.2-1.3,0.5
					c-0.3,0.4-0.5,0.9-0.6,1.5h3.6c0-0.7-0.2-1.2-0.5-1.5C135.9,86.9,135.5,86.8,134.9,86.8z"/>
				<path class="st7" d="M144.6,93.1v-4.6c0-0.6-0.1-1-0.4-1.3c-0.3-0.3-0.7-0.4-1.2-0.4c-0.7,0-1.3,0.2-1.6,0.6
					c-0.3,0.4-0.5,1.1-0.5,2v3.7h-1.2v-7.2h0.9l0.2,1h0.1c0.2-0.4,0.5-0.6,0.9-0.8c0.4-0.2,0.8-0.3,1.3-0.3c0.9,0,1.5,0.2,2,0.6
					c0.4,0.4,0.6,1.1,0.6,2v4.7H144.6z"/>
			</g>
		</g>
		<g>
			<path class="st123" d="M291.6,75.3H182.9c-7.1,0-12.8,5.7-12.8,12.8c0,7.1,5.7,12.8,12.8,12.8h108.7c7.1,0,12.8-5.7,12.8-12.8
				C304.4,81.1,298.7,75.3,291.6,75.3z"/>
			<g>
				<g>
					<path class="st7" d="M194.1,88.2c0,1.6-0.4,2.8-1.3,3.6c-0.9,0.8-2.1,1.2-3.7,1.2h-2.7v-9.5h2.9c1.5,0,2.6,0.4,3.5,1.2
						C193.7,85.6,194.1,86.8,194.1,88.2z M192.8,88.3c0-1.2-0.3-2.1-0.9-2.8c-0.6-0.6-1.5-0.9-2.7-0.9h-1.6v7.5h1.3
						C191.5,92.1,192.8,90.8,192.8,88.3z"/>
					<path class="st7" d="M199.1,93.2c-1.1,0-1.9-0.3-2.5-1c-0.6-0.6-0.9-1.5-0.9-2.7c0-1.1,0.3-2.1,0.9-2.7c0.6-0.7,1.3-1,2.3-1
						c0.9,0,1.6,0.3,2.2,0.9c0.5,0.6,0.8,1.4,0.8,2.4v0.7h-4.9c0,0.8,0.2,1.4,0.6,1.9c0.4,0.4,0.9,0.6,1.7,0.6c0.4,0,0.7,0,1.1-0.1
						c0.3-0.1,0.7-0.2,1.2-0.4v1c-0.4,0.2-0.8,0.3-1.1,0.4C199.9,93.2,199.5,93.2,199.1,93.2z M198.8,86.8c-0.6,0-1,0.2-1.3,0.5
						c-0.3,0.4-0.5,0.9-0.6,1.5h3.6c0-0.7-0.2-1.2-0.5-1.5C199.7,86.9,199.3,86.8,198.8,86.8z"/>
					<path class="st7" d="M206.9,85.8c0.9,0,1.7,0.3,2.2,1c0.5,0.6,0.8,1.6,0.8,2.7c0,1.2-0.3,2.1-0.8,2.7c-0.5,0.6-1.2,1-2.2,1
						c-0.5,0-0.9-0.1-1.3-0.3c-0.4-0.2-0.7-0.4-0.9-0.8h-0.1c-0.1,0.5-0.2,0.8-0.2,0.9h-0.8V83h1.2v2.5c0,0.5,0,1-0.1,1.5h0.1
						C205.2,86.2,205.9,85.8,206.9,85.8z M206.7,86.8c-0.7,0-1.2,0.2-1.6,0.6s-0.5,1.1-0.5,2.1v0.1c0,1,0.2,1.7,0.5,2.1
						c0.3,0.4,0.8,0.6,1.6,0.6c0.6,0,1.1-0.2,1.4-0.7c0.3-0.5,0.5-1.2,0.5-2c0-0.9-0.2-1.6-0.5-2C207.9,87,207.4,86.8,206.7,86.8z"
						/>
					<path class="st7" d="M216.2,93.1l-0.2-1h-0.1c-0.4,0.4-0.7,0.8-1.1,0.9c-0.4,0.2-0.8,0.2-1.3,0.2c-0.7,0-1.3-0.2-1.7-0.6
						c-0.4-0.4-0.6-0.9-0.6-1.6c0-1.5,1.1-2.2,3.4-2.3l1.2,0v-0.4c0-0.5-0.1-0.9-0.4-1.2c-0.2-0.3-0.6-0.4-1.1-0.4
						c-0.4,0-0.7,0.1-1.1,0.2c-0.3,0.1-0.7,0.2-0.9,0.4l-0.4-0.9c0.4-0.2,0.8-0.3,1.2-0.5c0.4-0.1,0.8-0.2,1.3-0.2
						c0.9,0,1.5,0.2,1.9,0.6c0.4,0.4,0.6,1,0.6,1.8v4.9H216.2z M213.8,92.3c0.7,0,1.2-0.2,1.5-0.5c0.4-0.4,0.6-0.9,0.6-1.5v-0.6
						l-1.1,0c-0.8,0-1.4,0.2-1.8,0.4c-0.4,0.2-0.6,0.6-0.6,1.1c0,0.4,0.1,0.7,0.3,0.9C213,92.2,213.3,92.3,213.8,92.3z"/>
					<path class="st7" d="M221.6,92.3c0.2,0,0.3,0,0.5,0c0.2,0,0.4-0.1,0.5-0.1V93c-0.1,0-0.3,0.1-0.5,0.1c-0.2,0-0.5,0.1-0.7,0.1
						c-1.4,0-2.1-0.7-2.1-2.2v-4.2h-1v-0.6l1-0.5l0.5-1.5h0.7v1.6h2.1v0.9h-2.1V91c0,0.4,0.1,0.7,0.3,1
						C221,92.2,221.3,92.3,221.6,92.3z"/>
					<path class="st7" d="M226.5,92.3c0.2,0,0.3,0,0.5,0c0.2,0,0.4-0.1,0.5-0.1V93c-0.1,0-0.3,0.1-0.5,0.1c-0.2,0-0.5,0.1-0.7,0.1
						c-1.4,0-2.1-0.7-2.1-2.2v-4.2h-1v-0.6l1-0.5l0.5-1.5h0.7v1.6h2.1v0.9h-2.1V91c0,0.4,0.1,0.7,0.3,1
						C225.8,92.2,226.1,92.3,226.5,92.3z"/>
					<path class="st7" d="M231.9,93.2c-1.1,0-1.9-0.3-2.5-1c-0.6-0.6-0.9-1.5-0.9-2.7c0-1.1,0.3-2.1,0.9-2.7c0.6-0.7,1.3-1,2.3-1
						c0.9,0,1.6,0.3,2.2,0.9c0.5,0.6,0.8,1.4,0.8,2.4v0.7h-4.9c0,0.8,0.2,1.4,0.6,1.9c0.4,0.4,0.9,0.6,1.7,0.6c0.4,0,0.7,0,1.1-0.1
						c0.3-0.1,0.7-0.2,1.2-0.4v1c-0.4,0.2-0.8,0.3-1.1,0.4C232.8,93.2,232.4,93.2,231.9,93.2z M231.6,86.8c-0.6,0-1,0.2-1.3,0.5
						c-0.3,0.4-0.5,0.9-0.6,1.5h3.6c0-0.7-0.2-1.2-0.5-1.5C232.6,86.9,232.2,86.8,231.6,86.8z"/>
					<path class="st7" d="M241.3,93.1v-4.6c0-0.6-0.1-1-0.4-1.3s-0.7-0.4-1.2-0.4c-0.7,0-1.3,0.2-1.6,0.6c-0.3,0.4-0.5,1.1-0.5,2
						v3.7h-1.2v-7.2h0.9l0.2,1h0.1c0.2-0.4,0.5-0.6,0.9-0.8c0.4-0.2,0.8-0.3,1.3-0.3c0.9,0,1.5,0.2,2,0.6c0.4,0.4,0.6,1.1,0.6,2v4.7
						H241.3z"/>
					<path class="st7" d="M251.4,86.9h-1.8v6.2h-1.2v-6.2h-1.3v-0.5l1.3-0.4v-0.4c0-0.9,0.2-1.5,0.6-2c0.4-0.4,1-0.7,1.8-0.7
						c0.5,0,0.9,0.1,1.4,0.2l-0.3,0.9c-0.4-0.1-0.8-0.2-1.1-0.2c-0.4,0-0.7,0.1-0.9,0.4c-0.2,0.3-0.3,0.7-0.3,1.2v0.5h1.8V86.9z"/>
					<path class="st7" d="M253.8,85.9v4.6c0,0.6,0.1,1,0.4,1.3c0.3,0.3,0.7,0.4,1.2,0.4c0.7,0,1.3-0.2,1.6-0.6
						c0.3-0.4,0.5-1.1,0.5-2v-3.7h1.2v7.2h-1l-0.2-0.9h-0.1c-0.2,0.3-0.5,0.6-0.9,0.8c-0.4,0.2-0.8,0.3-1.4,0.3
						c-0.9,0-1.5-0.2-1.9-0.6c-0.4-0.4-0.7-1.1-0.7-2v-4.7H253.8z M253.8,84c0-0.2,0.1-0.4,0.2-0.5c0.1-0.1,0.3-0.2,0.4-0.2
						c0.2,0,0.3,0.1,0.4,0.2c0.1,0.1,0.2,0.3,0.2,0.5c0,0.2-0.1,0.4-0.2,0.5c-0.1,0.1-0.3,0.2-0.4,0.2c-0.2,0-0.3-0.1-0.4-0.2
						C253.8,84.4,253.8,84.2,253.8,84z M256.3,84c0-0.2,0.1-0.4,0.2-0.5c0.1-0.1,0.3-0.2,0.4-0.2c0.2,0,0.3,0.1,0.4,0.2
						c0.1,0.1,0.2,0.3,0.2,0.5c0,0.2-0.1,0.4-0.2,0.5c-0.1,0.1-0.3,0.2-0.4,0.2c-0.2,0-0.3-0.1-0.4-0.2
						C256.4,84.4,256.3,84.2,256.3,84z"/>
					<path class="st7" d="M265.8,93.1v-4.6c0-0.6-0.1-1-0.4-1.3c-0.3-0.3-0.7-0.4-1.2-0.4c-0.7,0-1.3,0.2-1.6,0.6
						c-0.3,0.4-0.5,1.1-0.5,2v3.7H261V83h1.2v3c0,0.4,0,0.7-0.1,1h0.1c0.2-0.3,0.5-0.6,0.9-0.8c0.4-0.2,0.8-0.3,1.3-0.3
						c0.9,0,1.5,0.2,2,0.6c0.4,0.4,0.7,1.1,0.7,2v4.7H265.8z"/>
					<path class="st7" d="M272.6,85.8c0.3,0,0.6,0,0.8,0.1l-0.1,1.1c-0.3-0.1-0.5-0.1-0.8-0.1c-0.4,0-0.7,0.1-1.1,0.3
						c-0.3,0.2-0.6,0.5-0.8,0.9c-0.2,0.4-0.3,0.8-0.3,1.2v3.8h-1.2v-7.2h1l0.1,1.3h0.1c0.3-0.5,0.6-0.8,1-1.1
						C271.7,85.9,272.1,85.8,272.6,85.8z"/>
					<path class="st7" d="M277.8,93.2c-1.1,0-1.9-0.3-2.5-1c-0.6-0.6-0.9-1.5-0.9-2.7c0-1.1,0.3-2.1,0.9-2.7c0.6-0.7,1.3-1,2.3-1
						c0.9,0,1.6,0.3,2.2,0.9c0.5,0.6,0.8,1.4,0.8,2.4v0.7h-4.9c0,0.8,0.2,1.4,0.6,1.9c0.4,0.4,0.9,0.6,1.7,0.6c0.4,0,0.7,0,1.1-0.1
						c0.3-0.1,0.7-0.2,1.2-0.4v1c-0.4,0.2-0.8,0.3-1.1,0.4C278.7,93.2,278.3,93.2,277.8,93.2z M277.5,86.8c-0.6,0-1,0.2-1.3,0.5
						c-0.3,0.4-0.5,0.9-0.6,1.5h3.6c0-0.7-0.2-1.2-0.5-1.5C278.5,86.9,278,86.8,277.5,86.8z"/>
					<path class="st7" d="M287.1,93.1v-4.6c0-0.6-0.1-1-0.4-1.3s-0.7-0.4-1.2-0.4c-0.7,0-1.3,0.2-1.6,0.6c-0.3,0.4-0.5,1.1-0.5,2
						v3.7h-1.2v-7.2h0.9l0.2,1h0.1c0.2-0.4,0.5-0.6,0.9-0.8c0.4-0.2,0.8-0.3,1.3-0.3c0.9,0,1.5,0.2,2,0.6c0.4,0.4,0.6,1.1,0.6,2v4.7
						H287.1z"/>
				</g>
			</g>
		</g>
	</g>
	<g>
		<path class="st123" d="M329,188H151.8c-7.1,0-12.8,5.7-12.8,12.8c0,7.1,5.7,12.8,12.8,12.8H329c7.1,0,12.8-5.7,12.8-12.8
			C341.8,193.7,336.1,188,329,188z"/>
		<g>
			<g>
				<path class="st7" d="M158,205.7h-5.3v-9.5h5.3v1.1h-4.1v3h3.9v1h-3.9v3.4h4.1V205.7z"/>
				<path class="st7" d="M161.7,202.1l-2.5-3.5h1.3l1.8,2.7l1.8-2.7h1.3l-2.5,3.5l2.6,3.7h-1.3l-1.9-2.9l-2,2.9h-1.3L161.7,202.1z"
					/>
				<path class="st7" d="M170.4,205.9c-1,0-1.7-0.3-2.2-1h-0.1l0,0.3c0,0.3,0.1,0.6,0.1,0.9v2.9H167v-10.4h1l0.2,1h0.1
					c0.3-0.4,0.6-0.7,1-0.8c0.4-0.2,0.8-0.3,1.3-0.3c0.9,0,1.7,0.3,2.2,1c0.5,0.6,0.8,1.6,0.8,2.7c0,1.2-0.3,2.1-0.8,2.7
					C172.1,205.5,171.3,205.9,170.4,205.9z M170.2,199.4c-0.7,0-1.2,0.2-1.5,0.6c-0.3,0.4-0.5,1-0.5,1.9v0.2c0,1,0.2,1.7,0.5,2.1
					c0.3,0.4,0.8,0.6,1.6,0.6c0.6,0,1.1-0.2,1.4-0.7c0.3-0.5,0.5-1.2,0.5-2c0-0.9-0.2-1.5-0.5-2
					C171.3,199.7,170.8,199.4,170.2,199.4z"/>
				<path class="st7" d="M178.3,205.9c-1.1,0-1.9-0.3-2.5-1c-0.6-0.6-0.9-1.5-0.9-2.7c0-1.1,0.3-2.1,0.9-2.7c0.6-0.7,1.3-1,2.3-1
					c0.9,0,1.6,0.3,2.2,0.9c0.5,0.6,0.8,1.4,0.8,2.4v0.7H176c0,0.8,0.2,1.4,0.6,1.9c0.4,0.4,0.9,0.6,1.7,0.6c0.4,0,0.7,0,1.1-0.1
					c0.3-0.1,0.7-0.2,1.2-0.4v1c-0.4,0.2-0.8,0.3-1.1,0.4C179.2,205.8,178.8,205.9,178.3,205.9z M178,199.4c-0.6,0-1,0.2-1.3,0.5
					c-0.3,0.4-0.5,0.9-0.6,1.5h3.6c0-0.7-0.2-1.2-0.5-1.5C179,199.6,178.5,199.4,178,199.4z"/>
				<path class="st7" d="M186.1,198.4c0.3,0,0.6,0,0.8,0.1l-0.1,1.1c-0.3-0.1-0.5-0.1-0.8-0.1c-0.4,0-0.7,0.1-1.1,0.3
					c-0.3,0.2-0.6,0.5-0.8,0.9c-0.2,0.4-0.3,0.8-0.3,1.2v3.8h-1.2v-7.2h1l0.1,1.3h0.1c0.3-0.5,0.6-0.8,1-1.1
					C185.3,198.6,185.7,198.4,186.1,198.4z"/>
				<path class="st7" d="M190.7,204.9c0.2,0,0.3,0,0.5,0c0.2,0,0.4-0.1,0.5-0.1v0.9c-0.1,0-0.3,0.1-0.5,0.1c-0.2,0-0.5,0.1-0.7,0.1
					c-1.4,0-2.1-0.7-2.1-2.2v-4.2h-1v-0.6l1-0.5l0.5-1.5h0.7v1.6h2.1v0.9h-2.1v4.1c0,0.4,0.1,0.7,0.3,1
					C190,204.8,190.3,204.9,190.7,204.9z"/>
				<path class="st7" d="M196.3,195.6l-0.3,2.6l2.6-0.7l0.2,1.2l-2.5,0.2l1.6,2.1l-1.1,0.6l-1.1-2.3l-1,2.3l-1.2-0.6l1.6-2.1
					l-2.4-0.2l0.2-1.2l2.5,0.7l-0.3-2.6H196.3z"/>
				<path class="st7" d="M203.3,205.7h-3.4V205l1.1-0.3v-7.6l-1.1-0.3v-0.7h3.4v0.7l-1.1,0.3v7.6l1.1,0.3V205.7z"/>
				<path class="st7" d="M209.8,205.7v-4.6c0-0.6-0.1-1-0.4-1.3c-0.3-0.3-0.7-0.4-1.2-0.4c-0.7,0-1.3,0.2-1.6,0.6
					c-0.3,0.4-0.5,1.1-0.5,2v3.7H205v-7.2h0.9l0.2,1h0.1c0.2-0.4,0.5-0.6,0.9-0.8c0.4-0.2,0.8-0.3,1.3-0.3c0.9,0,1.5,0.2,2,0.6
					c0.4,0.4,0.6,1.1,0.6,2v4.7H209.8z"/>
				<path class="st7" d="M218.1,205.7v-4.6c0-0.6-0.1-1-0.4-1.3c-0.3-0.3-0.7-0.4-1.2-0.4c-0.7,0-1.3,0.2-1.6,0.6
					c-0.3,0.4-0.5,1.1-0.5,2v3.7h-1.2v-7.2h0.9l0.2,1h0.1c0.2-0.4,0.5-0.6,0.9-0.8c0.4-0.2,0.8-0.3,1.3-0.3c0.9,0,1.5,0.2,2,0.6
					c0.4,0.4,0.6,1.1,0.6,2v4.7H218.1z"/>
				<path class="st7" d="M224.5,205.9c-1.1,0-1.9-0.3-2.5-1c-0.6-0.6-0.9-1.5-0.9-2.7c0-1.1,0.3-2.1,0.9-2.7c0.6-0.7,1.3-1,2.3-1
					c0.9,0,1.6,0.3,2.2,0.9c0.5,0.6,0.8,1.4,0.8,2.4v0.7h-4.9c0,0.8,0.2,1.4,0.6,1.9c0.4,0.4,0.9,0.6,1.7,0.6c0.4,0,0.7,0,1.1-0.1
					c0.3-0.1,0.7-0.2,1.2-0.4v1c-0.4,0.2-0.8,0.3-1.1,0.4C225.4,205.8,225,205.9,224.5,205.9z M224.2,199.4c-0.6,0-1,0.2-1.3,0.5
					c-0.3,0.4-0.5,0.9-0.6,1.5h3.6c0-0.7-0.2-1.2-0.5-1.5C225.2,199.6,224.8,199.4,224.2,199.4z"/>
				<path class="st7" d="M233.9,205.7v-4.6c0-0.6-0.1-1-0.4-1.3c-0.3-0.3-0.7-0.4-1.2-0.4c-0.7,0-1.3,0.2-1.6,0.6
					c-0.3,0.4-0.5,1.1-0.5,2v3.7H229v-7.2h0.9l0.2,1h0.1c0.2-0.4,0.5-0.6,0.9-0.8c0.4-0.2,0.8-0.3,1.3-0.3c0.9,0,1.5,0.2,2,0.6
					c0.4,0.4,0.6,1.1,0.6,2v4.7H233.9z"/>
				<path class="st7" d="M241.8,198.6v4.6c0,0.6,0.1,1,0.4,1.3c0.3,0.3,0.7,0.4,1.2,0.4c0.7,0,1.3-0.2,1.6-0.6
					c0.3-0.4,0.5-1.1,0.5-2v-3.7h1.2v7.2h-1l-0.2-0.9h-0.1c-0.2,0.3-0.5,0.6-0.9,0.8c-0.4,0.2-0.8,0.3-1.4,0.3
					c-0.9,0-1.5-0.2-1.9-0.6c-0.4-0.4-0.7-1.1-0.7-2v-4.7H241.8z"/>
				<path class="st7" d="M258.1,205.7v-4.6c0-1.1-0.5-1.7-1.5-1.7c-0.7,0-1.2,0.2-1.5,0.6s-0.5,1-0.5,1.8v3.9h-1.2v-4.6
					c0-0.6-0.1-1-0.4-1.3c-0.2-0.3-0.6-0.4-1.1-0.4c-0.7,0-1.1,0.2-1.5,0.6c-0.3,0.4-0.5,1.1-0.5,2v3.7H249v-7.2h0.9l0.2,1h0.1
					c0.2-0.3,0.5-0.6,0.9-0.8c0.4-0.2,0.8-0.3,1.2-0.3c1.1,0,1.9,0.4,2.2,1.2h0.1c0.2-0.4,0.5-0.7,0.9-0.9c0.4-0.2,0.8-0.3,1.4-0.3
					c0.8,0,1.4,0.2,1.8,0.6c0.4,0.4,0.6,1.1,0.6,2v4.7H258.1z"/>
				<path class="st7" d="M266.3,201.8v3.9h-1.2v-9.5h2.6c1.2,0,2.1,0.2,2.6,0.7c0.6,0.4,0.9,1.1,0.9,2c0,1.3-0.6,2.1-1.9,2.6
					l2.6,4.3h-1.4l-2.3-3.9H266.3z M266.3,200.8h1.4c0.8,0,1.3-0.2,1.7-0.5c0.4-0.3,0.5-0.8,0.5-1.4c0-0.6-0.2-1-0.5-1.3
					c-0.4-0.3-0.9-0.4-1.8-0.4h-1.4V200.8z"/>
				<path class="st7" d="M277.6,205.7l-0.2-1h-0.1c-0.4,0.4-0.7,0.8-1.1,0.9c-0.4,0.2-0.8,0.2-1.3,0.2c-0.7,0-1.3-0.2-1.7-0.6
					c-0.4-0.4-0.6-0.9-0.6-1.6c0-1.5,1.1-2.2,3.4-2.3l1.2,0V201c0-0.5-0.1-0.9-0.4-1.2c-0.2-0.3-0.6-0.4-1.1-0.4
					c-0.4,0-0.7,0.1-1.1,0.2c-0.3,0.1-0.7,0.2-0.9,0.4l-0.4-0.9c0.4-0.2,0.8-0.3,1.2-0.5c0.4-0.1,0.8-0.2,1.3-0.2
					c0.9,0,1.5,0.2,1.9,0.6c0.4,0.4,0.6,1,0.6,1.8v4.9H277.6z M275.2,204.9c0.7,0,1.2-0.2,1.5-0.5c0.4-0.4,0.6-0.9,0.6-1.5v-0.6
					l-1.1,0c-0.8,0-1.4,0.2-1.8,0.4c-0.4,0.2-0.6,0.6-0.6,1.1c0,0.4,0.1,0.7,0.3,0.9S274.8,204.9,275.2,204.9z"/>
				<path class="st7" d="M283.1,204.9c0.2,0,0.3,0,0.5,0c0.2,0,0.4-0.1,0.5-0.1v0.9c-0.1,0-0.3,0.1-0.5,0.1c-0.2,0-0.5,0.1-0.7,0.1
					c-1.4,0-2.1-0.7-2.1-2.2v-4.2h-1v-0.6l1-0.5l0.5-1.5h0.7v1.6h2.1v0.9H282v4.1c0,0.4,0.1,0.7,0.3,1
					C282.5,204.8,282.8,204.9,283.1,204.9z"/>
				<path class="st7" d="M292.3,199.5h-1.8v6.2h-1.2v-6.2h-1.3v-0.5l1.3-0.4v-0.4c0-0.9,0.2-1.5,0.6-2c0.4-0.4,1-0.7,1.8-0.7
					c0.5,0,0.9,0.1,1.4,0.2l-0.3,0.9c-0.4-0.1-0.8-0.2-1.1-0.2c-0.4,0-0.7,0.1-0.9,0.4c-0.2,0.3-0.3,0.7-0.3,1.2v0.5h1.8V199.5z"/>
				<path class="st7" d="M296.9,198.4c0.3,0,0.6,0,0.8,0.1l-0.1,1.1c-0.3-0.1-0.5-0.1-0.8-0.1c-0.4,0-0.7,0.1-1.1,0.3
					c-0.3,0.2-0.6,0.5-0.8,0.9c-0.2,0.4-0.3,0.8-0.3,1.2v3.8h-1.2v-7.2h1l0.1,1.3h0.1c0.3-0.5,0.6-0.8,1-1.1
					C296.1,198.6,296.5,198.4,296.9,198.4z"/>
				<path class="st7" d="M303.5,205.7l-0.2-1h-0.1c-0.4,0.4-0.7,0.8-1.1,0.9c-0.4,0.2-0.8,0.2-1.3,0.2c-0.7,0-1.3-0.2-1.7-0.6
					c-0.4-0.4-0.6-0.9-0.6-1.6c0-1.5,1.1-2.2,3.4-2.3l1.2,0V201c0-0.5-0.1-0.9-0.4-1.2c-0.2-0.3-0.6-0.4-1.1-0.4
					c-0.4,0-0.7,0.1-1.1,0.2c-0.3,0.1-0.7,0.2-0.9,0.4l-0.4-0.9c0.4-0.2,0.8-0.3,1.2-0.5c0.4-0.1,0.8-0.2,1.3-0.2
					c0.9,0,1.5,0.2,1.9,0.6c0.4,0.4,0.6,1,0.6,1.8v4.9H303.5z M301.1,204.9c0.7,0,1.2-0.2,1.5-0.5c0.4-0.4,0.6-0.9,0.6-1.5v-0.6
					l-1.1,0c-0.8,0-1.4,0.2-1.8,0.4c-0.4,0.2-0.6,0.6-0.6,1.1c0,0.4,0.1,0.7,0.3,0.9C300.4,204.8,300.7,204.9,301.1,204.9z"/>
				<path class="st7" d="M311.4,205.7l0-0.9h-0.1c-0.5,0.7-1.2,1.1-2.2,1.1c-0.9,0-1.6-0.3-2.2-1c-0.5-0.6-0.8-1.6-0.8-2.7
					c0-1.2,0.3-2.1,0.8-2.7c0.5-0.7,1.2-1,2.1-1c1,0,1.7,0.4,2.2,1.1h0.1l0.2-1h0.9v7.3c0,1-0.3,1.8-0.8,2.3
					c-0.5,0.5-1.3,0.8-2.4,0.8c-1,0-1.9-0.2-2.6-0.5v-1.1c0.7,0.4,1.6,0.6,2.6,0.6c0.6,0,1.1-0.2,1.4-0.5c0.4-0.4,0.5-0.8,0.5-1.5
					V205.7z M309.3,204.9c0.7,0,1.2-0.2,1.6-0.6c0.3-0.4,0.5-1,0.5-1.9v-0.3c0-1-0.2-1.7-0.5-2.1c-0.3-0.4-0.9-0.7-1.6-0.7
					c-0.6,0-1.1,0.2-1.4,0.7c-0.3,0.5-0.5,1.2-0.5,2c0,0.9,0.2,1.6,0.5,2C308.2,204.7,308.7,204.9,309.3,204.9z"/>
				<path class="st7" d="M317.8,205.9c-1.1,0-1.9-0.3-2.5-1c-0.6-0.6-0.9-1.5-0.9-2.7c0-1.1,0.3-2.1,0.9-2.7c0.6-0.7,1.3-1,2.3-1
					c0.9,0,1.6,0.3,2.2,0.9c0.5,0.6,0.8,1.4,0.8,2.4v0.7h-4.9c0,0.8,0.2,1.4,0.6,1.9c0.4,0.4,0.9,0.6,1.7,0.6c0.4,0,0.7,0,1.1-0.1
					c0.3-0.1,0.7-0.2,1.2-0.4v1c-0.4,0.2-0.8,0.3-1.1,0.4C318.7,205.8,318.3,205.9,317.8,205.9z M317.6,199.4c-0.6,0-1,0.2-1.3,0.5
					c-0.3,0.4-0.5,0.9-0.6,1.5h3.6c0-0.7-0.2-1.2-0.5-1.5C318.5,199.6,318.1,199.4,317.6,199.4z"/>
				<path class="st7" d="M327.2,205.7v-4.6c0-0.6-0.1-1-0.4-1.3c-0.3-0.3-0.7-0.4-1.2-0.4c-0.7,0-1.3,0.2-1.6,0.6
					c-0.3,0.4-0.5,1.1-0.5,2v3.7h-1.2v-7.2h0.9l0.2,1h0.1c0.2-0.4,0.5-0.6,0.9-0.8c0.4-0.2,0.8-0.3,1.3-0.3c0.9,0,1.5,0.2,2,0.6
					c0.4,0.4,0.6,1.1,0.6,2v4.7H327.2z"/>
			</g>
		</g>
		<path class="st123" d="M119.8,188H13.3c-7.1,0-12.8,5.7-12.8,12.8c0,7.1,5.7,12.8,12.8,12.8h106.5c7.1,0,12.8-5.7,12.8-12.8
			C132.5,193.7,126.8,188,119.8,188z"/>
		<g>
			<g>
				<path class="st7" d="M24.3,200.9c0,1.6-0.4,2.8-1.3,3.6c-0.9,0.8-2.1,1.2-3.7,1.2h-2.7v-9.5h2.9c1.5,0,2.6,0.4,3.5,1.2
					C23.9,198.2,24.3,199.4,24.3,200.9z M23,200.9c0-1.2-0.3-2.1-0.9-2.8c-0.6-0.6-1.5-0.9-2.7-0.9h-1.6v7.5h1.3
					C21.7,204.7,23,203.4,23,200.9z"/>
				<path class="st7" d="M30.7,205.7l-0.2-1h-0.1c-0.4,0.4-0.7,0.8-1.1,0.9c-0.4,0.2-0.8,0.2-1.3,0.2c-0.7,0-1.3-0.2-1.7-0.6
					c-0.4-0.4-0.6-0.9-0.6-1.6c0-1.5,1.1-2.2,3.4-2.3l1.2,0V201c0-0.5-0.1-0.9-0.4-1.2c-0.2-0.3-0.6-0.4-1.1-0.4
					c-0.4,0-0.7,0.1-1.1,0.2c-0.3,0.1-0.7,0.2-0.9,0.4l-0.4-0.9c0.4-0.2,0.8-0.3,1.2-0.5c0.4-0.1,0.8-0.2,1.3-0.2
					c0.9,0,1.5,0.2,1.9,0.6c0.4,0.4,0.6,1,0.6,1.8v4.9H30.7z M28.2,204.9c0.7,0,1.2-0.2,1.5-0.5c0.4-0.4,0.6-0.9,0.6-1.5v-0.6
					l-1.1,0c-0.8,0-1.4,0.2-1.8,0.4c-0.4,0.2-0.6,0.6-0.6,1.1c0,0.4,0.1,0.7,0.3,0.9C27.5,204.8,27.8,204.9,28.2,204.9z"/>
				<path class="st7" d="M36.1,204.9c0.2,0,0.3,0,0.5,0c0.2,0,0.4-0.1,0.5-0.1v0.9c-0.1,0-0.3,0.1-0.5,0.1c-0.2,0-0.5,0.1-0.7,0.1
					c-1.4,0-2.1-0.7-2.1-2.2v-4.2h-1v-0.6l1-0.5l0.5-1.5H35v1.6h2.1v0.9H35v4.1c0,0.4,0.1,0.7,0.3,1
					C35.5,204.8,35.8,204.9,36.1,204.9z"/>
				<path class="st7" d="M41.6,205.9c-1.1,0-1.9-0.3-2.5-1c-0.6-0.6-0.9-1.5-0.9-2.7c0-1.1,0.3-2.1,0.9-2.7c0.6-0.7,1.3-1,2.3-1
					c0.9,0,1.6,0.3,2.2,0.9c0.5,0.6,0.8,1.4,0.8,2.4v0.7h-4.9c0,0.8,0.2,1.4,0.6,1.9c0.4,0.4,0.9,0.6,1.7,0.6c0.4,0,0.7,0,1.1-0.1
					c0.3-0.1,0.7-0.2,1.2-0.4v1c-0.4,0.2-0.8,0.3-1.1,0.4C42.5,205.8,42.1,205.9,41.6,205.9z M41.3,199.4c-0.6,0-1,0.2-1.3,0.5
					c-0.3,0.4-0.5,0.9-0.6,1.5H43c0-0.7-0.2-1.2-0.5-1.5C42.3,199.6,41.8,199.4,41.3,199.4z"/>
				<path class="st7" d="M51,205.7v-4.6c0-0.6-0.1-1-0.4-1.3c-0.3-0.3-0.7-0.4-1.2-0.4c-0.7,0-1.3,0.2-1.6,0.6
					c-0.3,0.4-0.5,1.1-0.5,2v3.7h-1.2v-7.2H47l0.2,1h0.1c0.2-0.4,0.5-0.6,0.9-0.8c0.4-0.2,0.8-0.3,1.3-0.3c0.9,0,1.5,0.2,2,0.6
					c0.4,0.4,0.6,1.1,0.6,2v4.7H51z"/>
				<path class="st7" d="M61.2,198.5c0.9,0,1.7,0.3,2.2,1c0.5,0.6,0.8,1.6,0.8,2.7c0,1.2-0.3,2.1-0.8,2.7c-0.5,0.6-1.2,1-2.2,1
					c-0.5,0-0.9-0.1-1.3-0.3c-0.4-0.2-0.7-0.4-0.9-0.8h-0.1c-0.1,0.5-0.2,0.8-0.2,0.9h-0.8v-10.1H59v2.5c0,0.5,0,1-0.1,1.5H59
					C59.5,198.8,60.2,198.5,61.2,198.5z M61,199.4c-0.7,0-1.2,0.2-1.6,0.6s-0.5,1.1-0.5,2.1v0.1c0,1,0.2,1.7,0.5,2.1
					c0.3,0.4,0.8,0.6,1.6,0.6c0.6,0,1.1-0.2,1.4-0.7c0.3-0.5,0.5-1.2,0.5-2c0-0.9-0.2-1.6-0.5-2C62.1,199.7,61.6,199.4,61,199.4z"/>
				<path class="st7" d="M69.1,205.9c-1.1,0-1.9-0.3-2.5-1c-0.6-0.6-0.9-1.5-0.9-2.7c0-1.1,0.3-2.1,0.9-2.7c0.6-0.7,1.3-1,2.3-1
					c0.9,0,1.6,0.3,2.2,0.9c0.5,0.6,0.8,1.4,0.8,2.4v0.7h-4.9c0,0.8,0.2,1.4,0.6,1.9c0.4,0.4,0.9,0.6,1.7,0.6c0.4,0,0.7,0,1.1-0.1
					c0.3-0.1,0.7-0.2,1.2-0.4v1c-0.4,0.2-0.8,0.3-1.1,0.4C69.9,205.8,69.5,205.9,69.1,205.9z M68.8,199.4c-0.6,0-1,0.2-1.3,0.5
					c-0.3,0.4-0.5,0.9-0.6,1.5h3.6c0-0.7-0.2-1.2-0.5-1.5C69.7,199.6,69.3,199.4,68.8,199.4z"/>
				<path class="st7" d="M73.4,196.6c0-0.3,0.1-0.4,0.2-0.6c0.1-0.1,0.3-0.2,0.5-0.2c0.2,0,0.3,0.1,0.5,0.2c0.1,0.1,0.2,0.3,0.2,0.6
					c0,0.3-0.1,0.4-0.2,0.6c-0.1,0.1-0.3,0.2-0.5,0.2c-0.2,0-0.4-0.1-0.5-0.2C73.5,197.1,73.4,196.9,73.4,196.6z M74.7,205.7h-1.2
					v-7.2h1.2V205.7z"/>
				<path class="st7" d="M79.4,204.9c0.2,0,0.3,0,0.5,0c0.2,0,0.4-0.1,0.5-0.1v0.9c-0.1,0-0.3,0.1-0.5,0.1c-0.2,0-0.5,0.1-0.7,0.1
					c-1.4,0-2.1-0.7-2.1-2.2v-4.2h-1v-0.6l1-0.5l0.5-1.5h0.7v1.6h2.1v0.9h-2.1v4.1c0,0.4,0.1,0.7,0.3,1
					C78.7,204.8,79,204.9,79.4,204.9z"/>
				<path class="st7" d="M85.1,198.4c0.3,0,0.6,0,0.8,0.1l-0.1,1.1c-0.3-0.1-0.5-0.1-0.8-0.1c-0.4,0-0.7,0.1-1.1,0.3
					c-0.3,0.2-0.6,0.5-0.8,0.9c-0.2,0.4-0.3,0.8-0.3,1.2v3.8h-1.2v-7.2h1l0.1,1.3h0.1c0.3-0.5,0.6-0.8,1-1.1
					C84.3,198.6,84.7,198.4,85.1,198.4z"/>
				<path class="st7" d="M91.7,205.7l-0.2-1h-0.1c-0.4,0.4-0.7,0.8-1.1,0.9c-0.4,0.2-0.8,0.2-1.3,0.2c-0.7,0-1.3-0.2-1.7-0.6
					c-0.4-0.4-0.6-0.9-0.6-1.6c0-1.5,1.1-2.2,3.4-2.3l1.2,0V201c0-0.5-0.1-0.9-0.4-1.2c-0.2-0.3-0.6-0.4-1.1-0.4
					c-0.4,0-0.7,0.1-1.1,0.2c-0.3,0.1-0.7,0.2-0.9,0.4l-0.4-0.9c0.4-0.2,0.8-0.3,1.2-0.5c0.4-0.1,0.8-0.2,1.3-0.2
					c0.9,0,1.5,0.2,1.9,0.6c0.4,0.4,0.6,1,0.6,1.8v4.9H91.7z M89.3,204.9c0.7,0,1.2-0.2,1.5-0.5c0.4-0.4,0.6-0.9,0.6-1.5v-0.6
					l-1.1,0c-0.8,0-1.4,0.2-1.8,0.4c-0.4,0.2-0.6,0.6-0.6,1.1c0,0.4,0.1,0.7,0.3,0.9S88.9,204.9,89.3,204.9z"/>
				<path class="st7" d="M99.6,205.7l0-0.9h-0.1c-0.5,0.7-1.2,1.1-2.2,1.1c-0.9,0-1.6-0.3-2.2-1c-0.5-0.6-0.8-1.6-0.8-2.7
					c0-1.2,0.3-2.1,0.8-2.7c0.5-0.7,1.2-1,2.1-1c1,0,1.7,0.4,2.2,1.1h0.1l0.2-1h0.9v7.3c0,1-0.3,1.8-0.8,2.3
					c-0.5,0.5-1.3,0.8-2.4,0.8c-1,0-1.9-0.2-2.6-0.5v-1.1c0.7,0.4,1.6,0.6,2.6,0.6c0.6,0,1.1-0.2,1.4-0.5c0.4-0.4,0.5-0.8,0.5-1.5
					V205.7z M97.5,204.9c0.7,0,1.2-0.2,1.6-0.6c0.3-0.4,0.5-1,0.5-1.9v-0.3c0-1-0.2-1.7-0.5-2.1c-0.3-0.4-0.9-0.7-1.6-0.7
					c-0.6,0-1.1,0.2-1.4,0.7c-0.3,0.5-0.5,1.2-0.5,2c0,0.9,0.2,1.6,0.5,2C96.4,204.7,96.9,204.9,97.5,204.9z"/>
				<path class="st7" d="M106.1,205.9c-1.1,0-1.9-0.3-2.5-1c-0.6-0.6-0.9-1.5-0.9-2.7c0-1.1,0.3-2.1,0.9-2.7c0.6-0.7,1.3-1,2.3-1
					c0.9,0,1.6,0.3,2.2,0.9c0.5,0.6,0.8,1.4,0.8,2.4v0.7h-4.9c0,0.8,0.2,1.4,0.6,1.9c0.4,0.4,0.9,0.6,1.7,0.6c0.4,0,0.7,0,1.1-0.1
					c0.3-0.1,0.7-0.2,1.2-0.4v1c-0.4,0.2-0.8,0.3-1.1,0.4C106.9,205.8,106.5,205.9,106.1,205.9z M105.8,199.4c-0.6,0-1,0.2-1.3,0.5
					c-0.3,0.4-0.5,0.9-0.6,1.5h3.6c0-0.7-0.2-1.2-0.5-1.5C106.7,199.6,106.3,199.4,105.8,199.4z"/>
				<path class="st7" d="M115.4,205.7v-4.6c0-0.6-0.1-1-0.4-1.3c-0.3-0.3-0.7-0.4-1.2-0.4c-0.7,0-1.3,0.2-1.6,0.6
					c-0.3,0.4-0.5,1.1-0.5,2v3.7h-1.2v-7.2h0.9l0.2,1h0.1c0.2-0.4,0.5-0.6,0.9-0.8c0.4-0.2,0.8-0.3,1.3-0.3c0.9,0,1.5,0.2,2,0.6
					c0.4,0.4,0.6,1.1,0.6,2v4.7H115.4z"/>
			</g>
		</g>
	</g>
	<g>
		<g>
			<path class="st123" d="M135.8,113.2H28.2c-7.1,0-12.8,5.7-12.8,12.8c0,7.1,5.7,12.8,12.8,12.8h107.6c7.1,0,12.8-5.7,12.8-12.8
				C148.6,118.9,142.9,113.2,135.8,113.2z"/>
			<g>
				<g>
					<path class="st7" d="M40.4,131H39l-3.4-4.5l-1,0.9v3.7h-1.2v-9.5h1.2v4.7l0.8-0.9l3.4-3.8h1.4l-3.8,4.2L40.4,131z"/>
					<path class="st7" d="M45.9,131l-0.2-1h-0.1c-0.4,0.4-0.7,0.8-1.1,0.9c-0.4,0.2-0.8,0.2-1.3,0.2c-0.7,0-1.3-0.2-1.7-0.6
						c-0.4-0.4-0.6-0.9-0.6-1.6c0-1.5,1.1-2.2,3.4-2.3l1.2,0v-0.4c0-0.5-0.1-0.9-0.4-1.2c-0.2-0.3-0.6-0.4-1.1-0.4
						c-0.4,0-0.7,0.1-1.1,0.2c-0.3,0.1-0.7,0.2-0.9,0.4l-0.4-0.9c0.4-0.2,0.8-0.3,1.2-0.5c0.4-0.1,0.8-0.2,1.3-0.2
						c0.9,0,1.5,0.2,1.9,0.6c0.4,0.4,0.6,1,0.6,1.8v4.9H45.9z M43.5,130.2c0.7,0,1.2-0.2,1.5-0.5c0.4-0.4,0.6-0.9,0.6-1.5v-0.6
						l-1.1,0c-0.8,0-1.4,0.2-1.8,0.4c-0.4,0.2-0.6,0.6-0.6,1.1c0,0.4,0.1,0.7,0.3,0.9C42.8,130.1,43.1,130.2,43.5,130.2z"/>
					<path class="st7" d="M52.4,123.7c0.3,0,0.6,0,0.8,0.1l-0.1,1.1c-0.3-0.1-0.5-0.1-0.8-0.1c-0.4,0-0.7,0.1-1.1,0.3
						c-0.3,0.2-0.6,0.5-0.8,0.9c-0.2,0.4-0.3,0.8-0.3,1.2v3.8H49v-7.2h1l0.1,1.3h0.1c0.3-0.5,0.6-0.8,1-1.1
						C51.5,123.8,51.9,123.7,52.4,123.7z"/>
					<path class="st7" d="M56.9,130.2c0.2,0,0.3,0,0.5,0c0.2,0,0.4-0.1,0.5-0.1v0.9c-0.1,0-0.3,0.1-0.5,0.1c-0.2,0-0.5,0.1-0.7,0.1
						c-1.4,0-2.1-0.7-2.1-2.2v-4.2h-1v-0.6l1-0.5l0.5-1.5h0.7v1.6h2.1v0.9h-2.1v4.1c0,0.4,0.1,0.7,0.3,1
						C56.3,130.1,56.6,130.2,56.9,130.2z"/>
					<path class="st7" d="M62.4,131.1c-1.1,0-1.9-0.3-2.5-1c-0.6-0.6-0.9-1.5-0.9-2.7c0-1.1,0.3-2.1,0.9-2.7c0.6-0.7,1.3-1,2.3-1
						c0.9,0,1.6,0.3,2.2,0.9c0.5,0.6,0.8,1.4,0.8,2.4v0.7h-4.9c0,0.8,0.2,1.4,0.6,1.9c0.4,0.4,0.9,0.6,1.7,0.6c0.4,0,0.7,0,1.1-0.1
						c0.3-0.1,0.7-0.2,1.2-0.4v1c-0.4,0.2-0.8,0.3-1.1,0.4C63.3,131.1,62.9,131.1,62.4,131.1z M62.1,124.7c-0.6,0-1,0.2-1.3,0.5
						c-0.3,0.4-0.5,0.9-0.6,1.5h3.6c0-0.7-0.2-1.2-0.5-1.5C63.1,124.8,62.6,124.7,62.1,124.7z"/>
					<path class="st7" d="M71.7,131v-4.6c0-0.6-0.1-1-0.4-1.3c-0.3-0.3-0.7-0.4-1.2-0.4c-0.7,0-1.3,0.2-1.6,0.6
						c-0.3,0.4-0.5,1.1-0.5,2v3.7h-1.2v-7.2h0.9l0.2,1h0.1c0.2-0.4,0.5-0.6,0.9-0.8c0.4-0.2,0.8-0.3,1.3-0.3c0.9,0,1.5,0.2,2,0.6
						c0.4,0.4,0.6,1.1,0.6,2v4.7H71.7z"/>
					<path class="st7" d="M81.6,131.1c-1.1,0-1.9-0.3-2.5-1c-0.6-0.6-0.9-1.5-0.9-2.7c0-1.1,0.3-2.1,0.9-2.7c0.6-0.7,1.3-1,2.3-1
						c0.9,0,1.6,0.3,2.2,0.9c0.5,0.6,0.8,1.4,0.8,2.4v0.7h-4.9c0,0.8,0.2,1.4,0.6,1.9c0.4,0.4,0.9,0.6,1.7,0.6c0.4,0,0.7,0,1.1-0.1
						c0.3-0.1,0.7-0.2,1.2-0.4v1c-0.4,0.2-0.8,0.3-1.1,0.4C82.5,131.1,82.1,131.1,81.6,131.1z M81.3,124.7c-0.6,0-1,0.2-1.3,0.5
						c-0.3,0.4-0.5,0.9-0.6,1.5h3.6c0-0.7-0.2-1.2-0.5-1.5C82.3,124.8,81.9,124.7,81.3,124.7z"/>
					<path class="st7" d="M89.5,123.7c0.3,0,0.6,0,0.8,0.1l-0.1,1.1c-0.3-0.1-0.5-0.1-0.8-0.1c-0.4,0-0.7,0.1-1.1,0.3
						c-0.3,0.2-0.6,0.5-0.8,0.9c-0.2,0.4-0.3,0.8-0.3,1.2v3.8h-1.2v-7.2h1l0.1,1.3h0.1c0.3-0.5,0.6-0.8,1-1.1
						C88.6,123.8,89,123.7,89.5,123.7z"/>
					<path class="st7" d="M96.3,129c0,0.7-0.2,1.2-0.7,1.6c-0.5,0.4-1.2,0.6-2.1,0.6c-0.9,0-1.7-0.1-2.2-0.4v-1.1
						c0.8,0.4,1.5,0.6,2.3,0.6c0.6,0,1-0.1,1.3-0.3c0.3-0.2,0.4-0.4,0.4-0.8c0-0.3-0.1-0.5-0.4-0.7c-0.3-0.2-0.7-0.4-1.4-0.7
						c-0.7-0.3-1.1-0.5-1.4-0.7c-0.3-0.2-0.5-0.4-0.6-0.6c-0.1-0.2-0.2-0.5-0.2-0.8c0-0.6,0.2-1,0.7-1.4c0.5-0.3,1.1-0.5,2-0.5
						c0.8,0,1.6,0.2,2.3,0.5l-0.4,0.9c-0.7-0.3-1.4-0.5-2-0.5c-0.5,0-0.9,0.1-1.1,0.2c-0.3,0.2-0.4,0.4-0.4,0.6
						c0,0.3,0.1,0.5,0.3,0.6c0.2,0.2,0.7,0.4,1.5,0.7c0.6,0.2,1,0.4,1.3,0.6c0.3,0.2,0.5,0.4,0.6,0.6
						C96.2,128.4,96.3,128.7,96.3,129z"/>
					<path class="st7" d="M100.4,130.2c0.2,0,0.3,0,0.5,0c0.2,0,0.4-0.1,0.5-0.1v0.9c-0.1,0-0.3,0.1-0.5,0.1c-0.2,0-0.5,0.1-0.7,0.1
						c-1.4,0-2.1-0.7-2.1-2.2v-4.2h-1v-0.6l1-0.5l0.5-1.5h0.7v1.6h2.1v0.9h-2.1v4.1c0,0.4,0.1,0.7,0.3,1
						C99.8,130.1,100.1,130.2,100.4,130.2z"/>
					<path class="st7" d="M105.9,131.1c-1.1,0-1.9-0.3-2.5-1c-0.6-0.6-0.9-1.5-0.9-2.7c0-1.1,0.3-2.1,0.9-2.7c0.6-0.7,1.3-1,2.3-1
						c0.9,0,1.6,0.3,2.2,0.9c0.5,0.6,0.8,1.4,0.8,2.4v0.7h-4.9c0,0.8,0.2,1.4,0.6,1.9c0.4,0.4,0.9,0.6,1.7,0.6c0.4,0,0.7,0,1.1-0.1
						c0.3-0.1,0.7-0.2,1.2-0.4v1c-0.4,0.2-0.8,0.3-1.1,0.4C106.8,131.1,106.4,131.1,105.9,131.1z M105.6,124.7c-0.6,0-1,0.2-1.3,0.5
						c-0.3,0.4-0.5,0.9-0.6,1.5h3.6c0-0.7-0.2-1.2-0.5-1.5C106.6,124.8,106.1,124.7,105.6,124.7z"/>
					<path class="st7" d="M111.5,131h-1.2v-10.1h1.2V131z"/>
					<path class="st7" d="M115,131h-1.2v-10.1h1.2V131z"/>
					<path class="st7" d="M120.3,131.1c-1.1,0-1.9-0.3-2.5-1c-0.6-0.6-0.9-1.5-0.9-2.7c0-1.1,0.3-2.1,0.9-2.7c0.6-0.7,1.3-1,2.3-1
						c0.9,0,1.6,0.3,2.2,0.9c0.5,0.6,0.8,1.4,0.8,2.4v0.7h-4.9c0,0.8,0.2,1.4,0.6,1.9c0.4,0.4,0.9,0.6,1.7,0.6c0.4,0,0.7,0,1.1-0.1
						c0.3-0.1,0.7-0.2,1.2-0.4v1c-0.4,0.2-0.8,0.3-1.1,0.4C121.2,131.1,120.8,131.1,120.3,131.1z M120,124.7c-0.6,0-1,0.2-1.3,0.5
						c-0.3,0.4-0.5,0.9-0.6,1.5h3.6c0-0.7-0.2-1.2-0.5-1.5C121,124.8,120.6,124.7,120,124.7z"/>
					<path class="st7" d="M129.7,131v-4.6c0-0.6-0.1-1-0.4-1.3c-0.3-0.3-0.7-0.4-1.2-0.4c-0.7,0-1.3,0.2-1.6,0.6
						c-0.3,0.4-0.5,1.1-0.5,2v3.7h-1.2v-7.2h0.9l0.2,1h0.1c0.2-0.4,0.5-0.6,0.9-0.8c0.4-0.2,0.8-0.3,1.3-0.3c0.9,0,1.5,0.2,2,0.6
						c0.4,0.4,0.6,1.1,0.6,2v4.7H129.7z"/>
				</g>
			</g>
		</g>
		<g>
			<path class="st123" d="M314.1,113.2H167.7c-7.1,0-12.8,5.7-12.8,12.8c0,7.1,5.7,12.8,12.8,12.8h146.3c7.1,0,12.8-5.7,12.8-12.8
				C326.8,118.9,321.1,113.2,314.1,113.2z"/>
			<g>
				<g>
					<path class="st7" d="M174.1,124.3c0,1-0.3,1.7-1,2.2c-0.7,0.5-1.6,0.8-2.8,0.8h-1.1v3.7H168v-9.5h2.5
						C172.9,121.5,174.1,122.4,174.1,124.3z M169.2,126.3h1c0.9,0,1.6-0.2,2.1-0.5c0.4-0.3,0.6-0.8,0.6-1.5c0-0.6-0.2-1.1-0.6-1.4
						c-0.4-0.3-1-0.5-1.9-0.5h-1.2V126.3z"/>
					<path class="st7" d="M179.3,123.7c0.3,0,0.6,0,0.8,0.1l-0.1,1.1c-0.3-0.1-0.5-0.1-0.8-0.1c-0.4,0-0.7,0.1-1.1,0.3
						c-0.3,0.2-0.6,0.5-0.8,0.9c-0.2,0.4-0.3,0.8-0.3,1.2v3.8h-1.2v-7.2h1l0.1,1.3h0.1c0.3-0.5,0.6-0.8,1-1.1
						C178.4,123.8,178.8,123.7,179.3,123.7z"/>
					<path class="st7" d="M187.7,127.4c0,1.2-0.3,2.1-0.9,2.7c-0.6,0.7-1.4,1-2.5,1c-0.6,0-1.2-0.2-1.7-0.5
						c-0.5-0.3-0.9-0.7-1.2-1.3c-0.3-0.6-0.4-1.2-0.4-2c0-1.2,0.3-2.1,0.9-2.7c0.6-0.7,1.4-1,2.5-1c1,0,1.8,0.3,2.4,1
						C187.4,125.4,187.7,126.3,187.7,127.4z M182.3,127.4c0,0.9,0.2,1.6,0.5,2.1c0.4,0.5,0.9,0.7,1.6,0.7c0.7,0,1.2-0.2,1.6-0.7
						c0.4-0.5,0.5-1.2,0.5-2.1c0-0.9-0.2-1.6-0.5-2c-0.4-0.5-0.9-0.7-1.6-0.7C183,124.7,182.3,125.6,182.3,127.4z"/>
					<path class="st7" d="M192.9,123.7c0.9,0,1.7,0.3,2.2,1s0.8,1.6,0.8,2.7c0,1.2-0.3,2.1-0.8,2.7c-0.5,0.6-1.2,1-2.2,1
						c-0.5,0-0.9-0.1-1.3-0.3c-0.4-0.2-0.7-0.4-0.9-0.8h-0.1c-0.1,0.5-0.2,0.8-0.2,0.9h-0.8v-10.1h1.2v2.5c0,0.5,0,1-0.1,1.5h0.1
						C191.2,124.1,191.9,123.7,192.9,123.7z M192.7,124.7c-0.7,0-1.2,0.2-1.6,0.6c-0.3,0.4-0.5,1.1-0.5,2.1v0.1c0,1,0.2,1.7,0.5,2.1
						c0.3,0.4,0.8,0.6,1.6,0.6c0.6,0,1.1-0.2,1.4-0.7c0.3-0.5,0.5-1.2,0.5-2c0-0.9-0.2-1.6-0.5-2
						C193.9,124.9,193.4,124.7,192.7,124.7z"/>
					<path class="st7" d="M198.9,131h-1.2v-10.1h1.2V131z"/>
					<path class="st7" d="M204.2,131.1c-1.1,0-1.9-0.3-2.5-1c-0.6-0.6-0.9-1.5-0.9-2.7c0-1.1,0.3-2.1,0.9-2.7c0.6-0.7,1.3-1,2.3-1
						c0.9,0,1.6,0.3,2.2,0.9c0.5,0.6,0.8,1.4,0.8,2.4v0.7H202c0,0.8,0.2,1.4,0.6,1.9c0.4,0.4,0.9,0.6,1.7,0.6c0.4,0,0.7,0,1.1-0.1
						c0.3-0.1,0.7-0.2,1.2-0.4v1c-0.4,0.2-0.8,0.3-1.1,0.4C205.1,131.1,204.7,131.1,204.2,131.1z M203.9,124.7c-0.6,0-1,0.2-1.3,0.5
						c-0.3,0.4-0.5,0.9-0.6,1.5h3.6c0-0.7-0.2-1.2-0.5-1.5C204.9,124.8,204.5,124.7,203.9,124.7z"/>
					<path class="st7" d="M217.8,131v-4.6c0-1.1-0.5-1.7-1.5-1.7c-0.7,0-1.2,0.2-1.5,0.6c-0.3,0.4-0.5,1-0.5,1.8v3.9h-1.2v-4.6
						c0-0.6-0.1-1-0.4-1.3c-0.2-0.3-0.6-0.4-1.1-0.4c-0.7,0-1.1,0.2-1.5,0.6c-0.3,0.4-0.5,1.1-0.5,2v3.7h-1.2v-7.2h0.9l0.2,1h0.1
						c0.2-0.3,0.5-0.6,0.9-0.8c0.4-0.2,0.8-0.3,1.2-0.3c1.1,0,1.9,0.4,2.2,1.2h0.1c0.2-0.4,0.5-0.7,0.9-0.9c0.4-0.2,0.8-0.3,1.4-0.3
						c0.8,0,1.4,0.2,1.8,0.6c0.4,0.4,0.6,1.1,0.6,2v4.7H217.8z"/>
					<path class="st7" d="M224.2,131.1c-1.1,0-1.9-0.3-2.5-1c-0.6-0.6-0.9-1.5-0.9-2.7c0-1.1,0.3-2.1,0.9-2.7c0.6-0.7,1.3-1,2.3-1
						c0.9,0,1.6,0.3,2.2,0.9c0.5,0.6,0.8,1.4,0.8,2.4v0.7H222c0,0.8,0.2,1.4,0.6,1.9c0.4,0.4,0.9,0.6,1.7,0.6c0.4,0,0.7,0,1.1-0.1
						c0.3-0.1,0.7-0.2,1.2-0.4v1c-0.4,0.2-0.8,0.3-1.1,0.4C225.1,131.1,224.7,131.1,224.2,131.1z M223.9,124.7c-0.6,0-1,0.2-1.3,0.5
						c-0.3,0.4-0.5,0.9-0.6,1.5h3.6c0-0.7-0.2-1.2-0.5-1.5C224.9,124.8,224.5,124.7,223.9,124.7z"/>
					<path class="st7" d="M238,131l-1.2-4c-0.1-0.3-0.3-1-0.5-1.9h-0.1c-0.2,0.8-0.3,1.5-0.5,1.9l-1.3,4h-1.3l-2-7.2h1.2
						c0.5,1.8,0.8,3.1,1,4c0.2,0.9,0.4,1.6,0.4,1.9h0.1l0.1-0.4c0.1-0.6,0.3-1.1,0.4-1.5l1.3-4h1.3l1.2,4c0,0.2,0.1,0.3,0.1,0.5
						c0,0.2,0.1,0.3,0.1,0.5c0,0.2,0.1,0.3,0.1,0.5c0,0.2,0.1,0.3,0.1,0.4h0.1c0-0.3,0.2-1,0.5-2.1l1-3.8h1.2l-2,7.2H238z"/>
					<path class="st7" d="M247.1,131l-0.2-1h-0.1c-0.4,0.4-0.7,0.8-1.1,0.9c-0.4,0.2-0.8,0.2-1.3,0.2c-0.7,0-1.3-0.2-1.7-0.6
						c-0.4-0.4-0.6-0.9-0.6-1.6c0-1.5,1.1-2.2,3.4-2.3l1.2,0v-0.4c0-0.5-0.1-0.9-0.4-1.2c-0.2-0.3-0.6-0.4-1.1-0.4
						c-0.4,0-0.7,0.1-1.1,0.2c-0.3,0.1-0.7,0.2-0.9,0.4l-0.4-0.9c0.4-0.2,0.8-0.3,1.2-0.5c0.4-0.1,0.8-0.2,1.3-0.2
						c0.9,0,1.5,0.2,1.9,0.6c0.4,0.4,0.6,1,0.6,1.8v4.9H247.1z M244.7,130.2c0.7,0,1.2-0.2,1.5-0.5c0.4-0.4,0.6-0.9,0.6-1.5v-0.6
						l-1.1,0c-0.8,0-1.4,0.2-1.8,0.4c-0.4,0.2-0.6,0.6-0.6,1.1c0,0.4,0.1,0.7,0.3,0.9C243.9,130.1,244.3,130.2,244.7,130.2z"/>
					<path class="st7" d="M255,131v-4.6c0-0.6-0.1-1-0.4-1.3c-0.3-0.3-0.7-0.4-1.2-0.4c-0.7,0-1.3,0.2-1.6,0.6
						c-0.3,0.4-0.5,1.1-0.5,2v3.7h-1.2v-10.1h1.2v3c0,0.4,0,0.7-0.1,1h0.1c0.2-0.3,0.5-0.6,0.9-0.8c0.4-0.2,0.8-0.3,1.3-0.3
						c0.9,0,1.5,0.2,2,0.6c0.4,0.4,0.7,1.1,0.7,2v4.7H255z"/>
					<path class="st7" d="M261.8,123.7c0.3,0,0.6,0,0.8,0.1l-0.1,1.1c-0.3-0.1-0.5-0.1-0.8-0.1c-0.4,0-0.7,0.1-1.1,0.3
						c-0.3,0.2-0.6,0.5-0.8,0.9c-0.2,0.4-0.3,0.8-0.3,1.2v3.8h-1.2v-7.2h1l0.1,1.3h0.1c0.3-0.5,0.6-0.8,1-1.1
						C260.9,123.8,261.3,123.7,261.8,123.7z"/>
					<path class="st7" d="M268.8,131v-4.6c0-0.6-0.1-1-0.4-1.3c-0.3-0.3-0.7-0.4-1.2-0.4c-0.7,0-1.3,0.2-1.6,0.6
						c-0.3,0.4-0.5,1.1-0.5,2v3.7h-1.2v-7.2h0.9l0.2,1h0.1c0.2-0.4,0.5-0.6,0.9-0.8c0.4-0.2,0.8-0.3,1.3-0.3c0.9,0,1.5,0.2,2,0.6
						c0.4,0.4,0.6,1.1,0.6,2v4.7H268.8z"/>
					<path class="st7" d="M275.2,131.1c-1.1,0-1.9-0.3-2.5-1c-0.6-0.6-0.9-1.5-0.9-2.7c0-1.1,0.3-2.1,0.9-2.7c0.6-0.7,1.3-1,2.3-1
						c0.9,0,1.6,0.3,2.2,0.9c0.5,0.6,0.8,1.4,0.8,2.4v0.7H273c0,0.8,0.2,1.4,0.6,1.9c0.4,0.4,0.9,0.6,1.7,0.6c0.4,0,0.7,0,1.1-0.1
						c0.3-0.1,0.7-0.2,1.2-0.4v1c-0.4,0.2-0.8,0.3-1.1,0.4C276.1,131.1,275.7,131.1,275.2,131.1z M274.9,124.7c-0.6,0-1,0.2-1.3,0.5
						c-0.3,0.4-0.5,0.9-0.6,1.5h3.6c0-0.7-0.2-1.2-0.5-1.5C275.9,124.8,275.5,124.7,274.9,124.7z"/>
					<path class="st7" d="M284.6,131v-4.6c0-0.6-0.1-1-0.4-1.3s-0.7-0.4-1.2-0.4c-0.7,0-1.3,0.2-1.6,0.6c-0.3,0.4-0.5,1.1-0.5,2v3.7
						h-1.2v-10.1h1.2v3c0,0.4,0,0.7-0.1,1h0.1c0.2-0.3,0.5-0.6,0.9-0.8c0.4-0.2,0.8-0.3,1.3-0.3c0.9,0,1.5,0.2,2,0.6
						c0.4,0.4,0.7,1.1,0.7,2v4.7H284.6z"/>
					<path class="st7" d="M297.1,131v-4.6c0-1.1-0.5-1.7-1.5-1.7c-0.7,0-1.2,0.2-1.5,0.6s-0.5,1-0.5,1.8v3.9h-1.2v-4.6
						c0-0.6-0.1-1-0.4-1.3c-0.2-0.3-0.6-0.4-1.1-0.4c-0.7,0-1.1,0.2-1.5,0.6c-0.3,0.4-0.5,1.1-0.5,2v3.7H288v-7.2h0.9l0.2,1h0.1
						c0.2-0.3,0.5-0.6,0.9-0.8c0.4-0.2,0.8-0.3,1.2-0.3c1.1,0,1.9,0.4,2.2,1.2h0.1c0.2-0.4,0.5-0.7,0.9-0.9c0.4-0.2,0.8-0.3,1.4-0.3
						c0.8,0,1.4,0.2,1.8,0.6c0.4,0.4,0.6,1.1,0.6,2v4.7H297.1z"/>
					<path class="st7" d="M303.5,131.1c-1.1,0-1.9-0.3-2.5-1c-0.6-0.6-0.9-1.5-0.9-2.7c0-1.1,0.3-2.1,0.9-2.7c0.6-0.7,1.3-1,2.3-1
						c0.9,0,1.6,0.3,2.2,0.9c0.5,0.6,0.8,1.4,0.8,2.4v0.7h-4.9c0,0.8,0.2,1.4,0.6,1.9c0.4,0.4,0.9,0.6,1.7,0.6c0.4,0,0.7,0,1.1-0.1
						c0.3-0.1,0.7-0.2,1.2-0.4v1c-0.4,0.2-0.8,0.3-1.1,0.4C304.4,131.1,304,131.1,303.5,131.1z M303.2,124.7c-0.6,0-1,0.2-1.3,0.5
						c-0.3,0.4-0.5,0.9-0.6,1.5h3.6c0-0.7-0.2-1.2-0.5-1.5C304.2,124.8,303.7,124.7,303.2,124.7z"/>
					<path class="st7" d="M312.8,131v-4.6c0-0.6-0.1-1-0.4-1.3s-0.7-0.4-1.2-0.4c-0.7,0-1.3,0.2-1.6,0.6c-0.3,0.4-0.5,1.1-0.5,2v3.7
						H308v-7.2h0.9l0.2,1h0.1c0.2-0.4,0.5-0.6,0.9-0.8c0.4-0.2,0.8-0.3,1.3-0.3c0.9,0,1.5,0.2,2,0.6c0.4,0.4,0.6,1.1,0.6,2v4.7
						H312.8z"/>
				</g>
			</g>
		</g>
	</g>
	<g>
		<path class="st123" d="M166.2,150.1H37.3c-7.1,0-12.8,5.7-12.8,12.8c0,7.1,5.7,12.8,12.8,12.8h128.9c7.1,0,12.8-5.7,12.8-12.8
			C179,155.9,173.3,150.1,166.2,150.1z"/>
		<g>
			<g>
				<path class="st7" d="M42.4,167.9h-1.2v-8.5h-3v-1.1h7.1v1.1h-3V167.9z"/>
				<path class="st7" d="M51.5,167.9v-4.6c0-0.6-0.1-1-0.4-1.3s-0.7-0.4-1.2-0.4c-0.7,0-1.3,0.2-1.6,0.6c-0.3,0.4-0.5,1.1-0.5,2v3.7
					h-1.2v-10.1h1.2v3c0,0.4,0,0.7-0.1,1h0.1c0.2-0.3,0.5-0.6,0.9-0.8c0.4-0.2,0.8-0.3,1.3-0.3c0.9,0,1.5,0.2,2,0.6
					c0.4,0.4,0.7,1.1,0.7,2v4.7H51.5z"/>
				<path class="st7" d="M57.9,168c-1.1,0-1.9-0.3-2.5-1c-0.6-0.6-0.9-1.5-0.9-2.7c0-1.1,0.3-2.1,0.9-2.7c0.6-0.7,1.3-1,2.3-1
					c0.9,0,1.6,0.3,2.2,0.9c0.5,0.6,0.8,1.4,0.8,2.4v0.7h-4.9c0,0.8,0.2,1.4,0.6,1.9c0.4,0.4,0.9,0.6,1.7,0.6c0.4,0,0.7,0,1.1-0.1
					c0.3-0.1,0.7-0.2,1.2-0.4v1c-0.4,0.2-0.8,0.3-1.1,0.4C58.8,168,58.4,168,57.9,168z M57.6,161.6c-0.6,0-1,0.2-1.3,0.5
					c-0.3,0.4-0.5,0.9-0.6,1.5h3.6c0-0.7-0.2-1.2-0.5-1.5C58.6,161.8,58.1,161.6,57.6,161.6z"/>
				<path class="st7" d="M71.5,167.9v-4.6c0-1.1-0.5-1.7-1.5-1.7c-0.7,0-1.2,0.2-1.5,0.6c-0.3,0.4-0.5,1-0.5,1.8v3.9h-1.2v-4.6
					c0-0.6-0.1-1-0.4-1.3c-0.2-0.3-0.6-0.4-1.1-0.4c-0.7,0-1.1,0.2-1.5,0.6c-0.3,0.4-0.5,1.1-0.5,2v3.7h-1.2v-7.2h0.9l0.2,1h0.1
					c0.2-0.3,0.5-0.6,0.9-0.8c0.4-0.2,0.8-0.3,1.2-0.3c1.1,0,1.9,0.4,2.2,1.2h0.1c0.2-0.4,0.5-0.7,0.9-0.9c0.4-0.2,0.8-0.3,1.4-0.3
					c0.8,0,1.4,0.2,1.8,0.6c0.4,0.4,0.6,1.1,0.6,2v4.7H71.5z"/>
				<path class="st7" d="M77.9,168c-1.1,0-1.9-0.3-2.5-1c-0.6-0.6-0.9-1.5-0.9-2.7c0-1.1,0.3-2.1,0.9-2.7c0.6-0.7,1.3-1,2.3-1
					c0.9,0,1.6,0.3,2.2,0.9c0.5,0.6,0.8,1.4,0.8,2.4v0.7h-4.9c0,0.8,0.2,1.4,0.6,1.9c0.4,0.4,0.9,0.6,1.7,0.6c0.4,0,0.7,0,1.1-0.1
					c0.3-0.1,0.7-0.2,1.2-0.4v1c-0.4,0.2-0.8,0.3-1.1,0.4C78.8,168,78.4,168,77.9,168z M77.6,161.6c-0.6,0-1,0.2-1.3,0.5
					c-0.3,0.4-0.5,0.9-0.6,1.5h3.6c0-0.7-0.2-1.2-0.5-1.5C78.6,161.8,78.2,161.6,77.6,161.6z"/>
				<path class="st7" d="M87.3,167.9v-4.6c0-0.6-0.1-1-0.4-1.3c-0.3-0.3-0.7-0.4-1.2-0.4c-0.7,0-1.3,0.2-1.6,0.6
					c-0.3,0.4-0.5,1.1-0.5,2v3.7h-1.2v-7.2h0.9l0.2,1h0.1c0.2-0.4,0.5-0.6,0.9-0.8c0.4-0.2,0.8-0.3,1.3-0.3c0.9,0,1.5,0.2,2,0.6
					c0.4,0.4,0.6,1.1,0.6,2v4.7H87.3z"/>
				<path class="st7" d="M98.5,167.9l-0.2-1h-0.1c-0.4,0.4-0.7,0.8-1.1,0.9c-0.4,0.2-0.8,0.2-1.3,0.2c-0.7,0-1.3-0.2-1.7-0.6
					c-0.4-0.4-0.6-0.9-0.6-1.6c0-1.5,1.1-2.2,3.4-2.3l1.2,0v-0.4c0-0.5-0.1-0.9-0.4-1.2c-0.2-0.3-0.6-0.4-1.1-0.4
					c-0.4,0-0.7,0.1-1.1,0.2c-0.3,0.1-0.7,0.2-0.9,0.4l-0.4-0.9c0.4-0.2,0.8-0.3,1.2-0.5c0.4-0.1,0.8-0.2,1.3-0.2
					c0.9,0,1.5,0.2,1.9,0.6c0.4,0.4,0.6,1,0.6,1.8v4.9H98.5z M96.1,167.1c0.7,0,1.2-0.2,1.5-0.5c0.4-0.4,0.6-0.9,0.6-1.5v-0.6
					l-1.1,0c-0.8,0-1.4,0.2-1.8,0.4c-0.4,0.2-0.6,0.6-0.6,1.1c0,0.4,0.1,0.7,0.3,0.9C95.4,167,95.7,167.1,96.1,167.1z"/>
				<path class="st7" d="M105,160.6c0.9,0,1.7,0.3,2.2,1c0.5,0.6,0.8,1.6,0.8,2.7c0,1.2-0.3,2.1-0.8,2.7c-0.5,0.6-1.2,1-2.2,1
					c-0.5,0-0.9-0.1-1.3-0.3c-0.4-0.2-0.7-0.4-0.9-0.8h-0.1c-0.1,0.5-0.2,0.8-0.2,0.9h-0.8v-10.1h1.2v2.5c0,0.5,0,1-0.1,1.5h0.1
					C103.3,161,104,160.6,105,160.6z M104.8,161.6c-0.7,0-1.2,0.2-1.6,0.6c-0.3,0.4-0.5,1.1-0.5,2.1v0.1c0,1,0.2,1.7,0.5,2.1
					c0.3,0.4,0.8,0.6,1.6,0.6c0.6,0,1.1-0.2,1.4-0.7c0.3-0.5,0.5-1.2,0.5-2c0-0.9-0.2-1.6-0.5-2
					C105.9,161.8,105.4,161.6,104.8,161.6z"/>
				<path class="st7" d="M113.2,160.6c0.9,0,1.7,0.3,2.2,1c0.5,0.6,0.8,1.6,0.8,2.7c0,1.2-0.3,2.1-0.8,2.7c-0.5,0.6-1.2,1-2.2,1
					c-0.5,0-0.9-0.1-1.3-0.3c-0.4-0.2-0.7-0.4-0.9-0.8h-0.1c-0.1,0.5-0.2,0.8-0.2,0.9h-0.8v-10.1h1.2v2.5c0,0.5,0,1-0.1,1.5h0.1
					C111.5,161,112.2,160.6,113.2,160.6z M113,161.6c-0.7,0-1.2,0.2-1.6,0.6c-0.3,0.4-0.5,1.1-0.5,2.1v0.1c0,1,0.2,1.7,0.5,2.1
					c0.3,0.4,0.8,0.6,1.6,0.6c0.6,0,1.1-0.2,1.4-0.7c0.3-0.5,0.5-1.2,0.5-2c0-0.9-0.2-1.6-0.5-2C114.1,161.8,113.7,161.6,113,161.6z
					"/>
				<path class="st7" d="M124.2,164.3c0,1.2-0.3,2.1-0.9,2.7c-0.6,0.7-1.4,1-2.5,1c-0.6,0-1.2-0.2-1.7-0.5c-0.5-0.3-0.9-0.7-1.2-1.3
					c-0.3-0.6-0.4-1.2-0.4-2c0-1.2,0.3-2.1,0.9-2.7c0.6-0.7,1.4-1,2.5-1c1,0,1.8,0.3,2.4,1C123.9,162.3,124.2,163.2,124.2,164.3z
					 M118.8,164.3c0,0.9,0.2,1.6,0.5,2.1c0.4,0.5,0.9,0.7,1.6,0.7c0.7,0,1.2-0.2,1.6-0.7c0.4-0.5,0.5-1.2,0.5-2.1
					c0-0.9-0.2-1.6-0.5-2c-0.4-0.5-0.9-0.7-1.6-0.7C119.5,161.6,118.8,162.5,118.8,164.3z"/>
				<path class="st7" d="M131,167.9v-4.6c0-0.6-0.1-1-0.4-1.3s-0.7-0.4-1.2-0.4c-0.7,0-1.3,0.2-1.6,0.6c-0.3,0.4-0.5,1.1-0.5,2v3.7
					h-1.2v-7.2h0.9l0.2,1h0.1c0.2-0.4,0.5-0.6,0.9-0.8c0.4-0.2,0.8-0.3,1.3-0.3c0.9,0,1.5,0.2,2,0.6c0.4,0.4,0.6,1.1,0.6,2v4.7H131z
					"/>
				<path class="st7" d="M134.3,158.8c0-0.3,0.1-0.4,0.2-0.6c0.1-0.1,0.3-0.2,0.5-0.2c0.2,0,0.3,0.1,0.5,0.2
					c0.1,0.1,0.2,0.3,0.2,0.6c0,0.3-0.1,0.4-0.2,0.6c-0.1,0.1-0.3,0.2-0.5,0.2c-0.2,0-0.4-0.1-0.5-0.2
					C134.3,159.3,134.3,159.1,134.3,158.8z M135.5,167.9h-1.2v-7.2h1.2V167.9z"/>
				<path class="st7" d="M140.8,168c-1.1,0-1.9-0.3-2.5-1c-0.6-0.6-0.9-1.5-0.9-2.7c0-1.1,0.3-2.1,0.9-2.7c0.6-0.7,1.3-1,2.3-1
					c0.9,0,1.6,0.3,2.2,0.9c0.5,0.6,0.8,1.4,0.8,2.4v0.7h-4.9c0,0.8,0.2,1.4,0.6,1.9c0.4,0.4,0.9,0.6,1.7,0.6c0.4,0,0.7,0,1.1-0.1
					c0.3-0.1,0.7-0.2,1.2-0.4v1c-0.4,0.2-0.8,0.3-1.1,0.4C141.7,168,141.3,168,140.8,168z M140.5,161.6c-0.6,0-1,0.2-1.3,0.5
					c-0.3,0.4-0.5,0.9-0.6,1.5h3.6c0-0.7-0.2-1.2-0.5-1.5C141.5,161.8,141.1,161.6,140.5,161.6z"/>
				<path class="st7" d="M148.7,160.6c0.3,0,0.6,0,0.8,0.1l-0.1,1.1c-0.3-0.1-0.5-0.1-0.8-0.1c-0.4,0-0.7,0.1-1.1,0.3
					c-0.3,0.2-0.6,0.5-0.8,0.9c-0.2,0.4-0.3,0.8-0.3,1.2v3.8h-1.2v-7.2h1l0.1,1.3h0.1c0.3-0.5,0.6-0.8,1-1.1
					C147.8,160.7,148.2,160.6,148.7,160.6z"/>
				<path class="st7" d="M153.9,168c-1.1,0-1.9-0.3-2.5-1c-0.6-0.6-0.9-1.5-0.9-2.7c0-1.1,0.3-2.1,0.9-2.7c0.6-0.7,1.3-1,2.3-1
					c0.9,0,1.6,0.3,2.2,0.9c0.5,0.6,0.8,1.4,0.8,2.4v0.7h-4.9c0,0.8,0.2,1.4,0.6,1.9c0.4,0.4,0.9,0.6,1.7,0.6c0.4,0,0.7,0,1.1-0.1
					c0.3-0.1,0.7-0.2,1.2-0.4v1c-0.4,0.2-0.8,0.3-1.1,0.4C154.8,168,154.3,168,153.9,168z M153.6,161.6c-0.6,0-1,0.2-1.3,0.5
					c-0.3,0.4-0.5,0.9-0.6,1.5h3.6c0-0.7-0.2-1.2-0.5-1.5C154.6,161.8,154.1,161.6,153.6,161.6z"/>
				<path class="st7" d="M163.2,167.9v-4.6c0-0.6-0.1-1-0.4-1.3c-0.3-0.3-0.7-0.4-1.2-0.4c-0.7,0-1.3,0.2-1.6,0.6
					c-0.3,0.4-0.5,1.1-0.5,2v3.7h-1.2v-7.2h0.9l0.2,1h0.1c0.2-0.4,0.5-0.6,0.9-0.8c0.4-0.2,0.8-0.3,1.3-0.3c0.9,0,1.5,0.2,2,0.6
					c0.4,0.4,0.6,1.1,0.6,2v4.7H163.2z"/>
			</g>
		</g>
		<path class="st123" d="M305,150.1H198.2c-7.1,0-12.8,5.7-12.8,12.8c0,7.1,5.7,12.8,12.8,12.8H305c7.1,0,12.8-5.7,12.8-12.8
			C317.8,155.9,312,150.1,305,150.1z"/>
		<g>
			<g>
				<path class="st7" d="M208.1,167.9l-1.1-3h-3.8l-1.1,3h-1.2l3.7-9.6h1.1l3.7,9.6H208.1z M206.6,163.9l-1.1-2.9l-0.5-1.4
					c-0.1,0.5-0.3,1-0.4,1.4l-1.1,2.9H206.6z"/>
				<path class="st7" d="M213.9,160.6c0.3,0,0.6,0,0.8,0.1l-0.1,1.1c-0.3-0.1-0.5-0.1-0.8-0.1c-0.4,0-0.7,0.1-1.1,0.3
					c-0.3,0.2-0.6,0.5-0.8,0.9c-0.2,0.4-0.3,0.8-0.3,1.2v3.8h-1.2v-7.2h1l0.1,1.3h0.1c0.3-0.5,0.6-0.8,1-1.1
					C213,160.7,213.4,160.6,213.9,160.6z"/>
				<path class="st7" d="M218.4,167.1c0.2,0,0.3,0,0.5,0c0.2,0,0.4-0.1,0.5-0.1v0.9c-0.1,0-0.3,0.1-0.5,0.1c-0.2,0-0.5,0.1-0.7,0.1
					c-1.4,0-2.1-0.7-2.1-2.2v-4.2h-1v-0.6l1-0.5l0.5-1.5h0.7v1.6h2.1v0.9h-2.1v4.1c0,0.4,0.1,0.7,0.3,1
					C217.8,167,218.1,167.1,218.4,167.1z"/>
				<path class="st7" d="M220.8,158.8c0-0.3,0.1-0.4,0.2-0.6c0.1-0.1,0.3-0.2,0.5-0.2c0.2,0,0.3,0.1,0.5,0.2
					c0.1,0.1,0.2,0.3,0.2,0.6c0,0.3-0.1,0.4-0.2,0.6c-0.1,0.1-0.3,0.2-0.5,0.2c-0.2,0-0.4-0.1-0.5-0.2
					C220.8,159.3,220.8,159.1,220.8,158.8z M222,167.9h-1.2v-7.2h1.2V167.9z"/>
				<path class="st7" d="M225.5,164.2l0.4-0.5l0.5-0.5l2.3-2.4h1.4l-2.9,3.1l3.1,4.1h-1.4l-2.5-3.3l-0.8,0.7v2.6h-1.2v-10.1h1.2v5.3
					V164.2L225.5,164.2z"/>
				<path class="st7" d="M234.5,168c-1.1,0-1.9-0.3-2.5-1c-0.6-0.6-0.9-1.5-0.9-2.7c0-1.1,0.3-2.1,0.9-2.7c0.6-0.7,1.3-1,2.3-1
					c0.9,0,1.6,0.3,2.2,0.9c0.5,0.6,0.8,1.4,0.8,2.4v0.7h-4.9c0,0.8,0.2,1.4,0.6,1.9c0.4,0.4,0.9,0.6,1.7,0.6c0.4,0,0.7,0,1.1-0.1
					c0.3-0.1,0.7-0.2,1.2-0.4v1c-0.4,0.2-0.8,0.3-1.1,0.4C235.4,168,234.9,168,234.5,168z M234.2,161.6c-0.6,0-1,0.2-1.3,0.5
					c-0.3,0.4-0.5,0.9-0.6,1.5h3.6c0-0.7-0.2-1.2-0.5-1.5C235.1,161.8,234.7,161.6,234.2,161.6z"/>
				<path class="st7" d="M240.1,167.9H239v-10.1h1.2V167.9z"/>
				<path class="st7" d="M247.4,167.9l-2.7-7.2h1.3l1.5,4.2c0.3,0.8,0.5,1.5,0.6,1.9h0.1c0-0.1,0-0.1,0-0.2c0-0.1,0-0.2,0.1-0.2
					c0-0.1,0.2-0.6,0.5-1.5l1.5-4.2h1.3l-2.7,7.2H247.4z"/>
				<path class="st7" d="M255.7,168c-1.1,0-1.9-0.3-2.5-1c-0.6-0.6-0.9-1.5-0.9-2.7c0-1.1,0.3-2.1,0.9-2.7c0.6-0.7,1.3-1,2.3-1
					c0.9,0,1.6,0.3,2.2,0.9c0.5,0.6,0.8,1.4,0.8,2.4v0.7h-4.9c0,0.8,0.2,1.4,0.6,1.9c0.4,0.4,0.9,0.6,1.7,0.6c0.4,0,0.7,0,1.1-0.1
					c0.3-0.1,0.7-0.2,1.2-0.4v1c-0.4,0.2-0.8,0.3-1.1,0.4C256.6,168,256.2,168,255.7,168z M255.4,161.6c-0.6,0-1,0.2-1.3,0.5
					c-0.3,0.4-0.5,0.9-0.6,1.5h3.6c0-0.7-0.2-1.2-0.5-1.5C256.4,161.8,255.9,161.6,255.4,161.6z"/>
				<path class="st7" d="M263.5,160.6c0.3,0,0.6,0,0.8,0.1l-0.1,1.1c-0.3-0.1-0.5-0.1-0.8-0.1c-0.4,0-0.7,0.1-1.1,0.3
					c-0.3,0.2-0.6,0.5-0.8,0.9c-0.2,0.4-0.3,0.8-0.3,1.2v3.8h-1.2v-7.2h1l0.1,1.3h0.1c0.3-0.5,0.6-0.8,1-1.1
					C262.7,160.7,263.1,160.6,263.5,160.6z"/>
				<path class="st7" d="M266.9,167.9h-1.2v-10.1h1.2V167.9z"/>
				<path class="st7" d="M269,158.8c0-0.3,0.1-0.4,0.2-0.6c0.1-0.1,0.3-0.2,0.5-0.2c0.2,0,0.3,0.1,0.5,0.2c0.1,0.1,0.2,0.3,0.2,0.6
					c0,0.3-0.1,0.4-0.2,0.6c-0.1,0.1-0.3,0.2-0.5,0.2c-0.2,0-0.4-0.1-0.5-0.2C269.1,159.3,269,159.1,269,158.8z M270.3,167.9h-1.2
					v-7.2h1.2V167.9z"/>
				<path class="st7" d="M277.4,167.9v-4.6c0-0.6-0.1-1-0.4-1.3c-0.3-0.3-0.7-0.4-1.2-0.4c-0.7,0-1.3,0.2-1.6,0.6
					c-0.3,0.4-0.5,1.1-0.5,2v3.7h-1.2v-7.2h0.9l0.2,1h0.1c0.2-0.4,0.5-0.6,0.9-0.8c0.4-0.2,0.8-0.3,1.3-0.3c0.9,0,1.5,0.2,2,0.6
					c0.4,0.4,0.6,1.1,0.6,2v4.7H277.4z"/>
				<path class="st7" d="M282,164.2l0.4-0.5l0.5-0.5l2.3-2.4h1.4l-2.9,3.1l3.1,4.1h-1.4l-2.5-3.3l-0.8,0.7v2.6h-1.2v-10.1h1.2v5.3
					V164.2L282,164.2z"/>
				<path class="st7" d="M291,168c-1.1,0-1.9-0.3-2.5-1c-0.6-0.6-0.9-1.5-0.9-2.7c0-1.1,0.3-2.1,0.9-2.7c0.6-0.7,1.3-1,2.3-1
					c0.9,0,1.6,0.3,2.2,0.9c0.5,0.6,0.8,1.4,0.8,2.4v0.7h-4.9c0,0.8,0.2,1.4,0.6,1.9c0.4,0.4,0.9,0.6,1.7,0.6c0.4,0,0.7,0,1.1-0.1
					c0.3-0.1,0.7-0.2,1.2-0.4v1c-0.4,0.2-0.8,0.3-1.1,0.4C291.9,168,291.5,168,291,168z M290.7,161.6c-0.6,0-1,0.2-1.3,0.5
					c-0.3,0.4-0.5,0.9-0.6,1.5h3.6c0-0.7-0.2-1.2-0.5-1.5C291.7,161.8,291.2,161.6,290.7,161.6z"/>
				<path class="st7" d="M300.3,167.9v-4.6c0-0.6-0.1-1-0.4-1.3c-0.3-0.3-0.7-0.4-1.2-0.4c-0.7,0-1.3,0.2-1.6,0.6
					c-0.3,0.4-0.5,1.1-0.5,2v3.7h-1.2v-7.2h0.9l0.2,1h0.1c0.2-0.4,0.5-0.6,0.9-0.8c0.4-0.2,0.8-0.3,1.3-0.3c0.9,0,1.5,0.2,2,0.6
					c0.4,0.4,0.6,1.1,0.6,2v4.7H300.3z"/>
			</g>
		</g>
	</g>
	<g>
		<path class="st123" d="M315.1,37.6H185.3c-7.1,0-12.8,5.7-12.8,12.8c0,7.1,5.7,12.8,12.8,12.8h129.9c7.1,0,12.8-5.7,12.8-12.8
			C327.9,43.3,322.2,37.6,315.1,37.6z"/>
		<g>
			<g>
				<path class="st7" d="M192.3,48.7c0,1-0.3,1.7-1,2.2c-0.7,0.5-1.6,0.8-2.8,0.8h-1.1v3.7h-1.2v-9.5h2.5
					C191.1,45.9,192.3,46.8,192.3,48.7z M187.4,50.7h1c0.9,0,1.6-0.2,2.1-0.5c0.4-0.3,0.6-0.8,0.6-1.5c0-0.6-0.2-1.1-0.6-1.4
					c-0.4-0.3-1-0.5-1.9-0.5h-1.2V50.7z"/>
				<path class="st7" d="M197.2,55.5c-1.1,0-1.9-0.3-2.5-1c-0.6-0.6-0.9-1.5-0.9-2.7c0-1.1,0.3-2.1,0.9-2.7c0.6-0.7,1.3-1,2.3-1
					c0.9,0,1.6,0.3,2.2,0.9c0.5,0.6,0.8,1.4,0.8,2.4V52h-4.9c0,0.8,0.2,1.4,0.6,1.9c0.4,0.4,0.9,0.6,1.7,0.6c0.4,0,0.7,0,1.1-0.1
					c0.3-0.1,0.7-0.2,1.2-0.4v1c-0.4,0.2-0.8,0.3-1.1,0.4C198.1,55.5,197.6,55.5,197.2,55.5z M196.9,49.1c-0.6,0-1,0.2-1.3,0.5
					c-0.3,0.4-0.5,0.9-0.6,1.5h3.6c0-0.7-0.2-1.2-0.5-1.5C197.9,49.2,197.4,49.1,196.9,49.1z"/>
				<path class="st7" d="M204,54.6c0.2,0,0.3,0,0.5,0c0.2,0,0.4-0.1,0.5-0.1v0.9c-0.1,0-0.3,0.1-0.5,0.1c-0.2,0-0.5,0.1-0.7,0.1
					c-1.4,0-2.1-0.7-2.1-2.2v-4.2h-1v-0.6l1-0.5l0.5-1.5h0.7v1.6h2.1v0.9h-2.1v4.1c0,0.4,0.1,0.7,0.3,1
					C203.4,54.5,203.7,54.6,204,54.6z"/>
				<path class="st7" d="M206.4,46.3c0-0.3,0.1-0.4,0.2-0.6c0.1-0.1,0.3-0.2,0.5-0.2c0.2,0,0.3,0.1,0.5,0.2c0.1,0.1,0.2,0.3,0.2,0.6
					c0,0.3-0.1,0.4-0.2,0.6c-0.1,0.1-0.3,0.2-0.5,0.2c-0.2,0-0.4-0.1-0.5-0.2C206.4,46.7,206.4,46.6,206.4,46.3z M207.6,55.4h-1.2
					v-7.2h1.2V55.4z"/>
				<path class="st7" d="M212.3,54.6c0.2,0,0.3,0,0.5,0c0.2,0,0.4-0.1,0.5-0.1v0.9c-0.1,0-0.3,0.1-0.5,0.1c-0.2,0-0.5,0.1-0.7,0.1
					c-1.4,0-2.1-0.7-2.1-2.2v-4.2h-1v-0.6l1-0.5l0.5-1.5h0.7v1.6h2.1v0.9h-2.1v4.1c0,0.4,0.1,0.7,0.3,1
					C211.7,54.5,212,54.6,212.3,54.6z"/>
				<path class="st7" d="M214.6,46.3c0-0.3,0.1-0.4,0.2-0.6c0.1-0.1,0.3-0.2,0.5-0.2c0.2,0,0.3,0.1,0.5,0.2c0.1,0.1,0.2,0.3,0.2,0.6
					c0,0.3-0.1,0.4-0.2,0.6c-0.1,0.1-0.3,0.2-0.5,0.2c-0.2,0-0.4-0.1-0.5-0.2C214.7,46.7,214.6,46.6,214.6,46.3z M215.9,55.4h-1.2
					v-7.2h1.2V55.4z"/>
				<path class="st7" d="M224.4,51.8c0,1.2-0.3,2.1-0.9,2.7c-0.6,0.7-1.4,1-2.5,1c-0.6,0-1.2-0.2-1.7-0.5c-0.5-0.3-0.9-0.7-1.2-1.3
					c-0.3-0.6-0.4-1.2-0.4-2c0-1.2,0.3-2.1,0.9-2.7c0.6-0.7,1.4-1,2.5-1c1,0,1.8,0.3,2.4,1C224.1,49.8,224.4,50.7,224.4,51.8z
					 M219,51.8c0,0.9,0.2,1.6,0.5,2.1c0.4,0.5,0.9,0.7,1.6,0.7c0.7,0,1.2-0.2,1.6-0.7c0.4-0.5,0.5-1.2,0.5-2.1c0-0.9-0.2-1.6-0.5-2
					c-0.4-0.5-0.9-0.7-1.6-0.7C219.7,49.1,219,50,219,51.8z"/>
				<path class="st7" d="M231.1,55.4v-4.6c0-0.6-0.1-1-0.4-1.3c-0.3-0.3-0.7-0.4-1.2-0.4c-0.7,0-1.3,0.2-1.6,0.6
					c-0.3,0.4-0.5,1.1-0.5,2v3.7h-1.2v-7.2h0.9l0.2,1h0.1c0.2-0.4,0.5-0.6,0.9-0.8c0.4-0.2,0.8-0.3,1.3-0.3c0.9,0,1.5,0.2,2,0.6
					c0.4,0.4,0.6,1.1,0.6,2v4.7H231.1z"/>
				<path class="st7" d="M237.5,55.5c-1.1,0-1.9-0.3-2.5-1c-0.6-0.6-0.9-1.5-0.9-2.7c0-1.1,0.3-2.1,0.9-2.7c0.6-0.7,1.3-1,2.3-1
					c0.9,0,1.6,0.3,2.2,0.9c0.5,0.6,0.8,1.4,0.8,2.4V52h-4.9c0,0.8,0.2,1.4,0.6,1.9c0.4,0.4,0.9,0.6,1.7,0.6c0.4,0,0.7,0,1.1-0.1
					c0.3-0.1,0.7-0.2,1.2-0.4v1c-0.4,0.2-0.8,0.3-1.1,0.4C238.4,55.5,238,55.5,237.5,55.5z M237.3,49.1c-0.6,0-1,0.2-1.3,0.5
					c-0.3,0.4-0.5,0.9-0.6,1.5h3.6c0-0.7-0.2-1.2-0.5-1.5C238.2,49.2,237.8,49.1,237.3,49.1z"/>
				<path class="st7" d="M246.9,55.4v-4.6c0-0.6-0.1-1-0.4-1.3c-0.3-0.3-0.7-0.4-1.2-0.4c-0.7,0-1.3,0.2-1.6,0.6
					c-0.3,0.4-0.5,1.1-0.5,2v3.7H242v-7.2h0.9l0.2,1h0.1c0.2-0.4,0.5-0.6,0.9-0.8c0.4-0.2,0.8-0.3,1.3-0.3c0.9,0,1.5,0.2,2,0.6
					c0.4,0.4,0.6,1.1,0.6,2v4.7H246.9z"/>
				<path class="st7" d="M257.1,48.1c0.9,0,1.7,0.3,2.2,1c0.5,0.6,0.8,1.6,0.8,2.7c0,1.2-0.3,2.1-0.8,2.7c-0.5,0.6-1.2,1-2.2,1
					c-0.5,0-0.9-0.1-1.3-0.3c-0.4-0.2-0.7-0.4-0.9-0.8h-0.1c-0.1,0.5-0.2,0.8-0.2,0.9h-0.8V45.2h1.2v2.5c0,0.5,0,1-0.1,1.5h0.1
					C255.4,48.5,256.1,48.1,257.1,48.1z M256.9,49.1c-0.7,0-1.2,0.2-1.6,0.6c-0.3,0.4-0.5,1.1-0.5,2.1v0.1c0,1,0.2,1.7,0.5,2.1
					c0.3,0.4,0.8,0.6,1.6,0.6c0.6,0,1.1-0.2,1.4-0.7c0.3-0.5,0.5-1.2,0.5-2c0-0.9-0.2-1.6-0.5-2C258.1,49.3,257.6,49.1,256.9,49.1z"
					/>
				<path class="st7" d="M265,55.5c-1.1,0-1.9-0.3-2.5-1c-0.6-0.6-0.9-1.5-0.9-2.7c0-1.1,0.3-2.1,0.9-2.7c0.6-0.7,1.3-1,2.3-1
					c0.9,0,1.6,0.3,2.2,0.9c0.5,0.6,0.8,1.4,0.8,2.4V52h-4.9c0,0.8,0.2,1.4,0.6,1.9c0.4,0.4,0.9,0.6,1.7,0.6c0.4,0,0.7,0,1.1-0.1
					c0.3-0.1,0.7-0.2,1.2-0.4v1c-0.4,0.2-0.8,0.3-1.1,0.4C265.9,55.5,265.5,55.5,265,55.5z M264.7,49.1c-0.6,0-1,0.2-1.3,0.5
					c-0.3,0.4-0.5,0.9-0.6,1.5h3.6c0-0.7-0.2-1.2-0.5-1.5C265.7,49.2,265.3,49.1,264.7,49.1z"/>
				<path class="st7" d="M274.1,53.4c0,0.7-0.2,1.2-0.7,1.6c-0.5,0.4-1.2,0.6-2.1,0.6c-0.9,0-1.7-0.1-2.2-0.4V54
					c0.8,0.4,1.5,0.6,2.3,0.6c0.6,0,1-0.1,1.3-0.3c0.3-0.2,0.4-0.4,0.4-0.8c0-0.3-0.1-0.5-0.4-0.7c-0.3-0.2-0.7-0.4-1.4-0.7
					c-0.7-0.3-1.1-0.5-1.4-0.7c-0.3-0.2-0.5-0.4-0.6-0.6c-0.1-0.2-0.2-0.5-0.2-0.8c0-0.6,0.2-1,0.7-1.4c0.5-0.3,1.1-0.5,2-0.5
					c0.8,0,1.6,0.2,2.3,0.5l-0.4,0.9c-0.7-0.3-1.4-0.5-2-0.5c-0.5,0-0.9,0.1-1.1,0.2c-0.3,0.2-0.4,0.4-0.4,0.6
					c0,0.3,0.1,0.5,0.3,0.6c0.2,0.2,0.7,0.4,1.5,0.7c0.6,0.2,1,0.4,1.3,0.6c0.3,0.2,0.5,0.4,0.6,0.6
					C274.1,52.8,274.1,53.1,274.1,53.4z"/>
				<path class="st7" d="M278.3,54.6c0.2,0,0.3,0,0.5,0c0.2,0,0.4-0.1,0.5-0.1v0.9c-0.1,0-0.3,0.1-0.5,0.1c-0.2,0-0.5,0.1-0.7,0.1
					c-1.4,0-2.1-0.7-2.1-2.2v-4.2h-1v-0.6l1-0.5l0.5-1.5h0.7v1.6h2.1v0.9h-2.1v4.1c0,0.4,0.1,0.7,0.3,1
					C277.6,54.5,277.9,54.6,278.3,54.6z"/>
				<path class="st7" d="M285.1,55.4l-0.2-1h-0.1c-0.4,0.4-0.7,0.8-1.1,0.9c-0.4,0.2-0.8,0.2-1.3,0.2c-0.7,0-1.3-0.2-1.7-0.6
					c-0.4-0.4-0.6-0.9-0.6-1.6c0-1.5,1.1-2.2,3.4-2.3l1.2,0v-0.4c0-0.5-0.1-0.9-0.4-1.2c-0.2-0.3-0.6-0.4-1.1-0.4
					c-0.4,0-0.7,0.1-1.1,0.2c-0.3,0.1-0.7,0.2-0.9,0.4l-0.4-0.9c0.4-0.2,0.8-0.3,1.2-0.5c0.4-0.1,0.8-0.2,1.3-0.2
					c0.9,0,1.5,0.2,1.9,0.6c0.4,0.4,0.6,1,0.6,1.8v4.9H285.1z M281.4,46.3c0-0.2,0.1-0.4,0.2-0.5c0.1-0.1,0.3-0.2,0.4-0.2
					c0.2,0,0.3,0.1,0.4,0.2c0.1,0.1,0.2,0.3,0.2,0.5c0,0.2-0.1,0.4-0.2,0.5c-0.1,0.1-0.3,0.2-0.4,0.2c-0.2,0-0.3-0.1-0.4-0.2
					C281.4,46.7,281.4,46.5,281.4,46.3z M282.7,54.6c0.7,0,1.2-0.2,1.5-0.5c0.4-0.4,0.6-0.9,0.6-1.5v-0.6l-1.1,0
					c-0.8,0-1.4,0.2-1.8,0.4c-0.4,0.2-0.6,0.6-0.6,1.1c0,0.4,0.1,0.7,0.3,0.9C282,54.5,282.3,54.6,282.7,54.6z M283.9,46.3
					c0-0.2,0.1-0.4,0.2-0.5c0.1-0.1,0.3-0.2,0.4-0.2c0.2,0,0.3,0.1,0.4,0.2c0.1,0.1,0.2,0.3,0.2,0.5c0,0.2-0.1,0.4-0.2,0.5
					c-0.1,0.1-0.3,0.2-0.4,0.2c-0.2,0-0.3-0.1-0.4-0.2C284,46.7,283.9,46.5,283.9,46.3z"/>
				<path class="st7" d="M291.5,48.1c0.3,0,0.6,0,0.8,0.1l-0.1,1.1c-0.3-0.1-0.5-0.1-0.8-0.1c-0.4,0-0.7,0.1-1.1,0.3
					c-0.3,0.2-0.6,0.5-0.8,0.9c-0.2,0.4-0.3,0.8-0.3,1.2v3.8h-1.2v-7.2h1l0.1,1.3h0.1c0.3-0.5,0.6-0.8,1-1.1
					C290.7,48.2,291.1,48.1,291.5,48.1z"/>
				<path class="st7" d="M294.9,51.7l0.4-0.5l0.5-0.5l2.3-2.4h1.4l-2.9,3.1l3.1,4.1h-1.4l-2.5-3.3l-0.8,0.7v2.6h-1.2V45.2h1.2v5.3
					V51.7L294.9,51.7z"/>
				<path class="st7" d="M303.9,55.5c-1.1,0-1.9-0.3-2.5-1c-0.6-0.6-0.9-1.5-0.9-2.7c0-1.1,0.3-2.1,0.9-2.7c0.6-0.7,1.3-1,2.3-1
					c0.9,0,1.6,0.3,2.2,0.9c0.5,0.6,0.8,1.4,0.8,2.4V52h-4.9c0,0.8,0.2,1.4,0.6,1.9c0.4,0.4,0.9,0.6,1.7,0.6c0.4,0,0.7,0,1.1-0.1
					c0.3-0.1,0.7-0.2,1.2-0.4v1c-0.4,0.2-0.8,0.3-1.1,0.4C304.8,55.5,304.3,55.5,303.9,55.5z M303.6,49.1c-0.6,0-1,0.2-1.3,0.5
					c-0.3,0.4-0.5,0.9-0.6,1.5h3.6c0-0.7-0.2-1.2-0.5-1.5C304.6,49.2,304.1,49.1,303.6,49.1z"/>
				<path class="st7" d="M313.2,55.4v-4.6c0-0.6-0.1-1-0.4-1.3c-0.3-0.3-0.7-0.4-1.2-0.4c-0.7,0-1.3,0.2-1.6,0.6
					c-0.3,0.4-0.5,1.1-0.5,2v3.7h-1.2v-7.2h0.9l0.2,1h0.1c0.2-0.4,0.5-0.6,0.9-0.8c0.4-0.2,0.8-0.3,1.3-0.3c0.9,0,1.5,0.2,2,0.6
					c0.4,0.4,0.6,1.1,0.6,2v4.7H313.2z"/>
			</g>
		</g>
		<path class="st123" d="M152.8,38H27.2c-7.1,0-12.8,5.7-12.8,12.8c0,7,5.7,12.8,12.8,12.8h125.6c7.1,0,12.8-5.7,12.8-12.8
			C165.5,43.8,159.8,38,152.8,38z"/>
		<g>
			<g>
				<path class="st7" d="M34,55.8l-3.1-8.4h-0.1c0.1,0.7,0.1,1.6,0.1,2.6v5.8h-1.1v-9.5h1.8l2.9,7.8h0.1l3-7.8h1.8v9.5h-1.2V50
					c0-0.7,0-1.5,0.1-2.5h-0.1L35,55.8H34z"/>
				<path class="st7" d="M46.2,55.8l-0.2-1h-0.1c-0.4,0.4-0.7,0.8-1.1,0.9c-0.4,0.2-0.8,0.2-1.3,0.2c-0.7,0-1.3-0.2-1.7-0.6
					c-0.4-0.4-0.6-0.9-0.6-1.6c0-1.5,1.1-2.2,3.4-2.3l1.2,0v-0.4c0-0.5-0.1-0.9-0.4-1.2c-0.2-0.3-0.6-0.4-1.1-0.4
					c-0.4,0-0.7,0.1-1.1,0.2c-0.3,0.1-0.7,0.2-0.9,0.4L42,49.2c0.4-0.2,0.8-0.3,1.2-0.5c0.4-0.1,0.8-0.2,1.3-0.2
					c0.9,0,1.5,0.2,1.9,0.6c0.4,0.4,0.6,1,0.6,1.8v4.9H46.2z M43.8,55c0.7,0,1.2-0.2,1.5-0.5c0.4-0.4,0.6-0.9,0.6-1.5v-0.6l-1.1,0
					c-0.8,0-1.4,0.2-1.8,0.4c-0.4,0.2-0.6,0.6-0.6,1.1c0,0.4,0.1,0.7,0.3,0.9C43,54.9,43.4,55,43.8,55z"/>
				<path class="st7" d="M52.6,55.9c-1,0-1.7-0.3-2.2-1h-0.1l0,0.3c0,0.3,0.1,0.6,0.1,0.9V59h-1.2V48.7h1l0.2,1h0.1
					c0.3-0.4,0.6-0.7,1-0.8c0.4-0.2,0.8-0.3,1.3-0.3c0.9,0,1.7,0.3,2.2,1c0.5,0.6,0.8,1.6,0.8,2.7c0,1.2-0.3,2.1-0.8,2.7
					C54.3,55.6,53.6,55.9,52.6,55.9z M52.5,49.5c-0.7,0-1.2,0.2-1.5,0.6c-0.3,0.4-0.5,1-0.5,1.9v0.2c0,1,0.2,1.7,0.5,2.1
					c0.3,0.4,0.8,0.6,1.6,0.6c0.6,0,1.1-0.2,1.4-0.7c0.3-0.5,0.5-1.2,0.5-2c0-0.9-0.2-1.5-0.5-2C53.5,49.7,53.1,49.5,52.5,49.5z"/>
				<path class="st7" d="M58.6,55.8h-1.2V45.7h1.2V55.8z"/>
				<path class="st7" d="M67.1,52.2c0,1.2-0.3,2.1-0.9,2.7c-0.6,0.7-1.4,1-2.5,1c-0.6,0-1.2-0.2-1.7-0.5c-0.5-0.3-0.9-0.7-1.2-1.3
					c-0.3-0.6-0.4-1.2-0.4-2c0-1.2,0.3-2.1,0.9-2.7c0.6-0.7,1.4-1,2.5-1c1,0,1.8,0.3,2.4,1C66.8,50.2,67.1,51.1,67.1,52.2z
					 M61.7,52.2c0,0.9,0.2,1.6,0.5,2.1c0.4,0.5,0.9,0.7,1.6,0.7c0.7,0,1.2-0.2,1.6-0.7c0.4-0.5,0.5-1.2,0.5-2.1c0-0.9-0.2-1.6-0.5-2
					c-0.4-0.5-0.9-0.7-1.6-0.7C62.4,49.5,61.7,50.4,61.7,52.2z"/>
				<path class="st7" d="M73.8,55.8l0-0.9h-0.1c-0.5,0.7-1.2,1.1-2.2,1.1c-0.9,0-1.6-0.3-2.2-1c-0.5-0.6-0.8-1.6-0.8-2.7
					c0-1.2,0.3-2.1,0.8-2.7c0.5-0.7,1.2-1,2.1-1c1,0,1.7,0.4,2.2,1.1h0.1l0.2-1h0.9v7.3c0,1-0.3,1.8-0.8,2.3
					c-0.5,0.5-1.3,0.8-2.4,0.8c-1,0-1.9-0.2-2.6-0.5v-1.1c0.7,0.4,1.6,0.6,2.6,0.6c0.6,0,1.1-0.2,1.4-0.5c0.4-0.4,0.5-0.8,0.5-1.5
					V55.8z M71.7,55c0.7,0,1.2-0.2,1.6-0.6c0.3-0.4,0.5-1,0.5-1.9v-0.3c0-1-0.2-1.7-0.5-2.1c-0.3-0.4-0.9-0.7-1.6-0.7
					c-0.6,0-1.1,0.2-1.4,0.7c-0.3,0.5-0.5,1.2-0.5,2c0,0.9,0.2,1.6,0.5,2C70.6,54.8,71.1,55,71.7,55z"/>
				<path class="st7" d="M81.9,53.8c0,0.7-0.2,1.2-0.7,1.6c-0.5,0.4-1.2,0.6-2.1,0.6c-0.9,0-1.7-0.1-2.2-0.4v-1.1
					c0.8,0.4,1.5,0.6,2.3,0.6c0.6,0,1-0.1,1.3-0.3c0.3-0.2,0.4-0.4,0.4-0.8c0-0.3-0.1-0.5-0.4-0.7c-0.3-0.2-0.7-0.4-1.4-0.7
					c-0.7-0.3-1.1-0.5-1.4-0.7c-0.3-0.2-0.5-0.4-0.6-0.6c-0.1-0.2-0.2-0.5-0.2-0.8c0-0.6,0.2-1,0.7-1.4c0.5-0.3,1.1-0.5,2-0.5
					c0.8,0,1.6,0.2,2.3,0.5l-0.4,0.9c-0.7-0.3-1.4-0.5-2-0.5c-0.5,0-0.9,0.1-1.1,0.2c-0.3,0.2-0.4,0.4-0.4,0.6
					c0,0.3,0.1,0.5,0.3,0.6c0.2,0.2,0.7,0.4,1.5,0.7c0.6,0.2,1,0.4,1.3,0.6c0.3,0.2,0.5,0.4,0.6,0.6C81.8,53.2,81.9,53.5,81.9,53.8z
					"/>
				<path class="st7" d="M88.2,52.1l0.4-0.5l0.5-0.5l2.3-2.4h1.4l-2.9,3.1l3.1,4.1h-1.4L89,52.5l-0.8,0.7v2.6h-1.2V45.7h1.2V51V52.1
					L88.2,52.1z"/>
				<path class="st7" d="M95.3,48.7v4.6c0,0.6,0.1,1,0.4,1.3c0.3,0.3,0.7,0.4,1.2,0.4c0.7,0,1.3-0.2,1.6-0.6c0.3-0.4,0.5-1.1,0.5-2
					v-3.7h1.2v7.2h-1L99,54.9H99c-0.2,0.3-0.5,0.6-0.9,0.8c-0.4,0.2-0.8,0.3-1.4,0.3c-0.9,0-1.5-0.2-1.9-0.6c-0.4-0.4-0.7-1.1-0.7-2
					v-4.7H95.3z"/>
				<path class="st7" d="M105.8,48.5c0.3,0,0.6,0,0.8,0.1l-0.1,1.1c-0.3-0.1-0.5-0.1-0.8-0.1c-0.4,0-0.7,0.1-1.1,0.3
					c-0.3,0.2-0.6,0.5-0.8,0.9c-0.2,0.4-0.3,0.8-0.3,1.2v3.8h-1.2v-7.2h1l0.1,1.3h0.1c0.3-0.5,0.6-0.8,1-1.1
					C104.9,48.7,105.3,48.5,105.8,48.5z"/>
				<path class="st7" d="M112.4,55.8l-0.2-1h-0.1c-0.4,0.4-0.7,0.8-1.1,0.9c-0.4,0.2-0.8,0.2-1.3,0.2c-0.7,0-1.3-0.2-1.7-0.6
					c-0.4-0.4-0.6-0.9-0.6-1.6c0-1.5,1.1-2.2,3.4-2.3l1.2,0v-0.4c0-0.5-0.1-0.9-0.4-1.2c-0.2-0.3-0.6-0.4-1.1-0.4
					c-0.4,0-0.7,0.1-1.1,0.2c-0.3,0.1-0.7,0.2-0.9,0.4l-0.4-0.9c0.4-0.2,0.8-0.3,1.2-0.5c0.4-0.1,0.8-0.2,1.3-0.2
					c0.9,0,1.5,0.2,1.9,0.6c0.4,0.4,0.6,1,0.6,1.8v4.9H112.4z M110,55c0.7,0,1.2-0.2,1.5-0.5c0.4-0.4,0.6-0.9,0.6-1.5v-0.6l-1.1,0
					c-0.8,0-1.4,0.2-1.8,0.4c-0.4,0.2-0.6,0.6-0.6,1.1c0,0.4,0.1,0.7,0.3,0.9C109.2,54.9,109.5,55,110,55z"/>
				<path class="st7" d="M117.8,55c0.2,0,0.3,0,0.5,0c0.2,0,0.4-0.1,0.5-0.1v0.9c-0.1,0-0.3,0.1-0.5,0.1c-0.2,0-0.5,0.1-0.7,0.1
					c-1.4,0-2.1-0.7-2.1-2.2v-4.2h-1V49l1-0.5L116,47h0.7v1.6h2.1v0.9h-2.1v4.1c0,0.4,0.1,0.7,0.3,1C117.2,54.9,117.5,55,117.8,55z"
					/>
				<path class="st7" d="M120.2,46.7c0-0.3,0.1-0.4,0.2-0.6c0.1-0.1,0.3-0.2,0.5-0.2c0.2,0,0.3,0.1,0.5,0.2c0.1,0.1,0.2,0.3,0.2,0.6
					c0,0.3-0.1,0.4-0.2,0.6c-0.1,0.1-0.3,0.2-0.5,0.2c-0.2,0-0.4-0.1-0.5-0.2C120.2,47.2,120.2,47,120.2,46.7z M121.4,55.8h-1.2
					v-7.2h1.2V55.8z"/>
				<path class="st7" d="M126.7,55.9c-1.1,0-1.9-0.3-2.5-1c-0.6-0.6-0.9-1.5-0.9-2.7c0-1.1,0.3-2.1,0.9-2.7c0.6-0.7,1.3-1,2.3-1
					c0.9,0,1.6,0.3,2.2,0.9c0.5,0.6,0.8,1.4,0.8,2.4v0.7h-4.9c0,0.8,0.2,1.4,0.6,1.9c0.4,0.4,0.9,0.6,1.7,0.6c0.4,0,0.7,0,1.1-0.1
					c0.3-0.1,0.7-0.2,1.2-0.4v1c-0.4,0.2-0.8,0.3-1.1,0.4C127.6,55.9,127.2,55.9,126.7,55.9z M126.5,49.5c-0.6,0-1,0.2-1.3,0.5
					c-0.3,0.4-0.5,0.9-0.6,1.5h3.6c0-0.7-0.2-1.2-0.5-1.5C127.4,49.7,127,49.5,126.5,49.5z"/>
				<path class="st7" d="M134.6,48.5c0.3,0,0.6,0,0.8,0.1l-0.1,1.1c-0.3-0.1-0.5-0.1-0.8-0.1c-0.4,0-0.7,0.1-1.1,0.3
					c-0.3,0.2-0.6,0.5-0.8,0.9c-0.2,0.4-0.3,0.8-0.3,1.2v3.8h-1.2v-7.2h1l0.1,1.3h0.1c0.3-0.5,0.6-0.8,1-1.1
					C133.7,48.7,134.1,48.5,134.6,48.5z"/>
				<path class="st7" d="M139.8,55.9c-1.1,0-1.9-0.3-2.5-1c-0.6-0.6-0.9-1.5-0.9-2.7c0-1.1,0.3-2.1,0.9-2.7c0.6-0.7,1.3-1,2.3-1
					c0.9,0,1.6,0.3,2.2,0.9c0.5,0.6,0.8,1.4,0.8,2.4v0.7h-4.9c0,0.8,0.2,1.4,0.6,1.9c0.4,0.4,0.9,0.6,1.7,0.6c0.4,0,0.7,0,1.1-0.1
					c0.3-0.1,0.7-0.2,1.2-0.4v1c-0.4,0.2-0.8,0.3-1.1,0.4C140.7,55.9,140.3,55.9,139.8,55.9z M139.5,49.5c-0.6,0-1,0.2-1.3,0.5
					c-0.3,0.4-0.5,0.9-0.6,1.5h3.6c0-0.7-0.2-1.2-0.5-1.5C140.5,49.7,140,49.5,139.5,49.5z"/>
				<path class="st7" d="M149.1,55.8v-4.6c0-0.6-0.1-1-0.4-1.3c-0.3-0.3-0.7-0.4-1.2-0.4c-0.7,0-1.3,0.2-1.6,0.6
					c-0.3,0.4-0.5,1.1-0.5,2v3.7h-1.2v-7.2h0.9l0.2,1h0.1c0.2-0.4,0.5-0.6,0.9-0.8c0.4-0.2,0.8-0.3,1.3-0.3c0.9,0,1.5,0.2,2,0.6
					c0.4,0.4,0.6,1.1,0.6,2v4.7H149.1z"/>
			</g>
		</g>
	</g>
	<g>
		<path class="st123" d="M303.2,0.5H189c-7.1,0-12.8,5.7-12.8,12.8c0,7,5.7,12.8,12.8,12.8h114.2c7.1,0,12.8-5.7,12.8-12.8
			C315.9,6.2,310.2,0.5,303.2,0.5z"/>
		<g>
			<g>
				<path class="st7" d="M198.7,15.7c0,0.8-0.3,1.5-0.9,2c-0.6,0.5-1.4,0.7-2.5,0.7c-1.1,0-2-0.1-2.6-0.4v-1.1
					c0.4,0.2,0.8,0.3,1.3,0.4c0.5,0.1,0.9,0.1,1.3,0.1c0.7,0,1.2-0.1,1.6-0.4c0.4-0.3,0.5-0.6,0.5-1.1c0-0.3-0.1-0.6-0.2-0.8
					c-0.1-0.2-0.3-0.4-0.7-0.6c-0.3-0.2-0.8-0.4-1.4-0.6c-0.9-0.3-1.5-0.7-1.9-1.1c-0.4-0.4-0.6-1-0.6-1.7c0-0.7,0.3-1.3,0.8-1.8
					c0.6-0.4,1.3-0.7,2.2-0.7c1,0,1.8,0.2,2.6,0.5l-0.4,1c-0.8-0.3-1.6-0.5-2.3-0.5c-0.6,0-1,0.1-1.3,0.4c-0.3,0.2-0.5,0.6-0.5,1
					c0,0.3,0.1,0.6,0.2,0.8c0.1,0.2,0.3,0.4,0.6,0.6c0.3,0.2,0.7,0.4,1.3,0.6c0.7,0.3,1.2,0.5,1.6,0.8c0.3,0.2,0.6,0.5,0.8,0.8
					C198.6,14.9,198.7,15.3,198.7,15.7z"/>
				<path class="st7" d="M202.9,17.4c0.2,0,0.3,0,0.5,0c0.2,0,0.4-0.1,0.5-0.1v0.9c-0.1,0-0.3,0.1-0.5,0.1c-0.2,0-0.5,0.1-0.7,0.1
					c-1.4,0-2.1-0.7-2.1-2.2V12h-1v-0.6l1-0.5l0.5-1.5h0.7v1.6h2.1V12h-2.1v4.1c0,0.4,0.1,0.7,0.3,1
					C202.3,17.3,202.5,17.4,202.9,17.4z"/>
				<path class="st7" d="M211.5,14.7c0,1.2-0.3,2.1-0.9,2.7c-0.6,0.7-1.4,1-2.5,1c-0.6,0-1.2-0.2-1.7-0.5c-0.5-0.3-0.9-0.7-1.2-1.3
					c-0.3-0.6-0.4-1.2-0.4-2c0-1.2,0.3-2.1,0.9-2.7c0.6-0.7,1.4-1,2.5-1c1,0,1.8,0.3,2.4,1C211.2,12.6,211.5,13.5,211.5,14.7z
					 M206.1,14.7c0,0.9,0.2,1.6,0.5,2.1c0.4,0.5,0.9,0.7,1.6,0.7c0.7,0,1.2-0.2,1.6-0.7c0.4-0.5,0.5-1.2,0.5-2.1
					c0-0.9-0.2-1.6-0.5-2c-0.4-0.5-0.9-0.7-1.6-0.7C206.8,12,206.1,12.9,206.1,14.7z"/>
				<path class="st7" d="M216.7,11c0.3,0,0.6,0,0.8,0.1l-0.1,1.1c-0.3-0.1-0.5-0.1-0.8-0.1c-0.4,0-0.7,0.1-1.1,0.3
					c-0.3,0.2-0.6,0.5-0.8,0.9c-0.2,0.4-0.3,0.8-0.3,1.2v3.8h-1.2v-7.2h1l0.1,1.3h0.1c0.3-0.5,0.6-0.8,1-1.1
					C215.9,11.1,216.3,11,216.7,11z"/>
				<path class="st7" d="M218.8,9.2c0-0.3,0.1-0.4,0.2-0.6c0.1-0.1,0.3-0.2,0.5-0.2c0.2,0,0.3,0.1,0.5,0.2c0.1,0.1,0.2,0.3,0.2,0.6
					c0,0.3-0.1,0.4-0.2,0.6c-0.1,0.1-0.3,0.2-0.5,0.2c-0.2,0-0.4-0.1-0.5-0.2C218.9,9.6,218.8,9.4,218.8,9.2z M220.1,18.3h-1.2v-7.2
					h1.2V18.3z"/>
				<path class="st7" d="M225.4,18.4c-1.1,0-1.9-0.3-2.5-1c-0.6-0.6-0.9-1.5-0.9-2.7c0-1.1,0.3-2.1,0.9-2.7c0.6-0.7,1.3-1,2.3-1
					c0.9,0,1.6,0.3,2.2,0.9c0.5,0.6,0.8,1.4,0.8,2.4v0.7h-4.9c0,0.8,0.2,1.4,0.6,1.9c0.4,0.4,0.9,0.6,1.7,0.6c0.4,0,0.7,0,1.1-0.1
					c0.3-0.1,0.7-0.2,1.2-0.4v1c-0.4,0.2-0.8,0.3-1.1,0.4C226.3,18.4,225.9,18.4,225.4,18.4z M225.1,11.9c-0.6,0-1,0.2-1.3,0.5
					c-0.3,0.4-0.5,0.9-0.6,1.5h3.6c0-0.7-0.2-1.2-0.5-1.5C226.1,12.1,225.6,11.9,225.1,11.9z"/>
				<path class="st7" d="M234.5,16.3c0,0.7-0.2,1.2-0.7,1.6c-0.5,0.4-1.2,0.6-2.1,0.6c-0.9,0-1.7-0.1-2.2-0.4v-1.1
					c0.8,0.4,1.5,0.6,2.3,0.6c0.6,0,1-0.1,1.3-0.3c0.3-0.2,0.4-0.4,0.4-0.8c0-0.3-0.1-0.5-0.4-0.7c-0.3-0.2-0.7-0.4-1.4-0.7
					c-0.7-0.3-1.1-0.5-1.4-0.7c-0.3-0.2-0.5-0.4-0.6-0.6c-0.1-0.2-0.2-0.5-0.2-0.8c0-0.6,0.2-1,0.7-1.4c0.5-0.3,1.1-0.5,2-0.5
					c0.8,0,1.6,0.2,2.3,0.5l-0.4,0.9c-0.7-0.3-1.4-0.5-2-0.5c-0.5,0-0.9,0.1-1.1,0.2c-0.3,0.2-0.4,0.4-0.4,0.6
					c0,0.3,0.1,0.5,0.3,0.6c0.2,0.2,0.7,0.4,1.5,0.7c0.6,0.2,1,0.4,1.3,0.6c0.3,0.2,0.5,0.4,0.6,0.6C234.5,15.7,234.5,16,234.5,16.3
					z"/>
				<path class="st7" d="M244.4,16.3c0,0.7-0.2,1.2-0.7,1.6c-0.5,0.4-1.2,0.6-2.1,0.6c-0.9,0-1.7-0.1-2.2-0.4v-1.1
					c0.8,0.4,1.5,0.6,2.3,0.6c0.6,0,1-0.1,1.3-0.3c0.3-0.2,0.4-0.4,0.4-0.8c0-0.3-0.1-0.5-0.4-0.7c-0.3-0.2-0.7-0.4-1.4-0.7
					c-0.7-0.3-1.1-0.5-1.4-0.7c-0.3-0.2-0.5-0.4-0.6-0.6c-0.1-0.2-0.2-0.5-0.2-0.8c0-0.6,0.2-1,0.7-1.4c0.5-0.3,1.1-0.5,2-0.5
					c0.8,0,1.6,0.2,2.3,0.5l-0.4,0.9c-0.7-0.3-1.4-0.5-2-0.5c-0.5,0-0.9,0.1-1.1,0.2c-0.3,0.2-0.4,0.4-0.4,0.6
					c0,0.3,0.1,0.5,0.3,0.6c0.2,0.2,0.7,0.4,1.5,0.7c0.6,0.2,1,0.4,1.3,0.6c0.3,0.2,0.5,0.4,0.6,0.6C244.3,15.7,244.4,16,244.4,16.3
					z"/>
				<path class="st7" d="M249,18.4c-1,0-1.8-0.3-2.4-0.9c-0.6-0.6-0.9-1.5-0.9-2.7c0-1.2,0.3-2.1,0.9-2.8c0.6-0.7,1.4-1,2.5-1
					c0.3,0,0.7,0,1,0.1c0.3,0.1,0.6,0.2,0.8,0.3l-0.4,1c-0.6-0.2-1.1-0.3-1.5-0.3c-0.7,0-1.3,0.2-1.6,0.7c-0.3,0.5-0.5,1.1-0.5,2
					c0,0.9,0.2,1.5,0.5,2c0.3,0.5,0.9,0.7,1.5,0.7c0.6,0,1.2-0.1,1.9-0.4v1C250.3,18.3,249.7,18.4,249,18.4z"/>
				<path class="st7" d="M257.4,18.3v-4.6c0-0.6-0.1-1-0.4-1.3c-0.3-0.3-0.7-0.4-1.2-0.4c-0.7,0-1.3,0.2-1.6,0.6
					c-0.3,0.4-0.5,1.1-0.5,2v3.7h-1.2V8.1h1.2v3c0,0.4,0,0.7-0.1,1h0.1c0.2-0.3,0.5-0.6,0.9-0.8c0.4-0.2,0.8-0.3,1.3-0.3
					c0.9,0,1.5,0.2,2,0.6c0.4,0.4,0.7,1.1,0.7,2v4.7H257.4z"/>
				<path class="st7" d="M264.1,11c0.3,0,0.6,0,0.8,0.1l-0.1,1.1c-0.3-0.1-0.5-0.1-0.8-0.1c-0.4,0-0.7,0.1-1.1,0.3
					c-0.3,0.2-0.6,0.5-0.8,0.9c-0.2,0.4-0.3,0.8-0.3,1.2v3.8h-1.2v-7.2h1l0.1,1.3h0.1c0.3-0.5,0.6-0.8,1-1.1
					C263.3,11.1,263.7,11,264.1,11z"/>
				<path class="st7" d="M269.3,18.4c-1.1,0-1.9-0.3-2.5-1c-0.6-0.6-0.9-1.5-0.9-2.7c0-1.1,0.3-2.1,0.9-2.7c0.6-0.7,1.3-1,2.3-1
					c0.9,0,1.6,0.3,2.2,0.9c0.5,0.6,0.8,1.4,0.8,2.4v0.7h-4.9c0,0.8,0.2,1.4,0.6,1.9c0.4,0.4,0.9,0.6,1.7,0.6c0.4,0,0.7,0,1.1-0.1
					c0.3-0.1,0.7-0.2,1.2-0.4v1c-0.4,0.2-0.8,0.3-1.1,0.4C270.2,18.4,269.8,18.4,269.3,18.4z M269,11.9c-0.6,0-1,0.2-1.3,0.5
					c-0.3,0.4-0.5,0.9-0.6,1.5h3.6c0-0.7-0.2-1.2-0.5-1.5C270,12.1,269.6,11.9,269,11.9z"/>
				<path class="st7" d="M273.7,9.2c0-0.3,0.1-0.4,0.2-0.6c0.1-0.1,0.3-0.2,0.5-0.2c0.2,0,0.3,0.1,0.5,0.2c0.1,0.1,0.2,0.3,0.2,0.6
					c0,0.3-0.1,0.4-0.2,0.6c-0.1,0.1-0.3,0.2-0.5,0.2c-0.2,0-0.4-0.1-0.5-0.2C273.8,9.6,273.7,9.4,273.7,9.2z M275,18.3h-1.2v-7.2
					h1.2V18.3z"/>
				<path class="st7" d="M280.7,11c0.9,0,1.7,0.3,2.2,1c0.5,0.6,0.8,1.6,0.8,2.7c0,1.2-0.3,2.1-0.8,2.7c-0.5,0.6-1.2,1-2.2,1
					c-0.5,0-0.9-0.1-1.3-0.3c-0.4-0.2-0.7-0.4-0.9-0.8h-0.1c-0.1,0.5-0.2,0.8-0.2,0.9h-0.8V8.1h1.2v2.5c0,0.5,0,1-0.1,1.5h0.1
					C278.9,11.3,279.7,11,280.7,11z M280.5,12c-0.7,0-1.2,0.2-1.6,0.6c-0.3,0.4-0.5,1.1-0.5,2.1v0.1c0,1,0.2,1.7,0.5,2.1
					c0.3,0.4,0.8,0.6,1.6,0.6c0.6,0,1.1-0.2,1.4-0.7c0.3-0.5,0.5-1.2,0.5-2c0-0.9-0.2-1.6-0.5-2C281.6,12.2,281.1,12,280.5,12z"/>
				<path class="st7" d="M288.5,18.4c-1.1,0-1.9-0.3-2.5-1c-0.6-0.6-0.9-1.5-0.9-2.7c0-1.1,0.3-2.1,0.9-2.7c0.6-0.7,1.3-1,2.3-1
					c0.9,0,1.6,0.3,2.2,0.9c0.5,0.6,0.8,1.4,0.8,2.4v0.7h-4.9c0,0.8,0.2,1.4,0.6,1.9c0.4,0.4,0.9,0.6,1.7,0.6c0.4,0,0.7,0,1.1-0.1
					c0.3-0.1,0.7-0.2,1.2-0.4v1c-0.4,0.2-0.8,0.3-1.1,0.4C289.4,18.4,289,18.4,288.5,18.4z M288.2,11.9c-0.6,0-1,0.2-1.3,0.5
					c-0.3,0.4-0.5,0.9-0.6,1.5h3.6c0-0.7-0.2-1.2-0.5-1.5C289.2,12.1,288.8,11.9,288.2,11.9z"/>
				<path class="st7" d="M297.9,18.3v-4.6c0-0.6-0.1-1-0.4-1.3c-0.3-0.3-0.7-0.4-1.2-0.4c-0.7,0-1.3,0.2-1.6,0.6
					c-0.3,0.4-0.5,1.1-0.5,2v3.7H293v-7.2h0.9l0.2,1h0.1c0.2-0.4,0.5-0.6,0.9-0.8c0.4-0.2,0.8-0.3,1.3-0.3c0.9,0,1.5,0.2,2,0.6
					c0.4,0.4,0.6,1.1,0.6,2v4.7H297.9z"/>
			</g>
		</g>
		<path class="st123" d="M156.6,0.5H39.1c-7.1,0-12.8,5.7-12.8,12.8c0,7,5.7,12.8,12.8,12.8h117.5c7.1,0,12.8-5.7,12.8-12.8
			C169.4,6.2,163.7,0.5,156.6,0.5z"/>
		<g>
			<g>
				<path class="st7" d="M46.3,18.3h-1.4l-5.1-7.9h-0.1l0,0.5c0.1,0.8,0.1,1.5,0.1,2.1v5.3h-1.1V8.7h1.4l0.3,0.5l3.1,4.8l1.7,2.6
					h0.1c0-0.1,0-0.5-0.1-1.1c0-0.6,0-1.1,0-1.4V8.7h1.1V18.3z"/>
				<path class="st7" d="M53,13.2h3.3v4.7c-0.5,0.2-1,0.3-1.5,0.4c-0.5,0.1-1.1,0.1-1.8,0.1c-1.5,0-2.6-0.4-3.4-1.3
					c-0.8-0.9-1.2-2.1-1.2-3.6c0-1,0.2-1.9,0.6-2.6c0.4-0.7,1-1.3,1.7-1.7c0.7-0.4,1.6-0.6,2.6-0.6c1,0,2,0.2,2.8,0.6l-0.5,1
					c-0.8-0.4-1.7-0.5-2.5-0.5c-1.1,0-2,0.3-2.7,1c-0.6,0.7-1,1.6-1,2.8c0,1.3,0.3,2.2,0.9,2.9c0.6,0.7,1.5,1,2.7,1
					c0.6,0,1.3-0.1,1.9-0.2v-2.8H53V13.2z"/>
				<path class="st7" d="M66.9,13.5c0,1.5-0.4,2.7-1.2,3.6c-0.8,0.9-1.9,1.3-3.2,1.3c-1.4,0-2.5-0.4-3.3-1.3
					c-0.8-0.9-1.2-2.1-1.2-3.6c0-1.6,0.4-2.8,1.1-3.6C60,9,61.1,8.6,62.5,8.6c1.4,0,2.5,0.4,3.2,1.3C66.5,10.8,66.9,12,66.9,13.5z
					 M59.4,13.5c0,1.3,0.3,2.2,0.8,2.9c0.5,0.7,1.3,1,2.3,1c1,0,1.8-0.3,2.3-1c0.5-0.7,0.8-1.6,0.8-2.9c0-1.3-0.3-2.2-0.8-2.9
					c-0.5-0.6-1.3-1-2.3-1c-1,0-1.8,0.3-2.4,1C59.7,11.3,59.4,12.2,59.4,13.5z"/>
				<path class="st7" d="M73.5,16.3c0,0.7-0.2,1.2-0.7,1.6c-0.5,0.4-1.2,0.6-2.1,0.6c-0.9,0-1.7-0.1-2.2-0.4v-1.1
					c0.8,0.4,1.5,0.6,2.3,0.6c0.6,0,1-0.1,1.3-0.3c0.3-0.2,0.4-0.4,0.4-0.8c0-0.3-0.1-0.5-0.4-0.7c-0.3-0.2-0.7-0.4-1.4-0.7
					c-0.7-0.3-1.1-0.5-1.4-0.7c-0.3-0.2-0.5-0.4-0.6-0.6c-0.1-0.2-0.2-0.5-0.2-0.8c0-0.6,0.2-1,0.7-1.4c0.5-0.3,1.1-0.5,2-0.5
					c0.8,0,1.6,0.2,2.3,0.5L73,12.4c-0.7-0.3-1.4-0.5-2-0.5c-0.5,0-0.9,0.1-1.1,0.2c-0.3,0.2-0.4,0.4-0.4,0.6c0,0.3,0.1,0.5,0.3,0.6
					s0.7,0.4,1.5,0.7c0.6,0.2,1,0.4,1.3,0.6c0.3,0.2,0.5,0.4,0.6,0.6C73.5,15.7,73.5,16,73.5,16.3z"/>
				<path class="st7" d="M79.8,11.1v4.6c0,0.6,0.1,1,0.4,1.3c0.3,0.3,0.7,0.4,1.2,0.4c0.7,0,1.3-0.2,1.6-0.6c0.3-0.4,0.5-1.1,0.5-2
					v-3.7h1.2v7.2h-1l-0.2-0.9h-0.1c-0.2,0.3-0.5,0.6-0.9,0.8c-0.4,0.2-0.8,0.3-1.4,0.3c-0.9,0-1.5-0.2-1.9-0.6
					c-0.4-0.4-0.7-1.1-0.7-2v-4.7H79.8z"/>
				<path class="st7" d="M91.9,18.3v-4.6c0-0.6-0.1-1-0.4-1.3c-0.3-0.3-0.7-0.4-1.2-0.4c-0.7,0-1.3,0.2-1.6,0.6
					c-0.3,0.4-0.5,1.1-0.5,2v3.7H87v-7.2h0.9l0.2,1h0.1c0.2-0.4,0.5-0.6,0.9-0.8c0.4-0.2,0.8-0.3,1.3-0.3c0.9,0,1.5,0.2,2,0.6
					c0.4,0.4,0.6,1.1,0.6,2v4.7H91.9z"/>
				<path class="st7" d="M97.6,17.4c0.2,0,0.3,0,0.5,0c0.2,0,0.4-0.1,0.5-0.1v0.9c-0.1,0-0.3,0.1-0.5,0.1c-0.2,0-0.5,0.1-0.7,0.1
					c-1.4,0-2.1-0.7-2.1-2.2V12h-1v-0.6l1-0.5l0.5-1.5h0.7v1.6h2.1V12h-2.1v4.1c0,0.4,0.1,0.7,0.3,1C97,17.3,97.3,17.4,97.6,17.4z"
					/>
				<path class="st7" d="M103.1,18.4c-1.1,0-1.9-0.3-2.5-1c-0.6-0.6-0.9-1.5-0.9-2.7c0-1.1,0.3-2.1,0.9-2.7c0.6-0.7,1.3-1,2.3-1
					c0.9,0,1.6,0.3,2.2,0.9c0.5,0.6,0.8,1.4,0.8,2.4v0.7h-4.9c0,0.8,0.2,1.4,0.6,1.9c0.4,0.4,0.9,0.6,1.7,0.6c0.4,0,0.7,0,1.1-0.1
					c0.3-0.1,0.7-0.2,1.2-0.4v1c-0.4,0.2-0.8,0.3-1.1,0.4C104,18.4,103.6,18.4,103.1,18.4z M102.8,11.9c-0.6,0-1,0.2-1.3,0.5
					c-0.3,0.4-0.5,0.9-0.6,1.5h3.6c0-0.7-0.2-1.2-0.5-1.5C103.8,12.1,103.3,11.9,102.8,11.9z"/>
				<path class="st7" d="M110.9,11c0.3,0,0.6,0,0.8,0.1l-0.1,1.1c-0.3-0.1-0.5-0.1-0.8-0.1c-0.4,0-0.7,0.1-1.1,0.3
					c-0.3,0.2-0.6,0.5-0.8,0.9c-0.2,0.4-0.3,0.8-0.3,1.2v3.8h-1.2v-7.2h1l0.1,1.3h0.1c0.3-0.5,0.6-0.8,1-1.1
					C110.1,11.1,110.5,11,110.9,11z"/>
				<path class="st7" d="M117.8,16.3c0,0.7-0.2,1.2-0.7,1.6c-0.5,0.4-1.2,0.6-2.1,0.6c-0.9,0-1.7-0.1-2.2-0.4v-1.1
					c0.8,0.4,1.5,0.6,2.3,0.6c0.6,0,1-0.1,1.3-0.3c0.3-0.2,0.4-0.4,0.4-0.8c0-0.3-0.1-0.5-0.4-0.7c-0.3-0.2-0.7-0.4-1.4-0.7
					c-0.7-0.3-1.1-0.5-1.4-0.7c-0.3-0.2-0.5-0.4-0.6-0.6c-0.1-0.2-0.2-0.5-0.2-0.8c0-0.6,0.2-1,0.7-1.4c0.5-0.3,1.1-0.5,2-0.5
					c0.8,0,1.6,0.2,2.3,0.5l-0.4,0.9c-0.7-0.3-1.4-0.5-2-0.5c-0.5,0-0.9,0.1-1.1,0.2c-0.3,0.2-0.4,0.4-0.4,0.6
					c0,0.3,0.1,0.5,0.3,0.6s0.7,0.4,1.5,0.7c0.6,0.2,1,0.4,1.3,0.6c0.3,0.2,0.5,0.4,0.6,0.6C117.7,15.7,117.8,16,117.8,16.3z"/>
				<path class="st7" d="M121.9,17.4c0.2,0,0.3,0,0.5,0c0.2,0,0.4-0.1,0.5-0.1v0.9c-0.1,0-0.3,0.1-0.5,0.1c-0.2,0-0.5,0.1-0.7,0.1
					c-1.4,0-2.1-0.7-2.1-2.2V12h-1v-0.6l1-0.5l0.5-1.5h0.7v1.6h2.1V12h-2.1v4.1c0,0.4,0.1,0.7,0.3,1
					C121.3,17.3,121.5,17.4,121.9,17.4z"/>
				<path class="st7" d="M125.4,11.1v4.6c0,0.6,0.1,1,0.4,1.3c0.3,0.3,0.7,0.4,1.2,0.4c0.7,0,1.3-0.2,1.6-0.6c0.3-0.4,0.5-1.1,0.5-2
					v-3.7h1.2v7.2h-1l-0.2-0.9h-0.1c-0.2,0.3-0.5,0.6-0.9,0.8c-0.4,0.2-0.8,0.3-1.4,0.3c-0.9,0-1.5-0.2-1.9-0.6
					c-0.4-0.4-0.7-1.1-0.7-2v-4.7H125.4z M125.4,9.2c0-0.2,0.1-0.4,0.2-0.5c0.1-0.1,0.3-0.2,0.4-0.2c0.2,0,0.3,0.1,0.4,0.2
					c0.1,0.1,0.2,0.3,0.2,0.5c0,0.2-0.1,0.4-0.2,0.5c-0.1,0.1-0.3,0.2-0.4,0.2c-0.2,0-0.3-0.1-0.4-0.2
					C125.4,9.6,125.4,9.4,125.4,9.2z M127.9,9.2c0-0.2,0.1-0.4,0.2-0.5c0.1-0.1,0.3-0.2,0.4-0.2c0.2,0,0.3,0.1,0.4,0.2
					c0.1,0.1,0.2,0.3,0.2,0.5c0,0.2-0.1,0.4-0.2,0.5c-0.1,0.1-0.3,0.2-0.4,0.2c-0.2,0-0.3-0.1-0.4-0.2
					C127.9,9.6,127.9,9.4,127.9,9.2z"/>
				<path class="st7" d="M134.9,17.4c0.2,0,0.3,0,0.5,0c0.2,0,0.4-0.1,0.5-0.1v0.9c-0.1,0-0.3,0.1-0.5,0.1c-0.2,0-0.5,0.1-0.7,0.1
					c-1.4,0-2.1-0.7-2.1-2.2V12h-1v-0.6l1-0.5l0.5-1.5h0.7v1.6h2.1V12h-2.1v4.1c0,0.4,0.1,0.7,0.3,1
					C134.3,17.3,134.6,17.4,134.9,17.4z"/>
				<path class="st7" d="M142,18.3h-5.2v-0.8l3.8-5.5H137v-0.9h4.9V12l-3.8,5.4h3.9V18.3z"/>
				<path class="st7" d="M146.7,18.4c-1.1,0-1.9-0.3-2.5-1c-0.6-0.6-0.9-1.5-0.9-2.7c0-1.1,0.3-2.1,0.9-2.7c0.6-0.7,1.3-1,2.3-1
					c0.9,0,1.6,0.3,2.2,0.9c0.5,0.6,0.8,1.4,0.8,2.4v0.7h-4.9c0,0.8,0.2,1.4,0.6,1.9c0.4,0.4,0.9,0.6,1.7,0.6c0.4,0,0.7,0,1.1-0.1
					c0.3-0.1,0.7-0.2,1.2-0.4v1c-0.4,0.2-0.8,0.3-1.1,0.4C147.6,18.4,147.2,18.4,146.7,18.4z M146.4,11.9c-0.6,0-1,0.2-1.3,0.5
					c-0.3,0.4-0.5,0.9-0.6,1.5h3.6c0-0.7-0.2-1.2-0.5-1.5C147.4,12.1,146.9,11.9,146.4,11.9z"/>
				<path class="st7" d="M156.1,18.3v-4.6c0-0.6-0.1-1-0.4-1.3c-0.3-0.3-0.7-0.4-1.2-0.4c-0.7,0-1.3,0.2-1.6,0.6
					c-0.3,0.4-0.5,1.1-0.5,2v3.7h-1.2v-7.2h0.9l0.2,1h0.1c0.2-0.4,0.5-0.6,0.9-0.8c0.4-0.2,0.8-0.3,1.3-0.3c0.9,0,1.5,0.2,2,0.6
					c0.4,0.4,0.6,1.1,0.6,2v4.7H156.1z"/>
			</g>
		</g>
	</g>
</g>
</svg>
