<?xml version="1.0" encoding="utf-8"?>
<!-- Generator: Adobe Illustrator 19.1.0, SVG Export Plug-In . SVG Version: 6.00 Build 0)  -->
<svg version="1.1" id="Ebene_1" xmlns="http://www.w3.org/2000/svg" xmlns:xlink="http://www.w3.org/1999/xlink" x="0px" y="0px"
	 viewBox="0 0 319.4 213.7" style="enable-background:new 0 0 319.4 213.7;" xml:space="preserve">
<style type="text/css">
	.st0{opacity:0.96;fill:url(#SVGID_1_);}
	.st1{fill:#D7ECF5;}
	.st2{clip-path:url(#SVGID_3_);}
	.st3{opacity:0.4;fill:url(#SVGID_6_);}
	.st4{clip-path:url(#SVGID_8_);}
	.st5{clip-path:url(#SVGID_10_);}
	.st6{fill:#F7EDE1;}
	.st7{fill:#006BB6;}
	.st8{fill:none;stroke:#006BB6;stroke-width:3;stroke-miterlimit:10;}
	.st9{opacity:0.9;fill:#FFFFFF;}
	.st10{fill:none;stroke:#989898;stroke-width:0.7068;stroke-miterlimit:10;stroke-dasharray:3.0116,3.0116;}
	.st11{fill:#074487;}
	.st12{fill:#CBCBCB;}
	.st13{fill:#0B24FA;}
	.st14{fill:#2CFFFD;}
	.st15{fill:#33ABE0;}
	.st16{clip-path:url(#SVGID_12_);}
	.st17{clip-path:url(#SVGID_14_);}
	.st18{clip-path:url(#SVGID_16_);}
	.st19{clip-path:url(#SVGID_18_);}
	.st20{clip-path:url(#SVGID_22_);}
	.st21{clip-path:url(#SVGID_26_);}
	.st22{clip-path:url(#SVGID_30_);}
	.st23{clip-path:url(#SVGID_34_);}
	.st24{fill:#FFFFFF;}
	.st25{fill:#0000FF;}
	.st26{fill:none;}
	.st27{fill:#333333;}
	.st28{fill:#4D4D4D;}
	.st29{clip-path:url(#SVGID_38_);}
	.st30{fill:#E6E6E6;}
	.st31{clip-path:url(#SVGID_42_);}
	.st32{clip-path:url(#SVGID_46_);}
	.st33{fill:#B3B3B3;}
	.st34{fill:#006BB5;}
	.st35{fill:#B0B0B0;}
	.st36{fill:#666666;}
	.st37{fill:#BF5E00;}
	.st38{fill:#21B573;}
	.st39{fill:#D6DEDE;}
	.st40{fill:#2E73BA;}
	.st41{fill:#52B594;}
	.st42{clip-path:url(#SVGID_50_);}
	.st43{fill:#00CCAB;}
	.st44{fill:#CCF5ED;}
	.st45{fill:#7894F2;}
	.st46{fill:#009CCC;}
	.st47{fill:#008C8C;}
	.st48{fill:#1CB85C;}
	.st49{fill:#FF9600;}
	.st50{fill:#F7C70A;}
	.st51{fill:#FF6E24;}
	.st52{fill:#66A6D4;}
	.st53{fill:#999999;}
	.st54{fill:#303030;}
	.st55{fill:#F5F5F5;}
	.st56{fill:#BFBFBF;}
	.st57{clip-path:url(#SVGID_54_);}
	.st58{fill:#2E3091;}
	.st59{fill:#BDBDBD;}
	.st60{clip-path:url(#SVGID_58_);}
	.st61{fill:none;stroke:#9E9E9E;stroke-miterlimit:10;}
	.st62{fill:#2E3192;}
	.st63{fill:#D3D3D3;}
	.st64{fill:none;stroke:#B3B3B3;stroke-miterlimit:10;}
	.st65{fill:#DC052B;}
	.st66{clip-path:url(#SVGID_62_);fill:#FFFFFF;}
	.st67{clip-path:url(#SVGID_64_);fill:#FFFFFF;}
	.st68{clip-path:url(#SVGID_66_);fill:#FFFFFF;}
	.st69{clip-path:url(#SVGID_68_);fill:#FFFFFF;}
	.st70{clip-path:url(#SVGID_70_);fill:#FFFFFF;}
	.st71{clip-path:url(#SVGID_72_);fill:#040603;}
	.st72{fill:#040603;}
	.st73{clip-path:url(#SVGID_74_);fill:#040603;}
	.st74{clip-path:url(#SVGID_76_);fill:#040603;}
	.st75{clip-path:url(#SVGID_78_);fill:#040603;}
	.st76{fill:#00428A;}
	.st77{clip-path:url(#SVGID_80_);fill:#113578;}
	.st78{fill:#113578;}
	.st79{clip-path:url(#SVGID_82_);fill:#113578;}
	.st80{clip-path:url(#SVGID_84_);fill:#113578;}
	.st81{clip-path:url(#SVGID_86_);fill:#113578;}
	.st82{clip-path:url(#SVGID_86_);fill:#FFFFFF;}
	.st83{clip-path:url(#SVGID_88_);fill:#FFFFFF;}
	.st84{clip-path:url(#SVGID_90_);}
	.st85{clip-path:url(#SVGID_92_);fill:#00428A;}
	.st86{clip-path:url(#SVGID_92_);fill:#29ABE3;}
	.st87{clip-path:url(#SVGID_94_);}
	.st88{clip-path:url(#SVGID_98_);fill:#00428A;}
	.st89{clip-path:url(#SVGID_98_);fill:#29ABE3;}
	.st90{clip-path:url(#SVGID_100_);}
	.st91{opacity:0.5;clip-path:url(#SVGID_104_);}
	.st92{clip-path:url(#SVGID_108_);fill:#DB0030;}
	.st93{clip-path:url(#SVGID_110_);fill:#DB0030;}
	.st94{clip-path:url(#SVGID_112_);}
	.st95{clip-path:url(#SVGID_116_);fill:#00428A;}
	.st96{clip-path:url(#SVGID_116_);fill:#29ABE3;}
	.st97{opacity:0.5;clip-path:url(#SVGID_116_);}
	.st98{clip-path:url(#SVGID_118_);fill:#DB0030;}
	.st99{clip-path:url(#SVGID_120_);}
	.st100{clip-path:url(#SVGID_124_);fill:#00428A;}
	.st101{clip-path:url(#SVGID_124_);fill:#29ABE3;}
	.st102{opacity:0.5;clip-path:url(#SVGID_124_);}
	.st103{clip-path:url(#SVGID_126_);fill:#DB0030;}
	.st104{clip-path:url(#SVGID_128_);}
	.st105{clip-path:url(#SVGID_130_);}
	.st106{clip-path:url(#SVGID_134_);fill:#004289;}
	.st107{clip-path:url(#SVGID_134_);fill:#29AAE2;}
	.st108{opacity:0.5;clip-path:url(#SVGID_134_);}
	.st109{clip-path:url(#SVGID_136_);fill:#DA0030;}
	.st110{clip-path:url(#SVGID_138_);}
	.st111{clip-path:url(#SVGID_142_);}
	.st112{clip-path:url(#SVGID_146_);fill:#004289;}
	.st113{clip-path:url(#SVGID_146_);fill:#29AAE2;}
	.st114{opacity:0.5;clip-path:url(#SVGID_146_);}
	.st115{clip-path:url(#SVGID_148_);fill:#DA0030;}
	.st116{clip-path:url(#SVGID_146_);}
	.st117{clip-path:url(#SVGID_150_);}
	.st118{clip-path:url(#SVGID_152_);fill:#DA0030;}
	.st119{clip-path:url(#SVGID_154_);fill:#29ABE3;}
	.st120{clip-path:url(#SVGID_154_);fill:#00428A;}
	.st121{fill:#5A5A5A;}
	.st122{fill:#0069B8;}
	.st123{fill:none;stroke:#989898;stroke-miterlimit:10;}
	.st124{clip-path:url(#SVGID_156_);}
	.st125{clip-path:url(#SVGID_160_);}
	.st126{clip-path:url(#SVGID_162_);}
	.st127{clip-path:url(#SVGID_164_);}
	.st128{fill:none;stroke:#CBCBCB;stroke-width:2;stroke-miterlimit:10;}
	.st129{fill:#989898;}
	.st130{clip-path:url(#SVGID_168_);}
	.st131{fill:none;stroke:#B2B2B2;stroke-miterlimit:10;}
	.st132{fill:#D6DCDC;}
	.st133{fill-rule:evenodd;clip-rule:evenodd;fill:#0069B8;}
	.st134{fill-rule:evenodd;clip-rule:evenodd;fill:#FFFFFF;}
	.st135{fill-rule:evenodd;clip-rule:evenodd;fill:none;stroke:#B2B2B2;stroke-miterlimit:10;}
	.st136{fill:#D4DCDC;}
	.st137{opacity:0.5;}
	.st138{clip-path:url(#SVGID_170_);}
	.st139{fill:none;stroke:#4D4D4D;stroke-width:2;stroke-miterlimit:10;}
	.st140{fill-rule:evenodd;clip-rule:evenodd;fill:none;stroke:#4D4D4D;stroke-width:2;stroke-miterlimit:10;}
	.st141{fill:none;stroke:#333333;stroke-width:2;stroke-miterlimit:10;}
	.st142{fill:none;stroke:#A1A1A1;stroke-width:3;stroke-miterlimit:10;}
	.st143{clip-path:url(#SVGID_172_);}
	.st144{clip-path:url(#SVGID_174_);}
	.st145{fill:url(#SVGID_175_);}
	.st146{fill:url(#SVGID_176_);}
	.st147{fill:#F4F4F4;}
	.st148{fill:#DFDFDF;}
	.st149{clip-path:url(#SVGID_178_);}
	.st150{clip-path:url(#SVGID_180_);}
	.st151{opacity:0.38;fill:#FFFFFF;}
	.st152{fill:none;stroke:#FFFFFF;stroke-miterlimit:10;stroke-dasharray:4,4;}
	.st153{fill:#004288;}
	.st154{fill:#FAFAFA;}
	.st155{fill:#7AE2DF;}
	.st156{fill:#29A9E1;}
	.st157{fill:none;stroke:#004288;stroke-width:2;stroke-miterlimit:10;}
	.st158{fill:none;stroke:#004288;stroke-width:3;stroke-miterlimit:10;}
	.st159{clip-path:url(#SVGID_182_);}
	.st160{clip-path:url(#SVGID_184_);}
	.st161{opacity:4.000000e-02;}
	.st162{fill:url(#SVGID_185_);}
	.st163{fill:url(#SVGID_186_);}
	.st164{fill:none;stroke:#D6DCDC;stroke-width:2;stroke-miterlimit:10;}
	.st165{fill:#AEAEAE;}
	.st166{fill:none;stroke:#0069B8;stroke-width:2;stroke-miterlimit:10;}
	.st167{fill:#FF5039;}
	.st168{fill:#00CCAA;}
	.st169{fill:url(#SVGID_187_);}
	.st170{fill:url(#SVGID_188_);}
	.st171{fill:none;stroke:#0069B8;stroke-miterlimit:10;}
	.st172{fill:#207DC1;}
	.st173{fill:#98E2FF;}
	.st174{opacity:0.4;fill:#CBCBCB;}
	.st175{fill:#FFE774;}
	.st176{fill:#FCD0F1;}
	.st177{fill:none;stroke:#ABA792;stroke-miterlimit:10;}
	.st178{fill:#ABA792;}
	.st179{fill:none;stroke:#FFE774;stroke-miterlimit:10;}
	.st180{fill:none;stroke:#98E2FF;stroke-miterlimit:10;}
	.st181{fill:none;stroke:#FCD0F1;stroke-miterlimit:10;}
	.st182{fill:#7993F2;}
	.st183{fill:#009BCC;}
	.st184{fill:#10B571;}
	.st185{opacity:0.6;fill:url(#SVGID_189_);}
	.st186{fill:none;stroke:#4D4D4D;stroke-miterlimit:10;stroke-dasharray:3,3;}
	.st187{fill:none;stroke:#FFFFFF;stroke-miterlimit:10;}
	.st188{opacity:0.2;fill:none;stroke:#0069B8;stroke-width:2;stroke-miterlimit:10;}
	.st189{fill-rule:evenodd;clip-rule:evenodd;fill:#D6DCDC;}
	.st190{fill:none;stroke:#207DC1;stroke-width:2;stroke-miterlimit:10;}
	.st191{fill:#E5E5E5;}
	.st192{fill:#EAEAE8;}
	.st193{fill:#FF6166;}
	.st194{fill:#FFC43E;}
	.st195{fill:#4FAA5D;}
	.st196{fill:none;stroke:#0069B8;stroke-width:3;stroke-miterlimit:10;}
	.st197{fill:none;stroke:#48C89F;stroke-width:2;stroke-miterlimit:10;}
	.st198{opacity:0.69;}
	.st199{fill:#F9F9F9;}
	.st200{fill:none;stroke:#E5E5E5;stroke-miterlimit:10;stroke-dasharray:1;}
	.st201{fill:none;stroke:#ABA792;stroke-miterlimit:10;stroke-dasharray:1;}
	.st202{opacity:0.79;}
	.st203{fill:url(#SVGID_190_);}
	.st204{fill:#F5655A;}
	.st205{opacity:0.79;fill:none;stroke:url(#SVGID_191_);stroke-miterlimit:10;stroke-dasharray:1;}
	.st206{fill:none;stroke:#F5655A;stroke-width:2;stroke-miterlimit:10;}
	.st207{fill:none;stroke:#ABA792;stroke-width:2;stroke-miterlimit:10;}
	.st208{fill:#71D2C1;}
	.st209{fill:none;stroke:#D4CEB6;stroke-miterlimit:10;}
	.st210{fill:url(#SVGID_192_);}
	.st211{opacity:0.5;fill:none;stroke:#D4CEB6;stroke-miterlimit:10;}
	.st212{fill:#71D2C1;stroke:#FFFFFF;stroke-miterlimit:10;}
	.st213{fill:#2C74BB;}
	.st214{fill:#7590F5;}
	.st215{fill:#1297CC;}
	.st216{fill:#1A8789;}
	.st217{fill:#30C7A4;}
	.st218{fill:#38B350;}
	.st219{fill:#FC9300;}
	.st220{fill:#F3C400;}
	.st221{fill:#FA6F00;}
	.st222{clip-path:url(#SVGID_194_);}
	.st223{clip-path:url(#SVGID_196_);}
	.st224{clip-path:url(#SVGID_200_);}
	.st225{clip-path:url(#SVGID_204_);}
	.st226{fill:url(#SVGID_207_);}
	.st227{clip-path:url(#SVGID_215_);}
	.st228{fill:#7B8E6A;}
	.st229{fill:url(#SVGID_218_);}
	.st230{clip-path:url(#SVGID_222_);}
	.st231{fill:#3333FF;}
	.st232{clip-path:url(#SVGID_224_);}
	.st233{fill:#B2B2B2;}
	.st234{clip-path:url(#SVGID_228_);}
	.st235{clip-path:url(#SVGID_230_);}
	.st236{fill:#005AA9;}
	.st237{clip-path:url(#SVGID_246_);}
	.st238{clip-path:url(#SVGID_248_);}
	.st239{clip-path:url(#SVGID_252_);}
	.st240{clip-path:url(#SVGID_254_);}
	.st241{clip-path:url(#SVGID_258_);}
	.st242{clip-path:url(#SVGID_262_);}
	.st243{fill:url(#SVGID_265_);}
	.st244{clip-path:url(#SVGID_273_);}
	.st245{fill:url(#SVGID_276_);}
	.st246{clip-path:url(#SVGID_280_);}
	.st247{clip-path:url(#SVGID_282_);}
	.st248{clip-path:url(#SVGID_286_);}
	.st249{clip-path:url(#SVGID_288_);}
	.st250{clip-path:url(#SVGID_304_);}
	.st251{clip-path:url(#SVGID_306_);}
	.st252{clip-path:url(#SVGID_310_);}
	.st253{clip-path:url(#SVGID_312_);}
	.st254{clip-path:url(#SVGID_316_);}
	.st255{clip-path:url(#SVGID_320_);}
	.st256{fill:url(#SVGID_323_);}
	.st257{clip-path:url(#SVGID_331_);}
	.st258{fill:url(#SVGID_334_);}
	.st259{clip-path:url(#SVGID_338_);}
	.st260{clip-path:url(#SVGID_340_);}
	.st261{clip-path:url(#SVGID_344_);}
	.st262{clip-path:url(#SVGID_346_);}
	.st263{clip-path:url(#SVGID_362_);}
	.st264{clip-path:url(#SVGID_364_);}
	.st265{clip-path:url(#SVGID_368_);}
	.st266{opacity:0.4;fill:url(#SVGID_371_);}
	.st267{clip-path:url(#SVGID_373_);}
	.st268{clip-path:url(#SVGID_375_);}
	.st269{fill:url(#SVGID_376_);}
	.st270{fill:url(#SVGID_377_);}
	.st271{fill:#AFAFAF;}
	.st272{fill:url(#SVGID_378_);}
	.st273{fill:url(#SVGID_379_);}
	.st274{fill:url(#SVGID_380_);}
	.st275{fill:url(#SVGID_381_);}
	.st276{fill:#EF7357;}
	.st277{fill:none;stroke:#EF7357;stroke-width:3;stroke-linecap:round;stroke-linejoin:round;stroke-miterlimit:10;}
	.st278{fill:none;stroke:#EF7357;stroke-width:3;stroke-miterlimit:10;}
	.st279{fill:none;stroke:#EF7357;stroke-width:2;stroke-miterlimit:10;}
	.st280{fill:none;stroke:#EF7357;stroke-width:7;stroke-linejoin:round;stroke-miterlimit:10;}
	.st281{fill:#D9ECF4;}
	.st282{fill:none;stroke:#FFFFFF;stroke-width:2;stroke-miterlimit:10;}
	.st283{fill-rule:evenodd;clip-rule:evenodd;fill:#EF7357;}
	.st284{fill:url(#SVGID_382_);}
	.st285{fill:url(#SVGID_383_);}
	.st286{fill:url(#SVGID_384_);}
	.st287{fill:url(#SVGID_385_);}
	.st288{opacity:0.6;fill:url(#SVGID_386_);}
	.st289{fill:none;stroke:#48C89F;stroke-width:3;stroke-linecap:round;stroke-miterlimit:10;}
	.st290{fill:url(#SVGID_387_);}
	.st291{fill:url(#SVGID_388_);}
	.st292{fill:url(#SVGID_389_);}
	.st293{fill:url(#SVGID_390_);}
	.st294{opacity:0.6;fill:url(#SVGID_391_);}
	.st295{fill:url(#SVGID_392_);}
	.st296{fill:url(#SVGID_393_);}
	.st297{fill:url(#SVGID_394_);}
	.st298{fill:url(#SVGID_395_);}
	.st299{opacity:0.6;fill:url(#SVGID_396_);}
	.st300{fill:#262D71;}
	.st301{fill:#D80033;}
	.st302{clip-path:url(#SVGID_402_);fill:#FFD938;}
	.st303{clip-path:url(#SVGID_402_);fill:#4F2600;}
	.st304{fill:#4F2600;}
	.st305{clip-path:url(#SVGID_404_);fill:#4F2600;}
	.st306{fill:#00ABDE;}
	.st307{fill:#87CCEB;}
	.st308{fill:#00ADDE;}
	.st309{fill:#00A8D9;}
	.st310{fill:#00A1D9;}
	.st311{fill:#40B5E0;}
	.st312{fill:#D4EBF7;}
	.st313{fill:#0DB0DE;}
	.st314{fill:#36383B;}
	.st315{fill:none;stroke:#36383B;stroke-width:0.124;}
	.st316{fill:none;stroke:#EF7357;stroke-width:2;stroke-linecap:round;stroke-miterlimit:10;}
	.st317{opacity:0.96;fill:url(#SVGID_405_);}
	.st318{clip-path:url(#SVGID_407_);}
	.st319{clip-path:url(#SVGID_409_);}
	.st320{clip-path:url(#SVGID_411_);fill:#FFD938;}
	.st321{clip-path:url(#SVGID_411_);fill:#4F2600;}
	.st322{clip-path:url(#SVGID_413_);fill:#4F2600;}
	.st323{clip-path:url(#SVGID_415_);}
	.st324{fill:none;stroke:#333333;stroke-miterlimit:10;}
	.st325{fill:#1E1E1E;}
	.st326{fill:none;stroke:#004288;stroke-miterlimit:10;}
	.st327{fill:none;stroke:#004288;stroke-miterlimit:10;stroke-dasharray:1.9976,1.9976;}
	.st328{fill:none;stroke:#004288;stroke-miterlimit:10;stroke-dasharray:2.0029,2.0029;}
	.st329{fill:#D5E4EF;stroke:#004286;stroke-width:2;stroke-miterlimit:10;}
	.st330{clip-path:url(#SVGID_417_);fill:#FFD938;}
	.st331{clip-path:url(#SVGID_417_);fill:#4F2600;}
	.st332{clip-path:url(#SVGID_419_);fill:#4F2600;}
	.st333{opacity:0.96;fill:url(#SVGID_420_);}
	.st334{clip-path:url(#SVGID_422_);fill:#FFD938;}
	.st335{clip-path:url(#SVGID_422_);fill:#4F2600;}
	.st336{clip-path:url(#SVGID_424_);fill:#4F2600;}
</style>
<g>
	<g>
		<path class="st123" d="M85.9,0.5H36.2c-7,0-12.6,5.7-12.6,12.6c0,7,5.7,12.6,12.6,12.6h49.6c7,0,12.6-5.7,12.6-12.6
			C98.5,6.2,92.8,0.5,85.9,0.5z"/>
		<g>
			<g>
				<path class="st7" d="M46.1,15.8c0,0.8-0.3,1.5-0.9,1.9c-0.6,0.5-1.4,0.7-2.5,0.7c-1.1,0-2-0.1-2.6-0.4v-1.1
					c0.4,0.2,0.8,0.3,1.3,0.4c0.5,0.1,0.9,0.1,1.3,0.1c0.7,0,1.2-0.1,1.6-0.4c0.4-0.3,0.5-0.6,0.5-1.1c0-0.3-0.1-0.6-0.2-0.8
					c-0.1-0.2-0.3-0.4-0.6-0.6c-0.3-0.2-0.8-0.4-1.4-0.6c-0.9-0.3-1.5-0.7-1.9-1.1c-0.4-0.4-0.6-1-0.6-1.7c0-0.7,0.3-1.3,0.8-1.8
					c0.6-0.4,1.3-0.7,2.2-0.7c0.9,0,1.8,0.2,2.6,0.5l-0.4,1C44.7,10,44,9.8,43.3,9.8c-0.6,0-1,0.1-1.3,0.4c-0.3,0.2-0.5,0.6-0.5,1
					c0,0.3,0.1,0.6,0.2,0.8c0.1,0.2,0.3,0.4,0.6,0.6c0.3,0.2,0.7,0.4,1.3,0.6c0.7,0.3,1.2,0.5,1.6,0.8c0.3,0.2,0.6,0.5,0.8,0.8
					C46,15,46.1,15.3,46.1,15.8z"/>
				<path class="st7" d="M50.2,17.5c0.2,0,0.3,0,0.5,0c0.2,0,0.4-0.1,0.5-0.1v0.9c-0.1,0-0.3,0.1-0.5,0.1c-0.2,0-0.5,0.1-0.7,0.1
					c-1.4,0-2.1-0.7-2.1-2.2v-4.1h-1v-0.6l1-0.5l0.5-1.5h0.7v1.6h2v0.9h-2v4.1c0,0.4,0.1,0.7,0.3,0.9C49.6,17.4,49.9,17.5,50.2,17.5
					z"/>
				<path class="st7" d="M58.8,14.8c0,1.2-0.3,2.1-0.9,2.7c-0.6,0.6-1.4,1-2.4,1c-0.6,0-1.2-0.1-1.7-0.4c-0.5-0.3-0.9-0.7-1.1-1.3
					c-0.3-0.6-0.4-1.2-0.4-1.9c0-1.2,0.3-2,0.9-2.7c0.6-0.6,1.4-1,2.4-1c1,0,1.8,0.3,2.4,1C58.5,12.7,58.8,13.6,58.8,14.8z
					 M53.4,14.8c0,0.9,0.2,1.6,0.5,2c0.4,0.5,0.9,0.7,1.5,0.7c0.7,0,1.2-0.2,1.5-0.7c0.4-0.5,0.5-1.1,0.5-2c0-0.9-0.2-1.6-0.5-2
					c-0.4-0.4-0.9-0.7-1.6-0.7C54.1,12.1,53.4,13,53.4,14.8z"/>
				<path class="st7" d="M63.9,11.1c0.3,0,0.6,0,0.8,0.1l-0.1,1.1c-0.3-0.1-0.5-0.1-0.8-0.1c-0.4,0-0.7,0.1-1,0.3
					c-0.3,0.2-0.6,0.5-0.8,0.9c-0.2,0.4-0.3,0.8-0.3,1.2v3.8h-1.2v-7.1h1l0.1,1.3h0.1c0.3-0.5,0.6-0.8,1-1.1
					C63.1,11.2,63.5,11.1,63.9,11.1z"/>
				<path class="st7" d="M66,9.3c0-0.3,0.1-0.4,0.2-0.6c0.1-0.1,0.3-0.2,0.5-0.2c0.2,0,0.3,0.1,0.5,0.2c0.1,0.1,0.2,0.3,0.2,0.6
					c0,0.3-0.1,0.4-0.2,0.6c-0.1,0.1-0.3,0.2-0.5,0.2c-0.2,0-0.4-0.1-0.5-0.2C66,9.8,66,9.6,66,9.3z M67.2,18.3H66v-7.1h1.2V18.3z"
					/>
				<path class="st7" d="M72.5,18.4c-1.1,0-1.9-0.3-2.5-1c-0.6-0.6-0.9-1.5-0.9-2.7c0-1.1,0.3-2,0.8-2.7c0.6-0.7,1.3-1,2.3-1
					c0.9,0,1.6,0.3,2.1,0.9c0.5,0.6,0.8,1.3,0.8,2.3V15h-4.8c0,0.8,0.2,1.4,0.6,1.8c0.4,0.4,0.9,0.6,1.6,0.6c0.4,0,0.7,0,1.1-0.1
					c0.3-0.1,0.7-0.2,1.2-0.4v1c-0.4,0.2-0.8,0.3-1.1,0.4C73.3,18.4,72.9,18.4,72.5,18.4z M72.2,12c-0.6,0-1,0.2-1.3,0.5
					c-0.3,0.4-0.5,0.9-0.6,1.5h3.6c0-0.7-0.2-1.2-0.5-1.5C73.1,12.2,72.7,12,72.2,12z"/>
				<path class="st7" d="M81.5,16.3c0,0.7-0.2,1.2-0.7,1.5c-0.5,0.4-1.2,0.5-2.1,0.5c-0.9,0-1.7-0.1-2.2-0.4v-1.1
					c0.8,0.4,1.5,0.6,2.2,0.6c0.6,0,1-0.1,1.3-0.3c0.3-0.2,0.4-0.4,0.4-0.8c0-0.3-0.1-0.5-0.4-0.7c-0.3-0.2-0.7-0.4-1.4-0.7
					c-0.7-0.3-1.1-0.5-1.4-0.7c-0.3-0.2-0.5-0.4-0.6-0.6c-0.1-0.2-0.2-0.5-0.2-0.8c0-0.6,0.2-1,0.7-1.4c0.5-0.3,1.1-0.5,1.9-0.5
					c0.8,0,1.6,0.2,2.3,0.5L81,12.5C80.2,12.2,79.6,12,79,12c-0.5,0-0.8,0.1-1.1,0.2c-0.2,0.2-0.4,0.4-0.4,0.6
					c0,0.3,0.1,0.5,0.3,0.6c0.2,0.2,0.7,0.4,1.5,0.7c0.6,0.2,1,0.4,1.3,0.6c0.3,0.2,0.5,0.4,0.6,0.6C81.4,15.7,81.5,16,81.5,16.3z"
					/>
			</g>
		</g>
		<path class="st123" d="M176.1,0.5h-58.6c-7,0-12.6,5.7-12.6,12.6c0,7,5.7,12.6,12.6,12.6h58.6c7,0,12.6-5.7,12.6-12.6
			C188.8,6.2,183.1,0.5,176.1,0.5z"/>
		<g>
			<g>
				<path class="st7" d="M128.2,11.7c0,1-0.3,1.7-1,2.2c-0.7,0.5-1.6,0.8-2.8,0.8h-1.1v3.7h-1.2V8.9h2.5
					C127,8.9,128.2,9.8,128.2,11.7z M123.3,13.6h0.9c0.9,0,1.6-0.2,2-0.5c0.4-0.3,0.6-0.8,0.6-1.5c0-0.6-0.2-1.1-0.6-1.4
					c-0.4-0.3-1-0.5-1.8-0.5h-1.2V13.6z"/>
				<path class="st7" d="M133.3,11.1c0.3,0,0.6,0,0.8,0.1l-0.1,1.1c-0.3-0.1-0.5-0.1-0.8-0.1c-0.4,0-0.7,0.1-1,0.3
					c-0.3,0.2-0.6,0.5-0.8,0.9c-0.2,0.4-0.3,0.8-0.3,1.2v3.8H130v-7.1h1l0.1,1.3h0.1c0.3-0.5,0.6-0.8,1-1.1
					C132.4,11.2,132.8,11.1,133.3,11.1z"/>
				<path class="st7" d="M141.6,14.8c0,1.2-0.3,2.1-0.9,2.7c-0.6,0.6-1.4,1-2.4,1c-0.6,0-1.2-0.1-1.7-0.4c-0.5-0.3-0.9-0.7-1.1-1.3
					c-0.3-0.6-0.4-1.2-0.4-1.9c0-1.2,0.3-2,0.9-2.7c0.6-0.6,1.4-1,2.4-1c1,0,1.8,0.3,2.4,1C141.3,12.7,141.6,13.6,141.6,14.8z
					 M136.2,14.8c0,0.9,0.2,1.6,0.5,2c0.4,0.5,0.9,0.7,1.5,0.7c0.7,0,1.2-0.2,1.5-0.7c0.4-0.5,0.5-1.1,0.5-2c0-0.9-0.2-1.6-0.5-2
					c-0.4-0.4-0.9-0.7-1.6-0.7C136.9,12.1,136.2,13,136.2,14.8z"/>
				<path class="st7" d="M142.6,21.5c-0.4,0-0.7-0.1-1-0.2v-0.9c0.3,0.1,0.6,0.1,0.9,0.1c0.3,0,0.6-0.1,0.7-0.3
					c0.2-0.2,0.2-0.5,0.2-0.8v-8.2h1.2v8.1c0,0.7-0.2,1.2-0.5,1.6C143.7,21.3,143.2,21.5,142.6,21.5z M143.3,9.3
					c0-0.3,0.1-0.4,0.2-0.6c0.1-0.1,0.3-0.2,0.5-0.2c0.2,0,0.3,0.1,0.5,0.2c0.1,0.1,0.2,0.3,0.2,0.6c0,0.3-0.1,0.4-0.2,0.6
					c-0.1,0.1-0.3,0.2-0.5,0.2c-0.2,0-0.4-0.1-0.5-0.2C143.4,9.8,143.3,9.6,143.3,9.3z"/>
				<path class="st7" d="M149.8,18.4c-1.1,0-1.9-0.3-2.5-1c-0.6-0.6-0.9-1.5-0.9-2.7c0-1.1,0.3-2,0.8-2.7c0.6-0.7,1.3-1,2.3-1
					c0.9,0,1.6,0.3,2.1,0.9c0.5,0.6,0.8,1.3,0.8,2.3V15h-4.8c0,0.8,0.2,1.4,0.6,1.8c0.4,0.4,0.9,0.6,1.6,0.6c0.4,0,0.7,0,1.1-0.1
					c0.3-0.1,0.7-0.2,1.2-0.4v1c-0.4,0.2-0.8,0.3-1.1,0.4C150.7,18.4,150.3,18.4,149.8,18.4z M149.5,12c-0.6,0-1,0.2-1.3,0.5
					c-0.3,0.4-0.5,0.9-0.6,1.5h3.6c0-0.7-0.2-1.2-0.5-1.5C150.5,12.2,150,12,149.5,12z"/>
				<path class="st7" d="M155.4,14.7l0.4-0.5l0.5-0.5l2.3-2.4h1.4l-2.9,3l3.1,4.1h-1.4l-2.5-3.3l-0.8,0.7v2.6h-1.1v-10h1.1v5.2V14.7
					L155.4,14.7z"/>
				<path class="st7" d="M163.6,17.5c0.2,0,0.3,0,0.5,0c0.2,0,0.4-0.1,0.5-0.1v0.9c-0.1,0-0.3,0.1-0.5,0.1c-0.2,0-0.5,0.1-0.7,0.1
					c-1.4,0-2.1-0.7-2.1-2.2v-4.1h-1v-0.6l1-0.5l0.5-1.5h0.7v1.6h2v0.9h-2v4.1c0,0.4,0.1,0.7,0.3,0.9
					C163,17.4,163.3,17.5,163.6,17.5z"/>
				<path class="st7" d="M169,18.4c-1.1,0-1.9-0.3-2.5-1c-0.6-0.6-0.9-1.5-0.9-2.7c0-1.1,0.3-2,0.8-2.7c0.6-0.7,1.3-1,2.3-1
					c0.9,0,1.6,0.3,2.1,0.9c0.5,0.6,0.8,1.3,0.8,2.3V15h-4.8c0,0.8,0.2,1.4,0.6,1.8c0.4,0.4,0.9,0.6,1.6,0.6c0.4,0,0.7,0,1.1-0.1
					c0.3-0.1,0.7-0.2,1.2-0.4v1c-0.4,0.2-0.8,0.3-1.1,0.4C169.9,18.4,169.5,18.4,169,18.4z M168.8,12c-0.6,0-1,0.2-1.3,0.5
					c-0.3,0.4-0.5,0.9-0.6,1.5h3.6c0-0.7-0.2-1.2-0.5-1.5C169.7,12.2,169.3,12,168.8,12z"/>
			</g>
		</g>
		<path class="st123" d="M283.2,0.5h-75.4c-7,0-12.6,5.7-12.6,12.6c0,7,5.7,12.6,12.6,12.6h75.4c7,0,12.6-5.7,12.6-12.6
			C295.8,6.2,290.2,0.5,283.2,0.5z"/>
		<g>
			<g>
				<path class="st7" d="M217.6,18.3h-1.2V9.9h-2.9v-1h7.1v1h-2.9V18.3z"/>
				<path class="st7" d="M221.7,9.3c0-0.3,0.1-0.4,0.2-0.6c0.1-0.1,0.3-0.2,0.5-0.2c0.2,0,0.3,0.1,0.5,0.2c0.1,0.1,0.2,0.3,0.2,0.6
					c0,0.3-0.1,0.4-0.2,0.6c-0.1,0.1-0.3,0.2-0.5,0.2c-0.2,0-0.4-0.1-0.5-0.2C221.7,9.8,221.7,9.6,221.7,9.3z M222.9,18.3h-1.2v-7.1
					h1.2V18.3z"/>
				<path class="st7" d="M228.2,18.4c-1.1,0-1.9-0.3-2.5-1c-0.6-0.6-0.9-1.5-0.9-2.7c0-1.1,0.3-2,0.8-2.7c0.6-0.7,1.3-1,2.3-1
					c0.9,0,1.6,0.3,2.1,0.9c0.5,0.6,0.8,1.3,0.8,2.3V15H226c0,0.8,0.2,1.4,0.6,1.8c0.4,0.4,0.9,0.6,1.6,0.6c0.4,0,0.7,0,1.1-0.1
					c0.3-0.1,0.7-0.2,1.2-0.4v1c-0.4,0.2-0.8,0.3-1.1,0.4C229,18.4,228.6,18.4,228.2,18.4z M227.9,12c-0.6,0-1,0.2-1.3,0.5
					c-0.3,0.4-0.5,0.9-0.6,1.5h3.6c0-0.7-0.2-1.2-0.5-1.5C228.8,12.2,228.4,12,227.9,12z"/>
				<path class="st7" d="M235.9,11.1c0.3,0,0.6,0,0.8,0.1l-0.1,1.1c-0.3-0.1-0.5-0.1-0.8-0.1c-0.4,0-0.7,0.1-1,0.3
					c-0.3,0.2-0.6,0.5-0.8,0.9c-0.2,0.4-0.3,0.8-0.3,1.2v3.8h-1.2v-7.1h1l0.1,1.3h0.1c0.3-0.5,0.6-0.8,1-1.1
					C235.1,11.2,235.5,11.1,235.9,11.1z"/>
				<path class="st7" d="M241.4,18.4c-0.9,0-1.7-0.3-2.2-1h-0.1l0,0.3c0,0.3,0.1,0.6,0.1,0.9v2.9h-1.2V11.2h1l0.2,1h0.1
					c0.3-0.4,0.6-0.7,1-0.8c0.4-0.2,0.8-0.3,1.2-0.3c0.9,0,1.6,0.3,2.1,1c0.5,0.6,0.8,1.5,0.8,2.7c0,1.2-0.3,2.1-0.8,2.7
					C243,18.1,242.3,18.4,241.4,18.4z M241.2,12.1c-0.7,0-1.2,0.2-1.5,0.6c-0.3,0.4-0.5,1-0.5,1.9v0.2c0,1,0.2,1.6,0.5,2.1
					c0.3,0.4,0.8,0.6,1.5,0.6c0.6,0,1.1-0.2,1.4-0.7c0.3-0.5,0.5-1.2,0.5-2c0-0.9-0.2-1.5-0.5-2C242.3,12.3,241.8,12.1,241.2,12.1z"
					/>
				<path class="st7" d="M249.5,11.1c0.3,0,0.6,0,0.8,0.1l-0.1,1.1c-0.3-0.1-0.5-0.1-0.8-0.1c-0.4,0-0.7,0.1-1,0.3
					c-0.3,0.2-0.6,0.5-0.8,0.9c-0.2,0.4-0.3,0.8-0.3,1.2v3.8h-1.2v-7.1h1l0.1,1.3h0.1c0.3-0.5,0.6-0.8,1-1.1
					C248.6,11.2,249,11.1,249.5,11.1z"/>
				<path class="st7" d="M257.8,14.8c0,1.2-0.3,2.1-0.9,2.7c-0.6,0.6-1.4,1-2.4,1c-0.6,0-1.2-0.1-1.7-0.4c-0.5-0.3-0.9-0.7-1.1-1.3
					c-0.3-0.6-0.4-1.2-0.4-1.9c0-1.2,0.3-2,0.9-2.7c0.6-0.6,1.4-1,2.4-1c1,0,1.8,0.3,2.4,1C257.5,12.7,257.8,13.6,257.8,14.8z
					 M252.4,14.8c0,0.9,0.2,1.6,0.5,2c0.4,0.5,0.9,0.7,1.5,0.7c0.7,0,1.2-0.2,1.5-0.7c0.4-0.5,0.5-1.1,0.5-2c0-0.9-0.2-1.6-0.5-2
					c-0.4-0.4-0.9-0.7-1.6-0.7C253.1,12.1,252.4,13,252.4,14.8z"/>
				<path class="st7" d="M262.9,12.1h-1.8v6.2h-1.2v-6.2h-1.2v-0.5l1.2-0.4v-0.4c0-0.9,0.2-1.5,0.6-1.9c0.4-0.4,1-0.6,1.7-0.6
					c0.5,0,0.9,0.1,1.4,0.2l-0.3,0.9c-0.4-0.1-0.7-0.2-1.1-0.2c-0.4,0-0.7,0.1-0.9,0.4c-0.2,0.3-0.3,0.7-0.3,1.2v0.5h1.8V12.1z"/>
				<path class="st7" d="M264.1,9.3c0-0.3,0.1-0.4,0.2-0.6c0.1-0.1,0.3-0.2,0.5-0.2c0.2,0,0.3,0.1,0.5,0.2c0.1,0.1,0.2,0.3,0.2,0.6
					c0,0.3-0.1,0.4-0.2,0.6c-0.1,0.1-0.3,0.2-0.5,0.2c-0.2,0-0.4-0.1-0.5-0.2C264.1,9.8,264.1,9.6,264.1,9.3z M265.3,18.3h-1.2v-7.1
					h1.2V18.3z"/>
				<path class="st7" d="M268.7,18.3h-1.2v-10h1.2V18.3z"/>
				<path class="st7" d="M274,18.4c-1.1,0-1.9-0.3-2.5-1c-0.6-0.6-0.9-1.5-0.9-2.7c0-1.1,0.3-2,0.8-2.7c0.6-0.7,1.3-1,2.3-1
					c0.9,0,1.6,0.3,2.1,0.9c0.5,0.6,0.8,1.3,0.8,2.3V15h-4.8c0,0.8,0.2,1.4,0.6,1.8c0.4,0.4,0.9,0.6,1.6,0.6c0.4,0,0.7,0,1.1-0.1
					c0.3-0.1,0.7-0.2,1.2-0.4v1c-0.4,0.2-0.8,0.3-1.1,0.4C274.8,18.4,274.4,18.4,274,18.4z M273.7,12c-0.6,0-1,0.2-1.3,0.5
					c-0.3,0.4-0.5,0.9-0.6,1.5h3.6c0-0.7-0.2-1.2-0.5-1.5C274.6,12.2,274.2,12,273.7,12z"/>
			</g>
		</g>
	</g>
	<g>
		<path class="st123" d="M299.4,113.2h-69.1c-7,0-12.6,5.7-12.6,12.6c0,7,5.7,12.6,12.6,12.6h69.1c7,0,12.6-5.7,12.6-12.6
			C312,118.9,306.4,113.2,299.4,113.2z"/>
		<g>
			<g>
				<path class="st7" d="M240.2,124.4c0,1-0.3,1.7-1,2.2c-0.7,0.5-1.6,0.8-2.8,0.8h-1.1v3.7h-1.2v-9.4h2.5
					C239,121.6,240.2,122.5,240.2,124.4z M235.3,126.3h0.9c0.9,0,1.6-0.2,2-0.5c0.4-0.3,0.6-0.8,0.6-1.5c0-0.6-0.2-1.1-0.6-1.4
					c-0.4-0.3-1-0.5-1.8-0.5h-1.2V126.3z"/>
				<path class="st7" d="M245,131.2c-1.1,0-1.9-0.3-2.5-1c-0.6-0.6-0.9-1.5-0.9-2.7c0-1.1,0.3-2,0.8-2.7c0.6-0.7,1.3-1,2.3-1
					c0.9,0,1.6,0.3,2.1,0.9c0.5,0.6,0.8,1.3,0.8,2.3v0.7h-4.8c0,0.8,0.2,1.4,0.6,1.8c0.4,0.4,0.9,0.6,1.6,0.6c0.4,0,0.7,0,1.1-0.1
					c0.3-0.1,0.7-0.2,1.2-0.4v1c-0.4,0.2-0.8,0.3-1.1,0.4C245.8,131.1,245.4,131.2,245,131.2z M244.7,124.8c-0.6,0-1,0.2-1.3,0.5
					c-0.3,0.4-0.5,0.9-0.6,1.5h3.6c0-0.7-0.2-1.2-0.5-1.5C245.6,124.9,245.2,124.8,244.7,124.8z"/>
				<path class="st7" d="M251.8,130.2c0.2,0,0.3,0,0.5,0c0.2,0,0.4-0.1,0.5-0.1v0.9c-0.1,0-0.3,0.1-0.5,0.1c-0.2,0-0.5,0.1-0.7,0.1
					c-1.4,0-2.1-0.7-2.1-2.2v-4.1h-1v-0.6l1-0.5l0.5-1.5h0.7v1.6h2v0.9h-2v4.1c0,0.4,0.1,0.7,0.3,0.9
					C251.1,130.1,251.4,130.2,251.8,130.2z"/>
				<path class="st7" d="M254.1,122c0-0.3,0.1-0.4,0.2-0.6c0.1-0.1,0.3-0.2,0.5-0.2c0.2,0,0.3,0.1,0.5,0.2c0.1,0.1,0.2,0.3,0.2,0.6
					c0,0.3-0.1,0.4-0.2,0.6c-0.1,0.1-0.3,0.2-0.5,0.2c-0.2,0-0.4-0.1-0.5-0.2C254.1,122.5,254.1,122.3,254.1,122z M255.3,131h-1.2
					V124h1.2V131z"/>
				<path class="st7" d="M259.9,130.2c0.2,0,0.3,0,0.5,0c0.2,0,0.4-0.1,0.5-0.1v0.9c-0.1,0-0.3,0.1-0.5,0.1c-0.2,0-0.5,0.1-0.7,0.1
					c-1.4,0-2.1-0.7-2.1-2.2v-4.1h-1v-0.6l1-0.5l0.5-1.5h0.7v1.6h2v0.9h-2v4.1c0,0.4,0.1,0.7,0.3,0.9
					C259.3,130.1,259.6,130.2,259.9,130.2z"/>
				<path class="st7" d="M262.2,122c0-0.3,0.1-0.4,0.2-0.6c0.1-0.1,0.3-0.2,0.5-0.2c0.2,0,0.3,0.1,0.5,0.2c0.1,0.1,0.2,0.3,0.2,0.6
					c0,0.3-0.1,0.4-0.2,0.6c-0.1,0.1-0.3,0.2-0.5,0.2c-0.2,0-0.4-0.1-0.5-0.2C262.3,122.5,262.2,122.3,262.2,122z M263.5,131h-1.2
					V124h1.2V131z"/>
				<path class="st7" d="M271.9,127.5c0,1.2-0.3,2.1-0.9,2.7c-0.6,0.6-1.4,1-2.4,1c-0.6,0-1.2-0.1-1.7-0.4c-0.5-0.3-0.9-0.7-1.1-1.3
					c-0.3-0.6-0.4-1.2-0.4-1.9c0-1.2,0.3-2,0.9-2.7c0.6-0.6,1.4-1,2.4-1c1,0,1.8,0.3,2.4,1C271.6,125.5,271.9,126.4,271.9,127.5z
					 M266.5,127.5c0,0.9,0.2,1.6,0.5,2c0.4,0.5,0.9,0.7,1.5,0.7c0.7,0,1.2-0.2,1.5-0.7c0.4-0.5,0.5-1.1,0.5-2c0-0.9-0.2-1.6-0.5-2
					c-0.4-0.4-0.9-0.7-1.6-0.7C267.2,124.8,266.5,125.7,266.5,127.5z"/>
				<path class="st7" d="M278.5,131v-4.5c0-0.6-0.1-1-0.4-1.3c-0.3-0.3-0.7-0.4-1.2-0.4c-0.7,0-1.3,0.2-1.6,0.6
					c-0.3,0.4-0.5,1.1-0.5,2v3.7h-1.2V124h0.9l0.2,1h0.1c0.2-0.3,0.5-0.6,0.9-0.8c0.4-0.2,0.8-0.3,1.3-0.3c0.9,0,1.5,0.2,1.9,0.6
					c0.4,0.4,0.6,1.1,0.6,2v4.6H278.5z"/>
				<path class="st7" d="M284.9,131.2c-1.1,0-1.9-0.3-2.5-1c-0.6-0.6-0.9-1.5-0.9-2.7c0-1.1,0.3-2,0.8-2.7c0.6-0.7,1.3-1,2.3-1
					c0.9,0,1.6,0.3,2.1,0.9c0.5,0.6,0.8,1.3,0.8,2.3v0.7h-4.8c0,0.8,0.2,1.4,0.6,1.8c0.4,0.4,0.9,0.6,1.6,0.6c0.4,0,0.7,0,1.1-0.1
					c0.3-0.1,0.7-0.2,1.2-0.4v1c-0.4,0.2-0.8,0.3-1.1,0.4C285.7,131.1,285.3,131.2,284.9,131.2z M284.6,124.8c-0.6,0-1,0.2-1.3,0.5
					c-0.3,0.4-0.5,0.9-0.6,1.5h3.6c0-0.7-0.2-1.2-0.5-1.5C285.5,124.9,285.1,124.8,284.6,124.8z"/>
				<path class="st7" d="M294.1,131v-4.5c0-0.6-0.1-1-0.4-1.3c-0.3-0.3-0.7-0.4-1.2-0.4c-0.7,0-1.3,0.2-1.6,0.6
					c-0.3,0.4-0.5,1.1-0.5,2v3.7h-1.2V124h0.9l0.2,1h0.1c0.2-0.3,0.5-0.6,0.9-0.8c0.4-0.2,0.8-0.3,1.3-0.3c0.9,0,1.5,0.2,1.9,0.6
					c0.4,0.4,0.6,1.1,0.6,2v4.6H294.1z"/>
			</g>
		</g>
		<path class="st123" d="M98.4,113.2H20.1c-7,0-12.6,5.7-12.6,12.6c0,7,5.7,12.6,12.6,12.6h78.3c7,0,12.6-5.7,12.6-12.6
			C111,118.9,105.4,113.2,98.4,113.2z"/>
		<g>
			<g>
				<path class="st7" d="M24.9,127.1v3.9h-1.2v-9.4h2.6c1.2,0,2,0.2,2.6,0.7c0.6,0.4,0.8,1.1,0.8,2c0,1.2-0.6,2.1-1.9,2.5l2.6,4.2
					h-1.4l-2.3-3.9H24.9z M24.9,126.1h1.4c0.8,0,1.3-0.1,1.7-0.5c0.4-0.3,0.5-0.7,0.5-1.3c0-0.6-0.2-1-0.5-1.3
					c-0.4-0.3-0.9-0.4-1.7-0.4h-1.3V126.1z"/>
				<path class="st7" d="M34.8,131.2c-1.1,0-1.9-0.3-2.5-1c-0.6-0.6-0.9-1.5-0.9-2.7c0-1.1,0.3-2,0.8-2.7c0.6-0.7,1.3-1,2.3-1
					c0.9,0,1.6,0.3,2.1,0.9c0.5,0.6,0.8,1.3,0.8,2.3v0.7h-4.8c0,0.8,0.2,1.4,0.6,1.8c0.4,0.4,0.9,0.6,1.6,0.6c0.4,0,0.7,0,1.1-0.1
					c0.3-0.1,0.7-0.2,1.2-0.4v1c-0.4,0.2-0.8,0.3-1.1,0.4C35.7,131.1,35.3,131.2,34.8,131.2z M34.5,124.8c-0.6,0-1,0.2-1.3,0.5
					c-0.3,0.4-0.5,0.9-0.6,1.5h3.6c0-0.7-0.2-1.2-0.5-1.5C35.5,124.9,35,124.8,34.5,124.8z"/>
				<path class="st7" d="M42.6,131.2c-0.9,0-1.7-0.3-2.2-1h-0.1l0,0.3c0,0.3,0.1,0.6,0.1,0.9v2.9h-1.2V124h1l0.2,1h0.1
					c0.3-0.4,0.6-0.7,1-0.8c0.4-0.2,0.8-0.3,1.2-0.3c0.9,0,1.6,0.3,2.1,1c0.5,0.6,0.8,1.5,0.8,2.7c0,1.2-0.3,2.1-0.8,2.7
					C44.2,130.8,43.5,131.2,42.6,131.2z M42.4,124.8c-0.7,0-1.2,0.2-1.5,0.6c-0.3,0.4-0.5,1-0.5,1.9v0.2c0,1,0.2,1.6,0.5,2.1
					c0.3,0.4,0.8,0.6,1.5,0.6c0.6,0,1.1-0.2,1.4-0.7c0.3-0.5,0.5-1.2,0.5-2c0-0.9-0.2-1.5-0.5-2C43.5,125,43,124.8,42.4,124.8z"/>
				<path class="st7" d="M53.5,127.5c0,1.2-0.3,2.1-0.9,2.7c-0.6,0.6-1.4,1-2.4,1c-0.6,0-1.2-0.1-1.7-0.4c-0.5-0.3-0.9-0.7-1.1-1.3
					s-0.4-1.2-0.4-1.9c0-1.2,0.3-2,0.9-2.7c0.6-0.6,1.4-1,2.4-1c1,0,1.8,0.3,2.4,1C53.2,125.5,53.5,126.4,53.5,127.5z M48.1,127.5
					c0,0.9,0.2,1.6,0.5,2c0.4,0.5,0.9,0.7,1.5,0.7c0.7,0,1.2-0.2,1.5-0.7c0.4-0.5,0.5-1.1,0.5-2c0-0.9-0.2-1.6-0.5-2
					c-0.4-0.4-0.9-0.7-1.6-0.7C48.8,124.8,48.1,125.7,48.1,127.5z"/>
				<path class="st7" d="M58.6,123.8c0.3,0,0.6,0,0.8,0.1l-0.1,1.1c-0.3-0.1-0.5-0.1-0.8-0.1c-0.4,0-0.7,0.1-1,0.3
					c-0.3,0.2-0.6,0.5-0.8,0.9c-0.2,0.4-0.3,0.8-0.3,1.2v3.8h-1.2V124h1l0.1,1.3h0.1c0.3-0.5,0.6-0.8,1-1.1
					C57.8,123.9,58.2,123.8,58.6,123.8z"/>
				<path class="st7" d="M63.1,130.2c0.2,0,0.3,0,0.5,0c0.2,0,0.4-0.1,0.5-0.1v0.9c-0.1,0-0.3,0.1-0.5,0.1c-0.2,0-0.5,0.1-0.7,0.1
					c-1.4,0-2.1-0.7-2.1-2.2v-4.1h-1v-0.6l1-0.5l0.5-1.5H62v1.6h2v0.9h-2v4.1c0,0.4,0.1,0.7,0.3,0.9
					C62.5,130.1,62.8,130.2,63.1,130.2z"/>
				<path class="st7" d="M69.9,131l-0.2-1h-0.1c-0.4,0.4-0.7,0.7-1.1,0.9c-0.4,0.2-0.8,0.2-1.3,0.2c-0.7,0-1.2-0.2-1.6-0.5
					c-0.4-0.4-0.6-0.9-0.6-1.5c0-1.4,1.1-2.2,3.4-2.3l1.2,0v-0.4c0-0.5-0.1-0.9-0.3-1.2c-0.2-0.3-0.6-0.4-1.1-0.4
					c-0.4,0-0.7,0.1-1.1,0.2c-0.3,0.1-0.6,0.2-0.9,0.4l-0.4-0.9c0.4-0.2,0.7-0.3,1.2-0.4c0.4-0.1,0.8-0.2,1.2-0.2
					c0.9,0,1.5,0.2,1.9,0.6c0.4,0.4,0.6,1,0.6,1.8v4.8H69.9z M67.5,130.2c0.6,0,1.2-0.2,1.5-0.5c0.4-0.3,0.6-0.8,0.6-1.5v-0.6l-1,0
					c-0.8,0-1.4,0.2-1.8,0.4c-0.4,0.2-0.6,0.6-0.6,1.1c0,0.4,0.1,0.7,0.3,0.9C66.8,130.1,67.1,130.2,67.5,130.2z"/>
				<path class="st7" d="M77.6,131l0-0.9h-0.1c-0.5,0.7-1.2,1.1-2.2,1.1c-0.9,0-1.6-0.3-2.1-1c-0.5-0.6-0.8-1.5-0.8-2.7
					c0-1.1,0.3-2,0.8-2.7c0.5-0.7,1.2-1,2.1-1c1,0,1.7,0.4,2.2,1.1h0.1l0.2-0.9h0.9v7.2c0,1-0.3,1.8-0.8,2.3
					c-0.5,0.5-1.3,0.8-2.4,0.8c-1,0-1.9-0.2-2.5-0.5v-1.1c0.7,0.4,1.6,0.6,2.6,0.6c0.6,0,1.1-0.2,1.4-0.5c0.4-0.4,0.5-0.8,0.5-1.5
					V131z M75.6,130.2c0.7,0,1.2-0.2,1.6-0.6c0.3-0.4,0.5-1,0.5-1.9v-0.3c0-0.9-0.2-1.6-0.5-2.1c-0.3-0.4-0.9-0.6-1.6-0.6
					c-0.6,0-1.1,0.2-1.4,0.7s-0.5,1.1-0.5,2c0,0.9,0.2,1.5,0.5,2C74.5,130,75,130.2,75.6,130.2z"/>
				<path class="st7" d="M84,131.2c-1.1,0-1.9-0.3-2.5-1c-0.6-0.6-0.9-1.5-0.9-2.7c0-1.1,0.3-2,0.8-2.7c0.6-0.7,1.3-1,2.3-1
					c0.9,0,1.6,0.3,2.1,0.9c0.5,0.6,0.8,1.3,0.8,2.3v0.7h-4.8c0,0.8,0.2,1.4,0.6,1.8c0.4,0.4,0.9,0.6,1.6,0.6c0.4,0,0.7,0,1.1-0.1
					c0.3-0.1,0.7-0.2,1.2-0.4v1c-0.4,0.2-0.8,0.3-1.1,0.4C84.9,131.1,84.5,131.2,84,131.2z M83.8,124.8c-0.6,0-1,0.2-1.3,0.5
					c-0.3,0.4-0.5,0.9-0.6,1.5h3.6c0-0.7-0.2-1.2-0.5-1.5C84.7,124.9,84.3,124.8,83.8,124.8z"/>
				<path class="st7" d="M93.3,131v-4.5c0-0.6-0.1-1-0.4-1.3c-0.3-0.3-0.7-0.4-1.2-0.4c-0.7,0-1.3,0.2-1.6,0.6
					c-0.3,0.4-0.5,1.1-0.5,2v3.7h-1.2V124h0.9l0.2,1h0.1c0.2-0.3,0.5-0.6,0.9-0.8c0.4-0.2,0.8-0.3,1.3-0.3c0.9,0,1.5,0.2,1.9,0.6
					c0.4,0.4,0.6,1.1,0.6,2v4.6H93.3z"/>
			</g>
		</g>
		<path class="st123" d="M199.2,113.2h-69.1c-7,0-12.6,5.7-12.6,12.6c0,7,5.7,12.6,12.6,12.6h69.1c7,0,12.6-5.7,12.6-12.6
			C211.8,118.9,206.1,113.2,199.2,113.2z"/>
		<g>
			<g>
				<path class="st7" d="M136.1,131h-3.4v-0.7l1.1-0.3v-7.5l-1.1-0.3v-0.7h3.4v0.7l-1.1,0.3v7.5l1.1,0.3V131z"/>
				<path class="st7" d="M142.6,131v-4.5c0-0.6-0.1-1-0.4-1.3c-0.3-0.3-0.7-0.4-1.2-0.4c-0.7,0-1.3,0.2-1.6,0.6
					c-0.3,0.4-0.5,1.1-0.5,2v3.7h-1.2V124h0.9l0.2,1h0.1c0.2-0.3,0.5-0.6,0.9-0.8c0.4-0.2,0.8-0.3,1.3-0.3c0.9,0,1.5,0.2,1.9,0.6
					c0.4,0.4,0.6,1.1,0.6,2v4.6H142.6z"/>
				<path class="st7" d="M148.3,130.2c0.2,0,0.3,0,0.5,0c0.2,0,0.4-0.1,0.5-0.1v0.9c-0.1,0-0.3,0.1-0.5,0.1c-0.2,0-0.5,0.1-0.7,0.1
					c-1.4,0-2.1-0.7-2.1-2.2v-4.1h-1v-0.6l1-0.5l0.5-1.5h0.7v1.6h2v0.9h-2v4.1c0,0.4,0.1,0.7,0.3,0.9
					C147.6,130.1,147.9,130.2,148.3,130.2z"/>
				<path class="st7" d="M153.7,131.2c-1.1,0-1.9-0.3-2.5-1c-0.6-0.6-0.9-1.5-0.9-2.7c0-1.1,0.3-2,0.8-2.7c0.6-0.7,1.3-1,2.3-1
					c0.9,0,1.6,0.3,2.1,0.9c0.5,0.6,0.8,1.3,0.8,2.3v0.7h-4.8c0,0.8,0.2,1.4,0.6,1.8c0.4,0.4,0.9,0.6,1.6,0.6c0.4,0,0.7,0,1.1-0.1
					c0.3-0.1,0.7-0.2,1.2-0.4v1c-0.4,0.2-0.8,0.3-1.1,0.4C154.5,131.1,154.1,131.2,153.7,131.2z M153.4,124.8c-0.6,0-1,0.2-1.3,0.5
					c-0.3,0.4-0.5,0.9-0.6,1.5h3.6c0-0.7-0.2-1.2-0.5-1.5C154.3,124.9,153.9,124.8,153.4,124.8z"/>
				<path class="st7" d="M161.4,123.8c0.3,0,0.6,0,0.8,0.1l-0.1,1.1c-0.3-0.1-0.5-0.1-0.8-0.1c-0.4,0-0.7,0.1-1,0.3
					c-0.3,0.2-0.6,0.5-0.8,0.9c-0.2,0.4-0.3,0.8-0.3,1.2v3.8h-1.2V124h1l0.1,1.3h0.1c0.3-0.5,0.6-0.8,1-1.1
					C160.6,123.9,161,123.8,161.4,123.8z"/>
				<path class="st7" d="M165.1,131l-2.7-7.1h1.2l1.5,4.2c0.3,0.8,0.5,1.5,0.6,1.9h0.1c0-0.1,0-0.1,0-0.2c0-0.1,0-0.1,0.1-0.2
					c0-0.1,0.2-0.6,0.5-1.5l1.5-4.2h1.2l-2.7,7.1H165.1z"/>
				<path class="st7" d="M170.1,122c0-0.3,0.1-0.4,0.2-0.6c0.1-0.1,0.3-0.2,0.5-0.2c0.2,0,0.3,0.1,0.5,0.2c0.1,0.1,0.2,0.3,0.2,0.6
					c0,0.3-0.1,0.4-0.2,0.6c-0.1,0.1-0.3,0.2-0.5,0.2c-0.2,0-0.4-0.1-0.5-0.2C170.2,122.5,170.1,122.3,170.1,122z M171.4,131h-1.2
					V124h1.2V131z"/>
				<path class="st7" d="M176.6,131.2c-1.1,0-1.9-0.3-2.5-1c-0.6-0.6-0.9-1.5-0.9-2.7c0-1.1,0.3-2,0.8-2.7c0.6-0.7,1.3-1,2.3-1
					c0.9,0,1.6,0.3,2.1,0.9c0.5,0.6,0.8,1.3,0.8,2.3v0.7h-4.8c0,0.8,0.2,1.4,0.6,1.8c0.4,0.4,0.9,0.6,1.6,0.6c0.4,0,0.7,0,1.1-0.1
					c0.3-0.1,0.7-0.2,1.2-0.4v1c-0.4,0.2-0.8,0.3-1.1,0.4C177.5,131.1,177.1,131.2,176.6,131.2z M176.4,124.8c-0.6,0-1,0.2-1.3,0.5
					c-0.3,0.4-0.5,0.9-0.6,1.5h3.6c0-0.7-0.2-1.2-0.5-1.5C177.3,124.9,176.9,124.8,176.4,124.8z"/>
				<path class="st7" d="M186.9,131l-1.2-4c-0.1-0.3-0.3-1-0.5-1.9h-0.1c-0.2,0.8-0.3,1.5-0.5,1.9l-1.3,4H182l-1.9-7.1h1.2
					c0.4,1.7,0.8,3.1,1,4c0.2,0.9,0.4,1.5,0.4,1.9h0.1l0.1-0.4c0.1-0.6,0.3-1.1,0.4-1.5l1.3-4h1.3l1.2,4c0,0.2,0.1,0.3,0.1,0.5
					c0,0.2,0.1,0.3,0.1,0.5c0,0.2,0.1,0.3,0.1,0.5c0,0.2,0.1,0.3,0.1,0.4h0.1c0-0.3,0.2-1,0.5-2.1l1-3.8h1.2l-2,7.1H186.9z"/>
				<path class="st7" d="M196.1,129.1c0,0.7-0.2,1.2-0.7,1.5c-0.5,0.4-1.2,0.5-2.1,0.5c-0.9,0-1.7-0.1-2.2-0.4v-1.1
					c0.8,0.4,1.5,0.6,2.2,0.6c0.6,0,1-0.1,1.3-0.3c0.3-0.2,0.4-0.4,0.4-0.8c0-0.3-0.1-0.5-0.4-0.7c-0.3-0.2-0.7-0.4-1.4-0.7
					c-0.7-0.3-1.1-0.5-1.4-0.7c-0.3-0.2-0.5-0.4-0.6-0.6c-0.1-0.2-0.2-0.5-0.2-0.8c0-0.6,0.2-1,0.7-1.4c0.5-0.3,1.1-0.5,1.9-0.5
					c0.8,0,1.6,0.2,2.3,0.5l-0.4,0.9c-0.7-0.3-1.4-0.5-1.9-0.5c-0.5,0-0.8,0.1-1.1,0.2c-0.2,0.2-0.4,0.4-0.4,0.6
					c0,0.3,0.1,0.5,0.3,0.6c0.2,0.2,0.7,0.4,1.5,0.7c0.6,0.2,1,0.4,1.3,0.6c0.3,0.2,0.5,0.4,0.6,0.6
					C196,128.5,196.1,128.7,196.1,129.1z"/>
			</g>
		</g>
	</g>
	<g>
		<path class="st123" d="M169.2,150.1H39.6c-7,0-12.6,5.7-12.6,12.6c0,7,5.7,12.6,12.6,12.6h129.6c7,0,12.6-5.7,12.6-12.6
			C181.8,155.8,176.1,150.1,169.2,150.1z"/>
		<g>
			<g>
				<path class="st7" d="M51.4,163.1c0,1.6-0.4,2.7-1.3,3.6c-0.8,0.8-2.1,1.2-3.6,1.2h-2.6v-9.4h2.9c1.5,0,2.6,0.4,3.4,1.2
					C50.9,160.5,51.4,161.7,51.4,163.1z M50.1,163.2c0-1.2-0.3-2.1-0.9-2.7c-0.6-0.6-1.5-0.9-2.7-0.9H45v7.4h1.3
					C48.8,166.9,50.1,165.7,50.1,163.2z"/>
				<path class="st7" d="M57.6,167.9l-0.2-1h-0.1c-0.4,0.4-0.7,0.7-1.1,0.9c-0.4,0.2-0.8,0.2-1.3,0.2c-0.7,0-1.2-0.2-1.6-0.5
					c-0.4-0.4-0.6-0.9-0.6-1.5c0-1.4,1.1-2.2,3.4-2.3l1.2,0v-0.4c0-0.5-0.1-0.9-0.3-1.2c-0.2-0.3-0.6-0.4-1.1-0.4
					c-0.4,0-0.7,0.1-1.1,0.2c-0.3,0.1-0.6,0.2-0.9,0.4l-0.4-0.9c0.4-0.2,0.7-0.3,1.2-0.4c0.4-0.1,0.8-0.2,1.2-0.2
					c0.9,0,1.5,0.2,1.9,0.6c0.4,0.4,0.6,1,0.6,1.8v4.8H57.6z M55.3,167.1c0.6,0,1.2-0.2,1.5-0.5c0.4-0.3,0.6-0.8,0.6-1.5v-0.6l-1,0
					c-0.8,0-1.4,0.2-1.8,0.4c-0.4,0.2-0.6,0.6-0.6,1.1c0,0.4,0.1,0.7,0.3,0.9C54.5,167,54.9,167.1,55.3,167.1z"/>
				<path class="st7" d="M63,167.1c0.2,0,0.3,0,0.5,0c0.2,0,0.4-0.1,0.5-0.1v0.9c-0.1,0-0.3,0.1-0.5,0.1c-0.2,0-0.5,0.1-0.7,0.1
					c-1.4,0-2.1-0.7-2.1-2.2v-4.1h-1v-0.6l1-0.5l0.5-1.5h0.7v1.6h2v0.9h-2v4.1c0,0.4,0.1,0.7,0.3,0.9C62.4,167,62.7,167.1,63,167.1z
					"/>
				<path class="st7" d="M68.5,168.1c-1.1,0-1.9-0.3-2.5-1c-0.6-0.6-0.9-1.5-0.9-2.7c0-1.1,0.3-2,0.8-2.7c0.6-0.7,1.3-1,2.3-1
					c0.9,0,1.6,0.3,2.1,0.9c0.5,0.6,0.8,1.3,0.8,2.3v0.7h-4.8c0,0.8,0.2,1.4,0.6,1.8c0.4,0.4,0.9,0.6,1.6,0.6c0.4,0,0.7,0,1.1-0.1
					c0.3-0.1,0.7-0.2,1.2-0.4v1c-0.4,0.2-0.8,0.3-1.1,0.4C69.3,168,68.9,168.1,68.5,168.1z M68.2,161.7c-0.6,0-1,0.2-1.3,0.5
					c-0.3,0.4-0.5,0.9-0.6,1.5h3.6c0-0.7-0.2-1.2-0.5-1.5C69.1,161.9,68.7,161.7,68.2,161.7z"/>
				<path class="st7" d="M77.7,167.9v-4.5c0-0.6-0.1-1-0.4-1.3c-0.3-0.3-0.7-0.4-1.2-0.4c-0.7,0-1.3,0.2-1.6,0.6
					c-0.3,0.4-0.5,1.1-0.5,2v3.7h-1.2v-7.1h0.9l0.2,1h0.1c0.2-0.3,0.5-0.6,0.9-0.8c0.4-0.2,0.8-0.3,1.3-0.3c0.9,0,1.5,0.2,1.9,0.6
					c0.4,0.4,0.6,1.1,0.6,2v4.6H77.7z"/>
				<path class="st7" d="M82.6,167.9l-2.7-7.1h1.2l1.5,4.2c0.3,0.8,0.5,1.5,0.6,1.9h0.1c0-0.1,0-0.1,0-0.2c0-0.1,0-0.1,0.1-0.2
					c0-0.1,0.2-0.6,0.5-1.5l1.5-4.2h1.2l-2.7,7.1H82.6z"/>
				<path class="st7" d="M87.6,159c0-0.3,0.1-0.4,0.2-0.6c0.1-0.1,0.3-0.2,0.5-0.2c0.2,0,0.3,0.1,0.5,0.2c0.1,0.1,0.2,0.3,0.2,0.6
					c0,0.3-0.1,0.4-0.2,0.6c-0.1,0.1-0.3,0.2-0.5,0.2c-0.2,0-0.4-0.1-0.5-0.2C87.7,159.4,87.6,159.2,87.6,159z M88.9,167.9h-1.2
					v-7.1h1.2V167.9z"/>
				<path class="st7" d="M95.7,166c0,0.7-0.2,1.2-0.7,1.5c-0.5,0.4-1.2,0.5-2.1,0.5c-0.9,0-1.7-0.1-2.2-0.4v-1.1
					c0.8,0.4,1.5,0.6,2.2,0.6c0.6,0,1-0.1,1.3-0.3c0.3-0.2,0.4-0.4,0.4-0.8c0-0.3-0.1-0.5-0.4-0.7c-0.3-0.2-0.7-0.4-1.4-0.7
					c-0.7-0.3-1.1-0.5-1.4-0.7c-0.3-0.2-0.5-0.4-0.6-0.6c-0.1-0.2-0.2-0.5-0.2-0.8c0-0.6,0.2-1,0.7-1.4c0.5-0.3,1.1-0.5,1.9-0.5
					c0.8,0,1.6,0.2,2.3,0.5l-0.4,0.9c-0.7-0.3-1.4-0.5-1.9-0.5c-0.5,0-0.8,0.1-1.1,0.2c-0.2,0.2-0.4,0.4-0.4,0.6
					c0,0.3,0.1,0.5,0.3,0.6c0.2,0.2,0.7,0.4,1.5,0.7c0.6,0.2,1,0.4,1.3,0.6c0.3,0.2,0.5,0.4,0.6,0.6C95.7,165.4,95.7,165.7,95.7,166
					z"/>
				<path class="st7" d="M98.5,160.9v4.6c0,0.6,0.1,1,0.4,1.3c0.3,0.3,0.7,0.4,1.2,0.4c0.7,0,1.3-0.2,1.6-0.6c0.3-0.4,0.5-1.1,0.5-2
					v-3.7h1.2v7.1h-1l-0.2-0.9h-0.1c-0.2,0.3-0.5,0.6-0.9,0.8c-0.4,0.2-0.8,0.3-1.3,0.3c-0.9,0-1.5-0.2-1.9-0.6
					c-0.4-0.4-0.6-1.1-0.6-2v-4.6H98.5z"/>
				<path class="st7" d="M110,167.9l-0.2-1h-0.1c-0.4,0.4-0.7,0.7-1.1,0.9c-0.4,0.2-0.8,0.2-1.3,0.2c-0.7,0-1.2-0.2-1.6-0.5
					c-0.4-0.4-0.6-0.9-0.6-1.5c0-1.4,1.1-2.2,3.4-2.3l1.2,0v-0.4c0-0.5-0.1-0.9-0.3-1.2c-0.2-0.3-0.6-0.4-1.1-0.4
					c-0.4,0-0.7,0.1-1.1,0.2c-0.3,0.1-0.6,0.2-0.9,0.4l-0.4-0.9c0.4-0.2,0.7-0.3,1.2-0.4c0.4-0.1,0.8-0.2,1.2-0.2
					c0.9,0,1.5,0.2,1.9,0.6c0.4,0.4,0.6,1,0.6,1.8v4.8H110z M107.6,167.1c0.6,0,1.2-0.2,1.5-0.5c0.4-0.3,0.6-0.8,0.6-1.5v-0.6l-1,0
					c-0.8,0-1.4,0.2-1.8,0.4c-0.4,0.2-0.6,0.6-0.6,1.1c0,0.4,0.1,0.7,0.3,0.9C106.9,167,107.2,167.1,107.6,167.1z"/>
				<path class="st7" d="M114.2,167.9H113v-10h1.2V167.9z"/>
				<path class="st7" d="M116.3,159c0-0.3,0.1-0.4,0.2-0.6c0.1-0.1,0.3-0.2,0.5-0.2c0.2,0,0.3,0.1,0.5,0.2c0.1,0.1,0.2,0.3,0.2,0.6
					c0,0.3-0.1,0.4-0.2,0.6c-0.1,0.1-0.3,0.2-0.5,0.2c-0.2,0-0.4-0.1-0.5-0.2C116.4,159.4,116.3,159.2,116.3,159z M117.6,167.9h-1.2
					v-7.1h1.2V167.9z"/>
				<path class="st7" d="M124.4,166c0,0.7-0.2,1.2-0.7,1.5c-0.5,0.4-1.2,0.5-2.1,0.5c-0.9,0-1.7-0.1-2.2-0.4v-1.1
					c0.8,0.4,1.5,0.6,2.2,0.6c0.6,0,1-0.1,1.3-0.3c0.3-0.2,0.4-0.4,0.4-0.8c0-0.3-0.1-0.5-0.4-0.7c-0.3-0.2-0.7-0.4-1.4-0.7
					c-0.7-0.3-1.1-0.5-1.4-0.7c-0.3-0.2-0.5-0.4-0.6-0.6c-0.1-0.2-0.2-0.5-0.2-0.8c0-0.6,0.2-1,0.7-1.4c0.5-0.3,1.1-0.5,1.9-0.5
					c0.8,0,1.6,0.2,2.3,0.5l-0.4,0.9c-0.7-0.3-1.4-0.5-1.9-0.5c-0.5,0-0.8,0.1-1.1,0.2c-0.2,0.2-0.4,0.4-0.4,0.6
					c0,0.3,0.1,0.5,0.3,0.6c0.2,0.2,0.7,0.4,1.5,0.7c0.6,0.2,1,0.4,1.3,0.6c0.3,0.2,0.5,0.4,0.6,0.6
					C124.3,165.4,124.4,165.7,124.4,166z"/>
				<path class="st7" d="M126,159c0-0.3,0.1-0.4,0.2-0.6c0.1-0.1,0.3-0.2,0.5-0.2c0.2,0,0.3,0.1,0.5,0.2c0.1,0.1,0.2,0.3,0.2,0.6
					c0,0.3-0.1,0.4-0.2,0.6c-0.1,0.1-0.3,0.2-0.5,0.2c-0.2,0-0.4-0.1-0.5-0.2C126.1,159.4,126,159.2,126,159z M127.3,167.9h-1.2
					v-7.1h1.2V167.9z"/>
				<path class="st7" d="M132.5,168.1c-1.1,0-1.9-0.3-2.5-1c-0.6-0.6-0.9-1.5-0.9-2.7c0-1.1,0.3-2,0.8-2.7c0.6-0.7,1.3-1,2.3-1
					c0.9,0,1.6,0.3,2.1,0.9c0.5,0.6,0.8,1.3,0.8,2.3v0.7h-4.8c0,0.8,0.2,1.4,0.6,1.8c0.4,0.4,0.9,0.6,1.6,0.6c0.4,0,0.7,0,1.1-0.1
					c0.3-0.1,0.7-0.2,1.2-0.4v1c-0.4,0.2-0.8,0.3-1.1,0.4C133.4,168,133,168.1,132.5,168.1z M132.2,161.7c-0.6,0-1,0.2-1.3,0.5
					c-0.3,0.4-0.5,0.9-0.6,1.5h3.6c0-0.7-0.2-1.2-0.5-1.5C133.2,161.9,132.8,161.7,132.2,161.7z"/>
				<path class="st7" d="M140.3,160.7c0.3,0,0.6,0,0.8,0.1l-0.1,1.1c-0.3-0.1-0.5-0.1-0.8-0.1c-0.4,0-0.7,0.1-1,0.3
					c-0.3,0.2-0.6,0.5-0.8,0.9c-0.2,0.4-0.3,0.8-0.3,1.2v3.8H137v-7.1h1l0.1,1.3h0.1c0.3-0.5,0.6-0.8,1-1.1
					C139.4,160.9,139.8,160.7,140.3,160.7z"/>
				<path class="st7" d="M143.5,160.9v4.6c0,0.6,0.1,1,0.4,1.3c0.3,0.3,0.7,0.4,1.2,0.4c0.7,0,1.3-0.2,1.6-0.6
					c0.3-0.4,0.5-1.1,0.5-2v-3.7h1.2v7.1h-1l-0.2-0.9h-0.1c-0.2,0.3-0.5,0.6-0.9,0.8c-0.4,0.2-0.8,0.3-1.3,0.3
					c-0.9,0-1.5-0.2-1.9-0.6c-0.4-0.4-0.6-1.1-0.6-2v-4.6H143.5z"/>
				<path class="st7" d="M155.4,167.9v-4.5c0-0.6-0.1-1-0.4-1.3c-0.3-0.3-0.7-0.4-1.2-0.4c-0.7,0-1.3,0.2-1.6,0.6
					c-0.3,0.4-0.5,1.1-0.5,2v3.7h-1.2v-7.1h0.9l0.2,1h0.1c0.2-0.3,0.5-0.6,0.9-0.8c0.4-0.2,0.8-0.3,1.3-0.3c0.9,0,1.5,0.2,1.9,0.6
					c0.4,0.4,0.6,1.1,0.6,2v4.6H155.4z"/>
				<path class="st7" d="M163.4,167.9l0-0.9h-0.1c-0.5,0.7-1.2,1.1-2.2,1.1c-0.9,0-1.6-0.3-2.1-1c-0.5-0.6-0.8-1.5-0.8-2.7
					c0-1.1,0.3-2,0.8-2.7c0.5-0.7,1.2-1,2.1-1c1,0,1.7,0.4,2.2,1.1h0.1l0.2-0.9h0.9v7.2c0,1-0.3,1.8-0.8,2.3
					c-0.5,0.5-1.3,0.8-2.4,0.8c-1,0-1.9-0.2-2.5-0.5v-1.1c0.7,0.4,1.6,0.6,2.6,0.6c0.6,0,1.1-0.2,1.4-0.5c0.3-0.4,0.5-0.8,0.5-1.5
					V167.9z M161.4,167.1c0.7,0,1.2-0.2,1.6-0.6c0.3-0.4,0.5-1,0.5-1.9v-0.3c0-0.9-0.2-1.6-0.5-2.1c-0.3-0.4-0.9-0.6-1.6-0.6
					c-0.6,0-1.1,0.2-1.4,0.7c-0.3,0.5-0.5,1.1-0.5,2c0,0.9,0.2,1.5,0.5,2C160.3,166.9,160.8,167.1,161.4,167.1z"/>
			</g>
		</g>
		<path class="st123" d="M279.8,150.3h-78.3c-7,0-12.6,5.7-12.6,12.6c0,7,5.7,12.6,12.6,12.6h78.3c7,0,12.6-5.7,12.6-12.6
			C292.5,156,286.8,150.3,279.8,150.3z"/>
		<g>
			<g>
				<path class="st7" d="M206.3,167.9h-3.4v-0.7l1.1-0.3v-7.5l-1.1-0.3v-0.7h3.4v0.7l-1.1,0.3v7.5l1.1,0.3V167.9z"/>
				<path class="st7" d="M212.7,167.9v-4.5c0-0.6-0.1-1-0.4-1.3c-0.3-0.3-0.7-0.4-1.2-0.4c-0.7,0-1.3,0.2-1.6,0.6
					c-0.3,0.4-0.5,1.1-0.5,2v3.7h-1.2v-7.1h0.9l0.2,1h0.1c0.2-0.3,0.5-0.6,0.9-0.8c0.4-0.2,0.8-0.3,1.3-0.3c0.9,0,1.5,0.2,1.9,0.6
					c0.4,0.4,0.6,1.1,0.6,2v4.6H212.7z"/>
				<path class="st7" d="M219.3,161.7h-1.8v6.2h-1.2v-6.2h-1.2v-0.5l1.2-0.4v-0.4c0-0.9,0.2-1.5,0.6-1.9c0.4-0.4,1-0.6,1.7-0.6
					c0.5,0,0.9,0.1,1.4,0.2l-0.3,0.9c-0.4-0.1-0.7-0.2-1.1-0.2c-0.4,0-0.7,0.1-0.9,0.4c-0.2,0.3-0.3,0.7-0.3,1.2v0.5h1.8V161.7z"/>
				<path class="st7" d="M226.8,164.3c0,1.2-0.3,2.1-0.9,2.7c-0.6,0.6-1.4,1-2.4,1c-0.6,0-1.2-0.1-1.7-0.4c-0.5-0.3-0.9-0.7-1.1-1.3
					c-0.3-0.6-0.4-1.2-0.4-1.9c0-1.2,0.3-2,0.9-2.7c0.6-0.6,1.4-1,2.4-1c1,0,1.8,0.3,2.4,1C226.5,162.3,226.8,163.2,226.8,164.3z
					 M221.4,164.3c0,0.9,0.2,1.6,0.5,2c0.4,0.5,0.9,0.7,1.5,0.7c0.7,0,1.2-0.2,1.5-0.7c0.4-0.5,0.5-1.1,0.5-2c0-0.9-0.2-1.6-0.5-2
					c-0.4-0.4-0.9-0.7-1.6-0.7C222.1,161.6,221.4,162.5,221.4,164.3z"/>
				<path class="st7" d="M233.3,167.8l0-0.9h-0.1c-0.5,0.7-1.2,1.1-2.2,1.1c-0.9,0-1.6-0.3-2.1-1c-0.5-0.6-0.8-1.5-0.8-2.7
					c0-1.1,0.3-2,0.8-2.7c0.5-0.7,1.2-1,2.1-1c1,0,1.7,0.4,2.2,1.1h0.1l0.2-0.9h0.9v7.2c0,1-0.3,1.8-0.8,2.3
					c-0.5,0.5-1.3,0.8-2.4,0.8c-1,0-1.9-0.2-2.5-0.5v-1.1c0.7,0.4,1.6,0.6,2.6,0.6c0.6,0,1.1-0.2,1.4-0.5c0.4-0.4,0.5-0.8,0.5-1.5
					V167.8z M231.3,167.1c0.7,0,1.2-0.2,1.6-0.6c0.3-0.4,0.5-1,0.5-1.9v-0.3c0-0.9-0.2-1.6-0.5-2.1c-0.3-0.4-0.9-0.6-1.6-0.6
					c-0.6,0-1.1,0.2-1.4,0.7c-0.3,0.5-0.5,1.1-0.5,2c0,0.9,0.2,1.5,0.5,2C230.2,166.8,230.7,167.1,231.3,167.1z"/>
				<path class="st7" d="M240,160.7c0.3,0,0.6,0,0.8,0.1l-0.1,1.1c-0.3-0.1-0.5-0.1-0.8-0.1c-0.4,0-0.7,0.1-1,0.3
					c-0.3,0.2-0.6,0.5-0.8,0.9c-0.2,0.4-0.3,0.8-0.3,1.2v3.8h-1.2v-7.1h1l0.1,1.3h0.1c0.3-0.5,0.6-0.8,1-1.1
					C239.2,160.8,239.6,160.7,240,160.7z"/>
				<path class="st7" d="M246.5,167.9l-0.2-1h-0.1c-0.4,0.4-0.7,0.7-1.1,0.9c-0.3,0.2-0.8,0.2-1.3,0.2c-0.7,0-1.2-0.2-1.6-0.5
					c-0.4-0.4-0.6-0.9-0.6-1.5c0-1.4,1.1-2.2,3.4-2.3l1.2,0v-0.4c0-0.5-0.1-0.9-0.3-1.2c-0.2-0.3-0.6-0.4-1.1-0.4
					c-0.4,0-0.7,0.1-1.1,0.2c-0.3,0.1-0.6,0.2-0.9,0.4l-0.4-0.9c0.4-0.2,0.7-0.3,1.2-0.4c0.4-0.1,0.8-0.2,1.2-0.2
					c0.9,0,1.5,0.2,1.9,0.6c0.4,0.4,0.6,1,0.6,1.8v4.8H246.5z M244.1,167.1c0.6,0,1.2-0.2,1.5-0.5c0.4-0.4,0.6-0.8,0.6-1.5v-0.6
					l-1,0c-0.8,0-1.4,0.2-1.8,0.4c-0.4,0.2-0.6,0.6-0.6,1.1c0,0.4,0.1,0.7,0.3,0.9C243.4,167,243.7,167.1,244.1,167.1z"/>
				<path class="st7" d="M252.8,161.7H251v6.2h-1.2v-6.2h-1.2v-0.5l1.2-0.4v-0.4c0-0.9,0.2-1.5,0.6-1.9c0.4-0.4,1-0.6,1.7-0.6
					c0.5,0,0.9,0.1,1.4,0.2l-0.3,0.9c-0.4-0.1-0.7-0.2-1.1-0.2c-0.4,0-0.7,0.1-0.9,0.4c-0.2,0.3-0.3,0.7-0.3,1.2v0.5h1.8V161.7z"/>
				<path class="st7" d="M254,158.9c0-0.3,0.1-0.4,0.2-0.6c0.1-0.1,0.3-0.2,0.5-0.2c0.2,0,0.3,0.1,0.5,0.2c0.1,0.1,0.2,0.3,0.2,0.6
					c0,0.3-0.1,0.4-0.2,0.6c-0.1,0.1-0.3,0.2-0.5,0.2c-0.2,0-0.4-0.1-0.5-0.2C254.1,159.3,254,159.1,254,158.9z M255.3,167.9h-1.2
					v-7.1h1.2V167.9z"/>
				<path class="st7" d="M258.6,164.2l0.4-0.5l0.5-0.5l2.3-2.4h1.4l-2.9,3l3.1,4.1h-1.4l-2.5-3.3l-0.8,0.7v2.6h-1.1v-10h1.1v5.2
					V164.2L258.6,164.2z"/>
				<path class="st7" d="M267.6,168c-1.1,0-1.9-0.3-2.5-1c-0.6-0.6-0.9-1.5-0.9-2.7c0-1.1,0.3-2,0.8-2.7c0.6-0.7,1.3-1,2.3-1
					c0.9,0,1.6,0.3,2.1,0.9c0.5,0.6,0.8,1.3,0.8,2.3v0.7h-4.8c0,0.8,0.2,1.4,0.6,1.8c0.4,0.4,0.9,0.6,1.6,0.6c0.4,0,0.7,0,1.1-0.1
					c0.3-0.1,0.7-0.2,1.2-0.4v1c-0.4,0.2-0.8,0.3-1.1,0.4C268.4,168,268,168,267.6,168z M267.3,161.6c-0.6,0-1,0.2-1.3,0.5
					c-0.3,0.4-0.5,0.9-0.6,1.5h3.6c0-0.7-0.2-1.2-0.5-1.5C268.2,161.8,267.8,161.6,267.3,161.6z"/>
				<path class="st7" d="M276.8,167.9v-4.5c0-0.6-0.1-1-0.4-1.3c-0.3-0.3-0.7-0.4-1.2-0.4c-0.7,0-1.3,0.2-1.6,0.6
					c-0.3,0.4-0.5,1.1-0.5,2v3.7H272v-7.1h0.9l0.2,1h0.1c0.2-0.3,0.5-0.6,0.9-0.8c0.4-0.2,0.8-0.3,1.3-0.3c0.9,0,1.5,0.2,1.9,0.6
					c0.4,0.4,0.6,1.1,0.6,2v4.6H276.8z"/>
			</g>
		</g>
	</g>
	<g>
		<g>
			<path class="st123" d="M157.9,188H88.9c-7,0-12.6,5.7-12.6,12.6c0,7,5.7,12.6,12.6,12.6h69.1c7,0,12.6-5.7,12.6-12.6
				C170.6,193.6,164.9,188,157.9,188z"/>
			<g>
				<g>
					<path class="st7" d="M101.3,205.5h-5.3v-9.4h5.3v1h-4.1v2.9h3.8v1h-3.8v3.4h4.1V205.5z"/>
					<path class="st7" d="M104.9,201.9l-2.4-3.5h1.3l1.8,2.7l1.8-2.7h1.3l-2.4,3.5l2.6,3.6h-1.3l-1.9-2.8l-2,2.8h-1.3L104.9,201.9z"
						/>
					<path class="st7" d="M113.6,205.6c-0.9,0-1.7-0.3-2.2-1h-0.1l0,0.3c0,0.3,0.1,0.6,0.1,0.9v2.9h-1.2v-10.2h1l0.2,1h0.1
						c0.3-0.4,0.6-0.7,1-0.8c0.4-0.2,0.8-0.3,1.2-0.3c0.9,0,1.6,0.3,2.1,1c0.5,0.6,0.8,1.5,0.8,2.7c0,1.2-0.3,2.1-0.8,2.7
						C115.2,205.3,114.5,205.6,113.6,205.6z M113.4,199.3c-0.7,0-1.2,0.2-1.5,0.6c-0.3,0.4-0.5,1-0.5,1.9v0.2c0,1,0.2,1.6,0.5,2.1
						c0.3,0.4,0.8,0.6,1.5,0.6c0.6,0,1.1-0.2,1.4-0.7c0.3-0.5,0.5-1.2,0.5-2c0-0.9-0.2-1.5-0.5-2C114.5,199.5,114,199.3,113.4,199.3
						z"/>
					<path class="st7" d="M121.3,205.6c-1.1,0-1.9-0.3-2.5-1c-0.6-0.6-0.9-1.5-0.9-2.7c0-1.1,0.3-2,0.8-2.7c0.6-0.7,1.3-1,2.3-1
						c0.9,0,1.6,0.3,2.1,0.9c0.5,0.6,0.8,1.3,0.8,2.3v0.7h-4.8c0,0.8,0.2,1.4,0.6,1.8c0.4,0.4,0.9,0.6,1.6,0.6c0.4,0,0.7,0,1.1-0.1
						c0.3-0.1,0.7-0.2,1.2-0.4v1c-0.4,0.2-0.8,0.3-1.1,0.4C122.2,205.6,121.8,205.6,121.3,205.6z M121.1,199.3c-0.6,0-1,0.2-1.3,0.5
						c-0.3,0.4-0.5,0.9-0.6,1.5h3.6c0-0.7-0.2-1.2-0.5-1.5C122,199.4,121.6,199.3,121.1,199.3z"/>
					<path class="st7" d="M129.1,198.3c0.3,0,0.6,0,0.8,0.1l-0.1,1.1c-0.3-0.1-0.5-0.1-0.8-0.1c-0.4,0-0.7,0.1-1,0.3
						c-0.3,0.2-0.6,0.5-0.8,0.9c-0.2,0.4-0.3,0.8-0.3,1.2v3.8h-1.2v-7.1h1l0.1,1.3h0.1c0.3-0.5,0.6-0.8,1-1.1
						C128.2,198.4,128.6,198.3,129.1,198.3z"/>
					<path class="st7" d="M133.6,204.7c0.2,0,0.3,0,0.5,0c0.2,0,0.4-0.1,0.5-0.1v0.9c-0.1,0-0.3,0.1-0.5,0.1c-0.2,0-0.5,0.1-0.7,0.1
						c-1.4,0-2.1-0.7-2.1-2.2v-4.1h-1v-0.6l1-0.5l0.5-1.5h0.7v1.6h2v0.9h-2v4.1c0,0.4,0.1,0.7,0.3,0.9
						C133,204.6,133.2,204.7,133.6,204.7z"/>
					<path class="st7" d="M135.9,196.5c0-0.3,0.1-0.4,0.2-0.6c0.1-0.1,0.3-0.2,0.5-0.2c0.2,0,0.3,0.1,0.5,0.2
						c0.1,0.1,0.2,0.3,0.2,0.6c0,0.3-0.1,0.4-0.2,0.6c-0.1,0.1-0.3,0.2-0.5,0.2c-0.2,0-0.4-0.1-0.5-0.2
						C136,197,135.9,196.8,135.9,196.5z M137.1,205.5H136v-7.1h1.2V205.5z"/>
					<path class="st7" d="M144,203.6c0,0.7-0.2,1.2-0.7,1.5c-0.5,0.4-1.2,0.5-2.1,0.5c-0.9,0-1.7-0.1-2.2-0.4v-1.1
						c0.8,0.4,1.5,0.6,2.2,0.6c0.6,0,1-0.1,1.3-0.3c0.3-0.2,0.4-0.4,0.4-0.8c0-0.3-0.1-0.5-0.4-0.7c-0.3-0.2-0.7-0.4-1.4-0.7
						c-0.7-0.3-1.1-0.5-1.4-0.7c-0.3-0.2-0.5-0.4-0.6-0.6c-0.1-0.2-0.2-0.5-0.2-0.8c0-0.6,0.2-1,0.7-1.4c0.5-0.3,1.1-0.5,1.9-0.5
						c0.8,0,1.6,0.2,2.3,0.5l-0.4,0.9c-0.7-0.3-1.4-0.5-1.9-0.5c-0.5,0-0.8,0.1-1.1,0.2c-0.2,0.2-0.4,0.4-0.4,0.6
						c0,0.3,0.1,0.5,0.3,0.6c0.2,0.2,0.7,0.4,1.5,0.7c0.6,0.2,1,0.4,1.3,0.6c0.3,0.2,0.5,0.4,0.6,0.6C143.9,203,144,203.2,144,203.6
						z"/>
					<path class="st7" d="M148.7,205.6c-1.1,0-1.9-0.3-2.5-1c-0.6-0.6-0.9-1.5-0.9-2.7c0-1.1,0.3-2,0.8-2.7c0.6-0.7,1.3-1,2.3-1
						c0.9,0,1.6,0.3,2.1,0.9c0.5,0.6,0.8,1.3,0.8,2.3v0.7h-4.8c0,0.8,0.2,1.4,0.6,1.8c0.4,0.4,0.9,0.6,1.6,0.6c0.4,0,0.7,0,1.1-0.1
						c0.3-0.1,0.7-0.2,1.2-0.4v1c-0.4,0.2-0.8,0.3-1.1,0.4C149.6,205.6,149.2,205.6,148.7,205.6z M148.4,199.3c-0.6,0-1,0.2-1.3,0.5
						c-0.3,0.4-0.5,0.9-0.6,1.5h3.6c0-0.7-0.2-1.2-0.5-1.5C149.4,199.4,149,199.3,148.4,199.3z"/>
				</g>
			</g>
		</g>
		<g>
			<path class="st123" d="M306.3,188H190.4c-7,0-12.6,5.7-12.6,12.6c0,7,5.7,12.6,12.6,12.6h115.9c7,0,12.6-5.7,12.6-12.6
				C318.9,193.6,313.3,188,306.3,188z"/>
			<g>
				<g>
					<path class="st7" d="M198.2,208c-0.4,0-0.7-0.1-1-0.2v-1c0.3,0.1,0.6,0.1,1,0.1c0.4,0,0.8-0.1,1-0.4c0.2-0.3,0.3-0.6,0.3-1.1
						v-9.4h1.2v9.3c0,0.9-0.2,1.5-0.6,2C199.6,207.8,199,208,198.2,208z"/>
					<path class="st7" d="M209.2,202c0,1.2-0.3,2.1-0.9,2.7c-0.6,0.6-1.4,1-2.4,1c-0.6,0-1.2-0.1-1.7-0.4c-0.5-0.3-0.9-0.7-1.1-1.3
						c-0.3-0.6-0.4-1.2-0.4-1.9c0-1.2,0.3-2,0.9-2.7c0.6-0.6,1.4-1,2.4-1c1,0,1.8,0.3,2.4,1C208.9,200,209.2,200.8,209.2,202z
						 M203.8,202c0,0.9,0.2,1.6,0.5,2c0.4,0.5,0.9,0.7,1.5,0.7c0.7,0,1.2-0.2,1.5-0.7c0.4-0.5,0.5-1.1,0.5-2c0-0.9-0.2-1.6-0.5-2
						c-0.4-0.4-0.9-0.7-1.6-0.7C204.5,199.3,203.8,200.2,203.8,202z"/>
					<path class="st7" d="M212.1,198.4v4.6c0,0.6,0.1,1,0.4,1.3c0.3,0.3,0.7,0.4,1.2,0.4c0.7,0,1.3-0.2,1.6-0.6
						c0.3-0.4,0.5-1.1,0.5-2v-3.7h1.2v7.1h-1l-0.2-0.9h-0.1c-0.2,0.3-0.5,0.6-0.9,0.8c-0.4,0.2-0.8,0.3-1.3,0.3
						c-0.9,0-1.5-0.2-1.9-0.6c-0.4-0.4-0.6-1.1-0.6-2v-4.6H212.1z"/>
					<path class="st7" d="M222.4,198.3c0.3,0,0.6,0,0.8,0.1l-0.1,1.1c-0.3-0.1-0.5-0.1-0.8-0.1c-0.4,0-0.7,0.1-1,0.3
						c-0.3,0.2-0.6,0.5-0.8,0.9c-0.2,0.4-0.3,0.8-0.3,1.2v3.8h-1.2v-7.1h1l0.1,1.3h0.1c0.3-0.5,0.6-0.8,1-1.1
						C221.6,198.4,222,198.3,222.4,198.3z"/>
					<path class="st7" d="M229.4,205.5V201c0-0.6-0.1-1-0.4-1.3c-0.3-0.3-0.7-0.4-1.2-0.4c-0.7,0-1.3,0.2-1.6,0.6
						c-0.3,0.4-0.5,1.1-0.5,2v3.7h-1.2v-7.1h0.9l0.2,1h0.1c0.2-0.3,0.5-0.6,0.9-0.8c0.4-0.2,0.8-0.3,1.3-0.3c0.9,0,1.5,0.2,1.9,0.6
						c0.4,0.4,0.6,1.1,0.6,2v4.6H229.4z"/>
					<path class="st7" d="M237.1,205.5l-0.2-1h-0.1c-0.4,0.4-0.7,0.7-1.1,0.9c-0.3,0.2-0.8,0.2-1.3,0.2c-0.7,0-1.2-0.2-1.6-0.5
						c-0.4-0.4-0.6-0.9-0.6-1.5c0-1.4,1.1-2.2,3.4-2.3l1.2,0v-0.4c0-0.5-0.1-0.9-0.3-1.2c-0.2-0.3-0.6-0.4-1.1-0.4
						c-0.4,0-0.7,0.1-1.1,0.2c-0.3,0.1-0.6,0.2-0.9,0.4l-0.4-0.9c0.4-0.2,0.7-0.3,1.2-0.4c0.4-0.1,0.8-0.2,1.2-0.2
						c0.9,0,1.5,0.2,1.9,0.6c0.4,0.4,0.6,1,0.6,1.8v4.8H237.1z M234.7,204.7c0.6,0,1.2-0.2,1.5-0.5c0.4-0.4,0.6-0.8,0.6-1.5v-0.6
						l-1,0c-0.8,0-1.4,0.2-1.8,0.4c-0.4,0.2-0.6,0.6-0.6,1.1c0,0.4,0.1,0.7,0.3,0.9C234,204.6,234.3,204.7,234.7,204.7z"/>
					<path class="st7" d="M241.3,205.5h-1.2v-10h1.2V205.5z"/>
					<path class="st7" d="M243.5,196.5c0-0.3,0.1-0.4,0.2-0.6c0.1-0.1,0.3-0.2,0.5-0.2c0.2,0,0.3,0.1,0.5,0.2
						c0.1,0.1,0.2,0.3,0.2,0.6c0,0.3-0.1,0.4-0.2,0.6c-0.1,0.1-0.3,0.2-0.5,0.2c-0.2,0-0.4-0.1-0.5-0.2
						C243.5,197,243.5,196.8,243.5,196.5z M244.7,205.5h-1.2v-7.1h1.2V205.5z"/>
					<path class="st7" d="M251.6,203.6c0,0.7-0.2,1.2-0.7,1.5c-0.5,0.4-1.2,0.5-2.1,0.5c-0.9,0-1.7-0.1-2.2-0.4v-1.1
						c0.8,0.4,1.5,0.6,2.2,0.6c0.6,0,1-0.1,1.3-0.3c0.3-0.2,0.4-0.4,0.4-0.8c0-0.3-0.1-0.5-0.4-0.7c-0.3-0.2-0.7-0.4-1.4-0.7
						c-0.7-0.3-1.1-0.5-1.4-0.7c-0.3-0.2-0.5-0.4-0.6-0.6c-0.1-0.2-0.2-0.5-0.2-0.8c0-0.6,0.2-1,0.7-1.4c0.5-0.3,1.1-0.5,1.9-0.5
						c0.8,0,1.6,0.2,2.3,0.5l-0.4,0.9c-0.7-0.3-1.4-0.5-1.9-0.5c-0.5,0-0.8,0.1-1.1,0.2c-0.2,0.2-0.4,0.4-0.4,0.6
						c0,0.3,0.1,0.5,0.3,0.6c0.2,0.2,0.7,0.4,1.5,0.7c0.6,0.2,1,0.4,1.3,0.6c0.3,0.2,0.5,0.4,0.6,0.6
						C251.5,203,251.6,203.2,251.6,203.6z"/>
					<path class="st7" d="M255.6,204.7c0.2,0,0.3,0,0.5,0c0.2,0,0.4-0.1,0.5-0.1v0.9c-0.1,0-0.3,0.1-0.5,0.1c-0.2,0-0.5,0.1-0.7,0.1
						c-1.4,0-2.1-0.7-2.1-2.2v-4.1h-1v-0.6l1-0.5l0.5-1.5h0.7v1.6h2v0.9h-2v4.1c0,0.4,0.1,0.7,0.3,0.9
						C255,204.6,255.3,204.7,255.6,204.7z"/>
					<path class="st7" d="M261.2,195.5l-0.3,2.5l2.5-0.7l0.2,1.2l-2.4,0.2l1.6,2.1l-1.1,0.6l-1.1-2.3l-1,2.3l-1.2-0.6l1.5-2.1
						l-2.4-0.2l0.2-1.2l2.5,0.7l-0.3-2.5H261.2z"/>
					<path class="st7" d="M265.2,196.5c0-0.3,0.1-0.4,0.2-0.6c0.1-0.1,0.3-0.2,0.5-0.2c0.2,0,0.3,0.1,0.5,0.2
						c0.1,0.1,0.2,0.3,0.2,0.6c0,0.3-0.1,0.4-0.2,0.6c-0.1,0.1-0.3,0.2-0.5,0.2c-0.2,0-0.4-0.1-0.5-0.2
						C265.3,197,265.2,196.8,265.2,196.5z M266.5,205.5h-1.2v-7.1h1.2V205.5z"/>
					<path class="st7" d="M273.5,205.5V201c0-0.6-0.1-1-0.4-1.3c-0.3-0.3-0.7-0.4-1.2-0.4c-0.7,0-1.3,0.2-1.6,0.6
						c-0.3,0.4-0.5,1.1-0.5,2v3.7h-1.2v-7.1h0.9l0.2,1h0.1c0.2-0.3,0.5-0.6,0.9-0.8c0.4-0.2,0.8-0.3,1.3-0.3c0.9,0,1.5,0.2,1.9,0.6
						c0.4,0.4,0.6,1.1,0.6,2v4.6H273.5z"/>
					<path class="st7" d="M281.7,205.5V201c0-0.6-0.1-1-0.4-1.3c-0.3-0.3-0.7-0.4-1.2-0.4c-0.7,0-1.3,0.2-1.6,0.6
						c-0.3,0.4-0.5,1.1-0.5,2v3.7h-1.2v-7.1h0.9l0.2,1h0.1c0.2-0.3,0.5-0.6,0.9-0.8c0.4-0.2,0.8-0.3,1.3-0.3c0.9,0,1.5,0.2,1.9,0.6
						c0.4,0.4,0.6,1.1,0.6,2v4.6H281.7z"/>
					<path class="st7" d="M288,205.6c-1.1,0-1.9-0.3-2.5-1c-0.6-0.6-0.9-1.5-0.9-2.7c0-1.1,0.3-2,0.8-2.7c0.6-0.7,1.3-1,2.3-1
						c0.9,0,1.6,0.3,2.1,0.9c0.5,0.6,0.8,1.3,0.8,2.3v0.7h-4.8c0,0.8,0.2,1.4,0.6,1.8c0.4,0.4,0.9,0.6,1.6,0.6c0.4,0,0.7,0,1.1-0.1
						c0.3-0.1,0.7-0.2,1.2-0.4v1c-0.4,0.2-0.8,0.3-1.1,0.4C288.9,205.6,288.5,205.6,288,205.6z M287.7,199.3c-0.6,0-1,0.2-1.3,0.5
						c-0.3,0.4-0.5,0.9-0.6,1.5h3.6c0-0.7-0.2-1.2-0.5-1.5C288.7,199.4,288.3,199.3,287.7,199.3z"/>
					<path class="st7" d="M297.3,205.5V201c0-0.6-0.1-1-0.4-1.3c-0.3-0.3-0.7-0.4-1.2-0.4c-0.7,0-1.3,0.2-1.6,0.6
						c-0.3,0.4-0.5,1.1-0.5,2v3.7h-1.2v-7.1h0.9l0.2,1h0.1c0.2-0.3,0.5-0.6,0.9-0.8c0.4-0.2,0.8-0.3,1.3-0.3c0.9,0,1.5,0.2,1.9,0.6
						c0.4,0.4,0.6,1.1,0.6,2v4.6H297.3z"/>
				</g>
			</g>
		</g>
		<g>
			<path class="st123" d="M56.8,188H13.1c-7,0-12.6,5.7-12.6,12.6c0,7,5.7,12.6,12.6,12.6h43.6c7,0,12.6-5.7,12.6-12.6
				C69.4,193.6,63.7,188,56.8,188z"/>
			<g>
				<g>
					<path class="st7" d="M26.6,205.5h-1.4l-5-7.8h-0.1l0,0.5c0.1,0.8,0.1,1.5,0.1,2v5.3h-1.1v-9.4h1.4l0.3,0.5l3.1,4.8l1.6,2.6h0.1
						c0-0.1,0-0.5-0.1-1.1c0-0.6,0-1.1,0-1.4v-5.3h1.1V205.5z"/>
					<path class="st7" d="M32,205.6c-1.1,0-1.9-0.3-2.5-1c-0.6-0.6-0.9-1.5-0.9-2.7c0-1.1,0.3-2,0.8-2.7c0.6-0.7,1.3-1,2.3-1
						c0.9,0,1.6,0.3,2.1,0.9c0.5,0.6,0.8,1.3,0.8,2.3v0.7h-4.8c0,0.8,0.2,1.4,0.6,1.8c0.4,0.4,0.9,0.6,1.6,0.6c0.4,0,0.7,0,1.1-0.1
						c0.3-0.1,0.7-0.2,1.2-0.4v1c-0.4,0.2-0.8,0.3-1.1,0.4C32.9,205.6,32.5,205.6,32,205.6z M31.7,199.3c-0.6,0-1,0.2-1.3,0.5
						c-0.3,0.4-0.5,0.9-0.6,1.5h3.6c0-0.7-0.2-1.2-0.5-1.5C32.7,199.4,32.3,199.3,31.7,199.3z"/>
					<path class="st7" d="M42.2,205.5l-1.2-4c-0.1-0.3-0.3-1-0.5-1.9h-0.1c-0.2,0.8-0.3,1.5-0.5,1.9l-1.3,4h-1.3l-1.9-7.1h1.2
						c0.4,1.7,0.8,3.1,1,4c0.2,0.9,0.4,1.5,0.4,1.9h0.1l0.1-0.4c0.1-0.6,0.3-1.1,0.4-1.5l1.3-4h1.3l1.2,4c0,0.2,0.1,0.3,0.1,0.5
						c0,0.2,0.1,0.3,0.1,0.5c0,0.2,0.1,0.3,0.1,0.5c0,0.2,0.1,0.3,0.1,0.4h0.1c0-0.3,0.2-1,0.5-2.1l1-3.8h1.2l-2,7.1H42.2z"/>
					<path class="st7" d="M51.4,203.6c0,0.7-0.2,1.2-0.7,1.5c-0.5,0.4-1.2,0.5-2.1,0.5c-0.9,0-1.7-0.1-2.2-0.4v-1.1
						c0.8,0.4,1.5,0.6,2.2,0.6c0.6,0,1-0.1,1.3-0.3c0.3-0.2,0.4-0.4,0.4-0.8c0-0.3-0.1-0.5-0.4-0.7s-0.7-0.4-1.4-0.7
						c-0.7-0.3-1.1-0.5-1.4-0.7c-0.3-0.2-0.5-0.4-0.6-0.6c-0.1-0.2-0.2-0.5-0.2-0.8c0-0.6,0.2-1,0.7-1.4c0.5-0.3,1.1-0.5,1.9-0.5
						c0.8,0,1.6,0.2,2.3,0.5l-0.4,0.9c-0.7-0.3-1.4-0.5-1.9-0.5c-0.5,0-0.8,0.1-1.1,0.2c-0.2,0.2-0.4,0.4-0.4,0.6
						c0,0.3,0.1,0.5,0.3,0.6c0.2,0.2,0.7,0.4,1.5,0.7c0.6,0.2,1,0.4,1.3,0.6c0.3,0.2,0.5,0.4,0.6,0.6
						C51.4,203,51.4,203.2,51.4,203.6z"/>
				</g>
			</g>
		</g>
	</g>
	<g>
		<g>
			<path class="st123" d="M97.3,37.6H38.8c-7,0-12.6,5.7-12.6,12.6c0,7,5.7,12.6,12.6,12.6h58.6c7,0,12.6-5.7,12.6-12.6
				C109.9,43.3,104.3,37.6,97.3,37.6z"/>
			<g>
				<g>
					<path class="st7" d="M46.6,55.4l-3.1-8.3h-0.1c0.1,0.7,0.1,1.5,0.1,2.5v5.7h-1.1V46h1.8l2.9,7.7h0.1l3-7.7h1.7v9.4h-1.2v-5.8
						c0-0.6,0-1.5,0.1-2.5h-0.1l-3.1,8.2H46.6z"/>
					<path class="st7" d="M58.6,55.4l-0.2-1h-0.1c-0.4,0.4-0.7,0.7-1.1,0.9c-0.4,0.2-0.8,0.2-1.3,0.2c-0.7,0-1.2-0.2-1.6-0.5
						c-0.4-0.4-0.6-0.9-0.6-1.5c0-1.4,1.1-2.2,3.4-2.3l1.2,0v-0.4c0-0.5-0.1-0.9-0.3-1.2c-0.2-0.3-0.6-0.4-1.1-0.4
						c-0.4,0-0.7,0.1-1.1,0.2c-0.3,0.1-0.6,0.2-0.9,0.4l-0.4-0.9c0.4-0.2,0.7-0.3,1.2-0.4c0.4-0.1,0.8-0.2,1.2-0.2
						c0.9,0,1.5,0.2,1.9,0.6c0.4,0.4,0.6,1,0.6,1.8v4.8H58.6z M56.2,54.6c0.6,0,1.2-0.2,1.5-0.5c0.4-0.4,0.6-0.8,0.6-1.5V52l-1,0
						c-0.8,0-1.4,0.2-1.8,0.4c-0.4,0.2-0.6,0.6-0.6,1.1c0,0.4,0.1,0.7,0.3,0.8C55.5,54.5,55.8,54.6,56.2,54.6z"/>
					<path class="st7" d="M65,55.6c-0.9,0-1.7-0.3-2.2-1h-0.1l0,0.3c0,0.3,0.1,0.6,0.1,0.9v2.9h-1.2V48.4h1l0.2,1h0.1
						c0.3-0.4,0.6-0.7,1-0.8c0.4-0.2,0.8-0.3,1.2-0.3c0.9,0,1.6,0.3,2.1,1c0.5,0.6,0.8,1.5,0.8,2.7c0,1.2-0.3,2.1-0.8,2.7
						C66.6,55.2,65.9,55.6,65,55.6z M64.8,49.2c-0.7,0-1.2,0.2-1.5,0.6c-0.3,0.4-0.5,1-0.5,1.9v0.2c0,1,0.2,1.6,0.5,2.1
						c0.3,0.4,0.8,0.6,1.5,0.6c0.6,0,1.1-0.2,1.4-0.7c0.3-0.5,0.5-1.2,0.5-2c0-0.9-0.2-1.5-0.5-2C65.9,49.4,65.4,49.2,64.8,49.2z"/>
					<path class="st7" d="M70.9,55.4h-1.2v-10h1.2V55.4z"/>
					<path class="st7" d="M79.3,51.9c0,1.2-0.3,2.1-0.9,2.7c-0.6,0.6-1.4,1-2.4,1c-0.6,0-1.2-0.1-1.7-0.4c-0.5-0.3-0.9-0.7-1.1-1.3
						s-0.4-1.2-0.4-1.9c0-1.2,0.3-2,0.9-2.7c0.6-0.6,1.4-1,2.4-1c1,0,1.8,0.3,2.4,1C79,49.9,79.3,50.7,79.3,51.9z M74,51.9
						c0,0.9,0.2,1.6,0.5,2c0.4,0.5,0.9,0.7,1.5,0.7c0.7,0,1.2-0.2,1.5-0.7c0.4-0.5,0.5-1.1,0.5-2c0-0.9-0.2-1.6-0.5-2
						c-0.4-0.4-0.9-0.7-1.6-0.7C74.6,49.2,74,50.1,74,51.9z"/>
					<path class="st7" d="M85.9,55.4l0-0.9h-0.1c-0.5,0.7-1.2,1.1-2.2,1.1c-0.9,0-1.6-0.3-2.1-1c-0.5-0.6-0.8-1.5-0.8-2.7
						c0-1.1,0.3-2,0.8-2.7c0.5-0.7,1.2-1,2.1-1c1,0,1.7,0.4,2.2,1.1h0.1l0.2-0.9H87v7.2c0,1-0.3,1.8-0.8,2.3
						c-0.5,0.5-1.3,0.8-2.4,0.8c-1,0-1.9-0.2-2.5-0.5v-1.1c0.7,0.4,1.6,0.6,2.6,0.6c0.6,0,1.1-0.2,1.4-0.5c0.4-0.4,0.5-0.8,0.5-1.5
						V55.4z M83.8,54.6c0.7,0,1.2-0.2,1.6-0.6c0.3-0.4,0.5-1,0.5-1.9v-0.3c0-0.9-0.2-1.6-0.5-2.1c-0.3-0.4-0.9-0.6-1.6-0.6
						c-0.6,0-1.1,0.2-1.4,0.7c-0.3,0.5-0.5,1.1-0.5,2c0,0.9,0.2,1.5,0.5,2C82.7,54.4,83.2,54.6,83.8,54.6z"/>
					<path class="st7" d="M93.9,53.5c0,0.7-0.2,1.2-0.7,1.5c-0.5,0.4-1.2,0.5-2.1,0.5c-0.9,0-1.7-0.1-2.2-0.4v-1.1
						c0.8,0.4,1.5,0.6,2.2,0.6c0.6,0,1-0.1,1.3-0.3c0.3-0.2,0.4-0.4,0.4-0.8c0-0.3-0.1-0.5-0.4-0.7c-0.3-0.2-0.7-0.4-1.4-0.7
						c-0.7-0.3-1.1-0.5-1.4-0.7c-0.3-0.2-0.5-0.4-0.6-0.6c-0.1-0.2-0.2-0.5-0.2-0.8c0-0.6,0.2-1,0.7-1.4c0.5-0.3,1.1-0.5,1.9-0.5
						c0.8,0,1.6,0.2,2.3,0.5l-0.4,0.9c-0.7-0.3-1.4-0.5-1.9-0.5c-0.5,0-0.8,0.1-1.1,0.2c-0.2,0.2-0.4,0.4-0.4,0.6
						c0,0.3,0.1,0.5,0.3,0.6c0.2,0.2,0.7,0.4,1.5,0.7c0.6,0.2,1,0.4,1.3,0.6c0.3,0.2,0.5,0.4,0.6,0.6C93.8,52.9,93.9,53.1,93.9,53.5
						z"/>
				</g>
			</g>
			<path class="st123" d="M163.6,37.6H129c-7,0-12.6,5.7-12.6,12.6c0,7,5.7,12.6,12.6,12.6h34.5c7,0,12.6-5.7,12.6-12.6
				C176.2,43.3,170.5,37.6,163.6,37.6z"/>
			<g>
				<g>
					<path class="st7" d="M141.5,50.7c0,1.2-0.2,2.2-0.7,3c-0.5,0.8-1.2,1.3-2,1.6l2.3,2.3h-1.7l-1.8-2.1l-0.3,0
						c-1.4,0-2.5-0.4-3.2-1.3c-0.8-0.8-1.1-2-1.1-3.6c0-1.5,0.4-2.7,1.1-3.6c0.8-0.8,1.8-1.3,3.2-1.3c1.4,0,2.4,0.4,3.2,1.3
						C141.1,48,141.5,49.2,141.5,50.7z M134.1,50.7c0,1.2,0.3,2.2,0.8,2.8c0.5,0.7,1.3,1,2.3,1c1,0,1.8-0.3,2.3-1
						c0.5-0.6,0.8-1.6,0.8-2.9c0-1.3-0.3-2.2-0.8-2.8c-0.5-0.6-1.3-1-2.3-1c-1,0-1.8,0.3-2.3,1C134.3,48.5,134.1,49.5,134.1,50.7z"
						/>
					<path class="st7" d="M144.5,48.4v4.6c0,0.6,0.1,1,0.4,1.3c0.3,0.3,0.7,0.4,1.2,0.4c0.7,0,1.3-0.2,1.6-0.6
						c0.3-0.4,0.5-1.1,0.5-2v-3.7h1.2v7.1h-1l-0.2-0.9h-0.1c-0.2,0.3-0.5,0.6-0.9,0.8c-0.4,0.2-0.8,0.3-1.3,0.3
						c-0.9,0-1.5-0.2-1.9-0.6c-0.4-0.4-0.6-1.1-0.6-2v-4.6H144.5z"/>
					<path class="st7" d="M151.5,46.4c0-0.3,0.1-0.4,0.2-0.6c0.1-0.1,0.3-0.2,0.5-0.2c0.2,0,0.3,0.1,0.5,0.2
						c0.1,0.1,0.2,0.3,0.2,0.6c0,0.3-0.1,0.4-0.2,0.6c-0.1,0.1-0.3,0.2-0.5,0.2c-0.2,0-0.4-0.1-0.5-0.2
						C151.6,46.9,151.5,46.7,151.5,46.4z M152.8,55.4h-1.2v-7.1h1.2V55.4z"/>
					<path class="st7" d="M159.6,55.4h-5.2v-0.8l3.8-5.4h-3.6v-0.9h4.9v0.9l-3.7,5.3h3.8V55.4z"/>
				</g>
			</g>
		</g>
		<g>
			<path class="st123" d="M280.7,37.6H196c-7,0-12.6,5.7-12.6,12.6c0,7,5.7,12.6,12.6,12.6h84.7c7,0,12.6-5.7,12.6-12.6
				C293.3,43.3,287.7,37.6,280.7,37.6z"/>
			<g>
				<g>
					<path class="st7" d="M202.8,55.4h-5.3V46h5.3v1h-4.1V50h3.8v1h-3.8v3.4h4.1V55.4z"/>
					<path class="st7" d="M206.4,51.8l-2.4-3.5h1.3l1.8,2.7l1.8-2.7h1.3l-2.4,3.5l2.6,3.6H209l-1.9-2.8l-2,2.8h-1.3L206.4,51.8z"/>
					<path class="st7" d="M215,55.6c-0.9,0-1.7-0.3-2.2-1h-0.1l0,0.3c0,0.3,0.1,0.6,0.1,0.9v2.9h-1.2V48.4h1l0.2,1h0.1
						c0.3-0.4,0.6-0.7,1-0.8c0.4-0.2,0.8-0.3,1.2-0.3c0.9,0,1.6,0.3,2.1,1c0.5,0.6,0.8,1.5,0.8,2.7c0,1.2-0.3,2.1-0.8,2.7
						C216.7,55.2,215.9,55.6,215,55.6z M214.8,49.2c-0.7,0-1.2,0.2-1.5,0.6c-0.3,0.4-0.5,1-0.5,1.9v0.2c0,1,0.2,1.6,0.5,2.1
						c0.3,0.4,0.8,0.6,1.5,0.6c0.6,0,1.1-0.2,1.4-0.7c0.3-0.5,0.5-1.2,0.5-2c0-0.9-0.2-1.5-0.5-2C215.9,49.4,215.4,49.2,214.8,49.2z
						"/>
					<path class="st7" d="M222.8,55.6c-1.1,0-1.9-0.3-2.5-1c-0.6-0.6-0.9-1.5-0.9-2.7c0-1.1,0.3-2,0.8-2.7c0.6-0.7,1.3-1,2.3-1
						c0.9,0,1.6,0.3,2.1,0.9c0.5,0.6,0.8,1.3,0.8,2.3v0.7h-4.8c0,0.8,0.2,1.4,0.6,1.8c0.4,0.4,0.9,0.6,1.6,0.6c0.4,0,0.7,0,1.1-0.1
						c0.3-0.1,0.7-0.2,1.2-0.4v1c-0.4,0.2-0.8,0.3-1.1,0.4C223.7,55.5,223.3,55.6,222.8,55.6z M222.5,49.2c-0.6,0-1,0.2-1.3,0.5
						c-0.3,0.4-0.5,0.9-0.6,1.5h3.6c0-0.7-0.2-1.2-0.5-1.5C223.5,49.3,223,49.2,222.5,49.2z"/>
					<path class="st7" d="M230.5,48.2c0.3,0,0.6,0,0.8,0.1l-0.1,1.1c-0.3-0.1-0.5-0.1-0.8-0.1c-0.4,0-0.7,0.1-1,0.3
						c-0.3,0.2-0.6,0.5-0.8,0.9c-0.2,0.4-0.3,0.8-0.3,1.2v3.8h-1.2v-7.1h1l0.1,1.3h0.1c0.3-0.5,0.6-0.8,1-1.1
						C229.7,48.3,230.1,48.2,230.5,48.2z"/>
					<path class="st7" d="M235,54.6c0.2,0,0.3,0,0.5,0c0.2,0,0.4-0.1,0.5-0.1v0.9c-0.1,0-0.3,0.1-0.5,0.1c-0.2,0-0.5,0.1-0.7,0.1
						c-1.4,0-2.1-0.7-2.1-2.2v-4.1h-1v-0.6l1-0.5l0.5-1.5h0.7v1.6h2v0.9h-2v4.1c0,0.4,0.1,0.7,0.3,0.9
						C234.4,54.5,234.7,54.6,235,54.6z"/>
					<path class="st7" d="M240.6,45.4l-0.3,2.5l2.5-0.7l0.2,1.2l-2.4,0.2l1.6,2.1l-1.1,0.6l-1.1-2.3l-1,2.3l-1.2-0.6l1.5-2.1
						l-2.4-0.2l0.2-1.2l2.5,0.7l-0.3-2.5H240.6z"/>
					<path class="st7" d="M247.5,55.4h-3.4v-0.7l1.1-0.3V47l-1.1-0.3V46h3.4v0.7l-1.1,0.3v7.5l1.1,0.3V55.4z"/>
					<path class="st7" d="M254,55.4v-4.5c0-0.6-0.1-1-0.4-1.3c-0.3-0.3-0.7-0.4-1.2-0.4c-0.7,0-1.3,0.2-1.6,0.6
						c-0.3,0.4-0.5,1.1-0.5,2v3.7h-1.2v-7.1h0.9l0.2,1h0.1c0.2-0.3,0.5-0.6,0.9-0.8c0.4-0.2,0.8-0.3,1.3-0.3c0.9,0,1.5,0.2,1.9,0.6
						c0.4,0.4,0.6,1.1,0.6,2v4.6H254z"/>
					<path class="st7" d="M262.1,55.4v-4.5c0-0.6-0.1-1-0.4-1.3c-0.3-0.3-0.7-0.4-1.2-0.4c-0.7,0-1.3,0.2-1.6,0.6
						c-0.3,0.4-0.5,1.1-0.5,2v3.7h-1.2v-7.1h0.9l0.2,1h0.1c0.2-0.3,0.5-0.6,0.9-0.8c0.4-0.2,0.8-0.3,1.3-0.3c0.9,0,1.5,0.2,1.9,0.6
						c0.4,0.4,0.6,1.1,0.6,2v4.6H262.1z"/>
					<path class="st7" d="M268.5,55.6c-1.1,0-1.9-0.3-2.5-1c-0.6-0.6-0.9-1.5-0.9-2.7c0-1.1,0.3-2,0.8-2.7c0.6-0.7,1.3-1,2.3-1
						c0.9,0,1.6,0.3,2.1,0.9c0.5,0.6,0.8,1.3,0.8,2.3v0.7h-4.8c0,0.8,0.2,1.4,0.6,1.8c0.4,0.4,0.9,0.6,1.6,0.6c0.4,0,0.7,0,1.1-0.1
						c0.3-0.1,0.7-0.2,1.2-0.4v1c-0.4,0.2-0.8,0.3-1.1,0.4C269.4,55.5,268.9,55.6,268.5,55.6z M268.2,49.2c-0.6,0-1,0.2-1.3,0.5
						c-0.3,0.4-0.5,0.9-0.6,1.5h3.6c0-0.7-0.2-1.2-0.5-1.5C269.2,49.3,268.7,49.2,268.2,49.2z"/>
					<path class="st7" d="M277.7,55.4v-4.5c0-0.6-0.1-1-0.4-1.3c-0.3-0.3-0.7-0.4-1.2-0.4c-0.7,0-1.3,0.2-1.6,0.6
						c-0.3,0.4-0.5,1.1-0.5,2v3.7h-1.2v-7.1h0.9l0.2,1h0.1c0.2-0.3,0.5-0.6,0.9-0.8c0.4-0.2,0.8-0.3,1.3-0.3c0.9,0,1.5,0.2,1.9,0.6
						c0.4,0.4,0.6,1.1,0.6,2v4.6H277.7z"/>
				</g>
			</g>
		</g>
	</g>
	<g>
		<path class="st123" d="M294.6,75.3H191.9c-7,0-12.6,5.7-12.6,12.6c0,7,5.7,12.6,12.6,12.6h102.7c7,0,12.6-5.7,12.6-12.6
			C307.2,81,301.6,75.3,294.6,75.3z"/>
		<g>
			<g>
				<path class="st7" d="M196.8,93.1v-9.4h1.2v8.4h4.1v1.1H196.8z"/>
				<path class="st7" d="M207.9,93.1l-0.2-1h-0.1c-0.4,0.4-0.7,0.7-1.1,0.9c-0.4,0.2-0.8,0.2-1.3,0.2c-0.7,0-1.2-0.2-1.6-0.5
					c-0.4-0.4-0.6-0.9-0.6-1.5c0-1.4,1.1-2.2,3.4-2.3l1.2,0v-0.4c0-0.5-0.1-0.9-0.3-1.2c-0.2-0.3-0.6-0.4-1.1-0.4
					c-0.4,0-0.7,0.1-1.1,0.2c-0.3,0.1-0.6,0.2-0.9,0.4l-0.4-0.9c0.4-0.2,0.7-0.3,1.2-0.4c0.4-0.1,0.8-0.2,1.2-0.2
					c0.9,0,1.5,0.2,1.9,0.6c0.4,0.4,0.6,1,0.6,1.8v4.8H207.9z M204.3,84.1c0-0.2,0.1-0.4,0.2-0.5c0.1-0.1,0.3-0.2,0.4-0.2
					c0.2,0,0.3,0.1,0.4,0.2c0.1,0.1,0.2,0.3,0.2,0.5c0,0.2-0.1,0.4-0.2,0.5c-0.1,0.1-0.3,0.2-0.4,0.2c-0.2,0-0.3-0.1-0.4-0.2
					C204.3,84.5,204.3,84.4,204.3,84.1z M205.6,92.3c0.6,0,1.2-0.2,1.5-0.5c0.4-0.3,0.6-0.8,0.6-1.5v-0.6l-1,0
					c-0.8,0-1.4,0.2-1.8,0.4c-0.4,0.2-0.6,0.6-0.6,1.1c0,0.4,0.1,0.7,0.3,0.9C204.8,92.2,205.2,92.3,205.6,92.3z M206.7,84.1
					c0-0.2,0.1-0.4,0.2-0.5c0.1-0.1,0.3-0.2,0.4-0.2c0.2,0,0.3,0.1,0.4,0.2c0.1,0.1,0.2,0.3,0.2,0.5c0,0.2-0.1,0.4-0.2,0.5
					c-0.1,0.1-0.3,0.2-0.4,0.2c-0.2,0-0.3-0.1-0.4-0.2C206.8,84.5,206.7,84.4,206.7,84.1z"/>
				<path class="st7" d="M215.8,93.1v-4.5c0-0.6-0.1-1-0.4-1.3c-0.3-0.3-0.7-0.4-1.2-0.4c-0.7,0-1.3,0.2-1.6,0.6
					c-0.3,0.4-0.5,1.1-0.5,2v3.7H211v-7.1h0.9l0.2,1h0.1c0.2-0.3,0.5-0.6,0.9-0.8c0.4-0.2,0.8-0.3,1.3-0.3c0.9,0,1.5,0.2,1.9,0.6
					c0.4,0.4,0.6,1.1,0.6,2v4.6H215.8z"/>
				<path class="st7" d="M221.6,93.3c-0.9,0-1.6-0.3-2.1-1c-0.5-0.6-0.8-1.5-0.8-2.7c0-1.2,0.3-2.1,0.8-2.7c0.5-0.6,1.2-1,2.1-1
					c0.9,0,1.7,0.3,2.2,1h0.1c0-0.1,0-0.3-0.1-0.5c0-0.3,0-0.4,0-0.5v-2.8h1.2v10h-0.9l-0.2-0.9h-0.1
					C223.4,92.9,222.6,93.3,221.6,93.3z M221.8,92.3c0.7,0,1.2-0.2,1.5-0.6c0.3-0.4,0.5-1,0.5-1.9v-0.2c0-1-0.2-1.7-0.5-2.1
					c-0.3-0.4-0.8-0.6-1.5-0.6c-0.6,0-1.1,0.2-1.4,0.7c-0.3,0.5-0.5,1.2-0.5,2c0,0.9,0.2,1.5,0.5,2
					C220.8,92.1,221.2,92.3,221.8,92.3z"/>
				<path class="st7" d="M230.3,93.3c-1.1,0-1.9-0.3-2.5-1c-0.6-0.6-0.9-1.5-0.9-2.7c0-1.1,0.3-2,0.8-2.7c0.6-0.7,1.3-1,2.3-1
					c0.9,0,1.6,0.3,2.1,0.9c0.5,0.6,0.8,1.3,0.8,2.3v0.7h-4.8c0,0.8,0.2,1.4,0.6,1.8c0.4,0.4,0.9,0.6,1.6,0.6c0.4,0,0.7,0,1.1-0.1
					c0.3-0.1,0.7-0.2,1.2-0.4v1c-0.4,0.2-0.8,0.3-1.1,0.4C231.1,93.2,230.7,93.3,230.3,93.3z M230,86.9c-0.6,0-1,0.2-1.3,0.5
					c-0.3,0.4-0.5,0.9-0.6,1.5h3.6c0-0.7-0.2-1.2-0.5-1.5C230.9,87.1,230.5,86.9,230,86.9z"/>
				<path class="st7" d="M238,85.9c0.3,0,0.6,0,0.8,0.1l-0.1,1.1c-0.3-0.1-0.5-0.1-0.8-0.1c-0.4,0-0.7,0.1-1,0.3
					c-0.3,0.2-0.6,0.5-0.8,0.9c-0.2,0.4-0.3,0.8-0.3,1.2v3.8h-1.2v-7.1h1l0.1,1.3h0.1c0.3-0.5,0.6-0.8,1-1.1
					C237.2,86.1,237.6,85.9,238,85.9z"/>
				<path class="st7" d="M247.2,83.7l-3.5,9.4h-1.1l3.5-9.4H247.2z"/>
				<path class="st7" d="M257.4,90.6c0,0.8-0.3,1.5-0.9,1.9c-0.6,0.5-1.4,0.7-2.5,0.7c-1.1,0-2-0.1-2.6-0.4v-1.1
					c0.4,0.2,0.8,0.3,1.3,0.4c0.5,0.1,0.9,0.1,1.3,0.1c0.7,0,1.2-0.1,1.6-0.4c0.4-0.3,0.5-0.6,0.5-1.1c0-0.3-0.1-0.6-0.2-0.8
					c-0.1-0.2-0.3-0.4-0.6-0.6c-0.3-0.2-0.8-0.4-1.4-0.6c-0.9-0.3-1.5-0.7-1.9-1.1c-0.4-0.4-0.6-1-0.6-1.7c0-0.7,0.3-1.3,0.8-1.8
					c0.6-0.4,1.3-0.7,2.2-0.7c0.9,0,1.8,0.2,2.6,0.5l-0.4,1c-0.8-0.3-1.6-0.5-2.3-0.5c-0.6,0-1,0.1-1.3,0.4c-0.3,0.2-0.5,0.6-0.5,1
					c0,0.3,0.1,0.6,0.2,0.8c0.1,0.2,0.3,0.4,0.6,0.6c0.3,0.2,0.7,0.4,1.3,0.6c0.7,0.3,1.2,0.5,1.6,0.8c0.3,0.2,0.6,0.5,0.8,0.8
					C257.3,89.8,257.4,90.2,257.4,90.6z"/>
				<path class="st7" d="M261.5,92.3c0.2,0,0.3,0,0.5,0c0.2,0,0.4-0.1,0.5-0.1v0.9c-0.1,0-0.3,0.1-0.5,0.1c-0.2,0-0.5,0.1-0.7,0.1
					c-1.4,0-2.1-0.7-2.1-2.2V87h-1v-0.6l1-0.5l0.5-1.5h0.7v1.6h2V87h-2V91c0,0.4,0.1,0.7,0.3,0.9C260.9,92.2,261.2,92.3,261.5,92.3z
					"/>
				<path class="st7" d="M268.3,93.1l-0.2-1H268c-0.4,0.4-0.7,0.7-1.1,0.9c-0.4,0.2-0.8,0.2-1.3,0.2c-0.7,0-1.2-0.2-1.6-0.5
					c-0.4-0.4-0.6-0.9-0.6-1.5c0-1.4,1.1-2.2,3.4-2.3l1.2,0v-0.4c0-0.5-0.1-0.9-0.3-1.2c-0.2-0.3-0.6-0.4-1.1-0.4
					c-0.4,0-0.7,0.1-1.1,0.2c-0.3,0.1-0.6,0.2-0.9,0.4l-0.4-0.9c0.4-0.2,0.7-0.3,1.2-0.4c0.4-0.1,0.8-0.2,1.2-0.2
					c0.9,0,1.5,0.2,1.9,0.6c0.4,0.4,0.6,1,0.6,1.8v4.8H268.3z M264.6,84.1c0-0.2,0.1-0.4,0.2-0.5c0.1-0.1,0.3-0.2,0.4-0.2
					c0.2,0,0.3,0.1,0.4,0.2c0.1,0.1,0.2,0.3,0.2,0.5c0,0.2-0.1,0.4-0.2,0.5c-0.1,0.1-0.3,0.2-0.4,0.2c-0.2,0-0.3-0.1-0.4-0.2
					C264.6,84.5,264.6,84.4,264.6,84.1z M265.9,92.3c0.6,0,1.2-0.2,1.5-0.5c0.4-0.3,0.6-0.8,0.6-1.5v-0.6l-1,0
					c-0.8,0-1.4,0.2-1.8,0.4c-0.4,0.2-0.6,0.6-0.6,1.1c0,0.4,0.1,0.7,0.3,0.9C265.2,92.2,265.5,92.3,265.9,92.3z M267.1,84.1
					c0-0.2,0.1-0.4,0.2-0.5c0.1-0.1,0.3-0.2,0.4-0.2c0.2,0,0.3,0.1,0.4,0.2c0.1,0.1,0.2,0.3,0.2,0.5c0,0.2-0.1,0.4-0.2,0.5
					c-0.1,0.1-0.3,0.2-0.4,0.2c-0.2,0-0.3-0.1-0.4-0.2C267.1,84.5,267.1,84.4,267.1,84.1z"/>
				<path class="st7" d="M273.8,93.3c-0.9,0-1.6-0.3-2.1-1c-0.5-0.6-0.8-1.5-0.8-2.7c0-1.2,0.3-2.1,0.8-2.7c0.5-0.6,1.2-1,2.1-1
					c0.9,0,1.7,0.3,2.2,1h0.1c0-0.1,0-0.3-0.1-0.5c0-0.3,0-0.4,0-0.5v-2.8h1.2v10h-0.9l-0.2-0.9H276
					C275.5,92.9,274.8,93.3,273.8,93.3z M274,92.3c0.7,0,1.2-0.2,1.5-0.6c0.3-0.4,0.5-1,0.5-1.9v-0.2c0-1-0.2-1.7-0.5-2.1
					c-0.3-0.4-0.8-0.6-1.5-0.6c-0.6,0-1.1,0.2-1.4,0.7c-0.3,0.5-0.5,1.2-0.5,2c0,0.9,0.2,1.5,0.5,2C272.9,92.1,273.4,92.3,274,92.3z
					"/>
				<path class="st7" d="M281.8,92.3c0.2,0,0.3,0,0.5,0c0.2,0,0.4-0.1,0.5-0.1v0.9c-0.1,0-0.3,0.1-0.5,0.1c-0.2,0-0.5,0.1-0.7,0.1
					c-1.4,0-2.1-0.7-2.1-2.2V87h-1v-0.6l1-0.5l0.5-1.5h0.7v1.6h2V87h-2V91c0,0.4,0.1,0.7,0.3,0.9C281.2,92.2,281.4,92.3,281.8,92.3z
					"/>
				<path class="st7" d="M287.2,93.3c-1.1,0-1.9-0.3-2.5-1c-0.6-0.6-0.9-1.5-0.9-2.7c0-1.1,0.3-2,0.8-2.7c0.6-0.7,1.3-1,2.3-1
					c0.9,0,1.6,0.3,2.1,0.9c0.5,0.6,0.8,1.3,0.8,2.3v0.7H285c0,0.8,0.2,1.4,0.6,1.8c0.4,0.4,0.9,0.6,1.6,0.6c0.4,0,0.7,0,1.1-0.1
					c0.3-0.1,0.7-0.2,1.2-0.4v1c-0.4,0.2-0.8,0.3-1.1,0.4C288.1,93.2,287.7,93.3,287.2,93.3z M286.9,86.9c-0.6,0-1,0.2-1.3,0.5
					c-0.3,0.4-0.5,0.9-0.6,1.5h3.6c0-0.7-0.2-1.2-0.5-1.5C287.9,87.1,287.4,86.9,286.9,86.9z"/>
			</g>
		</g>
		<path class="st123" d="M159.5,75.3H96.8c-7,0-12.6,5.7-12.6,12.6c0,7,5.7,12.6,12.6,12.6h62.8c7,0,12.6-5.7,12.6-12.6
			C172.1,81,166.5,75.3,159.5,75.3z"/>
		<g>
			<g>
				<path class="st7" d="M107.9,88.3c0,1.6-0.4,2.7-1.3,3.6c-0.8,0.8-2.1,1.2-3.6,1.2h-2.6v-9.4h2.9c1.5,0,2.6,0.4,3.4,1.2
					C107.5,85.7,107.9,86.9,107.9,88.3z M106.6,88.4c0-1.2-0.3-2.1-0.9-2.7c-0.6-0.6-1.5-0.9-2.7-0.9h-1.5v7.4h1.3
					C105.3,92.1,106.6,90.9,106.6,88.4z"/>
				<path class="st7" d="M112.8,93.3c-1.1,0-1.9-0.3-2.5-1c-0.6-0.6-0.9-1.5-0.9-2.7c0-1.1,0.3-2,0.8-2.7c0.6-0.7,1.3-1,2.3-1
					c0.9,0,1.6,0.3,2.1,0.9c0.5,0.6,0.8,1.3,0.8,2.3v0.7h-4.8c0,0.8,0.2,1.4,0.6,1.8c0.4,0.4,0.9,0.6,1.6,0.6c0.4,0,0.7,0,1.1-0.1
					c0.3-0.1,0.7-0.2,1.2-0.4v1c-0.4,0.2-0.8,0.3-1.1,0.4C113.7,93.2,113.3,93.3,112.8,93.3z M112.5,86.9c-0.6,0-1,0.2-1.3,0.5
					c-0.3,0.4-0.5,0.9-0.6,1.5h3.6c0-0.7-0.2-1.2-0.5-1.5C113.5,87.1,113.1,86.9,112.5,86.9z"/>
				<path class="st7" d="M120.6,85.9c0.9,0,1.7,0.3,2.2,1c0.5,0.6,0.8,1.5,0.8,2.7c0,1.2-0.3,2.1-0.8,2.7c-0.5,0.6-1.2,1-2.1,1
					c-0.5,0-0.9-0.1-1.3-0.3c-0.4-0.2-0.7-0.4-0.9-0.8h-0.1c-0.1,0.5-0.2,0.8-0.2,0.9h-0.8v-10h1.2v2.4c0,0.5,0,1-0.1,1.5h0.1
					C118.9,86.3,119.6,85.9,120.6,85.9z M120.4,86.9c-0.7,0-1.2,0.2-1.5,0.6c-0.3,0.4-0.5,1.1-0.5,2v0.1c0,1,0.2,1.7,0.5,2.1
					c0.3,0.4,0.8,0.6,1.5,0.6c0.6,0,1.1-0.2,1.4-0.7c0.3-0.5,0.5-1.1,0.5-2c0-0.9-0.2-1.6-0.5-2C121.5,87.1,121,86.9,120.4,86.9z"/>
				<path class="st7" d="M129.7,93.1l-0.2-1h-0.1c-0.4,0.4-0.7,0.7-1.1,0.9c-0.4,0.2-0.8,0.2-1.3,0.2c-0.7,0-1.2-0.2-1.6-0.5
					c-0.4-0.4-0.6-0.9-0.6-1.5c0-1.4,1.1-2.2,3.4-2.3l1.2,0v-0.4c0-0.5-0.1-0.9-0.3-1.2c-0.2-0.3-0.6-0.4-1.1-0.4
					c-0.4,0-0.7,0.1-1.1,0.2c-0.3,0.1-0.6,0.2-0.9,0.4l-0.4-0.9c0.4-0.2,0.7-0.3,1.2-0.4c0.4-0.1,0.8-0.2,1.2-0.2
					c0.9,0,1.5,0.2,1.9,0.6c0.4,0.4,0.6,1,0.6,1.8v4.8H129.7z M127.3,92.3c0.6,0,1.2-0.2,1.5-0.5c0.4-0.3,0.6-0.8,0.6-1.5v-0.6l-1,0
					c-0.8,0-1.4,0.2-1.8,0.4c-0.4,0.2-0.6,0.6-0.6,1.1c0,0.4,0.1,0.7,0.3,0.9C126.6,92.2,126.9,92.3,127.3,92.3z"/>
				<path class="st7" d="M135.1,92.3c0.2,0,0.3,0,0.5,0c0.2,0,0.4-0.1,0.5-0.1v0.9c-0.1,0-0.3,0.1-0.5,0.1c-0.2,0-0.5,0.1-0.7,0.1
					c-1.4,0-2.1-0.7-2.1-2.2V87h-1v-0.6l1-0.5l0.5-1.5h0.7v1.6h2V87h-2V91c0,0.4,0.1,0.7,0.3,0.9C134.5,92.2,134.8,92.3,135.1,92.3z
					"/>
				<path class="st7" d="M139.9,92.3c0.2,0,0.3,0,0.5,0c0.2,0,0.4-0.1,0.5-0.1v0.9c-0.1,0-0.3,0.1-0.5,0.1c-0.2,0-0.5,0.1-0.7,0.1
					c-1.4,0-2.1-0.7-2.1-2.2V87h-1v-0.6l1-0.5l0.5-1.5h0.7v1.6h2V87h-2V91c0,0.4,0.1,0.7,0.3,0.9C139.3,92.2,139.5,92.3,139.9,92.3z
					"/>
				<path class="st7" d="M145.3,93.3c-1.1,0-1.9-0.3-2.5-1c-0.6-0.6-0.9-1.5-0.9-2.7c0-1.1,0.3-2,0.8-2.7c0.6-0.7,1.3-1,2.3-1
					c0.9,0,1.6,0.3,2.1,0.9c0.5,0.6,0.8,1.3,0.8,2.3v0.7h-4.8c0,0.8,0.2,1.4,0.6,1.8c0.4,0.4,0.9,0.6,1.6,0.6c0.4,0,0.7,0,1.1-0.1
					c0.3-0.1,0.7-0.2,1.2-0.4v1c-0.4,0.2-0.8,0.3-1.1,0.4C146.1,93.2,145.7,93.3,145.3,93.3z M145,86.9c-0.6,0-1,0.2-1.3,0.5
					c-0.3,0.4-0.5,0.9-0.6,1.5h3.6c0-0.7-0.2-1.2-0.5-1.5C145.9,87.1,145.5,86.9,145,86.9z"/>
				<path class="st7" d="M154.5,93.1v-4.5c0-0.6-0.1-1-0.4-1.3c-0.3-0.3-0.7-0.4-1.2-0.4c-0.7,0-1.3,0.2-1.6,0.6
					c-0.3,0.4-0.5,1.1-0.5,2v3.7h-1.2v-7.1h0.9l0.2,1h0.1c0.2-0.3,0.5-0.6,0.9-0.8c0.4-0.2,0.8-0.3,1.3-0.3c0.9,0,1.5,0.2,1.9,0.6
					c0.4,0.4,0.6,1.1,0.6,2v4.6H154.5z"/>
			</g>
		</g>
		<path class="st123" d="M65,75.3H24.8c-7,0-12.6,5.7-12.6,12.6c0,7,5.7,12.6,12.6,12.6H65c7,0,12.6-5.7,12.6-12.6
			C77.6,81,71.9,75.3,65,75.3z"/>
		<g>
			<g>
				<path class="st7" d="M35.3,93.1h-1.4l-5-7.8h-0.1l0,0.5c0.1,0.8,0.1,1.5,0.1,2v5.3h-1.1v-9.4h1.4l0.3,0.5l3.1,4.8l1.6,2.6h0.1
					c0-0.1,0-0.5-0.1-1.1c0-0.6,0-1.1,0-1.4v-5.3h1.1V93.1z"/>
				<path class="st7" d="M41.9,88.2h3.3v4.6c-0.5,0.2-1,0.3-1.5,0.4c-0.5,0.1-1.1,0.1-1.8,0.1c-1.4,0-2.5-0.4-3.3-1.3
					c-0.8-0.9-1.2-2-1.2-3.6c0-1,0.2-1.8,0.6-2.6c0.4-0.7,1-1.3,1.7-1.7c0.7-0.4,1.6-0.6,2.6-0.6c1,0,1.9,0.2,2.8,0.6l-0.5,1
					c-0.8-0.4-1.6-0.5-2.4-0.5c-1.1,0-2,0.3-2.6,1c-0.6,0.7-0.9,1.6-0.9,2.8c0,1.2,0.3,2.2,0.9,2.8c0.6,0.6,1.5,1,2.6,1
					c0.6,0,1.2-0.1,1.8-0.2v-2.8h-2.1V88.2z"/>
				<path class="st7" d="M55.7,88.4c0,1.5-0.4,2.7-1.1,3.6c-0.8,0.9-1.8,1.3-3.2,1.3c-1.4,0-2.5-0.4-3.2-1.3c-0.8-0.8-1.1-2-1.1-3.6
					c0-1.5,0.4-2.7,1.1-3.6c0.8-0.8,1.8-1.3,3.2-1.3c1.4,0,2.4,0.4,3.2,1.3C55.3,85.7,55.7,86.9,55.7,88.4z M48.2,88.4
					c0,1.2,0.3,2.2,0.8,2.8c0.5,0.7,1.3,1,2.3,1c1,0,1.8-0.3,2.3-1c0.5-0.6,0.8-1.6,0.8-2.9c0-1.3-0.3-2.2-0.8-2.8
					c-0.5-0.6-1.3-1-2.3-1c-1,0-1.8,0.3-2.3,1C48.5,86.2,48.2,87.2,48.2,88.4z"/>
				<path class="st7" d="M62.2,91.2c0,0.7-0.2,1.2-0.7,1.5c-0.5,0.4-1.2,0.5-2.1,0.5c-0.9,0-1.7-0.1-2.2-0.4v-1.1
					c0.8,0.4,1.5,0.6,2.2,0.6c0.6,0,1-0.1,1.3-0.3c0.3-0.2,0.4-0.4,0.4-0.8c0-0.3-0.1-0.5-0.4-0.7c-0.3-0.2-0.7-0.4-1.4-0.7
					c-0.7-0.3-1.1-0.5-1.4-0.7c-0.3-0.2-0.5-0.4-0.6-0.6c-0.1-0.2-0.2-0.5-0.2-0.8c0-0.6,0.2-1,0.7-1.4c0.5-0.3,1.1-0.5,1.9-0.5
					c0.8,0,1.6,0.2,2.3,0.5l-0.4,0.9c-0.7-0.3-1.4-0.5-1.9-0.5c-0.5,0-0.8,0.1-1.1,0.2c-0.2,0.2-0.4,0.4-0.4,0.6
					c0,0.3,0.1,0.5,0.3,0.6c0.2,0.2,0.7,0.4,1.5,0.7c0.6,0.2,1,0.4,1.3,0.6c0.3,0.2,0.5,0.4,0.6,0.6C62.1,90.6,62.2,90.9,62.2,91.2z
					"/>
			</g>
		</g>
	</g>
</g>
</svg>
