<?xml version="1.0" encoding="utf-8"?>
<!-- Generator: Adobe Illustrator 19.1.0, SVG Export Plug-In . SVG Version: 6.00 Build 0)  -->
<svg version="1.1" id="Ebene_1" xmlns="http://www.w3.org/2000/svg" xmlns:xlink="http://www.w3.org/1999/xlink" x="0px" y="0px"
	 viewBox="0 0 99.1 100.2" style="enable-background:new 0 0 99.1 100.2;" xml:space="preserve">
<style type="text/css">
	.st0{fill:#D7ECF5;}
	.st1{clip-path:url(#SVGID_2_);}
	.st2{opacity:0.4;fill:url(#SVGID_5_);}
	.st3{clip-path:url(#SVGID_7_);}
	.st4{clip-path:url(#SVGID_9_);}
	.st5{fill:#F7EDE1;}
	.st6{fill:#006BB6;}
	.st7{fill:none;stroke:#006BB6;stroke-width:3;stroke-miterlimit:10;}
	.st8{opacity:0.9;fill:#FFFFFF;}
	.st9{fill:none;stroke:#989898;stroke-width:0.7068;stroke-miterlimit:10;stroke-dasharray:3.0116,3.0116;}
	.st10{fill:#074487;}
	.st11{fill:#CBCBCB;}
	.st12{fill:#0B24FA;}
	.st13{fill:#2CFFFD;}
	.st14{fill:#33ABE0;}
	.st15{clip-path:url(#SVGID_11_);}
	.st16{clip-path:url(#SVGID_13_);}
	.st17{clip-path:url(#SVGID_15_);}
	.st18{clip-path:url(#SVGID_17_);}
	.st19{clip-path:url(#SVGID_21_);}
	.st20{clip-path:url(#SVGID_25_);}
	.st21{clip-path:url(#SVGID_29_);}
	.st22{clip-path:url(#SVGID_33_);}
	.st23{fill:#FFFFFF;}
	.st24{fill:#0000FF;}
	.st25{fill:none;}
	.st26{fill:#333333;}
	.st27{fill:#4D4D4D;}
	.st28{clip-path:url(#SVGID_37_);}
	.st29{fill:#E6E6E6;}
	.st30{clip-path:url(#SVGID_41_);}
	.st31{clip-path:url(#SVGID_45_);}
	.st32{fill:#B3B3B3;}
	.st33{fill:#006BB5;}
	.st34{fill:#B0B0B0;}
	.st35{fill:#666666;}
	.st36{fill:#BF5E00;}
	.st37{fill:#21B573;}
	.st38{fill:#D6DEDE;}
	.st39{fill:#2E73BA;}
	.st40{fill:#52B594;}
	.st41{clip-path:url(#SVGID_49_);}
	.st42{fill:#00CCAB;}
	.st43{fill:#CCF5ED;}
	.st44{fill:#7894F2;}
	.st45{fill:#009CCC;}
	.st46{fill:#008C8C;}
	.st47{fill:#1CB85C;}
	.st48{fill:#FF9600;}
	.st49{fill:#F7C70A;}
	.st50{fill:#FF6E24;}
	.st51{fill:#66A6D4;}
	.st52{fill:#999999;}
	.st53{fill:#303030;}
	.st54{fill:#F5F5F5;}
	.st55{fill:#BFBFBF;}
	.st56{clip-path:url(#SVGID_53_);}
	.st57{fill:#2E3091;}
	.st58{fill:#BDBDBD;}
	.st59{clip-path:url(#SVGID_57_);}
	.st60{fill:none;stroke:#9E9E9E;stroke-miterlimit:10;}
	.st61{fill:#2E3192;}
	.st62{fill:#D3D3D3;}
	.st63{fill:none;stroke:#B3B3B3;stroke-miterlimit:10;}
	.st64{fill:#DC052B;}
	.st65{clip-path:url(#SVGID_61_);fill:#FFFFFF;}
	.st66{clip-path:url(#SVGID_63_);fill:#FFFFFF;}
	.st67{clip-path:url(#SVGID_65_);fill:#FFFFFF;}
	.st68{clip-path:url(#SVGID_67_);fill:#FFFFFF;}
	.st69{clip-path:url(#SVGID_69_);fill:#FFFFFF;}
	.st70{clip-path:url(#SVGID_71_);fill:#040603;}
	.st71{fill:#040603;}
	.st72{clip-path:url(#SVGID_73_);fill:#040603;}
	.st73{clip-path:url(#SVGID_75_);fill:#040603;}
	.st74{clip-path:url(#SVGID_77_);fill:#040603;}
	.st75{fill:#00428A;}
	.st76{clip-path:url(#SVGID_79_);fill:#113578;}
	.st77{fill:#113578;}
	.st78{clip-path:url(#SVGID_81_);fill:#113578;}
	.st79{clip-path:url(#SVGID_83_);fill:#113578;}
	.st80{clip-path:url(#SVGID_85_);fill:#113578;}
	.st81{clip-path:url(#SVGID_85_);fill:#FFFFFF;}
	.st82{clip-path:url(#SVGID_87_);fill:#FFFFFF;}
	.st83{clip-path:url(#SVGID_89_);}
	.st84{clip-path:url(#SVGID_91_);fill:#00428A;}
	.st85{clip-path:url(#SVGID_91_);fill:#29ABE3;}
	.st86{clip-path:url(#SVGID_93_);}
	.st87{clip-path:url(#SVGID_97_);fill:#00428A;}
	.st88{clip-path:url(#SVGID_97_);fill:#29ABE3;}
	.st89{clip-path:url(#SVGID_99_);}
	.st90{opacity:0.5;clip-path:url(#SVGID_103_);}
	.st91{clip-path:url(#SVGID_107_);fill:#DB0030;}
	.st92{clip-path:url(#SVGID_109_);fill:#DB0030;}
	.st93{clip-path:url(#SVGID_111_);}
	.st94{clip-path:url(#SVGID_115_);fill:#00428A;}
	.st95{clip-path:url(#SVGID_115_);fill:#29ABE3;}
	.st96{opacity:0.5;clip-path:url(#SVGID_115_);}
	.st97{clip-path:url(#SVGID_117_);fill:#DB0030;}
	.st98{clip-path:url(#SVGID_119_);}
	.st99{clip-path:url(#SVGID_123_);fill:#00428A;}
	.st100{clip-path:url(#SVGID_123_);fill:#29ABE3;}
	.st101{opacity:0.5;clip-path:url(#SVGID_123_);}
	.st102{clip-path:url(#SVGID_125_);fill:#DB0030;}
	.st103{clip-path:url(#SVGID_127_);}
	.st104{clip-path:url(#SVGID_129_);}
	.st105{clip-path:url(#SVGID_133_);fill:#004289;}
	.st106{clip-path:url(#SVGID_133_);fill:#29AAE2;}
	.st107{opacity:0.5;clip-path:url(#SVGID_133_);}
	.st108{clip-path:url(#SVGID_135_);fill:#DA0030;}
	.st109{clip-path:url(#SVGID_137_);}
	.st110{clip-path:url(#SVGID_141_);}
	.st111{clip-path:url(#SVGID_145_);fill:#004289;}
	.st112{clip-path:url(#SVGID_145_);fill:#29AAE2;}
	.st113{opacity:0.5;clip-path:url(#SVGID_145_);}
	.st114{clip-path:url(#SVGID_147_);fill:#DA0030;}
	.st115{clip-path:url(#SVGID_145_);}
	.st116{clip-path:url(#SVGID_149_);}
	.st117{clip-path:url(#SVGID_151_);fill:#DA0030;}
	.st118{clip-path:url(#SVGID_153_);fill:#29ABE3;}
	.st119{clip-path:url(#SVGID_153_);fill:#00428A;}
	.st120{fill:#5A5A5A;}
	.st121{fill:#0069B8;}
	.st122{fill:none;stroke:#989898;stroke-miterlimit:10;}
	.st123{clip-path:url(#SVGID_155_);}
	.st124{clip-path:url(#SVGID_159_);}
	.st125{clip-path:url(#SVGID_161_);}
	.st126{clip-path:url(#SVGID_163_);}
	.st127{fill:none;stroke:#CBCBCB;stroke-width:2;stroke-miterlimit:10;}
	.st128{fill:#989898;}
	.st129{clip-path:url(#SVGID_167_);}
	.st130{fill:none;stroke:#B2B2B2;stroke-miterlimit:10;}
	.st131{fill:#D6DCDC;}
	.st132{fill-rule:evenodd;clip-rule:evenodd;fill:#0069B8;}
	.st133{fill-rule:evenodd;clip-rule:evenodd;fill:#FFFFFF;}
	.st134{fill-rule:evenodd;clip-rule:evenodd;fill:none;stroke:#B2B2B2;stroke-miterlimit:10;}
	.st135{fill:#D4DCDC;}
	.st136{opacity:0.5;}
	.st137{clip-path:url(#SVGID_169_);}
	.st138{fill:none;stroke:#4D4D4D;stroke-width:2;stroke-miterlimit:10;}
	.st139{fill-rule:evenodd;clip-rule:evenodd;fill:none;stroke:#4D4D4D;stroke-width:2;stroke-miterlimit:10;}
	.st140{fill:none;stroke:#333333;stroke-width:2;stroke-miterlimit:10;}
	.st141{fill:none;stroke:#A1A1A1;stroke-width:3;stroke-miterlimit:10;}
	.st142{clip-path:url(#SVGID_171_);}
	.st143{clip-path:url(#SVGID_173_);}
	.st144{fill:url(#SVGID_174_);}
	.st145{fill:url(#SVGID_175_);}
	.st146{fill:#F4F4F4;}
	.st147{fill:#DFDFDF;}
	.st148{clip-path:url(#SVGID_177_);}
	.st149{clip-path:url(#SVGID_179_);}
	.st150{opacity:0.38;fill:#FFFFFF;}
	.st151{fill:none;stroke:#FFFFFF;stroke-miterlimit:10;stroke-dasharray:4,4;}
	.st152{fill:#004288;}
	.st153{fill:#FAFAFA;}
	.st154{fill:#7AE2DF;}
	.st155{fill:#29A9E1;}
	.st156{fill:none;stroke:#004288;stroke-width:2;stroke-miterlimit:10;}
	.st157{fill:none;stroke:#004288;stroke-width:3;stroke-miterlimit:10;}
	.st158{opacity:4.000000e-02;}
	.st159{fill:url(#SVGID_180_);}
	.st160{fill:url(#SVGID_181_);}
	.st161{fill:none;stroke:#D6DCDC;stroke-width:2;stroke-miterlimit:10;}
	.st162{fill:#AEAEAE;}
	.st163{fill:none;stroke:#0069B8;stroke-width:2;stroke-miterlimit:10;}
	.st164{fill:#FF5039;}
	.st165{fill:#00CCAA;}
	.st166{fill:url(#SVGID_182_);}
	.st167{fill:url(#SVGID_183_);}
	.st168{fill:none;stroke:#0069B8;stroke-miterlimit:10;}
	.st169{fill:#207DC1;}
	.st170{fill:#98E2FF;}
	.st171{opacity:0.4;fill:#CBCBCB;}
	.st172{fill:#FFE774;}
	.st173{fill:#FCD0F1;}
	.st174{fill:none;stroke:#ABA792;stroke-miterlimit:10;}
	.st175{fill:#ABA792;}
	.st176{fill:none;stroke:#FFE774;stroke-miterlimit:10;}
	.st177{fill:none;stroke:#98E2FF;stroke-miterlimit:10;}
	.st178{fill:none;stroke:#FCD0F1;stroke-miterlimit:10;}
	.st179{fill:#7993F2;}
	.st180{fill:#009BCC;}
	.st181{fill:#10B571;}
	.st182{opacity:0.6;fill:url(#SVGID_184_);}
	.st183{fill:none;stroke:#4D4D4D;stroke-miterlimit:10;stroke-dasharray:3,3;}
	.st184{fill:none;stroke:#FFFFFF;stroke-miterlimit:10;}
	.st185{opacity:0.2;fill:none;stroke:#0069B8;stroke-width:2;stroke-miterlimit:10;}
	.st186{fill-rule:evenodd;clip-rule:evenodd;fill:#D6DCDC;}
	.st187{fill:none;stroke:#207DC1;stroke-width:2;stroke-miterlimit:10;}
	.st188{fill:#E5E5E5;}
	.st189{fill:#EAEAE8;}
	.st190{fill:#FF6166;}
	.st191{fill:#FFC43E;}
	.st192{fill:#4FAA5D;}
	.st193{fill:none;stroke:#0069B8;stroke-width:3;stroke-miterlimit:10;}
	.st194{fill:none;stroke:#48C89F;stroke-width:2;stroke-miterlimit:10;}
	.st195{opacity:0.69;}
	.st196{fill:#F9F9F9;}
	.st197{fill:none;stroke:#E5E5E5;stroke-miterlimit:10;stroke-dasharray:1;}
	.st198{fill:none;stroke:#ABA792;stroke-miterlimit:10;stroke-dasharray:1;}
	.st199{opacity:0.79;}
	.st200{fill:url(#SVGID_185_);}
	.st201{fill:#F5655A;}
	.st202{opacity:0.79;fill:none;stroke:url(#SVGID_186_);stroke-miterlimit:10;stroke-dasharray:1;}
	.st203{fill:none;stroke:#F5655A;stroke-width:2;stroke-miterlimit:10;}
	.st204{fill:none;stroke:#ABA792;stroke-width:2;stroke-miterlimit:10;}
	.st205{fill:#71D2C1;}
	.st206{fill:none;stroke:#D4CEB6;stroke-miterlimit:10;}
	.st207{fill:url(#SVGID_187_);}
	.st208{opacity:0.5;fill:none;stroke:#D4CEB6;stroke-miterlimit:10;}
	.st209{fill:#71D2C1;stroke:#FFFFFF;stroke-miterlimit:10;}
	.st210{fill:#2C74BB;}
	.st211{fill:#7590F5;}
	.st212{fill:#1297CC;}
	.st213{fill:#1A8789;}
	.st214{fill:#30C7A4;}
	.st215{fill:#38B350;}
	.st216{fill:#FC9300;}
	.st217{fill:#F3C400;}
	.st218{fill:#FA6F00;}
	.st219{clip-path:url(#SVGID_189_);}
	.st220{clip-path:url(#SVGID_191_);}
	.st221{clip-path:url(#SVGID_195_);}
	.st222{clip-path:url(#SVGID_199_);}
	.st223{fill:url(#SVGID_202_);}
	.st224{clip-path:url(#SVGID_210_);}
	.st225{fill:#7B8E6A;}
	.st226{fill:url(#SVGID_213_);}
	.st227{clip-path:url(#SVGID_217_);}
	.st228{fill:#3333FF;}
	.st229{clip-path:url(#SVGID_219_);}
	.st230{fill:#B2B2B2;}
	.st231{clip-path:url(#SVGID_223_);}
	.st232{clip-path:url(#SVGID_225_);}
	.st233{fill:#005AA9;}
	.st234{clip-path:url(#SVGID_241_);}
	.st235{clip-path:url(#SVGID_243_);}
	.st236{clip-path:url(#SVGID_247_);}
	.st237{clip-path:url(#SVGID_249_);}
	.st238{clip-path:url(#SVGID_253_);}
	.st239{clip-path:url(#SVGID_257_);}
	.st240{fill:url(#SVGID_260_);}
	.st241{clip-path:url(#SVGID_268_);}
	.st242{fill:url(#SVGID_271_);}
	.st243{clip-path:url(#SVGID_275_);}
	.st244{clip-path:url(#SVGID_277_);}
	.st245{clip-path:url(#SVGID_281_);}
	.st246{clip-path:url(#SVGID_283_);}
	.st247{clip-path:url(#SVGID_299_);}
	.st248{clip-path:url(#SVGID_301_);}
	.st249{clip-path:url(#SVGID_305_);}
	.st250{clip-path:url(#SVGID_307_);}
	.st251{clip-path:url(#SVGID_311_);}
	.st252{clip-path:url(#SVGID_315_);}
	.st253{fill:url(#SVGID_318_);}
	.st254{clip-path:url(#SVGID_326_);}
	.st255{fill:url(#SVGID_329_);}
	.st256{clip-path:url(#SVGID_333_);}
	.st257{clip-path:url(#SVGID_335_);}
	.st258{clip-path:url(#SVGID_339_);}
	.st259{clip-path:url(#SVGID_341_);}
	.st260{clip-path:url(#SVGID_357_);}
	.st261{clip-path:url(#SVGID_359_);}
	.st262{clip-path:url(#SVGID_363_);}
	.st263{opacity:0.4;fill:url(#SVGID_366_);}
	.st264{clip-path:url(#SVGID_368_);}
	.st265{clip-path:url(#SVGID_370_);}
	.st266{fill:url(#SVGID_371_);}
	.st267{fill:url(#SVGID_372_);}
	.st268{fill:#AFAFAF;}
	.st269{fill:url(#SVGID_373_);}
	.st270{fill:url(#SVGID_374_);}
	.st271{fill:url(#SVGID_375_);}
	.st272{fill:url(#SVGID_376_);}
	.st273{clip-path:url(#SVGID_378_);}
	.st274{fill:url(#SVGID_379_);}
	.st275{fill:url(#SVGID_380_);}
	.st276{fill:url(#SVGID_381_);}
	.st277{fill:url(#SVGID_382_);}
	.st278{fill:url(#SVGID_383_);}
	.st279{fill:url(#SVGID_384_);}
	.st280{fill:#EF7357;}
	.st281{fill:none;stroke:#EF7357;stroke-width:3;stroke-linecap:round;stroke-linejoin:round;stroke-miterlimit:10;}
	.st282{fill:none;stroke:#EF7357;stroke-width:3;stroke-miterlimit:10;}
	.st283{fill:none;stroke:#EF7357;stroke-width:2;stroke-miterlimit:10;}
	.st284{fill:none;stroke:#EF7357;stroke-width:7;stroke-linejoin:round;stroke-miterlimit:10;}
	.st285{fill:#D9ECF4;}
	.st286{fill:none;stroke:#FFFFFF;stroke-width:2;stroke-miterlimit:10;}
	.st287{fill-rule:evenodd;clip-rule:evenodd;fill:#EF7357;}
	.st288{fill:url(#SVGID_385_);}
	.st289{fill:url(#SVGID_386_);}
	.st290{fill:url(#SVGID_387_);}
	.st291{fill:url(#SVGID_388_);}
	.st292{opacity:0.6;fill:url(#SVGID_389_);}
	.st293{fill:url(#SVGID_390_);}
	.st294{fill:url(#SVGID_391_);}
	.st295{fill:url(#SVGID_392_);}
	.st296{fill:url(#SVGID_393_);}
	.st297{opacity:0.6;fill:url(#SVGID_394_);}
	.st298{fill:url(#SVGID_395_);}
	.st299{fill:url(#SVGID_396_);}
	.st300{fill:url(#SVGID_397_);}
	.st301{fill:url(#SVGID_398_);}
	.st302{opacity:0.6;fill:url(#SVGID_399_);}
	.st303{fill:#262D71;}
	.st304{fill:#D80033;}
	.st305{clip-path:url(#SVGID_405_);fill:#FFD938;}
	.st306{clip-path:url(#SVGID_405_);fill:#4F2600;}
	.st307{fill:#4F2600;}
	.st308{clip-path:url(#SVGID_407_);fill:#4F2600;}
	.st309{fill:#00ABDE;}
	.st310{fill:#87CCEB;}
	.st311{fill:#00ADDE;}
	.st312{fill:#00A8D9;}
	.st313{fill:#00A1D9;}
	.st314{fill:#40B5E0;}
	.st315{fill:#D4EBF7;}
	.st316{fill:#0DB0DE;}
	.st317{fill:#36383B;}
	.st318{fill:none;stroke:#36383B;stroke-width:0.124;}
	.st319{fill:none;stroke:#EF7357;stroke-width:2;stroke-linecap:round;stroke-miterlimit:10;}
	.st320{clip-path:url(#SVGID_409_);}
	.st321{fill:none;stroke:#333333;stroke-miterlimit:10;}
	.st322{fill:#1E1E1E;}
	.st323{fill:none;stroke:#004288;stroke-miterlimit:10;}
	.st324{fill:none;stroke:#004288;stroke-miterlimit:10;stroke-dasharray:1.9976,1.9976;}
	.st325{fill:none;stroke:#004288;stroke-miterlimit:10;stroke-dasharray:2.0029,2.0029;}
	.st326{fill:#D5E4EF;stroke:#004286;stroke-width:2;stroke-miterlimit:10;}
	.st327{clip-path:url(#SVGID_411_);fill:#FFD938;}
	.st328{clip-path:url(#SVGID_411_);fill:#4F2600;}
	.st329{clip-path:url(#SVGID_413_);fill:#4F2600;}
	.st330{opacity:0.96;fill:url(#SVGID_414_);}
	.st331{clip-path:url(#SVGID_416_);fill:#FFD938;}
	.st332{clip-path:url(#SVGID_416_);fill:#4F2600;}
	.st333{clip-path:url(#SVGID_418_);fill:#4F2600;}
	.st334{fill:none;stroke:#48C89F;stroke-width:3;stroke-linecap:round;stroke-miterlimit:10;}
	.st335{fill:#03306C;}
	.st336{fill:#0389D0;}
	.st337{fill:#57749E;}
	.st338{fill:#F9C6BE;}
	.st339{fill:none;stroke:#FFFFFF;stroke-width:5;stroke-linecap:round;stroke-linejoin:round;stroke-miterlimit:10;}
</style>
<g>
	<path class="st336" d="M83.6,91.8c0.8-2.5,1.6-5,2.4-7.5c2.2-6.8,4.3-13.5,6.5-20.3c0.1-0.4,0.3-0.8,0.3-1.2
		c0.5-1.1,0.5-1.1,1.7-0.7c1.5,0.5,3.1,1,4.6,1.5c-0.8,2.5-1.6,5.1-2.4,7.6c-1.3,4.2-2.6,8.5-4,12.7c-1.5,4.9-3.1,9.8-4.7,14.6
		c-0.2,0.5-0.3,1-0.5,1.5c-1.1-0.6-2.4-0.8-3.6-1.3c-0.6-0.2-1.1-0.4-1.7-0.5c-0.5-0.1-0.7-0.3-0.5-0.9c0.6-1.7,1.1-3.4,1.6-5.1
		C83.5,92.2,83.6,92,83.6,91.8z"/>
	<path class="st23" d="M76.7,17.4c-0.5,0.1-0.2,0.5-0.3,0.8c0,0.3,0,0.6-0.1,0.9c0-0.3,0-0.6,0-0.9c-0.1,0.6-0.6,0.8-1,1.1
		c-0.3-0.5,0.1-0.7,0.3-1c0.6-0.7,1.1-1.5,0.6-2.5c-0.2-0.4-0.5-0.5-0.8-0.7c-0.7-0.7-1.4-1.4-2.1-2.1c-0.1-0.1-0.1-0.3-0.2-0.4
		c0.9-0.2,1.4,0.4,2,1C76.2,14.6,76.7,15.9,76.7,17.4z"/>
	<path class="st23" d="M23.7,36.5c-0.5-0.4-1.2-0.4-1.8-0.7c0.7-0.3,0.2-1.1,0.6-1.5c0.1,0.1,0.1,0.3,0.3,0.5c0-0.4,0.2-0.7-0.3-0.8
		c0-0.2,0-0.3,0-0.5c0.8,0.3,1.6,0.6,2.4,0.9c-0.1,0-0.3,0-0.4,0c-0.5-0.1-1-0.3-1.2,0.4c0,0.2-0.4,0-0.5,0.3
		c0.6,0.3,0.8,0.9,1.2,1.4l0,0C23.9,36.6,23.8,36.5,23.7,36.5z"/>
	<path class="st23" d="M73.5,23.2c-0.1-0.1-0.2-0.2-0.2-0.4c0.3-0.1,0.4,0.1,0.6,0.2C73.8,23.1,73.7,23.2,73.5,23.2z"/>
	<path class="st23" d="M76.3,20.6c0-0.4,0-0.7,0.3-1C76.6,20,76.5,20.3,76.3,20.6z"/>
	<path class="st23" d="M22.5,34c0.5,0.1,0.3,0.4,0.3,0.8c-0.1-0.2-0.2-0.4-0.3-0.5C22.5,34.2,22.5,34.1,22.5,34z"/>
	<path class="st23" d="M76,21.1c-0.1-0.3,0.1-0.4,0.3-0.5C76.3,20.9,76.2,21,76,21.1z"/>
	<path class="st23" d="M74.2,22.9c0.1-0.3,0.3-0.3,0.5-0.3C74.6,22.8,74.4,22.9,74.2,22.9z"/>
	<path class="st23" d="M75.3,22.1c0-0.2,0.1-0.3,0.3-0.4C75.6,21.9,75.5,22,75.3,22.1z"/>
	<path class="st23" d="M76.8,18.5c-0.2-0.2-0.2-0.3,0-0.5C76.8,18.2,76.8,18.3,76.8,18.5z"/>
	<path class="st23" d="M75.8,21.5c0-0.2,0-0.3,0.2-0.4C76,21.3,76,21.5,75.8,21.5z"/>
	<path class="st23" d="M76.7,19.5c-0.1-0.1,0-0.3,0.1-0.4C76.8,19.3,76.7,19.4,76.7,19.5z"/>
	<path class="st23" d="M74.9,22.4c0-0.1,0.1-0.2,0.2-0.1C75,22.3,74.9,22.4,74.9,22.4z"/>
	<path class="st23" d="M68.6,28.7c0.9,2.2,0.3,4.2-2,5.6c-2.4,1.4-5.6,0.5-6.8-1.9c-1.6-3.2-0.5-7,3.2-8.2c1.5-0.5,3-0.5,4.5,0
		c0.8,0.3,1.4,0.7,1.9,1.4c-0.4,0.3-0.9,0.5-1.3,0.8c-0.1,0-0.2,0-0.3,0c0-0.3-0.2-0.4-0.4-0.5c-1.2-0.4-2.3-0.6-3.6-0.3
		c-2,0.5-3.2,2.6-2.8,4.7c0.4,2.1,2,3.3,4.1,3.1c1-0.1,1.9-0.6,2.3-1.6c0.4-1,0.5-1.9-0.2-2.8C67.6,29.2,68.1,28.9,68.6,28.7z"/>
	<path class="st23" d="M13,83.9c0,0-0.1-0.1-0.1-0.1c-0.4-1.2-0.7-2.4-1.1-3.6c0.5,0.1,0.6,0.7,0.8,1c1.6,2.1,4.5,1.9,5.7-0.5
		c0.5-1,0-2.4-0.9-3c-0.9-0.6-1.9-0.5-2.6,0.3c-0.6,0.6-0.5,1.8,0.1,2.3c0.3,0.2,0.5,0.3,0.8,0.1C16,80.3,16,80,16,79.8
		c0-0.5,0.1-1,0.7-0.9c0.6,0.1,0.6,0.6,0.6,1.1c-0.1,1.2-1.5,1.7-2.8,1.2c-1.6-0.6-1.7-2.9-1-3.9c0.9-1.3,2.4-1.8,3.8-1.4
		c1.6,0.5,2.6,1.9,2.7,3.6c0.2,2.9-2.9,5.1-5.6,4.6C13.8,83.9,13.4,83.8,13,83.9z"/>
	<path class="st23" d="M10.4,76c0,0,0-0.1,0-0.1c1.5-2,3.5-3,6-3c4.1,0.1,6,4.1,5.5,6.9c-0.2,1.1-0.6,2-1.3,2.7
		c-0.2,0.2-0.4,0.5-0.7,0.2c-0.3-0.2,0-0.4,0.1-0.6c0.8-1.7,1.2-3.4,0.2-5.2c-0.7-1.5-3-2.6-4.8-2.4c-1.9,0.3-3.4,1.7-3.7,3.4
		c-0.1,0.5,0.1,1-0.2,1.4C11.2,78.3,10.8,77.1,10.4,76z"/>
	<g>
		<path class="st336" d="M11.6,100c-0.9-2.2-1.5-4.5-2.2-6.7c-1.4-4.2-2.7-8.5-4-12.7C4,76.5,2.7,72.4,1.4,68.4
			c-0.5-1.6-1-3.1-1.4-4.7c1.6-0.5,3.2-1,4.8-1.5c1.1-0.3,1.1-0.3,1.5,0.7c0.8,2.7,1.7,5.4,2.5,8.2c0.5,1.7,1.1,3.3,1.6,5
			c0,0,0,0.1,0,0.1c-0.1,0.4-0.2,0.8-0.3,1.3c-0.4,2.1-0.1,3.9,1.5,5.4c0.4,0.4,0.8,0.7,1.2,1c0,0,0.1,0.1,0.1,0.1
			c0.7,2.3,1.5,4.6,2.2,7c0.7,2.2,1.4,4.4,2.1,6.6c0.2,0.6,0.1,0.8-0.5,1C15,98.9,13.3,99.5,11.6,100z"/>
		<path class="st336" d="M10.4,76c0.4,1.1,0.8,2.2,1.2,3.4c0.1,0.2,0.1,0.5,0.2,0.7c0.4,1.2,0.7,2.4,1.1,3.6c-0.4-0.3-0.9-0.6-1.2-1
			c-1.6-1.5-1.9-3.4-1.5-5.4C10.2,76.9,10.3,76.4,10.4,76z"/>
	</g>
	<path class="st23" d="M70.6,27.5c0.8,1.6,0.7,3.2-0.2,4.8c-0.2,0.4-0.4,0.9-0.8,1.2c-0.2,0.1-0.4,0.3-0.6,0.2
		c-0.2-0.1-0.1-0.3,0-0.5c0.1-0.3,0.1-0.6,0.3-0.8c0.9-1.4,0.6-2.7,0.2-4.1C69.8,27.8,70.2,27.7,70.6,27.5z"/>
	<path class="st23" d="M24.9,34.4c1.4,0.5,2.8,1,4.3,1.5c-0.8,0.5-1.3-0.3-2-0.4C26.4,35.4,25.6,35,24.9,34.4z"/>
	<path class="st23" d="M80.4,51c-0.4-1.8-1.4-2.7-3.2-2.7c-1.7,0.4-3.3,0.8-5,1.1c-0.6,0.1-1.1-0.2-1.2-0.8c-0.1-0.6,0-1.1,0.7-1.3
		c1.7-0.5,3.4-0.8,5.1-1.1c1.9-0.5,2.8-1.9,3-3.8c0.1-1.1-0.1-2.2-0.5-3.1c-0.3-0.6-0.7-1.3-1.2-1.7c-0.8-0.8-1.8-0.6-2.8-0.1
		c-1.7,1-3.5,1.7-5.3,2.5c-0.6,0.3-1.2,0-1.5-0.6c-0.3-0.6-0.1-1.1,0.4-1.4c2-1,3.9-2,6-2.8c1-0.6,2-1,2.6-2c0.9-1.6,0.9-3.3,0.4-5
		c-0.1-0.5-0.4-1-0.7-1.5c-1-1.5-1.9-1.7-3.9-0.8c-0.9,0.6-1.9,1.2-2.9,1.6c0,0,0,0.1,0,0.1c0.8,1.6,0.7,3.2-0.2,4.8
		c-0.2,0.4-0.4,0.9-0.8,1.2c-0.2,0.1-0.4,0.3-0.6,0.2c-0.2-0.1-0.1-0.3,0-0.5c0.1-0.3,0.1-0.6,0.3-0.8c0.9-1.4,0.6-2.7,0.2-4.1
		c0,0-0.1,0-0.1,0c-0.2,0.2-0.5,0.3-0.7,0.4c0,0,0,0.1-0.1,0.1c0.9,2.2,0.3,4.2-2,5.6c-2.4,1.4-5.6,0.5-6.8-1.9
		c-1.6-3.2-0.5-7,3.2-8.2c1.5-0.5,3-0.5,4.5,0c0.8,0.3,1.4,0.7,1.9,1.4c0.1,0,0.1,0,0.2,0c1.1-0.8,2.4-1.5,3.6-2
		c0.1-0.1,0.2-0.2,0.4-0.3c-0.1-0.1-0.2-0.2-0.2-0.4c0.3-0.1,0.4,0.1,0.6,0.2c0.1,0,0.2-0.1,0.2-0.1c0.1-0.3,0.3-0.3,0.5-0.3
		c0.1,0,0.1-0.1,0.2-0.1c0-0.1,0.1-0.2,0.2-0.1c0.1-0.1,0.2-0.1,0.3-0.2c0-0.2,0.1-0.3,0.3-0.4c0.1-0.1,0.1-0.1,0.2-0.2
		c0-0.2,0-0.3,0.2-0.4c0,0,0,0,0,0c-0.1-0.3,0.1-0.4,0.3-0.5c0,0,0,0,0,0c0-0.4,0-0.7,0.3-1c0,0,0-0.1,0-0.1c-0.1-0.1,0-0.3,0.1-0.4
		c0-0.2,0-0.4,0-0.6c-0.2-0.2-0.2-0.3,0-0.5c0-0.2,0-0.4,0-0.6c-0.5,0.1-0.2,0.5-0.3,0.8c0,0.3,0,0.6-0.1,0.9c0-0.3,0-0.6,0-0.9
		c-0.1,0.6-0.6,0.8-1,1.1c-0.3-0.5,0.1-0.7,0.3-1c0.6-0.7,1.1-1.5,0.6-2.5c-0.2-0.4-0.5-0.5-0.8-0.7c-0.7-0.7-1.4-1.4-2.1-2.1
		c-0.1-0.1-0.1-0.3-0.2-0.4c-0.8,0.1-1.6,0-2.4,0.3c-1.7,0.6-3.3,1.3-5,1.7c-1.6,0.8-3.3,1.2-5,1.8c-2.6,0.9-5.2,1.8-7.8,2.7
		c-0.5,0.2-1,0.3-1.6,0.2c-0.3,0.1-0.6,0-0.8-0.3c-0.6-0.2-0.8-0.7-1-1.2c-0.4-0.8-0.7-1.7-1-2.5c-0.1-0.3-0.3-0.6-0.4-0.9
		c-0.3-0.8-0.2-0.9,0.7-0.8c-0.1-0.7-0.5-0.9-1.1-0.8c-1.7,0.3-3.4,0.5-5.1,0.7c-2,0.2-3.9-0.4-5.4-1.7c-1.4-1.3-1.3-2.9,0.2-4.1
		c1.5-1.2,3.3-1.8,4.9-2.7c1.2-0.7,2.4-1.3,3.7-1.9c-1.8-1.2-3.6-2.2-5.6-2.9c-1.3-0.5-2.6-0.1-3.4,1.2c-2.6,3.9-5.1,7.9-7.6,11.8
		c0.5,0.3,1,0.6,1.5,0.9c0.2,0.1,0.4,0.2,0.6,0.3c4.5,2.4,9,4.8,13.4,7.2c0.6,0.3,1.2,0.7,1.8,1c0.1,0,0.1,0.1,0.2,0.1l0,0
		c0.2,0,0.3,0.1,0.4,0.3c0.1,0,0.2,0.1,0.3,0.1c0,0,0.1,0.1,0.1,0.1c1.7,1.5,2.3,3.7,1.4,5.6c-0.8,1.7-2.8,2.5-4.7,1.8
		c-1.1-0.4-2.2-1-3.3-1.5c-0.2,0-0.4-0.1-0.5-0.2c-3.2-1.4-6.4-2.8-9.7-4.3c-2.1-0.9-4.2-1.8-6.3-2.7c-0.2,0.8-0.3,1.6-0.5,2.4
		c2.9,1.3,5.8,2.6,8.7,4c1.9,0.9,3.8,1.8,5.7,2.6c0.3,0.1,0.6,0.1,0.8,0.3c1.7,0.7,3.3,1.4,5,2.2c2.6,1.3,2.9,4.7,0.6,6.3
		C44,40.5,43,40.6,42,40.3c-2.9-1-5.9-2-8.8-3.1c-0.3,0-0.7-0.1-0.9-0.3c-1-0.3-2-0.7-3.1-1c-0.8,0.5-1.3-0.3-2-0.4
		c-0.8-0.1-1.6-0.5-2.3-1.1l0,0c-0.1,0-0.3,0-0.4,0c-0.5-0.1-1-0.3-1.2,0.4c0,0.2-0.4,0-0.5,0.3c0.6,0.3,0.8,0.9,1.2,1.4
		c2.2,0.8,4.3,1.6,6.5,2.3c0.3,0,0.5,0.1,0.7,0.3c2.1,0.7,4.1,1.4,6.2,2.2c1.3,0.5,2.7,0.9,4,1.5c0.8,0.4,1.4,0.9,1.8,1.7
		c1.2,2.2-0.1,4.5-2.6,4.7c-1.9,0.1-3.6-0.4-5.3-1.1c-0.3-0.1-0.7,0.1-0.9-0.2c-2-0.3-3.9-0.9-5.8-1.4c-1.3-0.3-2.5-0.6-3.8-0.9
		c-0.1,0-0.3,0-0.3-0.1c-1.2-0.3-2.4-0.5-3.6-0.8c-0.1,0.7-0.2,1.5-0.3,2.2c0.5,0.1,1,0.3,1.5,0.4c0.2,0.1,0.4,0.1,0.7,0.2
		c0.1,0,0.2,0,0.3,0.1c0,0,0.1,0,0.1,0c2.8,0.7,5.6,1.3,8.3,2c2,0.5,3.9,1,5.9,1.5c0.7,0.2,1.4,0.4,1.9,0.9c0.9,0.5,1.4,1.3,1.3,2.3
		c-0.1,1-0.7,1.5-1.5,1.8c-0.5,0.2-1.1,0.4-1.7,0.3c-2.5,0-5-0.4-7.4-0.6c-3.2-0.3-6.4-0.6-9.5-0.9c-0.4,0-0.8-0.1-1.2-0.2
		c0,1.2-0.4,2.2-1,3.2c-0.6,1.1-1.5,1.9-2.8,2.2c-3,0.9-6,1.8-9,2.6c0.8,2.7,1.7,5.4,2.5,8.2c0.5,1.7,1.1,3.3,1.6,5c1.5-2,3.5-3,6-3
		c4.1,0.1,6,4.1,5.5,6.9c-0.2,1.1-0.6,2-1.3,2.7c-0.2,0.2-0.4,0.5-0.7,0.2c-0.3-0.2,0-0.4,0.1-0.6c0.8-1.7,1.2-3.4,0.2-5.2
		c-0.7-1.5-3-2.6-4.8-2.4c-1.9,0.3-3.4,1.7-3.7,3.4c-0.1,0.5,0.1,1-0.2,1.4c0.1,0.2,0.1,0.5,0.2,0.7c0.5,0.1,0.6,0.7,0.8,1
		c1.6,2.1,4.5,1.9,5.7-0.5c0.5-1,0-2.4-0.9-3c-0.9-0.6-1.9-0.5-2.6,0.3c-0.6,0.6-0.5,1.8,0.1,2.3c0.3,0.2,0.5,0.3,0.8,0.1
		C16,80.3,16,80,16,79.8c0-0.5,0.1-1,0.7-0.9c0.6,0.1,0.6,0.6,0.6,1.1c-0.1,1.2-1.5,1.7-2.8,1.2c-1.6-0.6-1.7-2.9-1-3.9
		c0.9-1.3,2.4-1.8,3.8-1.4c1.6,0.5,2.6,1.9,2.7,3.6c0.2,2.9-2.9,5.1-5.6,4.6c-0.4-0.1-0.8-0.2-1.3-0.1c0.7,2.3,1.5,4.6,2.2,7
		c0.2-0.1,0.3-0.1,0.5-0.2c6.3-3.1,12.6-6,18.9-9.2c3.7-1.9,7.6-2.5,11.7-2c0.5,0,1.1,0,1.6,0c1.9,0.1,3.6-0.6,5.1-1.8
		c6.1-5.2,12.3-10.3,18.5-15.4c0.4-0.3,0.7-0.8,1.2-0.9c0-0.1,0.1-0.2,0.2-0.2c1.9-1.6,3.7-3.2,5.6-4.7C80.2,54.9,80.8,53.1,80.4,51
		z"/>
	<path class="st23" d="M66.8,27c0.1,0,0.1,0,0.2,0c0.2-0.2,0.5-0.4,0.7-0.5c0-0.3-0.2-0.4-0.4-0.5c-1.2-0.4-2.3-0.6-3.6-0.3
		c-2,0.5-3.2,2.6-2.8,4.7c0.4,2.1,2,3.3,4.1,3.1c1-0.1,1.9-0.6,2.3-1.6c0.4-1,0.5-1.9-0.2-2.8c-0.2-0.2-0.4-0.4-0.6-0.6
		c-1.2-0.5-1.9-0.4-2.6,0.4c-0.7,0.7-0.4,2.2,0.5,2.5c0.6,0.2,1-0.1,0.8-0.7c-0.1-0.5,0-0.9,0.5-0.9c0.6-0.1,0.7,0.3,0.8,0.8
		c0,1-1.1,2-2.1,1.7c-0.9-0.2-1.7-0.6-2-1.7c-0.3-1.2-0.2-2.2,0.8-3.1C64.1,26.5,65.4,26.4,66.8,27z"/>
	<path class="st23" d="M66.4,28.4c-1.2-0.5-1.9-0.4-2.6,0.4c-0.7,0.7-0.4,2.2,0.5,2.5c0.6,0.2,1-0.1,0.8-0.7c-0.1-0.5,0-0.9,0.5-0.9
		c0.6-0.1,0.7,0.3,0.8,0.8c0,1-1.1,2-2.1,1.7c-0.9-0.2-1.7-0.6-2-1.7c-0.3-1.2-0.2-2.2,0.8-3.1c1.1-1,2.4-1.2,3.8-0.6
		C66.4,27.4,66.2,27.8,66.4,28.4z"/>
	<g>
		<path class="st338" d="M83.1,60.1c-0.1,0-0.2-0.1-0.3-0.1c-0.4-0.2-0.7-0.4-1.1-0.5c-1.4-0.7-2.7-1.5-3.3-3.1
			c-1.9,1.6-3.7,3.2-5.6,4.7c-0.1,0-0.2,0.1-0.2,0.2c-0.5,0.1-0.8,0.6-1.2,0.9c-6.2,5.1-12.4,10.3-18.5,15.4
			c-1.5,1.3-3.1,1.9-5.1,1.8c-0.5,0-1.1,0-1.6,0c0.9,0.6,2,0.5,3,0.6c1.4,0.1,2.8,0,4.2,0c2.3,0,4.5,0.7,6.6,1.7
			c0.2,0.2,0.5,0.2,0.8,0.3c4.5,2.1,9.1,4,13.7,5.9c0.3,0.3,0.7,0.4,1.1,0.5c0.7,0.4,1.5,0.7,2.3,1c0.2,0.1,0.4,0.3,0.7,0.3
			c1.6,0.7,3.2,1.4,4.9,2.1c0.8-2.5,1.6-5,2.4-7.5c2.2-6.8,4.3-13.5,6.5-20.3c0.1-0.4,0.3-0.8,0.3-1.2C89.6,61.9,86.3,61,83.1,60.1z
			 M77.9,65.2c0-0.1,0.1-0.2,0.2-0.3l0,0C78,65.1,77.9,65.1,77.9,65.2c-0.1,0.2-0.1,0.3-0.1,0.5C77.8,65.6,77.8,65.4,77.9,65.2z
			 M78.3,66.6c-0.1-0.1-0.3-0.3-0.3-0.4C78,66.3,78.1,66.4,78.3,66.6z M76.3,66.7L76.3,66.7L76.3,66.7
			C76.3,66.8,76.3,66.7,76.3,66.7z"/>
		<path class="st338" d="M37.1,11.8c1.5,1.4,3.4,1.9,5.4,1.7c1.7-0.2,3.4-0.4,5.1-0.7c0.7-0.1,1.1,0.1,1.1,0.8
			c-0.8-0.1-1,0.1-0.7,0.8c0.1,0.3,0.3,0.6,0.4,0.9c0.3,0.8,0.7,1.7,1,2.5c0.2,0.5,0.5,1,1,1.2l0,0c0.2,0.2,0.5,0.3,0.8,0.3
			c0.6,0.1,1.1-0.1,1.6-0.2c2.6-0.9,5.2-1.8,7.8-2.7c1.7-0.6,3.4-1,5-1.8c-1.4-1.8-2.8-3.7-4.3-5.4c0-0.1-0.1-0.1-0.1-0.2l0,0
			c0,0-0.1-0.1-0.1-0.1c0-0.1-0.1-0.1-0.1-0.2v0c-0.1-0.1-0.2-0.3-0.3-0.4C59,6.1,57.3,4,55.7,1.8c-1.6-2-2.8-2.3-5-1.1
			c-1.6,0.8-3.2,1.6-4.8,2.4c-1.2,0.6-2.5,1.3-3.7,1.9c-1.6,0.9-3.4,1.5-4.9,2.7C35.8,8.9,35.7,10.6,37.1,11.8z"/>
		<path class="st338" d="M22.7,21.1c0.6,0.2,1.2,0.6,1.8,0.9c2.1,0.9,4.2,1.8,6.3,2.7c3.2,1.4,6.4,2.8,9.7,4.3c0,0,0,0,0,0
			c0.1,0.1,0.3,0.2,0.5,0.2c1.1,0.5,2.2,1.1,3.3,1.5c1.9,0.7,3.8-0.1,4.7-1.8c0.9-1.9,0.4-4.1-1.4-5.6c0,0-0.1,0-0.1-0.1
			c-0.1,0-0.2-0.1-0.3-0.1c-0.1-0.2-0.2-0.3-0.4-0.3c0,0,0,0,0,0c-0.1,0-0.1-0.1-0.2-0.1c-0.6-0.3-1.2-0.7-1.8-1
			c-4.5-2.4-9-4.8-13.4-7.2l0,0c-0.2-0.1-0.4-0.2-0.6-0.3c-0.5-0.3-1-0.6-1.5-0.9c-1.5-0.8-3-1.6-4.5-2.4c-0.8-0.4-1.6-0.6-2.5-0.3
			c-0.3,0-0.5,0.1-0.6,0.3c-1.6,1-2.2,2.6-2.4,4.3C18.9,17.8,20,20.2,22.7,21.1z"/>
		<path class="st338" d="M68.6,39.3c0.3,0.6,0.8,0.9,1.5,0.6c1.8-0.8,3.6-1.6,5.3-2.5c-0.1-0.7-0.2-1.5-0.3-2.2c-2,0.8-4,1.8-6,2.8
			C68.5,38.2,68.4,38.7,68.6,39.3z"/>
		<path class="st338" d="M70.9,48.6c0.1,0.6,0.6,0.9,1.2,0.8c1.7-0.3,3.3-0.7,5-1.1c-0.1-0.7-0.2-1.4-0.3-2.1
			c-1.7,0.3-3.4,0.6-5.1,1.1C71,47.5,70.8,48,70.9,48.6z"/>
		<path class="st338" d="M41.5,42.8c-1.3-0.6-2.6-1-4-1.5c-2.1-0.7-4.1-1.4-6.2-2.2l0,0c-0.2-0.2-0.4-0.3-0.7-0.3
			c-2.2-0.8-4.3-1.6-6.5-2.3l0,0c-0.1,0-0.3-0.1-0.4-0.1c-0.5-0.4-1.2-0.4-1.8-0.7c-0.6-0.2-1.2-0.4-1.8-0.6
			c-0.8-0.2-1.6-0.1-2.2,0.4c-2.1,1.7-2.3,5.6-0.3,7.5c0.9,0.9,2.1,1.1,3.2,1.5c1.2,0.3,2.4,0.5,3.6,0.8c0.1-0.4,0.3-0.6,0.6-0.8
			c-0.3,0.2-0.5,0.4-0.6,0.8c0.1,0.1,0.2,0.2,0.3,0.1c1.3,0.3,2.5,0.7,3.8,0.9c2,0.4,3.9,1,5.8,1.4l0,0c0.3,0.3,0.6,0.1,0.9,0.2
			c1.7,0.7,3.4,1.2,5.3,1.1c2.5-0.2,3.8-2.5,2.6-4.7C42.9,43.7,42.2,43.2,41.5,42.8z M27.5,40.3L27.5,40.3c-0.3-0.1-0.6-0.3-0.8-0.5
			C27,40,27.2,40.2,27.5,40.3C27.5,40.3,27.5,40.3,27.5,40.3z"/>
		<path class="st338" d="M44.2,33.6c-1.6-0.8-3.3-1.5-5-2.2c-0.2-0.2-0.5-0.3-0.8-0.3c-1.9-0.9-3.8-1.8-5.7-2.6
			c-2.9-1.3-5.8-2.6-8.7-4c-0.6-0.2-1.2-0.5-1.7-0.7c-1-0.3-1.9-0.1-2.7,0.5c-0.5,0.5-0.9,1.1-1.2,1.8c-0.1,0.2-0.1,0.3-0.2,0.5
			c-1,2.7,0,5.9,2.9,6.6c0.5,0.1,0.9,0.3,1.4,0.5c0.8,0.3,1.6,0.6,2.4,0.9c0,0,0,0,0,0c1.4,0.5,2.8,1,4.3,1.5c1,0.3,2,0.7,3.1,1l0,0
			c0.3,0.2,0.6,0.3,0.9,0.3c2.9,1,5.9,2.1,8.8,3.1c0.9,0.3,1.9,0.2,2.8-0.4C47.1,38.3,46.8,34.9,44.2,33.6z"/>
		<path class="st338" d="M39.3,51.9c-0.5-0.5-1.2-0.8-1.9-0.9c-2-0.5-3.9-1-5.9-1.5c-2.8-0.7-5.6-1.3-8.3-2c0,0-0.1,0-0.1,0
			c-0.1,0-0.2,0-0.3-0.1c-1.7,1.7-3.4,3.4-5.1,5.1c1.7-1.7,3.4-3.4,5.1-5.1c-0.2-0.1-0.4-0.1-0.7-0.2c-0.5-0.1-1-0.3-1.5-0.4
			c-0.3-0.1-0.7-0.1-1-0.2C18,46.2,17,46.7,16.3,48c-0.8,1.7-0.8,3.3,0.3,4.9c0.1,0.3,0.2,0.5,0.5,0.6c0.5,0.6,1.3,0.9,2,1.2
			c0.4,0.1,0.8,0.1,1.2,0.2c3.2,0.3,6.4,0.6,9.5,0.9c2.5,0.2,5,0.6,7.4,0.6c0.6,0.2,1.2-0.1,1.7-0.3c0.8-0.3,1.5-0.9,1.5-1.8
			C40.7,53.2,40.2,52.4,39.3,51.9z M39.8,53L39.8,53C39.8,53,39.8,53,39.8,53L39.8,53z"/>
		<path class="st338" d="M67,29c0.6,0.1,1.1-0.2,1.6-0.3c0,0,0-0.1,0.1-0.1c0.3-0.1,0.5-0.2,0.7-0.4c-0.2-0.6-0.5-1-0.9-1.4
			c0.4,0.4,0.7,0.8,0.9,1.4c0,0,0.1,0,0.1,0c0.2-0.4,0.7-0.5,1.1-0.6c0,0,0-0.1,0-0.1c1-0.4,2-1,2.9-1.6c-0.1-0.7-0.2-1.5-0.4-2.2
			c-1.3,0.6-2.5,1.2-3.6,2c0,0,0,0,0,0c-0.1,0-0.1,0-0.2,0c-0.4,0.3-0.9,0.5-1.3,0.8c0,0,0,0,0,0c-0.1,0-0.2,0-0.3,0
			c-0.2,0.2-0.5,0.4-0.7,0.5c0.3,0.2,0.6,0.5,0.8,0.8c0.1,0.1,0.2,0.3,0.4,0.4c-0.1-0.1-0.3-0.3-0.4-0.4c-0.3-0.3-0.5-0.6-0.8-0.8
			c-0.1,0-0.1,0-0.2,0c-0.4,0.4-0.6,0.9-0.4,1.5C66.6,28.6,66.8,28.8,67,29z"/>
	</g>
</g>
</svg>
