<?xml version="1.0" encoding="utf-8"?>
<!-- Generator: Adobe Illustrator 19.1.0, SVG Export Plug-In . SVG Version: 6.00 Build 0)  -->
<svg version="1.1" id="Ebene_1" xmlns="http://www.w3.org/2000/svg" xmlns:xlink="http://www.w3.org/1999/xlink" x="0px" y="0px"
	 viewBox="0 0 134.3 41.5" style="enable-background:new 0 0 134.3 41.5;" xml:space="preserve">
<style type="text/css">
	.st0{fill:#F7EDE1;}
	.st1{clip-path:url(#SVGID_2_);}
	.st2{fill:#D7ECF5;}
	.st3{clip-path:url(#SVGID_4_);}
	.st4{opacity:0.4;fill:url(#SVGID_7_);}
	.st5{clip-path:url(#SVGID_9_);}
	.st6{clip-path:url(#SVGID_11_);}
	.st7{fill:#006BB6;}
	.st8{fill:none;stroke:#006BB6;stroke-width:3;stroke-miterlimit:10;}
	.st9{opacity:0.9;fill:#FFFFFF;}
	.st10{fill:none;stroke:#989898;stroke-width:0.7068;stroke-miterlimit:10;stroke-dasharray:3.0116,3.0116;}
	.st11{fill:#074487;}
	.st12{fill:#CBCBCB;}
	.st13{fill:#0B24FA;}
	.st14{fill:#2CFFFD;}
	.st15{fill:#33ABE0;}
	.st16{clip-path:url(#SVGID_13_);}
	.st17{clip-path:url(#SVGID_15_);}
	.st18{clip-path:url(#SVGID_17_);}
	.st19{clip-path:url(#SVGID_19_);}
	.st20{clip-path:url(#SVGID_23_);}
	.st21{clip-path:url(#SVGID_27_);}
	.st22{clip-path:url(#SVGID_31_);}
	.st23{clip-path:url(#SVGID_35_);}
	.st24{fill:#FFFFFF;}
	.st25{fill:#0000FF;}
	.st26{fill:none;}
	.st27{fill:#333333;}
	.st28{fill:#4D4D4D;}
	.st29{clip-path:url(#SVGID_39_);}
	.st30{fill:#E6E6E6;}
	.st31{clip-path:url(#SVGID_43_);}
	.st32{clip-path:url(#SVGID_47_);}
	.st33{fill:#B3B3B3;}
	.st34{fill:#006BB5;}
	.st35{fill:#B0B0B0;}
	.st36{fill:#666666;}
	.st37{fill:#BF5E00;}
	.st38{fill:#21B573;}
	.st39{fill:#D6DEDE;}
	.st40{fill:#2E73BA;}
	.st41{fill:#52B594;}
	.st42{clip-path:url(#SVGID_51_);}
	.st43{fill:#00CCAB;}
	.st44{fill:#CCF5ED;}
	.st45{fill:#7894F2;}
	.st46{fill:#009CCC;}
	.st47{fill:#008C8C;}
	.st48{fill:#1CB85C;}
	.st49{fill:#FF9600;}
	.st50{fill:#F7C70A;}
	.st51{fill:#FF6E24;}
	.st52{fill:#66A6D4;}
	.st53{fill:#999999;}
	.st54{fill:#303030;}
	.st55{fill:#F5F5F5;}
	.st56{fill:#BFBFBF;}
	.st57{clip-path:url(#SVGID_55_);}
	.st58{fill:#2E3091;}
	.st59{fill:#BDBDBD;}
	.st60{clip-path:url(#SVGID_59_);}
	.st61{fill:none;stroke:#9E9E9E;stroke-miterlimit:10;}
	.st62{fill:#2E3192;}
	.st63{fill:#D3D3D3;}
	.st64{fill:none;stroke:#B3B3B3;stroke-miterlimit:10;}
	.st65{fill:#DC052B;}
	.st66{clip-path:url(#SVGID_63_);fill:#FFFFFF;}
	.st67{clip-path:url(#SVGID_65_);fill:#FFFFFF;}
	.st68{clip-path:url(#SVGID_67_);fill:#FFFFFF;}
	.st69{clip-path:url(#SVGID_69_);fill:#FFFFFF;}
	.st70{clip-path:url(#SVGID_71_);fill:#FFFFFF;}
	.st71{clip-path:url(#SVGID_73_);fill:#040603;}
	.st72{fill:#040603;}
	.st73{clip-path:url(#SVGID_75_);fill:#040603;}
	.st74{clip-path:url(#SVGID_77_);fill:#040603;}
	.st75{clip-path:url(#SVGID_79_);fill:#040603;}
	.st76{fill:#00428A;}
	.st77{clip-path:url(#SVGID_81_);fill:#113578;}
	.st78{fill:#113578;}
	.st79{clip-path:url(#SVGID_83_);fill:#113578;}
	.st80{clip-path:url(#SVGID_85_);fill:#113578;}
	.st81{clip-path:url(#SVGID_87_);fill:#113578;}
	.st82{clip-path:url(#SVGID_87_);fill:#FFFFFF;}
	.st83{clip-path:url(#SVGID_89_);fill:#FFFFFF;}
	.st84{clip-path:url(#SVGID_91_);}
	.st85{clip-path:url(#SVGID_93_);fill:#00428A;}
	.st86{clip-path:url(#SVGID_93_);fill:#29ABE3;}
	.st87{clip-path:url(#SVGID_95_);}
	.st88{clip-path:url(#SVGID_99_);fill:#00428A;}
	.st89{clip-path:url(#SVGID_99_);fill:#29ABE3;}
	.st90{clip-path:url(#SVGID_101_);}
	.st91{opacity:0.5;clip-path:url(#SVGID_105_);}
	.st92{clip-path:url(#SVGID_109_);fill:#DB0030;}
	.st93{clip-path:url(#SVGID_111_);fill:#DB0030;}
	.st94{clip-path:url(#SVGID_113_);}
	.st95{clip-path:url(#SVGID_117_);fill:#00428A;}
	.st96{clip-path:url(#SVGID_117_);fill:#29ABE3;}
	.st97{opacity:0.5;clip-path:url(#SVGID_117_);}
	.st98{clip-path:url(#SVGID_119_);fill:#DB0030;}
	.st99{clip-path:url(#SVGID_121_);}
	.st100{clip-path:url(#SVGID_125_);fill:#00428A;}
	.st101{clip-path:url(#SVGID_125_);fill:#29ABE3;}
	.st102{opacity:0.5;clip-path:url(#SVGID_125_);}
	.st103{clip-path:url(#SVGID_127_);fill:#DB0030;}
	.st104{clip-path:url(#SVGID_129_);}
	.st105{clip-path:url(#SVGID_131_);}
	.st106{clip-path:url(#SVGID_135_);fill:#004289;}
	.st107{clip-path:url(#SVGID_135_);fill:#29AAE2;}
	.st108{opacity:0.5;clip-path:url(#SVGID_135_);}
	.st109{clip-path:url(#SVGID_137_);fill:#DA0030;}
	.st110{clip-path:url(#SVGID_139_);}
	.st111{clip-path:url(#SVGID_143_);}
	.st112{clip-path:url(#SVGID_147_);fill:#004289;}
	.st113{clip-path:url(#SVGID_147_);fill:#29AAE2;}
	.st114{opacity:0.5;clip-path:url(#SVGID_147_);}
	.st115{clip-path:url(#SVGID_149_);fill:#DA0030;}
	.st116{clip-path:url(#SVGID_147_);}
	.st117{clip-path:url(#SVGID_151_);}
	.st118{clip-path:url(#SVGID_153_);fill:#DA0030;}
	.st119{clip-path:url(#SVGID_155_);fill:#29ABE3;}
	.st120{clip-path:url(#SVGID_155_);fill:#00428A;}
	.st121{fill:#0069B8;}
	.st122{fill:none;stroke:#989898;stroke-miterlimit:10;}
	.st123{clip-path:url(#SVGID_157_);}
	.st124{clip-path:url(#SVGID_161_);}
	.st125{clip-path:url(#SVGID_163_);}
	.st126{clip-path:url(#SVGID_165_);}
	.st127{fill:none;stroke:#CBCBCB;stroke-width:2;stroke-miterlimit:10;}
	.st128{fill:#989898;}
	.st129{clip-path:url(#SVGID_169_);}
	.st130{fill:none;stroke:#B2B2B2;stroke-miterlimit:10;}
	.st131{fill:#D6DCDC;}
	.st132{fill-rule:evenodd;clip-rule:evenodd;fill:#0069B8;}
	.st133{fill-rule:evenodd;clip-rule:evenodd;fill:#FFFFFF;}
	.st134{fill-rule:evenodd;clip-rule:evenodd;fill:none;stroke:#B2B2B2;stroke-miterlimit:10;}
	.st135{fill:#D4DCDC;}
	.st136{opacity:0.5;}
	.st137{clip-path:url(#SVGID_171_);}
	.st138{fill:none;stroke:#4D4D4D;stroke-width:2;stroke-miterlimit:10;}
	.st139{fill-rule:evenodd;clip-rule:evenodd;fill:none;stroke:#4D4D4D;stroke-width:2;stroke-miterlimit:10;}
	.st140{fill:none;stroke:#333333;stroke-width:2;stroke-miterlimit:10;}
	.st141{fill:none;stroke:#A1A1A1;stroke-width:3;stroke-miterlimit:10;}
	.st142{clip-path:url(#SVGID_173_);}
	.st143{clip-path:url(#SVGID_175_);}
	.st144{fill:url(#SVGID_176_);}
	.st145{fill:url(#SVGID_177_);}
	.st146{fill:#F4F4F4;}
	.st147{fill:#DFDFDF;}
	.st148{clip-path:url(#SVGID_179_);}
	.st149{clip-path:url(#SVGID_181_);}
	.st150{opacity:0.38;fill:#FFFFFF;}
	.st151{fill:none;stroke:#FFFFFF;stroke-miterlimit:10;stroke-dasharray:4,4;}
	.st152{fill:#004288;}
	.st153{fill:#FAFAFA;}
	.st154{fill:#7AE2DF;}
	.st155{fill:#29A9E1;}
	.st156{fill:none;stroke:#004288;stroke-width:2;stroke-miterlimit:10;}
	.st157{fill:none;stroke:#004288;stroke-width:3;stroke-miterlimit:10;}
	.st158{fill:#EAEAE8;}
	.st159{fill:#FF6166;}
	.st160{fill:#FFC43E;}
	.st161{fill:#4FAA5D;}
	.st162{fill:none;stroke:#0069B8;stroke-width:3;stroke-miterlimit:10;}
	.st163{fill:none;stroke:#ABA792;stroke-miterlimit:10;}
	.st164{fill:#F9F9F9;}
	.st165{fill:#98E2FF;}
	.st166{opacity:0.4;fill:#CBCBCB;}
	.st167{fill:#FFE774;}
	.st168{fill:#FCD0F1;}
	.st169{fill:none;stroke:#E5E5E5;stroke-miterlimit:10;stroke-dasharray:1;}
	.st170{fill:none;stroke:#ABA792;stroke-miterlimit:10;stroke-dasharray:1;}
	.st171{fill:#5A5A5A;}
	.st172{fill:#ABA792;}
	.st173{opacity:0.79;}
	.st174{fill:url(#SVGID_182_);}
	.st175{fill:#F5655A;}
	.st176{opacity:0.79;fill:none;stroke:url(#SVGID_183_);stroke-miterlimit:10;stroke-dasharray:1;}
	.st177{fill:none;stroke:#F5655A;stroke-width:2;stroke-miterlimit:10;}
	.st178{fill:none;stroke:#ABA792;stroke-width:2;stroke-miterlimit:10;}
	.st179{fill:none;stroke:#FFE774;stroke-miterlimit:10;}
	.st180{fill:none;stroke:#98E2FF;stroke-miterlimit:10;}
	.st181{fill:#0389D0;}
	.st182{opacity:0.4;fill:#5142BE;}
	.st183{fill:none;stroke:#0389D0;stroke-width:2;stroke-miterlimit:10;}
	.st184{fill:none;stroke:#FCD0F1;stroke-miterlimit:10;}
	.st185{fill:#71D2C1;}
	.st186{fill:none;stroke:#D4CEB6;stroke-miterlimit:10;}
	.st187{fill:url(#SVGID_184_);}
	.st188{opacity:0.5;fill:none;stroke:#D4CEB6;stroke-miterlimit:10;}
	.st189{fill:#71D2C1;stroke:#FFFFFF;stroke-miterlimit:10;}
	.st190{fill:#2C74BB;}
	.st191{fill:#7590F5;}
	.st192{fill:#1297CC;}
	.st193{fill:#1A8789;}
	.st194{fill:#30C7A4;}
	.st195{fill:#38B350;}
	.st196{fill:#FC9300;}
	.st197{fill:#F3C400;}
	.st198{fill:#FA6F00;}
	.st199{clip-path:url(#SVGID_186_);}
	.st200{clip-path:url(#SVGID_188_);}
	.st201{clip-path:url(#SVGID_192_);}
	.st202{clip-path:url(#SVGID_196_);}
	.st203{fill:url(#SVGID_199_);}
	.st204{clip-path:url(#SVGID_207_);}
	.st205{fill:#7B8E6A;}
	.st206{fill:url(#SVGID_210_);}
	.st207{clip-path:url(#SVGID_214_);}
	.st208{fill:#3333FF;}
	.st209{clip-path:url(#SVGID_216_);}
	.st210{fill:#B2B2B2;}
	.st211{clip-path:url(#SVGID_220_);}
	.st212{clip-path:url(#SVGID_222_);}
	.st213{fill:#005AA9;}
	.st214{clip-path:url(#SVGID_238_);}
	.st215{clip-path:url(#SVGID_240_);}
	.st216{clip-path:url(#SVGID_244_);}
	.st217{clip-path:url(#SVGID_246_);}
	.st218{clip-path:url(#SVGID_250_);}
	.st219{clip-path:url(#SVGID_254_);}
	.st220{fill:url(#SVGID_257_);}
	.st221{clip-path:url(#SVGID_265_);}
	.st222{fill:url(#SVGID_268_);}
	.st223{clip-path:url(#SVGID_272_);}
	.st224{clip-path:url(#SVGID_274_);}
	.st225{clip-path:url(#SVGID_278_);}
	.st226{clip-path:url(#SVGID_280_);}
	.st227{clip-path:url(#SVGID_296_);}
	.st228{clip-path:url(#SVGID_298_);}
	.st229{clip-path:url(#SVGID_302_);}
	.st230{clip-path:url(#SVGID_304_);}
	.st231{clip-path:url(#SVGID_308_);}
	.st232{clip-path:url(#SVGID_312_);}
	.st233{fill:url(#SVGID_315_);}
	.st234{clip-path:url(#SVGID_323_);}
	.st235{fill:url(#SVGID_326_);}
	.st236{clip-path:url(#SVGID_330_);}
	.st237{clip-path:url(#SVGID_332_);}
	.st238{clip-path:url(#SVGID_336_);}
	.st239{clip-path:url(#SVGID_338_);}
	.st240{clip-path:url(#SVGID_354_);}
	.st241{clip-path:url(#SVGID_356_);}
	.st242{clip-path:url(#SVGID_360_);}
	.st243{opacity:0.4;fill:url(#SVGID_363_);}
	.st244{clip-path:url(#SVGID_365_);}
	.st245{clip-path:url(#SVGID_367_);}
	.st246{opacity:4.000000e-02;}
	.st247{fill:url(#SVGID_368_);}
	.st248{fill:url(#SVGID_369_);}
	.st249{fill:#AFAFAF;}
	.st250{fill:url(#SVGID_370_);}
	.st251{fill:url(#SVGID_371_);}
	.st252{fill:url(#SVGID_372_);}
	.st253{fill:url(#SVGID_373_);}
	.st254{clip-path:url(#SVGID_375_);}
	.st255{fill:url(#SVGID_376_);}
	.st256{fill:url(#SVGID_377_);}
	.st257{fill:url(#SVGID_378_);}
	.st258{fill:url(#SVGID_379_);}
	.st259{fill:url(#SVGID_380_);}
	.st260{fill:url(#SVGID_381_);}
	.st261{fill:#EF7357;}
	.st262{fill:none;stroke:#EF7357;stroke-width:3;stroke-linecap:round;stroke-linejoin:round;stroke-miterlimit:10;}
	.st263{fill:none;stroke:#EF7357;stroke-width:3;stroke-miterlimit:10;}
	.st264{fill:none;stroke:#EF7357;stroke-width:2;stroke-miterlimit:10;}
	.st265{fill:none;stroke:#EF7357;stroke-width:7;stroke-linejoin:round;stroke-miterlimit:10;}
	.st266{fill:#D9ECF4;}
	.st267{fill:none;stroke:#FFFFFF;stroke-width:2;stroke-miterlimit:10;}
	.st268{fill-rule:evenodd;clip-rule:evenodd;fill:#EF7357;}
	.st269{fill:none;stroke:#5142BE;stroke-width:3;stroke-linecap:round;stroke-linejoin:round;stroke-miterlimit:10;}
	.st270{fill:none;stroke:#0389D0;stroke-width:3;stroke-linecap:round;stroke-miterlimit:10;}
	.st271{fill:#00CCAA;}
	.st272{fill:url(#SVGID_382_);}
	.st273{fill:url(#SVGID_383_);}
	.st274{fill:none;stroke:#D6DCDC;stroke-width:2;stroke-miterlimit:10;}
	.st275{fill:#AEAEAE;}
	.st276{fill:none;stroke:#0069B8;stroke-width:2;stroke-miterlimit:10;}
	.st277{fill:#FF5039;}
	.st278{fill:url(#SVGID_384_);}
	.st279{fill:url(#SVGID_385_);}
	.st280{fill:none;stroke:#0069B8;stroke-miterlimit:10;}
	.st281{fill:#7993F2;}
	.st282{fill:#009BCC;}
	.st283{fill:#10B571;}
	.st284{opacity:0.6;fill:url(#SVGID_386_);}
	.st285{fill:none;stroke:#4D4D4D;stroke-miterlimit:10;stroke-dasharray:3,3;}
	.st286{fill:none;stroke:#FFFFFF;stroke-miterlimit:10;}
	.st287{opacity:0.2;fill:none;stroke:#0069B8;stroke-width:2;stroke-miterlimit:10;}
	.st288{fill-rule:evenodd;clip-rule:evenodd;fill:#D6DCDC;}
	.st289{fill:#E5E5E5;}
	.st290{fill:none;stroke:#48C89F;stroke-width:2;stroke-miterlimit:10;}
	.st291{fill:none;stroke:#48C89F;stroke-width:3;stroke-linecap:round;stroke-miterlimit:10;}
	.st292{fill:url(#SVGID_387_);}
	.st293{fill:url(#SVGID_388_);}
	.st294{fill:url(#SVGID_389_);}
	.st295{fill:url(#SVGID_390_);}
	.st296{opacity:0.6;fill:url(#SVGID_391_);}
	.st297{fill:url(#SVGID_392_);}
	.st298{fill:url(#SVGID_393_);}
	.st299{fill:url(#SVGID_394_);}
	.st300{fill:url(#SVGID_395_);}
	.st301{opacity:0.6;fill:url(#SVGID_396_);}
	.st302{fill:#262D71;}
	.st303{fill:#D80033;}
	.st304{clip-path:url(#SVGID_402_);fill:#FFD938;}
	.st305{clip-path:url(#SVGID_402_);fill:#4F2600;}
	.st306{fill:#4F2600;}
	.st307{clip-path:url(#SVGID_404_);fill:#4F2600;}
	.st308{fill:#00ABDE;}
	.st309{fill:#87CCEB;}
	.st310{fill:#00ADDE;}
	.st311{fill:#00A8D9;}
	.st312{fill:#00A1D9;}
	.st313{fill:#40B5E0;}
	.st314{fill:#D4EBF7;}
	.st315{fill:#0DB0DE;}
	.st316{fill:#36383B;}
	.st317{fill:none;stroke:#36383B;stroke-width:0.124;}
	.st318{fill:none;stroke:#EF7357;stroke-width:2;stroke-linecap:round;stroke-miterlimit:10;}
	.st319{clip-path:url(#SVGID_406_);}
	.st320{fill:none;stroke:#333333;stroke-miterlimit:10;}
	.st321{fill:#1E1E1E;}
	.st322{fill:#DD2F12;}
	.st323{fill:#E45A36;}
	.st324{fill:none;stroke:#004288;stroke-miterlimit:10;}
	.st325{fill:none;stroke:#004288;stroke-miterlimit:10;stroke-dasharray:1.9976,1.9976;}
	.st326{fill:none;stroke:#004288;stroke-miterlimit:10;stroke-dasharray:2.0029,2.0029;}
	.st327{fill:#D5E4EF;stroke:#004286;stroke-width:2;stroke-miterlimit:10;}
	.st328{clip-path:url(#SVGID_408_);fill:#FFD938;}
	.st329{clip-path:url(#SVGID_408_);fill:#4F2600;}
	.st330{clip-path:url(#SVGID_410_);fill:#4F2600;}
	.st331{opacity:0.96;fill:url(#SVGID_411_);}
	.st332{clip-path:url(#SVGID_413_);fill:#FFD938;}
	.st333{clip-path:url(#SVGID_413_);fill:#4F2600;}
	.st334{clip-path:url(#SVGID_415_);fill:#4F2600;}
	.st335{clip-path:url(#SVGID_417_);fill:#FFD938;}
	.st336{clip-path:url(#SVGID_417_);fill:#4F2600;}
	.st337{clip-path:url(#SVGID_419_);fill:#4F2600;}
	.st338{clip-path:url(#SVGID_423_);}
	.st339{clip-path:url(#SVGID_425_);}
	.st340{clip-path:url(#SVGID_427_);}
	.st341{clip-path:url(#SVGID_431_);}
	.st342{clip-path:url(#SVGID_435_);}
	.st343{fill:url(#SVGID_438_);}
	.st344{clip-path:url(#SVGID_446_);}
	.st345{fill:url(#SVGID_449_);}
	.st346{clip-path:url(#SVGID_453_);}
	.st347{clip-path:url(#SVGID_455_);}
	.st348{clip-path:url(#SVGID_459_);}
	.st349{clip-path:url(#SVGID_461_);}
	.st350{clip-path:url(#SVGID_477_);}
	.st351{clip-path:url(#SVGID_479_);}
	.st352{opacity:0.69;}
	.st353{fill:#D0B7A7;}
	.st354{fill:#D0AB97;}
	.st355{fill:#444341;}
	.st356{fill:#F9C6BE;}
	.st357{fill:#121211;}
	.st358{fill:none;stroke:#FFFFFF;stroke-width:5;stroke-linecap:round;stroke-linejoin:round;stroke-miterlimit:10;}
	.st359{fill:#5142BE;}
	.st360{clip-path:url(#SVGID_483_);}
	.st361{clip-path:url(#SVGID_485_);}
	.st362{fill:#D7DDDD;}
	.st363{clip-path:url(#SVGID_489_);}
	.st364{clip-path:url(#SVGID_491_);}
	.st365{fill:url(#SVGID_492_);}
	.st366{fill:#2F4679;}
	.st367{fill:#F2F2F2;}
	.st368{fill:#A1A1A1;}
	.st369{fill-rule:evenodd;clip-rule:evenodd;fill:#A1A1A1;}
	.st370{clip-path:url(#SVGID_494_);}
	.st371{opacity:0.8;fill:url(#SVGID_497_);}
	.st372{fill:#488197;}
	.st373{clip-path:url(#SVGID_499_);}
	.st374{fill:url(#SVGID_500_);}
	.st375{fill:#3E7487;}
	.st376{opacity:0.79;fill:none;stroke:url(#SVGID_501_);stroke-miterlimit:10;stroke-dasharray:1;}
	.st377{fill:none;stroke:#3E7487;stroke-width:2;stroke-miterlimit:10;}
	.st378{fill:#00DF16;}
	.st379{opacity:0.4;fill:#00DF16;}
	.st380{fill:#4EB000;}
	.st381{fill:none;stroke:#00DF16;stroke-miterlimit:10;}
	.st382{fill:none;stroke:#3E7487;stroke-miterlimit:10;}
	.st383{fill:none;stroke:#4EB000;stroke-miterlimit:10;}
	.st384{clip-path:url(#SVGID_503_);}
	.st385{fill:none;stroke:#5142BE;stroke-width:2;stroke-miterlimit:10;}
</style>
<g>
	<g>
		<polygon class="st303" points="61.3,37.6 62.3,37.6 61.8,35.8 		"/>
		<path class="st303" d="M73.8,35.4c-0.7,0-0.9,0.7-0.9,1.3c0,0.6,0.2,1.4,0.9,1.4c0.7,0,0.9-0.6,0.9-1.4
			C74.8,36.1,74.5,35.4,73.8,35.4z"/>
		<path class="st303" d="M25.1,35.5h-0.7v0.9h0.6c0.5,0,0.7-0.1,0.7-0.4C25.7,35.7,25.4,35.5,25.1,35.5z"/>
		<path class="st303" d="M94.1,35.5h-0.7v0.9h0.6c0.5,0,0.7-0.1,0.7-0.4C94.7,35.7,94.4,35.5,94.1,35.5z"/>
		<path class="st303" d="M45,35.4c-0.7,0-0.9,0.7-0.9,1.3c0,0.6,0.2,1.4,0.9,1.4c0.7,0,0.9-0.6,0.9-1.4C45.9,36.1,45.7,35.4,45,35.4
			z"/>
		<path class="st303" d="M50.5,35.5h-0.7v0.9h0.6c0.5,0,0.7-0.1,0.7-0.4C51.1,35.7,50.8,35.5,50.5,35.5z"/>
		<path class="st303" d="M0,32.1v9.4h134.3v-9.4H0z M19.8,33.1h1.1v0.9h-1.1V33.1z M18.3,33.1h1.1v0.9h-1.1V33.1z M16.6,35.5h-2.1
			v0.9h1.7v1.1h-1.7v1.7h-1.6v-4.8h3.7V35.5z M21.9,37.1c0,1.5-0.7,2.2-2.3,2.2c-1.5,0-2.3-0.6-2.3-2.2v-2.7h1.6v2.9
			c0,0.5,0.1,0.9,0.7,0.9c0.6,0,0.7-0.4,0.7-0.9v-2.9h1.6V37.1z M27.3,39.2h-1.6c0-0.1-0.1-0.4-0.1-0.8c0-0.6-0.1-0.8-0.8-0.8h-0.5
			v1.7h-1.6v-4.8H25c1.6,0,2.1,0.4,2.1,1.4c0,0.5-0.2,1-0.8,1.2c0.5,0.2,0.8,0.3,0.8,1.3c0,0.6,0,0.8,0.2,0.8V39.2z M31.8,39.2h-1.6
			v-4.8h1.6V39.2z M37.4,39.2h-1.5l-1.7-2.6l0.1,1.1v1.5h-1.5v-4.8h1.5l1.7,2.6l-0.1-1.1v-1.5h1.5V39.2z M42,35.5h-2.1v0.9h1.7v1.1
			h-1.7v1.7h-1.6v-4.8H42V35.5z M45,39.3c-1.5,0-2.5-0.9-2.5-2.6c0-1.5,1-2.5,2.5-2.5c1.7,0,2.5,1.2,2.5,2.5
			C47.5,38.4,46.4,39.3,45,39.3z M52.7,39.2h-1.6c0-0.1-0.1-0.4-0.1-0.8c0-0.6-0.1-0.8-0.8-0.8h-0.5v1.7h-1.6v-4.8h2.3
			c1.6,0,2.1,0.4,2.1,1.4c0,0.5-0.2,1-0.8,1.2c0.5,0.2,0.8,0.3,0.8,1.3c0,0.6,0,0.8,0.2,0.8V39.2z M58.8,39.2h-1.4v-1.5l0-0.7
			l0.1-0.9h0l-0.9,3.1h-1.1l-0.9-3.1h0l0.1,0.7l0,0.7v1.6h-1.4v-4.8h1.9l0.8,3l0.8-3h1.9V39.2z M62.7,39.2l-0.2-0.6H61l-0.2,0.6
			h-1.5l1.7-4.8h1.6l1.7,4.8H62.7z M68.3,35.7h-1.4v3.5h-1.6v-3.5h-1.4v-1.3h4.4V35.7z M70.6,39.2H69v-4.8h1.6V39.2z M73.9,39.3
			c-1.5,0-2.5-0.9-2.5-2.6c0-1.5,1-2.5,2.5-2.5c1.7,0,2.5,1.2,2.5,2.5C76.4,38.4,75.3,39.3,73.9,39.3z M81.7,39.2h-1.5l-1.7-2.6
			l0.1,1.1v1.5h-1.5v-4.8h1.5l1.7,2.6l-0.1-1.1v-1.5h1.5V39.2z M84.5,39.3c-1.3,0-2.1-0.7-2.1-1.6h1.5c0,0.2,0.1,0.3,0.3,0.4
			c0.1,0.1,0.3,0.1,0.4,0.1c0.4,0,0.6-0.1,0.6-0.4c0-0.7-2.7-0.2-2.7-2c0-1,0.9-1.5,2.1-1.5c1.3,0,1.9,0.7,2,1.5h-1.5
			c0-0.2-0.1-0.3-0.2-0.3c-0.1-0.1-0.3-0.1-0.4-0.1c-0.3,0-0.5,0.1-0.5,0.3c0,0.7,2.7,0.3,2.7,2C86.7,38.8,85.8,39.3,84.5,39.3z
			 M91.1,35.5H89v0.9h1.7v1.1H89v1.7h-1.6v-4.8h3.7V35.5z M96.3,39.2h-1.6c0-0.1-0.1-0.4-0.1-0.8c0-0.6-0.1-0.8-0.8-0.8h-0.5v1.7
			h-1.6v-4.8H94c1.6,0,2.1,0.4,2.1,1.4c0,0.5-0.2,1-0.8,1.2c0.5,0.2,0.8,0.3,0.8,1.3c0,0.6,0,0.8,0.2,0.8V39.2z M101,39.2h-4v-4.8
			h3.9v1.1h-2.3v0.7h2v1.1h-2v0.7h2.4V39.2z M103.4,39.2h-1.6v-4.8h1.6V39.2z M108.9,39.2h-1.6v-1.9h-1.5v1.9h-1.6v-4.8h1.6V36h1.5
			v-1.6h1.6V39.2z M113.9,39.2h-4v-4.8h3.9v1.1h-2.3v0.7h2v1.1h-2v0.7h2.4V39.2z M116.3,39.2h-1.6v-4.8h1.6V39.2z M121.4,35.7h-1.4
			v3.5h-1.6v-3.5H117v-1.3h4.4V35.7z"/>
	</g>
	<g>
		<path d="M5.4,7.7h2.7c1,0,2.3-0.2,2.3-1.7c0-1.1-0.6-1.7-2.6-1.7H5.4V7.7z M0.2,0.4H10c2.9,0,5.5,1.6,5.5,4.8
			c0,1.7-0.8,3.6-2.5,4.2c1.4,0.5,2.3,2.1,2.5,4.2c0.1,0.8,0.1,2.8,0.6,3.6h-5.2c-0.3-0.8-0.4-1.7-0.4-2.6c-0.1-1.6-0.3-3.3-2.3-3.3
			H5.4v5.8H0.2V0.4z"/>
		<polygon points="17.6,0.4 31.4,0.4 31.4,4.7 22.7,4.7 22.7,6.8 30.6,6.8 30.6,10.8 22.7,10.8 22.7,12.8 31.7,12.8 31.7,17.1 
			17.6,17.1 		"/>
		<path d="M39.2,8.1h2c1.3,0,2.7-0.1,2.7-1.8c0-1.5-1.2-1.6-2.4-1.6h-2.3V8.1z M34.1,0.4h8.6c4.5,0,6.1,3.3,6.1,5.7
			c0,4.1-2.7,5.9-6.6,5.9h-3v5.1h-5.2V0.4z"/>
		<path d="M58.5,13.4c1.3,0,3.3-0.9,3.3-4.6c0-3.7-2-4.6-3.3-4.6S55.2,5,55.2,8.8C55.2,12.5,57.2,13.4,58.5,13.4 M58.5,0
			C63.6,0,67,3.7,67,8.8c0,5.1-3.4,8.8-8.5,8.8c-5.1,0-8.5-3.7-8.5-8.8C50.1,3.7,53.4,0,58.5,0"/>
		<path d="M74.3,7.7H77c1,0,2.3-0.2,2.3-1.7c0-1.1-0.6-1.7-2.6-1.7h-2.4V7.7z M69.2,0.4H79c2.9,0,5.5,1.6,5.5,4.8
			c0,1.7-0.8,3.6-2.5,4.2c1.4,0.5,2.3,2.1,2.5,4.2c0.1,0.8,0.1,2.8,0.6,3.6h-5.2c-0.3-0.8-0.4-1.7-0.4-2.6c-0.1-1.6-0.3-3.3-2.3-3.3
			h-2.7v5.8h-5.2V0.4z"/>
		<polygon points="90,4.7 85.3,4.7 85.3,0.4 99.9,0.4 99.9,4.7 95.2,4.7 95.2,17.1 90,17.1 		"/>
		<polygon points="101.8,0.4 115.6,0.4 115.6,4.7 106.9,4.7 106.9,6.8 114.8,6.8 114.8,10.8 106.9,10.8 106.9,12.8 115.9,12.8 
			115.9,17.1 101.8,17.1 		"/>
		<path d="M123.4,7.7h2.7c1,0,2.3-0.2,2.3-1.7c0-1.1-0.6-1.7-2.6-1.7h-2.4V7.7z M118.3,0.4h9.8c2.9,0,5.5,1.6,5.5,4.8
			c0,1.7-0.8,3.6-2.5,4.2c1.4,0.5,2.3,2.1,2.5,4.2c0.1,0.8,0.1,2.8,0.6,3.6h-5.2c-0.3-0.8-0.4-1.7-0.4-2.6c-0.1-1.6-0.3-3.3-2.3-3.3
			h-2.7v5.8h-5.2V0.4z"/>
		<path d="M6,27.8c0.9,0,2.3-0.6,2.3-3.2c0-2.6-1.4-3.2-2.3-3.2c-0.9,0-2.3,0.6-2.3,3.2C3.7,27.2,5.1,27.8,6,27.8 M6,18.5
			c3.5,0,5.9,2.5,5.9,6.1c0,3.6-2.4,6.1-5.9,6.1c-3.5,0-5.9-2.5-5.9-6.1C0.1,21,2.5,18.5,6,18.5"/>
		<polygon points="13.2,18.8 16.8,18.8 16.8,22.8 20.2,22.8 20.2,18.8 23.7,18.8 23.7,30.4 20.2,30.4 20.2,25.8 16.8,25.8 
			16.8,30.4 13.2,30.4 		"/>
		<polygon points="25.4,18.8 29,18.8 32.4,25 32.5,25 32.5,18.8 35.8,18.8 35.8,30.4 32.4,30.4 28.8,24.1 28.8,24.1 28.8,30.4 
			25.4,30.4 		"/>
		<polygon points="37.5,18.8 47.1,18.8 47.1,21.8 41.1,21.8 41.1,23.2 46.6,23.2 46.6,26 41.1,26 41.1,27.4 47.3,27.4 47.3,30.4 
			37.5,30.4 		"/>
		<path d="M62,29.3c-0.8,1-2,1.4-3.2,1.4c-3.3,0-5.3-2.6-5.3-5.7c0-4.3,3-6,5.5-6c2.8,0,4.6,1.5,5.1,4.2h-3.3
			c-0.1-0.8-0.8-1.4-1.6-1.4c-2.4,0-2.3,2.5-2.3,3.3c0,1,0.4,2.9,2.5,2.9c0.8,0,1.6-0.4,1.8-1.2h-1.5v-2.4h4.6v6.1h-2.2L62,29.3z"/>
		<path d="M69.4,23.9h1.9c0.7,0,1.6-0.1,1.6-1.2c0-0.7-0.4-1.2-1.8-1.2h-1.7V23.9z M65.8,18.8h6.8c2,0,3.8,1.1,3.8,3.3
			c0,1.2-0.6,2.5-1.7,2.9c1,0.4,1.6,1.5,1.7,2.9c0,0.6,0.1,2,0.4,2.5h-3.6c-0.2-0.6-0.2-1.2-0.3-1.8c-0.1-1.1-0.2-2.3-1.6-2.3h-1.9
			v4.1h-3.6V18.8z"/>
		<polygon points="77.8,18.8 87.4,18.8 87.4,21.8 81.3,21.8 81.3,23.2 86.8,23.2 86.8,26 81.3,26 81.3,27.4 87.6,27.4 87.6,30.4 
			77.8,30.4 		"/>
		<polygon points="89.1,18.8 92.8,18.8 96.2,25 96.2,25 96.2,18.8 99.6,18.8 99.6,30.4 96.1,30.4 92.5,24.1 92.5,24.1 92.5,30.4 
			89.1,30.4 		"/>
		<polygon points="100.8,27.6 106.2,21.8 101.1,21.8 101.1,18.8 110.9,18.8 110.9,21.4 105.4,27.4 111.2,27.4 111.2,30.4 
			100.8,30.4 		"/>
		<polygon points="112.3,18.8 121.9,18.8 121.9,21.8 115.9,21.8 115.9,23.2 121.4,23.2 121.4,26 115.9,26 115.9,27.4 122.1,27.4 
			122.1,30.4 112.3,30.4 		"/>
		<polygon points="130.7,18.8 130.7,25 130.7,25 127.3,18.8 123.6,18.8 123.6,30.4 127,30.4 127,24.1 127.1,24.1 130.6,30.4 
			134.1,30.4 134.1,18.8 		"/>
	</g>
</g>
</svg>
